<svg width="40" height="40" viewBox="0 0 40 40" fill="none" xmlns="http://www.w3.org/2000/svg">
<path d="M19.5777 10.6428C19.5777 6.60647 23.0202 3.33398 27.2679 3.33398C31.5152 3.33398 34.5981 6.49339 34.958 10.5156C35.5071 16.6529 30.6016 21.7914 24.6455 23.4266C26.6756 22.26 28.0916 20.231 28.3278 17.8714C27.9802 17.9183 27.6285 17.9515 27.268 17.9515C23.0206 17.9515 19.5779 14.6797 19.5779 10.6427L19.5777 10.6428Z" fill="url(#paint0_linear_2435_40786)"/>
<path d="M3.3336 10.6428C3.3336 6.60647 6.77606 3.33398 11.0237 3.33398C15.2706 3.33398 18.354 6.49339 18.7138 10.5156C19.2629 16.6529 14.3574 21.7914 8.40138 23.4266C10.4314 22.26 11.8472 20.231 12.0837 17.8714C11.7361 17.9183 11.3838 17.9515 11.0238 17.9515C6.77619 17.9515 3.33373 14.6797 3.33373 10.6427L3.3336 10.6428Z" fill="url(#paint1_linear_2435_40786)"/>
<defs>
<linearGradient id="paint0_linear_2435_40786" x1="19.5777" y1="23.4266" x2="37.01" y2="3.68794" gradientUnits="userSpaceOnUse">
<stop stop-color="#137EE7"/>
<stop offset="0.494792" stop-color="#C2418F"/>
<stop offset="1" stop-color="#EF1A4D"/>
</linearGradient>
<linearGradient id="paint1_linear_2435_40786" x1="3.3336" y1="23.4266" x2="20.7659" y2="3.68793" gradientUnits="userSpaceOnUse">
<stop stop-color="#137EE7"/>
<stop offset="0.494792" stop-color="#C2418F"/>
<stop offset="1" stop-color="#EF1A4D"/>
</linearGradient>
</defs>
</svg>
