<svg width="17.96" height="98.23" xmlns="http://www.w3.org/2000/svg" viewBox="0 0 17.96 98.23"><defs><style>.cls-1{fill:#d70a42;}</style></defs><g id="Слой_2" data-name="Слой 2"><g id="Слой_1-2" data-name="Слой 1"><path class="cls-1" d="M16.65,66.36c-.47-.93-1-1.9-1.61-2.93h0c-2.31-4-5.11-9-5.11-15.67V0a5.21,5.21,0,0,1-1,.18V47.76c0,7,3,12.21,5.29,16.26.57,1,1.1,1.92,1.54,2.79,1.12,2.24,1.57,4,.84,5.53s-2.84,3.2-7.35,4.9S2.16,80.09,1,81a3.16,3.16,0,0,0-.72.68,1.1,1.1,0,0,0-.21.85,1.25,1.25,0,0,0,.44.71,3.31,3.31,0,0,0,.74.45,19.81,19.81,0,0,0,2.16.81l.38.12c.76.25,1.59.52,2.47.85a19.86,19.86,0,0,1,6.06,3.32h0c1.1.81,3.11,3.81.76,9l.91.41c2.51-5.59.47-9.13-1.07-10.25a20.86,20.86,0,0,0-6.34-3.49c-.9-.33-1.75-.61-2.51-.86h0l-.37-.12a21.68,21.68,0,0,1-2.05-.76,2.33,2.33,0,0,1-.52-.31C1,82.36,1,82.32,1,82.31a.26.26,0,0,1,.05-.1,2.05,2.05,0,0,1,.49-.44C2.61,81,5.07,79.9,9.61,78.18s7-3.43,7.89-5.42S17.78,68.62,16.65,66.36Z"/></g></g></svg>