<svg width="22" height="56" xmlns="http://www.w3.org/2000/svg" viewBox="0 0 17.96 50.51"><defs><style>.cls-1{fill:#d70a42;}</style></defs><g id="Слой_2" data-name="Слой 2"><g id="Слой_1-2" data-name="Слой 1"><path class="cls-1" d="M16.65,18.64c-.47-.93-1-1.9-1.61-2.93h0C12.73,11.66,9.93,6.74,9.93,0H9.68a5.9,5.9,0,0,1-.75,0V0c0,7,3,12.21,5.29,16.26.57,1,1.1,1.93,1.54,2.79,1.12,2.24,1.57,4,.84,5.53s-2.84,3.2-7.35,4.9S2.16,32.37,1,33.24a3.16,3.16,0,0,0-.72.68,1.1,1.1,0,0,0-.21.85,1.25,1.25,0,0,0,.44.71,3.31,3.31,0,0,0,.74.45,19.81,19.81,0,0,0,2.16.81l.38.12c.76.25,1.59.52,2.47.85A20.07,20.07,0,0,1,12.27,41h0c1.1.81,3.11,3.82.76,9.05l.91.41c2.51-5.59.47-9.12-1.07-10.25a20.86,20.86,0,0,0-6.34-3.49c-.9-.33-1.75-.61-2.51-.86h0l-.37-.12A19.21,19.21,0,0,1,1.63,35a2.33,2.33,0,0,1-.52-.31A.36.36,0,0,1,1,34.59a.26.26,0,0,1,.05-.1,2.3,2.3,0,0,1,.49-.44c1.07-.77,3.53-1.87,8.07-3.59S16.56,27,17.5,25,17.78,20.9,16.65,18.64Z"/></g></g></svg>