<svg width="22" height="24" xmlns="http://www.w3.org/2000/svg" viewBox="0 0 19.34 20.12"><defs><style>.cls-1{fill:#d70a42;}</style></defs><g id="Слой_2" data-name="Слой 2"><g id="Слой_1-2" data-name="Слой 1"><path class="cls-1" d="M19.19,10.49a2.41,2.41,0,0,0-.55-.65,9.32,9.32,0,0,0-.78-.58c-.46-.3-1-.63-1.6-1h0l-.43-.25c-.73-.43-1.49-.89-2.17-1.38-1.41-1-2.33-2.07-2.33-3.21V0h-1V3.46c0,1.68,1.33,3,2.74,4,.73.52,1.52,1,2.26,1.43l.44.26c.58.34,1.1.64,1.54.93a5.29,5.29,0,0,1,.67.5,1.39,1.39,0,0,1,.33.36.27.27,0,0,1,0,.08h0a.51.51,0,0,1-.2.19,6.8,6.8,0,0,1-2.25.79c-1.21.27-2.88.55-5.12.83a35.17,35.17,0,0,0-9,2A3.42,3.42,0,0,0,.17,16.07,1.27,1.27,0,0,0,0,16.9a1.44,1.44,0,0,0,.36.73,4.31,4.31,0,0,0,1.54,1,14.64,14.64,0,0,0,2.31.74,26.41,26.41,0,0,0,5.83.66h.48v.06c.22,0,.44,0,.68,0l.32,0V20h0a.76.76,0,0,0-.22-.6.87.87,0,0,0-.46-.29,1.67,1.67,0,0,0-.43-.05h-.37a24.93,24.93,0,0,1-5.6-.64,12.6,12.6,0,0,1-2.14-.68A3.26,3.26,0,0,1,1.14,17,.51.51,0,0,1,1,16.74a.35.35,0,0,1,0-.18,2.46,2.46,0,0,1,1.18-.82c1.45-.66,4.18-1.32,8.67-1.89,2.26-.28,4-.56,5.22-.85a7.76,7.76,0,0,0,2.61-.94,1.37,1.37,0,0,0,.57-.71A1.09,1.09,0,0,0,19.19,10.49Z"/></g></g></svg>