<svg width="21" height="788" viewBox="0 0 21 788" fill="none" xmlns="http://www.w3.org/2000/svg">
<path fill-rule="evenodd" clip-rule="evenodd" d="M11.7705 4.11805V0.660156H10.7705V4.11805C10.7705 5.80273 12.1003 7.11984 13.5111 8.13881C14.2357 8.66218 15.0275 9.13869 15.7681 9.57173C15.9197 9.66036 16.0686 9.74689 16.2143 9.83152L16.2143 9.83153C16.7893 10.1656 17.3135 10.4702 17.7508 10.7586C18.023 10.9381 18.2485 11.103 18.4224 11.2553C18.6002 11.411 18.6998 11.5328 18.7472 11.6206C18.7693 11.6616 18.7751 11.6861 18.7766 11.6963C18.7777 11.7041 18.777 11.7065 18.776 11.7096C18.7731 11.7191 18.7457 11.7893 18.5834 11.9031C18.2475 12.1387 17.5579 12.4073 16.3312 12.688C15.1233 12.9644 13.4532 13.2404 11.2082 13.5224C6.69777 14.089 3.84535 14.7654 2.24501 15.4845C1.45825 15.838 0.882566 16.2409 0.610645 16.7283C0.466069 16.9874 0.408399 17.2697 0.455595 17.5574C0.501483 17.8372 0.639583 18.0813 0.816016 18.2876C1.16004 18.69 1.71511 19.0255 2.35573 19.3056C3.00837 19.591 3.80123 19.8407 4.67162 20.0471C6.41259 20.46 8.5072 20.7097 10.5009 20.7097C10.5537 20.7097 10.6003 20.7093 10.6434 20.709L10.6439 20.7089C10.7178 20.7083 10.7814 20.7077 10.8478 20.7095C10.9046 20.711 10.9474 20.7141 10.9796 20.718V20.768V20.8395V20.9267V21.1479V21.776V21.9714V22.182V22.4077V22.6485V22.9044V23.1752V23.461V23.7615V24.0769V24.407V24.7517V25.111V25.4849V25.8732V26.276V26.693V28.5036V32.7948V33.3928V34.0043V34.6291V35.2674V35.919V36.5838V37.2617V37.9528V38.6569V39.374V40.104V40.847V41.6027V42.3711V43.1523V43.946V44.7523V45.5711V46.4023V47.246V48.1019V48.97V49.8503V50.7428V51.6473V52.5639V54.4327V55.3848V56.3487V58.3116V62.3755V64.4756V65.5426V66.6206V67.7097V68.8098V71.0428V75.6383V80.403V81.6202V82.8476V85.333V90.4243V91.7219V93.0293V95.6731V98.3552V99.7105V101.075V103.833V105.225V106.627V108.038V109.458V110.886V112.324V115.226V116.69V118.163V119.644V121.134V122.632V124.139V130.249V372.671V737.537C10.9796 744.529 13.955 749.739 16.2708 753.794C16.8404 754.791 17.3702 755.718 17.8059 756.585C18.9296 758.821 19.3849 760.549 18.6472 762.11C17.8916 763.709 15.8083 765.309 11.3024 767.017C6.80579 768.721 4.2062 769.864 3.00364 770.729C2.69804 770.949 2.44968 771.173 2.28387 771.41C2.11322 771.655 2.00947 771.945 2.06632 772.261C2.12103 772.565 2.30801 772.797 2.50893 772.969C2.71097 773.142 2.96887 773.291 3.24964 773.425C3.81049 773.693 4.56889 773.951 5.41473 774.229C5.53647 774.269 5.66042 774.31 5.78642 774.352C6.54776 774.601 7.38382 774.876 8.25819 775.201C10.2976 775.958 12.5009 776.974 14.3166 778.522L14.3315 778.535L14.3474 778.547C15.4542 779.349 17.4592 782.358 15.1061 787.59L16.0181 788C18.5311 782.413 16.4877 778.878 14.951 777.749C13.0068 776.096 10.6823 775.034 8.60636 774.263C7.7138 773.932 6.85904 773.651 6.09911 773.402L6.09568 773.401L5.72779 773.28C4.86853 772.996 4.17346 772.758 3.68064 772.522C3.43458 772.405 3.2656 772.3 3.15922 772.209C3.07592 772.138 3.05539 772.096 3.05119 772.085C3.05331 772.073 3.06328 772.041 3.1036 771.983C3.17734 771.878 3.32405 771.73 3.58754 771.541C4.66135 770.768 7.12266 769.67 11.6568 767.952C16.1816 766.237 18.6137 764.521 19.5513 762.537C20.5069 760.515 19.8334 758.393 18.6994 756.136C18.2321 755.207 17.6786 754.235 17.0929 753.207L17.0916 753.205C14.7846 749.157 11.9796 744.235 11.9796 737.537V372.671V130.249V124.139V122.632V121.134V119.644V118.163V116.69V115.226V113.771V112.324V110.886V109.458V106.627V105.225V103.833V101.075V99.7105V98.3552V95.6731V94.3464V93.0293V91.7219V90.4243V85.333V82.8476V81.6202V80.403V75.6383V71.0428V69.9209V68.8098V67.7097V66.6206V65.5426V64.4756V63.42V62.3755V58.3116V56.3487V55.3848V54.4327V52.5639V51.6473V50.7428V43.946V43.1523V42.3711V41.6027V40.847V40.104V39.374V38.6569V37.9528V37.2617V36.5838V35.919V35.2674V34.6291V34.0043V33.3928V32.7948V28.5036V26.693V26.276V25.8732V25.4849V25.111V22.6485V22.4077V22.182V21.9714V21.776V21.1479V20.9267V20.8395V20.768V20.7124V20.6725V20.6486C11.9796 20.6476 11.9796 20.6467 11.9766 20.646C11.9761 20.3624 11.9046 20.2117 11.7632 20.0462C11.6236 19.8827 11.447 19.803 11.296 19.7625C11.1494 19.7231 10.9987 19.7131 10.8739 19.7098C10.7913 19.7077 10.6969 19.7084 10.6112 19.7091H10.611L10.6104 19.7091C10.5714 19.7094 10.5343 19.7097 10.5009 19.7097C8.5825 19.7097 6.56543 19.4685 4.90237 19.0741C4.07073 18.8769 3.33849 18.6439 2.75635 18.3893C2.16218 18.1295 1.7728 17.8679 1.5761 17.6378C1.48217 17.5279 1.45084 17.447 1.44241 17.3956C1.43529 17.3521 1.43841 17.2971 1.48391 17.2155C1.59214 17.0216 1.91377 16.7296 2.65486 16.3966C4.11024 15.7427 6.83576 15.0795 11.3328 14.5146C13.5916 14.2309 15.2992 13.95 16.5543 13.6628C17.7906 13.38 18.6491 13.0784 19.1576 12.7218C19.4176 12.5395 19.6366 12.308 19.7304 12.0084C19.829 11.6933 19.7615 11.3944 19.6272 11.1457C19.4987 10.9076 19.2993 10.694 19.0812 10.503C18.8593 10.3086 18.5921 10.1155 18.3014 9.92379C17.8379 9.61816 17.2812 9.29476 16.7034 8.95912L16.7032 8.95897C16.5607 8.87619 16.4169 8.79266 16.2729 8.70847C15.5357 8.27743 14.7794 7.82135 14.0966 7.32816C12.6925 6.31399 11.7705 5.26207 11.7705 4.11805ZM3.05086 772.091C3.05068 772.091 3.05053 772.09 3.05095 772.087C3.05125 772.09 3.05104 772.091 3.05086 772.091Z" fill="#D70A42"/>
</svg>
