<svg width="16" height="16" viewBox="0 0 16 16" fill="none" xmlns="http://www.w3.org/2000/svg">
<rect width="16" height="16" fill="white"/>
<path d="M10.4714 3.80457C10.7318 3.54422 10.7318 3.12212 10.4714 2.86177C10.2111 2.60142 9.78895 2.60142 9.5286 2.86177L7.33333 5.05703L6.4714 4.1951C6.21106 3.93475 5.78894 3.93475 5.5286 4.1951C5.26825 4.45545 5.26825 4.87756 5.5286 5.13791L6.86193 6.47124C7.12228 6.73159 7.54439 6.73159 7.80474 6.47124L10.4714 3.80457Z" fill="#1E76E2"/>
<path fill-rule="evenodd" clip-rule="evenodd" d="M2 0V0.999837V14H3.5H14V12.9998V0H12.5H2ZM3 0.999837H13V12.9998H3V0.999837Z" fill="#1E76E2"/>
<rect x="5" y="8" width="6" height="1" fill="#1E76E2"/>
<rect x="5" y="10" width="4" height="1" fill="#1E76E2"/>
</svg>
