<svg width="19" height="20" viewBox="0 0 19 20" fill="none" xmlns="http://www.w3.org/2000/svg">
<ellipse rx="6.75553" ry="5.96064" transform="matrix(0.970006 -0.24308 0.243524 0.969895 9.73103 9.65859)" fill="#D70A42"/>
<ellipse rx="6.46962" ry="5.67605" transform="matrix(0.967872 0.251442 -0.251899 0.967754 8.68745 9.1178)" fill="#1E76E2"/>
<ellipse cx="9.23828" cy="9.99029" rx="6" ry="5.99419" fill="white"/>
<path d="M14.2343 13.6493C13.2849 14.6921 11.8501 15.138 10.2721 14.9883C8.69403 14.8387 6.98936 14.0927 5.5418 12.7748C4.09425 11.4569 3.1921 9.82949 2.89544 8.27233C2.59881 6.71527 2.90854 5.24501 3.85793 4.20222C4.80732 3.15944 6.24216 2.71352 7.82014 2.86318C9.39823 3.01285 11.1029 3.75879 12.5505 5.0767C13.998 6.39461 14.9002 8.02202 15.1968 9.57918C15.4934 11.1362 15.1837 12.6065 14.2343 13.6493Z" stroke="#1E76E2" stroke-width="0.5"/>
<path d="M6.6654 15.7972C3.95773 14.2354 3.2363 10.2677 5.1867 6.89276C7.13711 3.51783 10.9373 2.15815 13.645 3.71991C16.3526 5.28167 17.0741 9.24938 15.1236 12.6243C13.1732 15.9992 9.37307 17.3589 6.6654 15.7972Z" stroke="#D70A42" stroke-width="0.5"/>
<ellipse cx="9.49609" cy="9.49172" rx="2.5" ry="2.49758" fill="#1E76E2"/>
</svg>
