<svg width="80" height="80" viewBox="0 0 80 80" fill="none" xmlns="http://www.w3.org/2000/svg">
<mask id="mask0_2053_26039" style="mask-type:alpha" maskUnits="userSpaceOnUse" x="13" y="9" width="54" height="62">
<path fill-rule="evenodd" clip-rule="evenodd" d="M29.6647 12.2242C30.5665 10.8717 31.8271 10.8246 32.5853 11.2036C32.9645 11.3931 33.5022 11.7826 33.8524 12.3645C34.1583 12.8726 34.3561 13.5797 34.1057 14.5672C33.0973 15.6505 31.9963 17.1823 31.206 18.8139C30.3867 20.5056 29.8071 22.499 30.2468 24.2573C31.3946 28.8476 34.4697 30.6179 37.9558 32.3739C37.8507 35.6632 36.889 37.8022 35.3361 39.7021C34.4916 40.7352 33.4595 41.7123 32.245 42.7755C31.755 43.2044 31.2163 43.6633 30.6489 44.1465L30.6487 44.1467C29.8592 44.8191 29.0144 45.5388 28.1684 46.2906C25.771 48.4211 24.9078 51.1913 24.7823 53.6655C24.7221 54.8523 24.8298 55.993 25.0287 56.9964C24.7643 56.8646 24.5182 56.749 24.2996 56.6515C23.9829 55.6538 23.4943 54.7392 22.999 53.8121C22.9287 53.6805 22.8582 53.5485 22.7881 53.4161C22.1302 52.1737 21.4222 50.7551 20.8542 48.7676C18.8731 41.8354 21.0066 34.9969 23.639 28.3622C23.8296 27.8816 24.0362 27.4911 24.2476 27.0915C24.7325 26.1751 25.2426 25.2107 25.6444 23.0018C26.0267 20.8996 26.4693 19.1836 26.9292 17.769C27.8457 14.9502 28.8354 13.467 29.6126 12.3022L29.6647 12.2242ZM33.006 19.6857C33.737 18.1763 34.7808 16.7502 35.6874 15.8051C37.316 14.425 39.9967 13.5569 42.8515 13.3564C45.7241 13.1546 48.5431 13.6451 50.3717 14.742C51.4374 15.3813 52.378 16.0441 53.1352 16.6258C49.7219 16.9352 45.681 17.6634 42.5375 19.3838C40.5418 20.476 38.836 22.0071 37.9277 24.1502C37.2397 25.7735 37.0445 27.6652 37.4393 29.8488C34.7764 28.3956 32.9718 26.9106 32.187 23.7721C31.9208 22.7074 32.2489 21.2488 33.006 19.6857ZM61.2435 14.1477L55.8742 16.295C54.9956 15.5067 53.3973 14.2247 51.4005 13.0269C49.0986 11.6461 45.8242 11.1426 42.7114 11.3613C40.4137 11.5227 38.0787 12.0864 36.1796 13.0885C36.0929 12.4258 35.8704 11.8388 35.5659 11.333C34.9706 10.3441 34.1011 9.72531 33.4795 9.41462C31.8535 8.60181 29.483 8.89165 28.0007 11.1146L27.9529 11.1863C27.2026 12.3108 26.206 13.8047 25.272 16.4309L17.2439 16.1115L17.2241 16.1107H17.2042C16.0975 16.1107 15.1791 16.5017 14.5363 17.1836C13.9072 17.8512 13.6113 18.7235 13.5873 19.5823C13.5578 20.6414 13.9429 21.7671 14.7344 22.6163C13.8373 23.3831 13.3583 24.5762 13.2943 25.6009C13.2397 26.4752 13.4529 27.4459 14.122 28.1575C14.8106 28.8897 15.8203 29.1785 16.9949 28.9934H21.2458C18.8383 35.2803 16.897 42.1991 18.9312 49.3172C19.5553 51.501 20.3373 53.0618 21.0206 54.352C21.0906 54.4842 21.1588 54.6124 21.2251 54.737L21.226 54.7386C21.82 55.8545 22.2639 56.6883 22.4988 57.6275C22.7085 58.4663 22.8564 60.2495 22.9468 62.2421C23.0353 64.1953 23.0649 66.2357 23.0649 67.5152H25.0649C25.0649 66.2124 25.0349 64.1411 24.9447 62.1515C24.8968 61.0951 24.8308 60.0269 24.7379 59.0998C25.2116 59.3576 25.7199 59.6604 26.2072 59.9961C30.9793 63.2838 34.8314 64.992 39.9124 67.2453C40.2314 67.3867 40.5553 67.5304 40.8846 67.6767C43.6892 68.9229 48.2789 70.0214 52.4352 70.5879C54.5219 70.8723 56.5402 71.0284 58.2076 70.9952C59.0404 70.9785 59.8098 70.9143 60.4679 70.7864C61.1043 70.6626 61.7372 70.461 62.2147 70.1029C63.6573 69.0213 64.6912 67.2888 65.2808 64.601C65.8669 61.9295 66.0335 58.2322 65.6868 53.0922C65.2994 47.3489 64.2298 43.3182 63.0761 40.4334C62.1357 38.0819 61.1354 36.4941 60.4753 35.4464L60.4752 35.4462C60.3282 35.2128 60.198 35.0063 60.0892 34.824C57.9884 31.3063 55.9731 28.005 53.2697 25.2513C55.3508 25.1016 57.0975 24.9126 58.7773 24.3978C61.0926 23.6883 63.2275 22.3846 66.0393 19.9007C66.7378 19.2837 66.7948 18.4072 66.6471 17.7249C66.4983 17.0377 66.1179 16.3565 65.6418 15.787C64.7352 14.7026 63.0951 13.6096 61.3382 14.1152L61.29 14.1291L61.2435 14.1477ZM17.1858 18.1108L24.6455 18.4076C24.3577 19.4227 24.0837 20.5551 23.8325 21.8229H17.0726C16.0689 21.458 15.562 20.5178 15.5866 19.6381C15.5991 19.1876 15.7516 18.8102 15.9918 18.5554C16.2162 18.3173 16.5829 18.1148 17.1858 18.1108ZM16.912 23.8229H23.4273C23.169 24.854 22.9109 25.3285 22.5936 25.9117C22.4299 26.2128 22.2503 26.5428 22.0468 26.9934H16.912H16.8241L16.7375 27.0087C16.0326 27.1337 15.7243 26.9419 15.579 26.7874C15.3964 26.5932 15.259 26.2288 15.2904 25.7255C15.3584 24.6367 16.0751 23.8229 16.912 23.8229ZM50.5649 25.4484C52.9152 27.4906 54.7268 29.9689 56.5165 32.8056C55.8103 32.6549 55.062 32.5541 54.3273 32.4797C53.4536 32.3912 52.5563 32.3365 51.738 32.2867C51.5007 32.2723 51.2701 32.2582 51.0486 32.2439C50.0227 32.1774 49.2369 32.1061 48.7444 31.983C48.1001 31.822 47.616 31.6092 47.255 31.3746C47.0775 31.1492 46.8802 30.9094 46.6827 30.6693C46.5602 30.5204 46.4375 30.3713 46.3194 30.2254C46.1763 29.7577 46.2121 29.2024 46.4549 28.5929C47.0352 27.1356 48.6683 25.7335 50.5649 25.4484ZM45.8543 32.8332C45.3526 32.4517 44.96 31.9986 44.6841 31.4799C44.0611 30.3085 44.1395 29.0013 44.5968 27.8529C45.4915 25.6062 47.9653 23.6019 50.8193 23.4107C51.0892 23.3926 51.3513 23.3754 51.6059 23.3586C54.4427 23.1719 56.3647 23.0454 58.1913 22.4856C60.1316 21.891 62.0173 20.7838 64.7062 18.4098C64.7157 18.3817 64.7268 18.307 64.6924 18.1481C64.6294 17.857 64.4354 17.4622 64.1074 17.0698C63.4208 16.2485 62.5564 15.8729 61.9319 16.0264L56.0257 18.3883L55.8681 18.4514L55.6986 18.4589C51.9748 18.6236 47.0136 19.2141 43.4977 21.1382C41.7608 22.0888 40.4494 23.3254 39.7692 24.9306C39.0928 26.5265 38.9791 28.6316 39.9144 31.446L39.9654 31.5996V31.7614C39.9654 35.8548 38.8295 38.5885 36.8846 40.9678C35.933 42.132 34.8005 43.1964 33.5623 44.2803C33.0153 44.7593 32.4665 45.2262 31.9009 45.7076L31.9008 45.7076C31.1421 46.3533 30.3531 47.0247 29.497 47.7855C27.6029 49.4687 26.886 51.6733 26.7797 53.7668C26.6802 55.7283 27.1236 57.5088 27.5628 58.5007C32.0756 61.5812 35.7352 63.2045 40.7547 65.4309L40.7548 65.4309C41.0634 65.5679 41.3772 65.707 41.6967 65.849C44.2564 66.9864 48.6367 68.0517 52.7053 68.6063C54.7311 68.8824 56.639 69.0261 58.1677 68.9956C58.933 68.9803 59.5792 68.9217 60.0861 68.8231C60.6146 68.7204 60.8963 68.5917 61.0149 68.5028C61.9564 67.7968 62.8038 66.5588 63.3273 64.1725C63.8543 61.7699 64.0328 58.2893 63.6913 53.2268C63.3167 47.6733 62.2884 43.8498 61.2191 41.176C60.3533 39.0111 59.4643 37.5973 58.8037 36.5468C58.6456 36.2953 58.5006 36.0646 58.3721 35.8495C58.2037 35.5675 57.7901 35.2574 56.9794 34.9934C56.1955 34.7381 55.2067 34.579 54.1258 34.4695C53.2961 34.3854 52.454 34.3341 51.6422 34.2847L51.6408 34.2846C51.3972 34.2697 51.1563 34.2551 50.9193 34.2397C50.047 34.1832 49.1853 34.116 48.5139 33.9804C48.5456 34.3367 48.5164 34.7075 48.4109 35.0932C48.2308 35.7518 47.8461 36.3884 47.2908 37.0336C47.0762 37.3574 46.8078 37.9366 46.729 38.5886C46.6498 39.2437 46.7634 39.9268 47.2696 40.5433C47.5635 40.9013 48.2111 41.5178 49.1343 42.3209C50.0386 43.1076 51.1547 44.0289 52.3412 44.9828C53.6552 46.0391 55.0489 47.1304 56.3255 48.1153C56.7065 48.4092 57.6245 48.8196 58.8061 49.1609C59.9586 49.4937 61.1982 49.7139 62.1432 49.7139V51.7139C60.9453 51.7139 59.5083 51.4454 58.2511 51.0823C57.7463 50.9365 57.242 50.7673 56.7749 50.5814C56.8128 51.2072 56.8744 51.9509 56.9741 52.7171C57.1042 53.7174 57.2949 54.7205 57.5675 55.5401C57.8566 56.4092 58.1716 56.8643 58.4122 57.0247L57.3028 58.6888C56.4719 58.1349 55.9833 57.1141 55.6697 56.1713C55.3396 55.1788 55.1285 54.0337 54.9908 52.9752C54.8522 51.9097 54.7834 50.8956 54.7491 50.1505C54.7356 49.8569 54.7274 49.6038 54.7224 49.4041C53.9951 48.8411 53.2363 48.2486 52.4804 47.6511C52.3991 47.9204 52.3054 48.2002 52.2073 48.4839C52.1313 48.7038 52.0514 48.9298 51.9692 49.1621L51.9692 49.1622L51.9692 49.1623C51.6352 50.1067 51.2645 51.1549 50.9698 52.3199C50.5651 53.9193 50.8969 55.9438 51.585 57.8726C52.2689 59.7894 53.2387 61.4292 53.9034 62.2071L52.383 63.5064C51.5238 62.5011 50.446 60.632 49.7013 58.5447C48.9609 56.4694 48.4831 53.9944 49.0309 51.8294C49.3506 50.5654 49.7598 49.4095 50.0955 48.461L50.0961 48.4594C50.1745 48.238 50.2488 48.0279 50.3171 47.8304C50.5031 47.2924 50.6377 46.8668 50.71 46.5294C50.7328 46.4233 50.7463 46.3388 50.7543 46.2725C49.6808 45.4053 48.6663 44.5647 47.8215 43.8298L47.6888 43.714C47.6549 44.1713 47.5868 44.6592 47.4717 45.1643C47.1942 46.383 46.3576 47.6941 45.3307 49.1602L46.4194 57.0057L44.4384 57.2806L43.5205 50.6658C43.3154 50.7838 43.1022 50.8999 42.8852 51.0133C42.01 51.4705 40.9722 51.934 39.9204 52.3483C38.8684 52.7628 37.7863 53.1345 36.8207 53.4042C35.881 53.6667 34.9665 53.8574 34.286 53.8574V51.8574C34.6769 51.8574 35.3696 51.733 36.2826 51.4779C37.1696 51.2302 38.1858 50.8821 39.1873 50.4875C40.1892 50.0928 41.1602 49.658 41.9591 49.2406C42.7306 48.8375 43.2609 48.4916 43.5248 48.2514C44.6771 46.6173 45.3315 45.5552 45.5217 44.7202C45.8385 43.3293 45.699 42.1378 45.5837 41.6332C45.0456 40.9099 44.7964 40.1379 44.7273 39.402C44.0643 40.0874 43.3921 40.8831 42.7813 41.6469C42.3154 42.2293 41.8995 42.7748 41.5628 43.2165L41.5625 43.2169L41.4829 43.3213C41.31 43.5479 41.1559 43.7493 41.0324 43.9049C40.9344 44.0283 40.7882 44.2115 40.6553 44.3267L39.3453 42.8154C39.3415 42.8187 39.3383 42.8215 39.3358 42.8237C39.3317 42.8273 39.3294 42.8292 39.3292 42.829C39.3289 42.8287 39.3333 42.8234 39.3433 42.8116C39.3622 42.7892 39.4013 42.7429 39.466 42.6614C39.5753 42.5237 39.7174 42.3382 39.8927 42.1083L39.9733 42.0026C40.3092 41.562 40.7383 40.9992 41.2193 40.3977C42.2438 39.1168 43.5722 37.5721 44.8224 36.6185C45.1957 36.3338 45.4983 36.046 45.7433 35.7653C46.2037 35.238 46.4041 34.8494 46.4818 34.5655C46.5527 34.3062 46.537 34.0793 46.4435 33.8208C46.344 33.5461 46.1555 33.2339 45.8543 32.8332ZM64.7056 18.4114C64.6996 18.4184 64.698 18.423 64.6986 18.4235C64.6987 18.4236 64.6988 18.4236 64.6989 18.4236C64.6999 18.4232 64.7027 18.4196 64.7056 18.4114Z" fill="#F2B9C9"/>
</mask>
<g mask="url(#mask0_2053_26039)">
<path fill-rule="evenodd" clip-rule="evenodd" d="M30.0211 12.4626C30.7985 11.2967 31.8213 11.3015 32.3935 11.5876C32.7208 11.7512 33.1873 12.0915 33.4851 12.5862C33.7227 12.981 33.8977 13.5406 33.7147 14.3593C32.7 15.4667 31.6098 16.9973 30.8201 18.6277C29.9875 20.347 29.354 22.455 29.8308 24.3619C31 29.0374 34.1159 30.909 37.5164 32.6329C37.3715 35.6744 36.4536 37.6581 35.0041 39.4315C34.1826 40.4365 33.1719 41.3949 31.9625 42.4537C31.4847 42.872 30.9486 43.3287 30.3813 43.812C29.5852 44.4901 28.7274 45.2209 27.8835 45.9709C25.3782 48.1973 24.4838 51.0887 24.3541 53.6444C24.3183 54.3493 24.3399 55.039 24.4041 55.6959C24.1033 54.9694 23.7362 54.2828 23.3772 53.6112C23.3065 53.479 23.2361 53.3474 23.1666 53.2162C22.5142 51.9841 21.822 50.5959 21.2661 48.6505C19.3282 41.8696 21.4057 35.1534 24.0371 28.5209C24.2037 28.1011 24.3959 27.7366 24.5992 27.3512C25.093 26.4149 25.6519 25.3553 26.0658 23.0792C26.4451 20.9939 26.8833 19.2966 27.3366 17.9022C28.2349 15.1395 29.1993 13.6941 29.968 12.5421L30.0211 12.4626ZM33.3916 19.8731C34.0979 18.4146 35.1076 17.0329 35.9811 16.1186C37.5161 14.8273 40.0866 13.9809 42.8813 13.7846C45.7024 13.5864 48.4239 14.0741 50.1511 15.1102C50.8189 15.5108 51.4366 15.9207 51.9891 16.3129C48.8 16.678 45.2086 17.434 42.3316 19.0085C40.2804 20.1311 38.49 21.7252 37.5329 23.9836C36.9032 25.4695 36.6719 27.1537 36.887 29.0431C34.697 27.7456 33.2708 26.3411 32.6026 23.6688C32.3736 22.7528 32.6478 21.4088 33.3916 19.8731ZM55.9602 15.7996C55.0308 14.9874 53.4985 13.7864 51.6208 12.66C49.2174 11.2184 45.8454 10.7122 42.6812 10.9344C40.5472 11.0843 38.3581 11.5762 36.4935 12.4538C36.3692 11.9637 36.1754 11.5155 35.9329 11.1127C35.2851 10.0365 34.3444 9.36859 33.671 9.03194C31.859 8.12617 29.2506 8.46801 27.6439 10.8775L27.597 10.9479C26.8674 12.0415 25.8961 13.4973 24.9757 15.9909L17.2324 15.6828H17.204C15.9918 15.6828 14.9561 16.1138 14.2243 16.8904C13.5118 17.6464 13.1851 18.6248 13.1587 19.571C13.1299 20.6049 13.4606 21.6983 14.1454 22.5852C13.3469 23.4342 12.9276 24.5944 12.8664 25.5748C12.8068 26.5287 13.0362 27.6293 13.8096 28.4518C14.6083 29.3011 15.7576 29.6139 17.0275 29.4226H20.6245C18.3132 35.5755 16.5083 42.4001 18.5189 49.4356C19.155 51.6615 19.953 53.2527 20.6416 54.5532C20.7111 54.6843 20.7784 54.8108 20.8435 54.9333C21.4435 56.0611 21.8614 56.8468 22.0828 57.7321C22.2803 58.5218 22.4277 60.2606 22.5184 62.2622C22.6067 64.2076 22.6362 66.2414 22.6362 67.5158H25.4933C25.4933 66.2081 25.4632 64.1301 25.3727 62.1327C25.3384 61.3765 25.2946 60.6061 25.2374 59.8812C25.4802 60.0283 25.7247 60.185 25.9638 60.3497C30.7697 63.6606 34.655 65.3835 39.7321 67.6349C40.0533 67.7773 40.3792 67.9218 40.7104 68.069C43.5675 69.3385 48.202 70.4442 52.3772 71.0132C54.4769 71.2994 56.5189 71.4582 58.216 71.4243C59.0632 71.4074 59.859 71.342 60.5495 71.2077C61.2091 71.0795 61.9172 70.8622 62.4716 70.4465C64.0215 69.2843 65.0954 67.4459 65.6992 64.6935C66.2979 61.9644 66.462 58.2207 66.1142 53.0641C65.724 47.28 64.6456 43.2049 63.4738 40.2749C62.5173 37.883 61.4927 36.2574 60.8334 35.2114C60.6888 34.9821 60.5618 34.7805 60.4569 34.6049C58.522 31.3648 56.6376 28.2679 54.1996 25.61C55.9128 25.4656 57.4325 25.2588 58.9027 24.8082C61.2979 24.0742 63.4857 22.7288 66.3228 20.2226C67.1822 19.4634 67.2314 18.3999 67.0658 17.6349C66.8986 16.8628 66.4782 16.1202 65.9704 15.5128C65.0199 14.3758 63.2185 13.1288 61.2195 13.7041L61.1507 13.7239L55.9602 15.7996ZM17.1789 18.5401L24.0885 18.815C23.8762 19.6066 23.6727 20.4641 23.4816 21.395H17.1521C16.3853 21.0831 15.9953 20.3482 16.0148 19.6507C16.0249 19.2878 16.1467 19.0164 16.3035 18.85C16.4387 18.7065 16.6873 18.5454 17.1789 18.5401ZM16.9118 24.2521H22.8654C22.6734 24.8705 22.4765 25.2289 22.2364 25.6662C22.098 25.9182 21.9452 26.1963 21.7707 26.5655H16.7862L16.6625 26.5874C16.0752 26.6915 15.9204 26.5259 15.8921 26.4957L15.891 26.4944C15.8127 26.4111 15.6915 26.1767 15.718 25.7529C15.7437 25.3411 15.9045 24.9264 16.1422 24.6406C16.3613 24.3772 16.6122 24.2521 16.9118 24.2521ZM40.9355 65.043C35.9498 62.8315 32.3395 61.23 27.907 58.2174C27.5117 57.2693 27.115 55.6144 27.2076 53.7892C27.3097 51.7772 27.9953 49.6939 29.7815 48.1066C30.6396 47.344 31.4171 46.6824 32.1691 46.0427C32.734 45.562 33.285 45.0932 33.8444 44.6035C35.0877 43.5151 36.2417 42.432 37.2162 41.2397C39.2249 38.7824 40.3938 35.9524 40.3938 31.762V31.5309L40.3209 31.3115C39.4096 28.5691 39.5377 26.5752 40.1636 25.0985C40.795 23.6086 42.0219 22.435 43.7032 21.5149C47.1263 19.6415 52.0008 19.0521 55.7174 18.8877L55.9596 18.877L62.059 16.4378C62.4545 16.358 63.1478 16.5911 63.7784 17.3454C64.0671 17.6907 64.2207 18.0161 64.2697 18.2233C61.6883 20.4816 59.8903 21.5173 58.0656 22.0765C56.2889 22.6209 54.4182 22.7443 51.5603 22.9327L51.5585 22.9328C51.3101 22.9492 51.0543 22.9661 50.7904 22.9837C47.7661 23.1864 45.1521 25.3003 44.1984 27.695C43.7074 28.9281 43.6088 30.3718 44.3056 31.6819C44.7038 32.4305 45.3122 33.0428 46.0969 33.5146C46.0997 33.5886 46.0899 33.6607 46.0684 33.7394C46.0136 33.9396 45.8557 34.2718 45.4204 34.7705C45.1951 35.0286 44.9137 35.2967 44.5625 35.5647C43.2662 36.5534 41.9093 38.1357 40.8846 39.417C40.4003 40.0226 39.9683 40.5892 39.6326 41.0295L39.5519 41.1354C39.3761 41.3659 39.2366 41.548 39.1303 41.6819C39.0741 41.7526 39.0405 41.7926 39.0249 41.8112C39.0175 41.82 39.0143 41.8242 39.0143 41.8242C39.0143 41.8242 39.0171 41.8218 39.022 41.8172C39.0302 41.8094 39.0449 41.7956 39.0646 41.7785L40.936 43.9375C41.1019 43.7937 41.2709 43.5807 41.3624 43.4655L41.368 43.4584C41.4946 43.2989 41.6513 43.0941 41.8237 42.8681L41.903 42.7641C42.24 42.3221 42.6532 41.78 43.1159 41.2015C43.5472 40.6622 44.0041 40.1137 44.4625 39.603C44.604 40.1058 44.8352 40.612 45.1838 41.0993C45.2806 41.5837 45.3894 42.658 45.1038 43.9119C44.9226 44.7074 44.2638 46.1057 43.2001 47.6327C42.9561 47.8475 42.4631 48.1843 41.7241 48.5982C40.9364 49.0393 39.9759 49.5096 38.9842 49.9407C37.9921 50.3721 36.9915 50.7544 36.1246 51.026C35.2145 51.3111 34.5887 51.4294 34.286 51.4294V54.2866C35.0547 54.2866 36.0361 54.0478 36.9787 53.7525C37.9645 53.4437 39.0621 53.0224 40.1235 52.5609C41.1854 52.0992 42.2339 51.5874 43.1202 51.091L43.1764 51.0594L44.0128 57.3325L46.8449 56.9549L45.7748 48.9289C46.8215 47.367 47.612 45.765 47.8896 44.5465C47.9429 44.3122 47.9867 44.0813 48.0219 43.855C48.7089 44.4415 49.4808 45.0795 50.2892 45.7345C50.2224 46.043 50.0962 46.4446 49.912 46.9774C49.8451 47.1708 49.7717 47.3782 49.6939 47.598C49.358 48.5468 48.9405 49.7259 48.6153 51.0112C48.0369 53.2975 48.546 55.869 49.2976 57.9757C50.0554 60.0996 51.1564 62.0178 52.0571 63.0718L54.2292 61.2156C53.6061 60.4865 52.6595 58.8959 51.9886 57.0156C51.3117 55.1181 51.0113 53.1901 51.3852 51.712C51.6746 50.568 52.0372 49.5426 52.3706 48.5996C52.4535 48.3652 52.5346 48.1357 52.6124 47.9109C52.6416 47.8261 52.6707 47.7413 52.6993 47.6565C53.2393 48.0811 53.7769 48.5005 54.2997 48.9057C54.3047 49.0674 54.3116 49.2526 54.321 49.4572C54.3556 50.2098 54.4252 51.2365 54.5658 52.3174C54.7051 53.3885 54.9206 54.5639 55.263 55.5935C55.5819 56.5521 56.1077 57.6941 57.065 58.3323L58.6499 55.9551C58.5358 55.879 58.258 55.5451 57.9741 54.6918C57.7139 53.9093 57.5276 52.9366 57.3991 51.9488C57.3339 51.4479 57.2852 50.9562 57.2489 50.5013C57.5411 50.6025 57.8381 50.6961 58.1321 50.781C59.4118 51.1506 60.891 51.4294 62.1431 51.4294V48.5723C61.2524 48.5723 60.0551 48.3625 58.925 48.0361C57.7534 47.6977 56.9011 47.3051 56.5872 47.0629C55.3123 46.0793 53.9209 44.9898 52.6097 43.9357C51.4253 42.9835 50.3139 42.0661 49.4155 41.2845C48.4902 40.4795 47.8688 39.8848 47.6008 39.5584C47.1844 39.0512 47.0861 38.4927 47.1545 37.927C47.2225 37.3638 47.4536 36.8583 47.6341 36.5785C48.2051 35.9109 48.6239 35.2256 48.8243 34.4932C48.8262 34.4861 48.8282 34.4789 48.8301 34.4717C49.4589 34.5683 50.1843 34.6222 50.8914 34.668C51.1325 34.6837 51.3761 34.6985 51.6217 34.7135C52.4319 34.7628 53.2621 34.8134 54.0824 34.8965C55.1538 35.0051 56.1065 35.1606 56.8465 35.4015C57.6248 35.655 57.9159 35.9225 58.0039 36.0699C58.1368 36.2924 58.285 36.5282 58.4454 36.7833C59.1053 37.8331 59.971 39.2105 60.821 41.3358C61.8722 43.9644 62.8917 47.7434 63.2635 53.2564C63.6039 58.3022 63.4229 61.7363 62.9085 64.0813C62.3991 66.403 61.5918 67.5351 60.7576 68.1606C60.716 68.1918 60.5095 68.3048 60.0041 68.4031C59.5296 68.4954 58.9098 68.5528 58.159 68.5677C56.66 68.5977 54.7758 68.4566 52.763 68.1823C48.7132 67.6303 44.3778 66.5721 41.8706 65.458C41.5533 65.3171 41.2418 65.1789 40.9355 65.043ZM48.3033 31.4055C48.4677 31.4635 48.6488 31.518 48.8482 31.5679C49.2962 31.6799 50.0419 31.7499 51.0761 31.8169C51.2943 31.831 51.5226 31.8449 51.7584 31.8593C52.5778 31.9091 53.4871 31.9645 54.3703 32.0539C54.7844 32.0959 55.2064 32.1464 55.6255 32.2101C54.0555 29.7969 52.4434 27.6847 50.4359 25.9062C48.776 26.2309 47.3588 27.4816 46.8528 28.7521C46.7763 28.9444 46.7247 29.1254 46.695 29.2951C46.7944 29.4173 46.8985 29.5438 47.0035 29.6716C47.2644 29.9889 47.5314 30.3135 47.7473 30.5972C47.937 30.8463 48.1295 31.1158 48.3033 31.4055Z" fill="white"/>
<path d="M55.5947 47.2186C54.9008 49.7837 53.748 48.9321 53.4519 48.6472C52.9584 48.2672 46.5425 42.6443 45.595 41.5044C44.4106 40.0795 43.4516 37.2186 45.5946 35.79C46.9232 34.9043 42.8084 32.0744 44.881 31.5045C46.9536 30.9345 49.1149 33.7915 50.5953 34.3615C52.0758 34.9314 56.2886 44.6535 55.5947 47.2186Z" fill="url(#paint0_linear_2053_26039)"/>
</g>
<g opacity="0.3" filter="url(#filter0_f_2053_26039)">
<circle cx="55.5714" cy="46.9992" r="5.57143" fill="white"/>
<circle cx="55.5714" cy="46.9992" r="5.07143" stroke="#D70A42"/>
</g>
<circle cx="55.5723" cy="47.0001" r="3.22857" fill="white" stroke="#D70A42" stroke-width="2"/>
<defs>
<filter id="filter0_f_2053_26039" x="48" y="39.4277" width="15.1426" height="15.1426" filterUnits="userSpaceOnUse" color-interpolation-filters="sRGB">
<feFlood flood-opacity="0" result="BackgroundImageFix"/>
<feBlend mode="normal" in="SourceGraphic" in2="BackgroundImageFix" result="shape"/>
<feGaussianBlur stdDeviation="1" result="effect1_foregroundBlur_2053_26039"/>
</filter>
<linearGradient id="paint0_linear_2053_26039" x1="50.4699" y1="44.9385" x2="45.6132" y2="35.7942" gradientUnits="userSpaceOnUse">
<stop stop-color="#D70A42"/>
<stop offset="1" stop-color="#D70A42" stop-opacity="0"/>
</linearGradient>
</defs>
</svg>
