<svg width="80" height="80" viewBox="0 0 80 80" fill="none" xmlns="http://www.w3.org/2000/svg">
<mask id="mask0_2053_25993" style="mask-type:alpha" maskUnits="userSpaceOnUse" x="9" y="9" width="63" height="65">
<path fill-rule="evenodd" clip-rule="evenodd" d="M18.9053 21.2903C24.4009 15.0259 30.445 10.9997 38.4378 11C48.1135 11.0004 56.9125 13.803 61.5637 17.8425C63.9858 19.946 65.9695 21.9735 67.28 24.4631C68.5784 26.9298 69.2532 29.9244 68.9169 34.0146C68.5659 38.2822 68.2216 41.1686 67.3966 43.5094C66.5914 45.7939 65.309 47.6048 62.9627 49.6424C61.0167 51.3323 59.3894 52.7599 58.166 54.1391C56.9286 55.5341 56.0518 56.9359 55.6511 58.5999C54.8173 62.0627 54.9615 64.2124 55.7777 66.2725C56.1688 67.2595 56.7045 68.2006 57.2864 69.206L57.4173 69.4321C57.9722 70.3896 58.5826 71.4428 59.2239 72.7423L61.0174 71.8571C60.3454 70.4956 59.7042 69.3894 59.1507 68.4344L59.1507 68.4343L59.0173 68.2042C58.4273 67.1846 57.9658 66.3654 57.6371 65.5358C57.0139 63.9627 56.8283 62.2544 57.5956 59.0681C57.8939 57.829 58.5561 56.7133 59.6623 55.4662C60.7824 54.2034 62.3031 52.8641 64.2741 51.1525C66.824 48.938 68.3394 46.851 69.2828 44.1743C70.2064 41.5539 70.5617 38.4158 70.9101 34.1785C71.2732 29.7637 70.5491 26.38 69.0497 23.5315C67.5624 20.7059 65.3494 18.4813 62.8752 16.3325C57.734 11.8674 48.3969 9.00037 38.4379 9C29.6437 8.99968 23.0976 13.4788 17.4018 19.9714C14.495 23.2847 13.3518 26.1127 12.969 28.5366C12.7795 29.7367 12.7813 30.8081 12.8268 31.7422C12.8463 32.1429 12.8713 32.4921 12.8941 32.8113L12.8941 32.8113C12.9278 33.282 12.9568 33.6873 12.9568 34.0965C12.9568 35.8105 13.6099 36.9033 14.2022 37.7035C14.3261 37.8709 14.4302 38.005 14.5212 38.1223L14.5212 38.1223L14.5213 38.1223C14.6651 38.3076 14.7766 38.4512 14.8829 38.6188C15.0268 38.8457 15.0548 38.9668 15.0551 39.056C15.0551 39.0561 15.0551 39.0564 15.0551 39.0568C15.0547 39.0616 15.0524 39.0886 15.0402 39.1426C15.0253 39.2082 15 39.2956 14.9604 39.4065C14.8807 39.6298 14.7577 39.9085 14.5929 40.2373C14.2636 40.8941 13.8016 41.6832 13.283 42.5152C12.5543 43.6842 11.7489 44.8835 11.0845 45.8729C10.799 46.2979 10.5396 46.6841 10.3235 47.0126C9.57223 48.1545 9.1388 49.1917 9.02828 50.1995C8.91553 51.2277 9.14929 52.128 9.56272 52.9658C9.8428 53.5334 10.3888 53.9172 10.8565 54.1758C11.3592 54.4537 11.9561 54.6851 12.5501 54.8754C13.3459 55.1302 14.1972 55.3302 14.9293 55.4717L14.3655 59.4709L14.2836 60.0518L14.7506 60.4067L16.6423 61.8443L15.3434 63.1604L14.6502 63.8628L15.3434 64.5653C15.782 65.0097 16.7673 66.1483 17.2568 67.1402C17.3368 67.3025 17.3694 67.4806 17.3616 67.742C17.3556 67.9431 17.3323 68.1213 17.3024 68.3505L17.3024 68.3506C17.2854 68.4806 17.2663 68.6271 17.2469 68.8035C17.1459 69.725 17.1414 70.8767 18.0176 72.2084C18.6367 73.1494 19.7146 73.3997 20.6275 73.4661C21.5075 73.5301 22.5474 73.4411 23.5461 73.3557L23.7464 73.3386C24.8467 73.2452 25.9346 73.1621 26.954 73.2264C27.9721 73.2907 28.8351 73.4984 29.5129 73.9237L30.5758 72.2295C29.5049 71.5577 28.2696 71.3055 27.08 71.2304C25.8917 71.1554 24.6626 71.2536 23.5772 71.3458L23.4517 71.3565H23.4517C22.3806 71.4476 21.4887 71.5234 20.7725 71.4714C20.0024 71.4154 19.7687 71.2312 19.6884 71.1091C19.1657 70.3147 19.1612 69.6946 19.235 69.0215C19.2444 68.9361 19.2572 68.8367 19.2711 68.7289C19.3076 68.4452 19.3517 68.1029 19.3607 67.8018C19.3748 67.3323 19.3199 66.8017 19.0503 66.2552C18.6285 65.4005 17.9689 64.5268 17.4308 63.8926L18.8653 62.4391L19.6647 61.6291L18.7586 60.9405L16.4278 59.1693L17.0454 54.7891L17.1845 53.8025L16.1984 53.6598C15.4207 53.5472 14.2185 53.3096 13.1601 52.9707C12.6292 52.8006 12.1681 52.6157 11.8242 52.4255C11.4537 52.2207 11.36 52.0862 11.3564 52.0809L11.3562 52.0808C11.0702 51.5011 10.9542 50.984 11.0164 50.4175C11.0807 49.8308 11.3467 49.0962 11.9943 48.1119C12.1934 47.8094 12.4412 47.4403 12.7188 47.0269C13.3893 46.0285 14.233 44.772 14.9803 43.5731C15.5109 42.7218 16.0106 41.872 16.3808 41.1336C16.5657 40.7647 16.7269 40.4067 16.8439 40.0791C16.9542 39.7703 17.0552 39.4082 17.0552 39.0576C17.0552 38.4383 16.8204 37.9393 16.5717 37.5474C16.4179 37.305 16.2067 37.0314 16.0235 36.794L16.0235 36.794L16.0234 36.7939C15.9448 36.692 15.8713 36.5968 15.8097 36.5137C15.3528 35.8964 14.9568 35.2174 14.9568 34.0965C14.9568 33.6323 14.9192 33.0923 14.8817 32.5545L14.8817 32.5545C14.8602 32.2456 14.8387 31.9375 14.8244 31.6448C14.7825 30.785 14.7843 29.8631 14.9445 28.8485C15.2613 26.8428 16.2163 24.3554 18.9053 21.2903ZM15.0551 39.056C15.0551 39.0565 15.0552 39.0571 15.0552 39.0576L15.0551 39.056C15.0551 39.056 15.0551 39.056 15.0551 39.056ZM37.799 17.5039C36.4676 17.5039 35.2799 18.0546 34.3763 18.6694C33.7006 19.1292 33.1361 19.657 32.7299 20.1126C30.247 19.9827 28.3173 20.7943 27.1372 22.1864C26.1672 23.3308 25.7746 24.7908 25.9661 26.2213C23.6407 26.6764 22.1286 28.3889 21.6966 30.3659C21.195 32.6614 22.1575 35.2824 24.7866 36.5968C26.0344 37.2206 27.6361 37.4489 29.0416 37.5115C30.0702 37.5573 31.0592 37.5166 31.8413 37.446C32.373 38.6024 33.5246 40.1291 35.5719 40.6411C36.8894 40.9705 38.0256 41.1543 38.858 41.2482C38.641 42.7103 38.8391 43.8581 39.6035 44.8034C40.0446 45.3488 40.622 45.7564 41.231 46.1103C41.7163 46.3924 42.2798 46.6719 42.8704 46.9649L42.8728 46.9661C43.015 47.0367 43.1587 47.108 43.3033 47.1803C44.6045 47.8311 45.6417 48.4343 46.5152 49.3081C47.3773 50.1703 48.1315 51.3499 48.7536 53.2168C49.9463 56.7958 53.1792 58.6418 54.6764 59.141L55.309 57.2437C54.161 56.8609 51.5745 55.3555 50.651 52.5844C49.9506 50.4825 49.0515 49.0162 47.9296 47.894C46.8193 46.7834 45.5419 46.0637 44.1979 45.3915C44.0347 45.3099 43.8784 45.2323 43.7285 45.1579L43.7284 45.1579C43.1453 44.8684 42.6587 44.6268 42.236 44.3812C41.7107 44.0759 41.3756 43.814 41.1586 43.5458C40.799 43.1011 40.571 42.3966 41.0354 40.5801C41.1871 39.9864 41.4541 39.6172 41.7713 39.3635C42.1043 39.0972 42.5523 38.9114 43.1244 38.7945C44.0009 38.6154 44.9466 38.626 45.9336 38.637C46.3122 38.6413 46.6969 38.6456 47.0861 38.6393C47.2433 38.6367 47.4038 38.6338 47.5669 38.6307L47.5677 38.6307C48.9689 38.6047 50.5613 38.5751 51.8848 38.7864C52.6232 38.9043 53.1756 39.0836 53.5322 39.3108C53.8509 39.5139 53.9727 39.7218 53.9967 39.9882C54.0611 40.7028 53.8967 41.0155 53.7187 41.1803C53.5018 41.3811 53.0138 41.6005 51.9661 41.6005H51.9529H51.9396H51.9265H51.9133H51.9002H51.8871H51.874H51.861H51.848H51.835H51.8221H51.8092H51.7963H51.7835H51.7707H51.7579H51.7451H51.7324H51.7197H51.7071H51.6944H51.6818H51.6693H51.6567H51.6442H51.6317H51.6193H51.6068H51.5945H51.5821H51.5697H51.5574H51.5452H51.5329H51.5207H51.5085H51.4963H51.4842H51.4721H51.46H51.4479H51.4359H51.4239H51.4119H51.4H51.3881H51.3762H51.3643H51.3525H51.3407H51.3289H51.3171H51.3054H51.2937H51.282H51.2704H51.2587H51.2471H51.2356H51.224H51.2125H51.201H51.1895H51.1781H51.1667H51.1553H51.1439H51.1326H51.1213H51.11H51.0987H51.0875H51.0762H51.065H51.0539H51.0427H51.0316H51.0205H51.0094H50.9984H50.9874H50.9764H50.9654H50.9544H50.9435H50.9326H50.9217H50.9108H50.9H50.8892H50.8784H50.8676H50.8569H50.8461H50.8354H50.8247H50.8141H50.8034H50.7928H50.7822H50.7717H50.7611H50.7506H50.7401H50.7296H50.7191H50.7087H50.6983H50.6879H50.6775H50.6671H50.6568H50.6464H50.6361H50.6259H50.6156H50.6054H50.5951H50.5849H50.5748H50.5646H50.5545H50.5443H50.5342H50.5242H50.5141H50.504H50.494H50.484H50.474H50.4641H50.4541H50.4442H50.4343H50.4244H50.4145H50.4046H50.3948H50.385H50.3752H50.3654H50.3556H50.3458H50.3361H50.3264H50.3167H50.307H50.2973H50.2877H50.278H50.2684H50.2588H50.2492H50.2397H50.2301H50.2206H50.211H50.2015H50.1921H50.1826H50.1731H50.1637H50.1542H50.1448H50.1354H50.1261H50.1167H50.1073H50.098H50.0887H50.0794H50.0701H50.0608H50.0515H50.0423H50.033H50.0238H50.0146H50.0054H49.9962H49.9871H49.9779H49.9688H49.9596H49.9505H49.9414H49.9323H49.9232H49.9142H49.9051H49.8961H49.8871H49.878H49.869H49.8601H49.8511H49.8421H49.8331H49.8242H49.8153H49.8064H49.7974H49.7885H49.7797H49.7708H49.7619H49.7531H49.7442H49.7354H49.7266H49.7178H49.709H49.7002H49.6914H49.6826H49.6739H49.6651H49.6564H49.6476H49.6389H49.6302H49.6215H49.6128H49.6041H49.5954H49.5868H49.5781H49.5695H49.5608H49.5522H49.5436H49.5349H49.5263H49.5177H49.5091H49.5006H49.492H49.4834H49.4749H49.4663H49.4578H49.4492H49.4407H49.4322H49.4236H49.4151H49.4066H49.3981H49.3896H49.3812H49.3727H49.3642H49.3557H49.3473H49.3388H49.3304H49.3219H49.3135H49.3051H49.2966H49.2882H49.2798H49.2714H49.263H49.2546H49.2462H49.2378H49.2294H49.221H49.2127H49.2043H49.1959H49.1876H49.1792H49.1708H49.1625H49.1541H49.1458H49.1374H49.1291H49.1208H49.1124H49.1041H49.0958H49.0875H49.0791H49.0708H49.0625H49.0542H49.0459H49.0376H49.0293H49.021H49.0127H49.0044H48.9961H48.9878H48.9795H48.9712H48.9629H48.9546H48.9463H48.938H48.9297H48.9214H48.9131H48.9049H48.8966H48.8883H48.88H48.8717H48.8634H48.8551H48.8469H48.8386H48.8303H48.822H48.8137H48.8054H48.7971H48.7889H48.7806H48.7723H48.764H48.7557H48.7474H48.7391H48.7308H48.7225H48.7142H48.7059H48.6976H48.6893H48.681H48.6727H48.6644H48.656H48.6477H48.6394H48.6311H48.6228H48.6144H48.6061H48.5978H48.5894H48.5811H48.5727H48.5644H48.556H48.5477H48.5393H48.5309H48.5226H48.5142H48.5058H48.4974H48.4891H48.4807H48.4723H48.4639H48.4555H48.4471H48.4386H48.4302H48.4218H48.4134H48.4049H48.3965H48.388H48.3796H48.3711H48.3626H48.3542H48.3457H48.3372H48.3287H48.3202H48.3117H48.3032H48.2947H48.2862H48.2776H48.2691H48.2605H48.252H48.2434H48.2349H48.2263H48.2177H48.2091H48.2005H48.1919H48.1833H48.1747H48.166H48.1574H48.1487H48.1401H48.1314H48.1227H48.114H48.1053H48.0966H48.0879H48.0792H48.0705H48.0617H48.053H48.0442H48.0354H48.0267H48.0179H48.0091H48.0003H47.9914H47.9826H47.9737H47.9649H47.956H47.9472H47.9383H47.9294H47.9205H47.9115H47.9026H47.8937H47.8847H47.8757H47.8667H47.8578H47.8488H47.8397H47.8307H47.8217H47.8126H47.8036H47.7945H47.7854H47.7763H47.7672H47.758H47.7489H47.7397H47.7306H47.7214H47.7122H47.703H47.6937H47.6845H47.6752H47.666H47.6567H47.6474H47.6381H47.6288H47.6194H47.6101H47.6007H47.5913H47.5819H47.5725H47.5631H47.5536H47.5442H47.5347H47.5252H47.5157H47.5062H47.4966H47.4871H47.4775H47.4679H47.4583H47.4487H47.4391H47.4294H47.4197H47.41H47.4003H47.3906H47.3809H47.3711H47.3614H47.3516H47.3418H47.3319H47.3221H47.3122H47.3023H47.2924H47.2825H47.2726H47.2626H47.2527H47.2427H47.2327H47.2226H47.2126H47.2025H47.1924H47.1823H47.1722H47.1621H47.1519H47.1417H47.1315H47.1213H47.1111H47.1008H47.0905H47.0802H47.0699V43.6005H47.0802H47.0905H47.1008H47.1111H47.1213H47.1315H47.1417H47.1519H47.1621H47.1722H47.1823H47.1924H47.2025H47.2126H47.2226H47.2327H47.2427H47.2527H47.2626H47.2726H47.2825H47.2924H47.3023H47.3122H47.3221H47.3319H47.3418H47.3516H47.3614H47.3711H47.3809H47.3906H47.4003H47.41H47.4197H47.4294H47.4391H47.4487H47.4583H47.4679H47.4775H47.4871H47.4966H47.5062H47.5157H47.5252H47.5347H47.5442H47.5536H47.5631H47.5725H47.5819H47.5913H47.6007H47.6101H47.6194H47.6288H47.6381H47.6474H47.6567H47.666H47.6752H47.6845H47.6937H47.703H47.7122H47.7214H47.7306H47.7397H47.7489H47.758H47.7672H47.7763H47.7854H47.7945H47.8036H47.8126H47.8217H47.8307H47.8397H47.8488H47.8578H47.8667H47.8757H47.8847H47.8937H47.9026H47.9115H47.9205H47.9294H47.9383H47.9472H47.956H47.9649H47.9737H47.9826H47.9914H48.0003H48.0091H48.0179H48.0267H48.0354H48.0442H48.053H48.0617H48.0705H48.0792H48.0879H48.0966H48.1053H48.114H48.1227H48.1314H48.1401H48.1487H48.1574H48.166H48.1747H48.1833H48.1919H48.2005H48.2091H48.2177H48.2263H48.2349H48.2434H48.252H48.2605H48.2691H48.2776H48.2862H48.2947H48.3032H48.3117H48.3202H48.3287H48.3372H48.3457H48.3542H48.3626H48.3711H48.3796H48.388H48.3965H48.4049H48.4134H48.4218H48.4302H48.4386H48.4471H48.4555H48.4639H48.4723H48.4807H48.4891H48.4974H48.5058H48.5142H48.5226H48.5309H48.5393H48.5477H48.556H48.5644H48.5727H48.5811H48.5894H48.5978H48.6061H48.6144H48.6228H48.6311H48.6394H48.6477H48.656H48.6644H48.6727H48.681H48.6893H48.6976H48.7059H48.7142H48.7225H48.7308H48.7391H48.7474H48.7557H48.764H48.7723H48.7806H48.7889H48.7971H48.8054H48.8137H48.822H48.8303H48.8386H48.8469H48.8551H48.8634H48.8717H48.88H48.8883H48.8966H48.9049H48.9131H48.9214H48.9297H48.938H48.9463H48.9546H48.9629H48.9712H48.9795H48.9878H48.9961H49.0044H49.0127H49.021H49.0293H49.0376H49.0459H49.0542H49.0625H49.0708H49.0791H49.0875H49.0958H49.1041H49.1124H49.1208H49.1291H49.1374H49.1458H49.1541H49.1625H49.1708H49.1792H49.1876H49.1959H49.2043H49.2127H49.221H49.2294H49.2378H49.2462H49.2546H49.263H49.2714H49.2798H49.2882H49.2966H49.3051H49.3135H49.3219H49.3304H49.3388H49.3473H49.3557H49.3642H49.3727H49.3812H49.3896H49.3981H49.4066H49.4151H49.4236H49.4322H49.4407H49.4492H49.4578H49.4663H49.4749H49.4834H49.492H49.5006H49.5091H49.5177H49.5263H49.5349H49.5436H49.5522H49.5608H49.5695H49.5781H49.5868H49.5954H49.6041H49.6128H49.6215H49.6302H49.6389H49.6476H49.6564H49.6651H49.6739H49.6826H49.6914H49.7002H49.709H49.7178H49.7266H49.7354H49.7442H49.7531H49.7619H49.7708H49.7797H49.7885H49.7974H49.8064H49.8153H49.8242H49.8331H49.8421H49.8511H49.8601H49.869H49.878H49.8871H49.8961H49.9051H49.9142H49.9232H49.9323H49.9414H49.9505H49.9596H49.9688H49.9779H49.9871H49.9962H50.0054H50.0146H50.0238H50.033H50.0423H50.0515H50.0608H50.0701H50.0794H50.0887H50.098H50.1073H50.1167H50.1261H50.1354H50.1448H50.1542H50.1637H50.1731H50.1826H50.1921H50.2015H50.211H50.2206H50.2301H50.2397H50.2492H50.2588H50.2684H50.278H50.2877H50.2973H50.307H50.3167H50.3264H50.3361H50.3458H50.3556H50.3654H50.3752H50.385H50.3948H50.4046H50.4145H50.4244H50.4343H50.4442H50.4541H50.4641H50.474H50.484H50.494H50.504H50.5141H50.5242H50.5342H50.5443H50.5545H50.5646H50.5748H50.5849H50.5951H50.6054H50.6156H50.6259H50.6361H50.6464H50.6568H50.6671H50.6775H50.6879H50.6983H50.7087H50.7191H50.7296H50.7401H50.7506H50.7611H50.7717H50.7822H50.7928H50.8034H50.8141H50.8247H50.8354H50.8461H50.8569H50.8676H50.8784H50.8892H50.9H50.9108H50.9217H50.9326H50.9435H50.9544H50.9654H50.9764H50.9874H50.9984H51.0094H51.0205H51.0316H51.0427H51.0539H51.065H51.0762H51.0875H51.0987H51.11H51.1213H51.1326H51.1439H51.1553H51.1667H51.1781H51.1895H51.201H51.2125H51.224H51.2356H51.2471H51.2587H51.2704H51.282H51.2937H51.3054H51.3171H51.3289H51.3407H51.3525H51.3643H51.3762H51.3881H51.4H51.4119H51.4239H51.4359H51.4479H51.46H51.4721H51.4842H51.4963H51.5085H51.5207H51.5329H51.5452H51.5574H51.5697H51.5821H51.5945H51.6068H51.6193H51.6317H51.6442H51.6567H51.6693H51.6818H51.6944H51.7071H51.7197H51.7324H51.7451H51.7579H51.7707H51.7835H51.7963H51.8092H51.8221H51.835H51.848H51.861H51.874H51.8871H51.9002H51.9133H51.9265H51.9396H51.9529H51.9661C53.2088 43.6005 54.3139 43.3549 55.0775 42.6479C55.6933 42.0777 55.9566 41.3339 56.0028 40.5408C56.3024 40.3731 56.6042 40.1652 56.8897 39.9455C57.4411 39.5213 58.0283 38.9775 58.5679 38.3738C59.1063 37.7715 59.6167 37.088 59.9974 36.3805C60.3719 35.6846 60.6602 34.8933 60.6602 34.0958C60.6602 32.1062 60.102 30.438 59.0743 29.2512C58.3733 28.4415 57.4837 27.8921 56.4873 27.6214C56.7323 26.9713 56.8639 26.325 56.8411 25.6798C56.8018 24.5667 56.3097 23.6076 55.4757 22.7626C54.2444 21.515 52.7252 21.3714 51.5 21.5165C50.8904 21.5887 50.3237 21.7346 49.8632 21.8664C49.762 21.8953 49.6696 21.9224 49.5847 21.9475C49.4176 21.6043 49.2108 21.209 48.9699 20.8444C48.4927 20.1221 47.7772 19.3363 46.6867 18.9727C45.5892 18.6068 44.3528 18.8239 43.4046 19.1407C42.9236 19.3014 42.4511 19.5101 42.0393 19.7397C41.7697 19.3974 41.4372 19.0443 41.0451 18.7229C40.2475 18.0689 39.149 17.5039 37.799 17.5039ZM36.0571 38.7008C34.5158 38.3154 33.73 36.951 33.5087 36.2302C33.5201 35.0595 33.6844 34.5325 33.9696 34.1523C34.3044 33.7058 34.9171 33.3004 36.2619 32.6277C36.6398 32.4386 37.2946 32.2682 38.198 32.143C39.0779 32.021 40.1089 31.9524 41.1821 31.9226C42.9648 31.8732 44.8166 31.9322 46.1987 32.0156C46.4121 32.7268 46.8331 33.2913 47.2244 33.7066C47.5036 34.0031 47.7911 34.2483 48.0197 34.436C48.1068 34.5075 48.1773 34.5647 48.235 34.6114C48.3535 34.7074 48.418 34.7597 48.4609 34.8027L49.8756 33.389C49.752 33.2653 49.5633 33.1127 49.406 32.9855C49.3641 32.9516 49.3245 32.9196 49.2889 32.8904C49.0823 32.7207 48.8719 32.5388 48.6801 32.3352C48.2876 31.9186 48.0606 31.5048 48.0571 31.0639C48.0535 30.6108 48.2747 30.1871 48.6021 29.8445C48.7622 29.6769 48.9272 29.5518 49.0561 29.4747C49.1207 29.4361 49.1642 29.4169 49.1826 29.4099L49.1846 29.4092C49.1896 29.4077 49.1922 29.4068 49.1923 29.4067C49.1923 29.4065 49.1898 29.4072 49.1846 29.4092C49.1662 29.4144 49.1158 29.426 49.041 29.426V27.426C48.8127 27.426 48.6103 27.4881 48.4749 27.5393C48.3239 27.5964 48.1736 27.6723 48.0305 27.7577C47.7442 27.9287 47.4384 28.1673 47.1561 28.4628C46.787 28.849 46.421 29.3736 46.2184 30.0132C44.7994 29.9301 42.9343 29.8733 41.1267 29.9234C40.012 29.9543 38.9019 30.0263 37.9233 30.1619C36.9682 30.2944 36.047 30.4989 35.3671 30.839C34.0673 31.4892 33.0267 32.076 32.3695 32.9524C31.8313 33.6701 31.6104 34.4912 31.5378 35.4648C30.8597 35.5211 30.0106 35.5526 29.1305 35.5135C27.8137 35.4548 26.5498 35.2422 25.6809 34.8079C23.9186 33.9268 23.3325 32.2481 23.6505 30.7929C23.9648 29.3544 25.1697 28.103 27.2182 28.103H28.6768L28.151 26.7425C27.7104 25.6024 27.9049 24.3739 28.6628 23.4797C29.4104 22.5977 30.8262 21.911 33.0662 22.1445L33.63 22.2033L33.97 21.7498C34.2391 21.3909 34.7886 20.808 35.5014 20.3229C36.218 19.8353 37.0142 19.5039 37.799 19.5039C38.5651 19.5039 39.2301 19.821 39.7771 20.2695C40.3323 20.7248 40.7098 21.272 40.8723 21.597L41.4928 22.8384L42.474 21.8569C42.6531 21.6778 43.2465 21.3021 44.0383 21.0376C44.8297 20.7732 45.5645 20.7068 46.0541 20.87C46.5508 21.0357 46.9501 21.4154 47.3012 21.9468C47.5649 22.3459 47.7457 22.7335 47.9247 23.117L47.9248 23.1174C47.9972 23.2726 48.0693 23.4271 48.1465 23.5815L48.4881 24.2648L49.2372 24.115C49.4768 24.067 49.7931 23.9728 50.0927 23.8835C50.2036 23.8505 50.3121 23.8182 50.4136 23.7892C50.8385 23.6675 51.2846 23.556 51.7352 23.5026C52.6305 23.3966 53.4216 23.5285 54.0522 24.1674C54.6171 24.7398 54.8245 25.2453 54.8424 25.7505C54.8616 26.2941 54.6668 26.9882 54.1261 27.927L53.2627 29.426H54.9927C56.0413 29.426 56.9264 29.8259 57.5624 30.5604C58.2072 31.305 58.6602 32.4716 58.6602 34.0958C58.6602 34.4322 58.5303 34.8864 58.2363 35.4327C57.9486 35.9673 57.54 36.5227 57.0768 37.0409C56.6149 37.5576 56.1179 38.0159 55.6702 38.3604C55.6159 38.4021 55.5635 38.4413 55.513 38.4781C55.2733 38.1324 54.9601 37.8492 54.607 37.6242C53.9136 37.1823 53.0482 36.9468 52.2001 36.8114C50.6871 36.5699 48.9044 36.6043 47.531 36.6308L47.5307 36.6308C47.3654 36.634 47.206 36.6371 47.0537 36.6396C46.784 36.6439 46.4781 36.6403 46.1486 36.6364H46.1485C45.1064 36.6241 43.8295 36.609 42.7239 36.835C41.962 36.9907 41.1834 37.2727 40.5221 37.8016C40.0395 38.1876 39.6495 38.6813 39.3737 39.291C38.6463 39.2227 37.4804 39.0567 36.0571 38.7008ZM40.4472 25.5169C39.9432 25.3094 39.3947 24.9279 38.9313 24.5222C38.7046 24.3237 38.5129 24.1322 38.3713 23.9737C38.2462 23.8335 38.1903 23.7524 38.1756 23.7311L38.1755 23.7311C38.1716 23.7254 38.1706 23.724 38.1721 23.7269L36.3829 24.6206C36.4619 24.7787 36.5717 25.0613 36.5559 25.3527C36.5437 25.5773 36.457 25.9136 35.921 26.2711C34.5992 27.1525 33.5395 27.1037 32.7527 26.7889L31.8939 26.4452L31.4845 27.2748C31.1835 27.8848 30.6288 28.6861 30.0091 29.4061C29.367 30.1522 28.7762 30.6691 28.4367 30.8389L29.3313 32.6277C30.0498 32.2683 30.8579 31.486 31.5251 30.7107C32.0116 30.1454 32.4858 29.5099 32.8629 28.9012C34.1045 29.1524 35.5344 28.9328 37.0306 27.935C37.6399 27.5287 38.0385 27.0529 38.2752 26.5562C38.7029 26.8675 39.185 27.1601 39.6858 27.3663C40.6162 27.7493 41.6136 27.6438 42.3842 27.442C43.1698 27.2364 43.8643 26.8933 44.2878 26.6236L43.2135 24.9366C42.9445 25.1079 42.4398 25.3601 41.8777 25.5072C41.3008 25.6583 40.8023 25.663 40.4472 25.5169Z" fill="#FF8EAD"/>
</mask>
<g mask="url(#mask0_2053_25993)">
<path d="M19.2273 21.5738C24.68 15.3582 30.6166 11.4291 38.4377 11.4294C48.0526 11.4298 56.7363 14.2185 61.2826 18.1669C63.6934 20.2607 65.628 22.246 66.9006 24.6635C68.156 27.0484 68.8203 29.9596 68.4896 33.9803C68.1381 38.2545 67.7962 41.0868 66.9923 43.3678C66.2167 45.5682 64.9842 47.32 62.6815 49.3197C60.7409 51.0049 59.0908 52.4514 57.8453 53.8556C56.5798 55.2823 55.657 56.7454 55.2344 58.5004C54.3862 62.0225 54.5216 64.2667 55.3792 66.4312C55.7836 67.4519 56.3352 68.4191 56.9153 69.4215L57.0458 69.6468C57.601 70.6049 58.2047 71.6467 58.8395 72.9328L61.4016 71.6682C60.723 70.2933 60.0752 69.1757 59.5219 68.2211L59.3882 67.9903C58.7963 66.9678 58.3507 66.1746 58.0354 65.3788C57.4535 63.9101 57.2591 62.2963 58.0121 59.1692C58.2886 58.0212 58.9048 56.9668 59.9827 55.7515C61.0808 54.5135 62.5786 53.1932 64.5549 51.4769C67.1485 49.2246 68.7138 47.0784 69.6869 44.3176C70.6316 41.6373 70.9892 38.4453 71.3371 34.2145C71.7059 29.7302 70.9713 26.263 69.4289 23.3327C67.9036 20.4351 65.6414 18.1683 63.1561 16.0098C57.9099 11.4535 48.4576 8.57263 38.4378 8.57227C29.4718 8.57194 22.8182 13.1481 17.0795 19.6896C14.1261 23.0562 12.9425 25.9571 12.5456 28.4705C12.3498 29.7105 12.3523 30.8138 12.3986 31.7639C12.4194 32.1896 12.445 32.5459 12.468 32.8651C12.5008 33.3199 12.5281 33.6994 12.5281 34.0974C12.5281 35.9385 13.2363 37.12 13.8576 37.9594C13.998 38.149 14.107 38.2891 14.1979 38.406C14.3299 38.5756 14.4239 38.6964 14.5209 38.8493C14.5826 38.9465 14.6086 39.0044 14.6196 39.0353L14.6229 39.0451C14.6162 39.0748 14.599 39.1445 14.5567 39.2632C14.4849 39.4641 14.3702 39.7258 14.2096 40.0461C13.8891 40.6854 13.4352 41.4615 12.9192 42.2893C12.1944 43.452 11.3971 44.6393 10.7341 45.6265C10.4471 46.0538 10.1852 46.4438 9.9654 46.7779C9.19185 47.9535 8.72256 49.0555 8.60214 50.1537C8.47855 51.2807 8.73754 52.2632 9.17828 53.1563C9.51843 53.8456 10.1623 54.2826 10.6491 54.5517C11.1858 54.8485 11.8117 55.0898 12.4193 55.2844C13.0921 55.4998 13.8015 55.6765 14.4484 55.8127L13.824 60.2417L15.9946 61.8912L14.0479 63.8637L15.0383 64.8672C15.465 65.2995 16.4129 66.3997 16.8723 67.3307C16.9118 67.4107 16.9396 67.5132 16.9331 67.73C16.9277 67.9113 16.9081 68.06 16.8804 68.2708C16.8632 68.4016 16.8428 68.5564 16.8208 68.7576C16.7139 69.7323 16.7075 70.998 17.6594 72.4448C18.394 73.5613 19.6528 73.8258 20.5963 73.8944C21.5119 73.9609 22.5847 73.8691 23.5726 73.7844L23.7825 73.7665C24.886 73.6728 25.9436 73.5929 26.9269 73.655C27.9082 73.7169 28.6915 73.9152 29.285 74.2875L30.8034 71.8672C29.6483 71.1426 28.3332 70.8809 27.1068 70.8035C25.8824 70.7263 24.6231 70.8277 23.5408 70.9196L23.4411 70.9281C22.3469 71.0211 21.4851 71.0943 20.8035 71.0448C20.2235 71.0026 20.0659 70.889 20.0418 70.8676C19.5993 70.1917 19.5931 69.6869 19.6609 69.069C19.6686 68.9989 19.68 68.9107 19.6928 68.8109C19.7299 68.5235 19.7793 68.1399 19.789 67.8154C19.8044 67.3013 19.7448 66.6952 19.4345 66.0664C19.058 65.3033 18.5063 64.5338 18.0081 63.9185L20.3122 61.5838L16.8871 58.981L17.6683 53.4404L16.2597 53.2365C15.4984 53.1263 14.3205 52.8931 13.2907 52.5633C12.7733 52.3977 12.3413 52.2226 12.0314 52.0513C11.8278 51.9387 11.7422 51.8634 11.7171 51.8413L11.715 51.8395C11.4758 51.3384 11.3927 50.917 11.4423 50.4651C11.4967 49.9686 11.7269 49.2988 12.3522 48.3483C12.5477 48.0513 12.793 47.686 13.0687 47.2753C13.7403 46.2752 14.5926 45.0059 15.3439 43.8007C15.8771 42.9452 16.3848 42.0824 16.7638 41.3265C16.953 40.949 17.1224 40.574 17.2474 40.224C17.3628 39.9009 17.4836 39.4834 17.4836 39.0584C17.4836 38.3256 17.2044 37.7457 16.9334 37.3186C16.7685 37.0587 16.5316 36.7517 16.3443 36.5089C16.2708 36.4136 16.2049 36.3282 16.1541 36.2595C15.7262 35.6815 15.3852 35.0911 15.3852 34.0974C15.3852 33.6207 15.3455 33.0486 15.3074 32.4982C15.2863 32.1938 15.2656 31.896 15.2524 31.6248C15.2113 30.781 15.2138 29.891 15.3677 28.9162C15.6703 27.0001 16.5851 24.5856 19.2273 21.5738Z" fill="white"/>
<path d="M40.6103 25.1214C40.1657 24.9384 39.6574 24.5892 39.2135 24.2006C38.9987 24.0125 38.8198 23.8333 38.691 23.6891C38.6066 23.5945 38.5639 23.5375 38.5482 23.5165C38.5434 23.5101 38.5408 23.5072 38.5408 23.5072C38.5408 23.5072 38.5421 23.5103 38.5452 23.5161C38.5477 23.5209 38.5511 23.5276 38.5554 23.5362L35.9994 24.8129C36.0651 24.9444 36.1378 25.1476 36.1279 25.3303C36.1238 25.4044 36.1065 25.4741 36.0633 25.5492C36.0197 25.6249 35.9203 25.7572 35.6832 25.9153C34.4751 26.7209 33.5634 26.6525 32.9119 26.3918L31.6849 25.9009L31.1001 27.086C30.8199 27.6537 30.2889 28.4248 29.6842 29.1274C29.0475 29.8672 28.5032 30.3273 28.2449 30.4565L29.5229 33.0118C30.3227 32.6119 31.1773 31.7726 31.8498 30.9911C32.2826 30.4883 32.7092 29.9275 33.0712 29.3728C34.3536 29.5572 35.792 29.2769 37.2683 28.2924C37.7678 27.9593 38.1443 27.5789 38.4156 27.1738C38.762 27.3984 39.1354 27.604 39.5226 27.7634C40.5763 28.1972 41.6805 28.0701 42.4927 27.8575C43.3261 27.6393 44.0614 27.2767 44.518 26.9859L42.9832 24.576C42.7474 24.7262 42.2833 24.9589 41.7691 25.0935C41.2337 25.2336 40.8421 25.2168 40.6103 25.1214Z" fill="white"/>
<path fill-rule="evenodd" clip-rule="evenodd" d="M37.7989 17.0762C36.3504 17.0762 35.0788 17.6738 34.1351 18.316C33.5023 18.7466 32.962 19.2342 32.5482 19.6768C30.0543 19.5955 28.0599 20.4359 26.8102 21.9102C25.8464 23.0472 25.4103 24.4698 25.5025 25.8881C23.2198 26.4819 21.721 28.2472 21.2778 30.2753C20.7369 32.7508 21.7801 35.5737 24.5949 36.9809C25.9239 37.6454 27.598 37.877 29.0225 37.9405C29.9465 37.9816 30.8389 37.9545 31.5855 37.898C32.2066 39.0984 33.4182 40.5451 35.4679 41.0577C36.589 41.338 37.5842 41.5153 38.3805 41.6219C38.2508 42.9652 38.4871 44.1053 39.2702 45.0737C39.7593 45.6786 40.3887 46.1174 41.0156 46.4817C41.5144 46.7716 42.0945 47.0594 42.6861 47.3528C42.8276 47.423 42.9697 47.4935 43.1116 47.5644C44.4036 48.2106 45.3894 48.789 46.2121 49.6119C47.0184 50.4184 47.7416 51.5366 48.3469 53.3531C49.5973 57.1052 52.9687 59.0243 54.5407 59.5484L55.4445 56.838C54.3713 56.4802 51.9233 55.0477 51.0575 52.4498C50.3403 50.2975 49.4102 48.7697 48.2327 47.5919C47.0715 46.4304 45.7427 45.6858 44.3896 45.0091C44.2223 44.9254 44.0634 44.8465 43.912 44.7714C43.331 44.4829 42.8607 44.2494 42.4512 44.0114C41.944 43.7167 41.6607 43.486 41.4918 43.2771C41.2601 42.9906 40.9982 42.4566 41.4505 40.687C41.5806 40.178 41.7988 39.8911 42.039 39.699C42.3015 39.489 42.6788 39.3238 43.2101 39.2152C44.039 39.0458 44.9175 39.0557 45.885 39.0666C46.2725 39.0709 46.6743 39.0754 47.093 39.0686C47.251 39.0661 47.4115 39.0631 47.574 39.0601C48.982 39.0342 50.5341 39.0056 51.8172 39.2104C52.532 39.3246 53.0174 39.4919 53.3018 39.6731C53.5322 39.8199 53.56 39.919 53.5698 40.0275C53.6275 40.6685 53.4716 40.8258 53.4275 40.8667C53.3278 40.959 52.972 41.1727 51.9661 41.1727H47.0698V44.0299H51.9661C53.2505 44.0299 54.4878 43.7787 55.3686 42.9632C56.0232 42.3571 56.3239 41.5915 56.4109 40.7992C56.6688 40.6418 56.919 40.4645 57.151 40.286C57.7246 39.8447 58.3311 39.2826 58.8874 38.6602C59.4419 38.0399 59.974 37.329 60.3748 36.5845C60.7665 35.8565 61.0887 34.993 61.0887 34.0967C61.0887 32.0287 60.508 30.253 59.3983 28.9715C58.7426 28.2143 57.9344 27.6684 57.034 27.3453C57.2016 26.7923 57.2894 26.2321 57.2693 25.6655C57.2254 24.4222 56.6724 23.3659 55.7807 22.4623C54.4207 21.0844 52.7454 20.9382 51.4495 21.0918C50.8341 21.1647 50.2655 21.3079 49.8076 21.4374C49.6667 21.1659 49.505 20.8777 49.3274 20.609C48.8232 19.8458 48.0399 18.973 46.8222 18.567C45.5945 18.1576 44.2506 18.407 43.2687 18.735C42.8865 18.8627 42.504 19.0211 42.147 19.1993C41.9065 18.9236 41.6293 18.6485 41.3168 18.3923C40.4655 17.6943 39.2741 17.0762 37.7989 17.0762ZM36.161 38.2859C34.8574 37.9599 34.1553 36.811 33.938 36.167C33.9549 35.0773 34.114 34.6748 34.3124 34.4103C34.5782 34.0558 35.0991 33.6894 36.4536 33.0118C36.7668 32.8551 37.3645 32.6921 38.2568 32.5683C39.1156 32.4493 40.1296 32.3814 41.1939 32.3519C42.8419 32.3062 44.5515 32.354 45.8869 32.4277C46.1429 33.0893 46.5484 33.615 46.9124 34.0014C47.2104 34.3177 47.5144 34.5765 47.7477 34.7681C47.844 34.8472 47.8816 34.8774 47.9155 34.9047C47.9468 34.9299 47.975 34.9525 48.0437 35.009C48.0821 35.0407 48.1105 35.0646 48.132 35.0834C48.1427 35.0928 48.1498 35.0992 48.1539 35.103C48.157 35.1058 48.1584 35.1071 48.1584 35.1071L50.1787 33.0869C50.0368 32.9448 49.8192 32.7691 49.6623 32.6423C49.6244 32.6118 49.5897 32.5837 49.5608 32.56C49.359 32.3942 49.1651 32.2259 48.992 32.0421C48.6332 31.6613 48.4879 31.347 48.4856 31.0613C48.4831 30.7542 48.6338 30.4324 48.9118 30.1415C49.0458 30.0012 49.1806 29.9004 49.2759 29.8435C49.3158 29.8197 49.3366 29.8107 49.3366 29.8107L49.3341 29.8116C49.3285 29.8138 49.3045 29.8226 49.2643 29.8318C49.2278 29.8401 49.1493 29.8555 49.041 29.8555V26.9983C48.7383 26.9983 48.4803 27.0799 48.3232 27.1393C48.1438 27.2072 47.9706 27.2951 47.8107 27.3906C47.4907 27.5818 47.1547 27.8447 46.8462 28.1675C46.5054 28.5242 46.1601 28.9963 45.9247 29.5684C44.5413 29.4948 42.8042 29.449 41.1148 29.4958C39.9912 29.527 38.8641 29.5996 37.8644 29.7383C36.8982 29.8722 35.9199 30.084 35.1753 30.4565C33.8852 31.1019 32.7529 31.7276 32.0266 32.6961C31.4961 33.4035 31.2495 34.1918 31.1457 35.0646C30.5538 35.1021 29.862 35.1179 29.1495 35.0862C27.8517 35.0284 26.6601 34.8191 25.8725 34.4254C24.2959 33.6372 23.7904 32.1604 24.0691 30.8852C24.3425 29.634 25.3807 28.5324 27.2182 28.5324H29.3018L28.5507 26.5889C28.1638 25.5878 28.3381 24.5263 28.9897 23.7576C29.6265 23.0064 30.89 22.3494 33.0217 22.5716L33.8271 22.6556L34.3128 22.0077C34.5555 21.684 35.0713 21.1348 35.7425 20.6781C36.419 20.2177 37.1313 19.9333 37.7989 19.9333C38.4399 19.9333 39.012 20.1973 39.5053 20.6017C40.0104 21.0159 40.3512 21.5141 40.4889 21.7895L41.3753 23.5628L42.777 22.1608C42.8912 22.0466 43.4157 21.6983 44.174 21.445C44.9319 21.1918 45.5592 21.1576 45.9185 21.2774C46.288 21.4006 46.6195 21.6934 46.9436 22.1839C47.1891 22.5555 47.3507 22.902 47.524 23.2737C47.5989 23.4344 47.6761 23.5998 47.7631 23.774L48.2511 24.7502L49.3212 24.5361C49.582 24.4839 49.9321 24.3796 50.2372 24.2887C50.3424 24.2573 50.4424 24.2275 50.5314 24.202C50.9487 24.0826 51.369 23.9784 51.7856 23.9291C52.6101 23.8314 53.2452 23.9608 53.7471 24.4693C54.2543 24.9832 54.4007 25.3916 54.414 25.7664C54.4292 26.1963 54.2763 26.8082 53.7547 27.7139L52.5213 29.8555H54.9926C55.9238 29.8555 56.6882 30.2064 57.2383 30.8417C57.801 31.4916 58.2315 32.5508 58.2315 34.0967C58.2315 34.3342 58.1356 34.7162 57.8588 35.2304C57.591 35.728 57.2043 36.256 56.7572 36.7561C56.372 37.1871 55.9624 37.5746 55.5833 37.8833C55.3621 37.6427 55.1088 37.4366 54.8372 37.2636C54.0717 36.7758 53.1392 36.5282 52.2676 36.389C50.7138 36.141 48.8899 36.1765 47.5219 36.2031C47.3564 36.2063 47.1976 36.2094 47.0467 36.2119C46.7994 36.2159 46.5099 36.2124 46.1924 36.2086C45.1459 36.1959 43.7943 36.1796 42.638 36.4159C41.8354 36.58 40.986 36.8826 40.2544 37.4678C39.7937 37.8362 39.4115 38.2915 39.1213 38.8348C38.4136 38.7545 37.3869 38.5924 36.161 38.2859Z" fill="white"/>
<path d="M22.5899 5.74805C16.2947 5.74805 7.90123 11.4178 3.70448 18.505C3.70448 19.2138 3.2848 22.1904 1.6061 28.4271C-0.492277 36.2231 3.70448 39.058 3.70448 41.8928C3.70448 44.7277 9.30015 44.7277 15.5953 46.1452C21.8904 47.5626 17.6937 42.6016 17.6937 36.9318V31.262C17.6937 28.4271 19.792 25.5923 22.5899 22.0486C25.3877 18.505 27.4861 18.505 34.4807 13.544C41.4753 8.58293 35.8796 10.7091 34.4807 8.58293C33.0818 6.45677 28.885 5.74805 22.5899 5.74805Z" fill="url(#paint0_linear_2053_25993)"/>
</g>
<g opacity="0.3" filter="url(#filter0_f_2053_25993)">
<ellipse cx="38.5717" cy="11.4291" rx="5.71428" ry="5.71429" fill="white"/>
<path d="M43.786 11.4291C43.786 14.3089 41.4515 16.6434 38.5717 16.6434C35.6919 16.6434 33.3574 14.3089 33.3574 11.4291C33.3574 8.54936 35.6919 6.21484 38.5717 6.21484C41.4515 6.21484 43.786 8.54936 43.786 11.4291Z" stroke="#D70A42"/>
</g>
<path d="M40.8576 11.4302C40.8576 12.6926 39.8342 13.716 38.5718 13.716C37.3095 13.716 36.2861 12.6926 36.2861 11.4302C36.2861 10.1679 37.3095 9.14453 38.5718 9.14453C39.8342 9.14453 40.8576 10.1679 40.8576 11.4302Z" fill="white"/>
<path fill-rule="evenodd" clip-rule="evenodd" d="M43.7144 11.43C43.7144 14.2703 41.4119 16.5728 38.5716 16.5728C35.7312 16.5728 33.4287 14.2703 33.4287 11.43C33.4287 8.58964 35.7312 6.28711 38.5716 6.28711C41.4119 6.28711 43.7144 8.58964 43.7144 11.43ZM38.5716 13.7157C39.8339 13.7157 40.8573 12.6923 40.8573 11.43C40.8573 10.1676 39.8339 9.14425 38.5716 9.14425C37.3092 9.14425 36.2859 10.1676 36.2859 11.43C36.2859 12.6923 37.3092 13.7157 38.5716 13.7157Z" fill="#D70A42"/>
<defs>
<filter id="filter0_f_2053_25993" x="30.8574" y="3.71484" width="15.4287" height="15.4277" filterUnits="userSpaceOnUse" color-interpolation-filters="sRGB">
<feFlood flood-opacity="0" result="BackgroundImageFix"/>
<feBlend mode="normal" in="SourceGraphic" in2="BackgroundImageFix" result="shape"/>
<feGaussianBlur stdDeviation="1" result="effect1_foregroundBlur_2053_25993"/>
</filter>
<linearGradient id="paint0_linear_2053_25993" x1="34.3226" y1="15.072" x2="20.0572" y2="12.8953" gradientUnits="userSpaceOnUse">
<stop stop-color="#D70A42"/>
<stop offset="1" stop-color="#D70A42" stop-opacity="0"/>
</linearGradient>
</defs>
</svg>
