<svg width="80" height="80" viewBox="0 0 80 80" fill="none" xmlns="http://www.w3.org/2000/svg">
<mask id="mask0_2053_26005" style="mask-type:alpha" maskUnits="userSpaceOnUse" x="3" y="10" width="74" height="58">
<path fill-rule="evenodd" clip-rule="evenodd" d="M57.3535 14.8005C56.5006 14.2009 55.3969 13.8574 54.8436 13.8574V11.8574C55.9033 11.8574 57.4007 12.3889 58.5037 13.1643C59.0657 13.5594 59.6162 14.0797 59.9435 14.7258C60.2914 15.4126 60.373 16.2268 59.9781 17.043C59.608 17.8078 58.9939 18.561 58.332 19.2651C57.6663 19.9732 56.8898 20.6952 56.1439 21.3888L56.1294 21.4022C55.3674 22.1108 54.6374 22.7902 54.022 23.4448C53.3985 24.1079 52.9539 24.6828 52.7191 25.168C52.0952 26.4574 51.4143 28.8143 50.9175 30.776C52.292 31.2185 53.4885 32.0608 54.377 33.1663C54.5826 32.9761 54.7994 32.785 55.025 32.5978C55.953 31.8281 57.126 31.0438 58.3367 30.7418C59.5719 30.4337 60.457 30.248 61.2924 30.248C61.6858 30.248 62.0546 30.2889 62.4298 30.3636C62.4159 28.9095 62.7587 27.8083 63.415 26.831C63.8227 26.224 64.3284 25.6996 64.8533 25.1958C65.0642 24.9935 65.271 24.8009 65.4806 24.6056L65.4809 24.6053C65.8221 24.2874 66.1707 23.9627 66.5562 23.5781L67.9688 24.9939C67.5676 25.3942 67.1617 25.7728 66.7982 26.1119L66.7977 26.1124C66.5953 26.3012 66.4061 26.4777 66.2381 26.6389C65.7393 27.1175 65.36 27.5222 65.0753 27.946C64.6083 28.6414 64.3246 29.4917 64.4649 31.0153C65.2099 31.3871 65.7887 31.914 66.3123 32.3906C66.3876 32.4591 66.4617 32.5266 66.535 32.5925C67.2726 33.2548 68.101 33.9404 69.494 34.4964C70.6298 34.9496 71.5053 34.6371 72.2458 34.083C72.6299 33.7956 72.9642 33.4491 73.2523 33.1166C73.3773 32.9725 73.4882 32.8374 73.5938 32.7089L73.6427 32.6494C73.7504 32.5184 73.8802 32.3609 73.9995 32.2418L75.4121 33.6577C75.3763 33.6933 75.3123 33.7679 75.1874 33.9198L75.1413 33.9759L75.141 33.9762L75.1403 33.9771C75.0355 34.1047 74.907 34.2612 74.7636 34.4267C74.4315 34.8098 73.9905 35.2755 73.4441 35.6843C72.3238 36.5226 70.7182 37.1383 68.7527 36.3539C67.0443 35.6721 66.0119 34.8107 65.1988 34.0806L65.0611 33.9567L65.0017 33.9031L65.0017 33.9031C64.2875 33.2592 63.857 32.871 63.2253 32.661C62.3195 32.3597 61.8241 32.248 61.2924 32.248C60.7323 32.248 60.0667 32.3716 58.8208 32.6824C58.0466 32.8755 57.1521 33.432 56.3019 34.1372C55.9886 34.397 55.6945 34.666 55.4294 34.9254C55.8115 35.8259 56.0228 36.8175 56.0228 37.8574C56.0228 39.0515 55.7442 40.1818 55.2484 41.1838L55.2608 41.1878C55.9246 41.4046 56.8232 41.6237 57.8331 41.8318C59.8189 42.2408 62.1303 42.5862 63.6768 42.7817C64.6006 42.7805 66.012 42.7508 67.3144 42.6662C67.9814 42.6229 68.6058 42.5661 69.1155 42.4939C69.6632 42.4163 69.9633 42.3352 70.0621 42.2888L70.9138 44.0983C70.5126 44.2872 69.9379 44.3973 69.3961 44.4741C68.8162 44.5563 68.1361 44.6171 67.444 44.662C66.6767 44.7119 65.8773 44.7432 65.1548 44.7613C65.7306 46.3242 65.7803 47.7484 65.096 49.0163C64.2524 50.5795 62.4468 51.578 60.1981 52.3718L59.5324 50.4859C61.7278 49.7109 62.8762 48.9184 63.336 48.0665C63.7154 47.3634 63.7502 46.3568 62.9611 44.7057C61.4057 44.4994 59.2891 44.1737 57.4296 43.7906C56.393 43.5771 55.4093 43.3403 54.6398 43.089C54.4476 43.0262 54.261 42.96 54.0851 42.8901C52.7487 44.3615 50.8325 45.286 48.696 45.286C48.6395 45.286 48.5831 45.2853 48.5269 45.2841C48.395 45.6489 48.2941 46.0812 48.2869 46.5194C48.2755 47.2119 48.4907 47.8815 49.184 48.4098C50.3044 49.2636 51.9729 50.2647 53.6133 51.2489L53.6134 51.249L53.914 51.4294C54.7675 51.9418 55.5998 52.445 56.2985 52.9014C56.9772 53.3447 57.6052 53.7914 58.0002 54.1928C59.3585 55.5729 61.5186 58.479 60.1039 62.7912L58.2036 62.1678C59.2773 58.8947 57.7049 56.7439 56.5747 55.5956C56.3477 55.3649 55.8869 55.0214 55.2048 54.5758C54.834 54.3337 54.4198 54.0752 53.9766 53.8043C53.6923 55.5271 52.6706 56.9618 51.4949 58.0467C49.8402 59.5736 47.7291 60.5659 46.335 60.9201L45.8426 58.9816C46.9369 58.7037 48.745 57.8629 50.1386 56.5769C51.3419 55.4665 52.1207 54.1446 52.0481 52.6421C50.589 51.7651 49.0603 50.8301 47.9718 50.0006C46.6744 49.0119 46.2675 47.6797 46.2872 46.4864C46.2961 45.9435 46.3918 45.4227 46.5302 44.9565C45.2609 44.5592 44.1409 43.8218 43.2714 42.8507C40.272 44.603 38.4996 46.5673 37.3922 48.6147C36.158 50.8965 35.7058 53.3584 35.3967 55.9494C35.0602 58.7697 34.0257 60.6691 32.4514 61.9304C30.919 63.158 28.991 63.683 27.0774 64.0171C25.337 64.321 22.9766 63.8774 20.8687 63.2918C19.2012 62.8285 17.5787 62.2429 16.3425 61.7412C16.0545 62.3844 15.6762 63.0191 15.2028 63.6389C14.4664 64.6033 13.3975 65.2539 12.2758 65.6967C9.59961 66.7532 6.15735 66.8069 4.32324 66.6468L4.49719 64.6544C6.05084 64.79 8.76543 64.7399 10.9476 64.0469C11.0093 61.7051 10.255 60.2236 9.3488 59.293C8.32985 58.2466 7.03139 57.8081 6.18844 57.7265L6.38118 55.7358C7.62112 55.8558 9.38449 56.4628 10.7817 57.8977C11.9362 59.0833 12.7872 60.7795 12.9298 63.0882C13.2022 62.8848 13.4312 62.6636 13.6133 62.4251C14.2051 61.6501 14.5905 60.8786 14.8113 60.1304C15.4755 57.8798 14.6984 55.619 13.0242 53.8622C11.343 52.098 8.8343 50.9392 6.28481 50.9392V48.9392C9.41291 48.9392 12.4356 50.3455 14.4721 52.4824C16.3223 54.4239 17.4211 57.0476 16.9347 59.8227C18.1248 60.3121 19.745 60.9039 21.404 61.3648C23.4982 61.9466 25.4743 62.2668 26.7333 62.0469C28.5688 61.7264 30.0776 61.2694 31.2009 60.3695C32.2822 59.5032 33.1224 58.1294 33.4108 55.7125C33.7265 53.0664 34.2116 50.2912 35.6331 47.6632C36.9182 45.2872 38.9334 43.0931 42.1475 41.1915C41.6493 40.1876 41.3693 39.0545 41.3693 37.8574C41.3693 37.6669 41.3764 37.478 41.3903 37.291C38.6926 37.0669 36.3618 38.1907 34.3427 39.7294C33.1577 40.6324 32.11 41.6569 31.1833 42.5985C31.0342 42.75 30.886 42.9019 30.7394 43.052L30.7391 43.0523C30.0119 43.7973 29.3234 44.5027 28.7439 44.9443C26.936 46.322 25.0597 46.4615 23.6073 45.4682C22.2485 44.5389 21.5388 42.7956 21.5388 40.9884H23.5388C23.5388 42.3417 24.0733 43.3639 24.7364 43.8173C25.3058 44.2068 26.2289 44.3463 27.5316 43.3536C27.9832 43.0094 28.5393 42.4407 29.2682 41.6952L29.2683 41.6951L29.2684 41.6951L29.2684 41.6951L29.2684 41.695L29.4423 41.5172L29.3965 41.4571C31.3478 39.9701 31.5834 37.407 30.3255 34.4248C28.6994 30.5701 25.3074 30.6029 24.4878 30.6108C24.4558 30.6111 24.4277 30.6114 24.4037 30.6114V28.6114C24.4254 28.6114 24.4524 28.611 24.4846 28.6107C25.3587 28.6003 30.0158 28.545 32.1682 33.6475C32.7917 35.1255 33.1505 36.6862 33.0938 38.1667L33.1305 38.1386C35.4167 36.3964 38.3292 34.9441 41.8079 35.3211C42.2259 34.155 42.9238 33.1235 43.8206 32.312C43.3608 31.3028 42.766 29.9132 42.4013 28.7917C42.1507 28.0211 41.4019 27.0891 39.7669 26.0493C38.6103 25.3136 37.0643 24.5586 35.0669 23.7908C30.8296 22.1621 29.8576 19.2982 30.1761 17.6659L32.1391 18.0489C32.0511 18.5 32.2173 20.5528 35.7845 21.924C37.2226 22.4768 38.4693 23.0358 39.5334 23.6031C39.6072 22.649 39.5989 21.3424 39.3221 19.9239C39.1181 18.8782 38.4503 17.6088 37.6181 16.3901C36.8002 15.1923 35.8928 14.1431 35.3197 13.5557L36.7513 12.1591C37.3977 12.8217 38.3805 13.96 39.2697 15.2622C40.1448 16.5436 41.0014 18.0867 41.2851 19.5409C41.6997 21.6658 41.5948 23.5899 41.4141 24.7447C42.8966 25.7849 43.8941 26.9151 44.3032 28.1732C44.6027 29.0941 45.086 30.2465 45.4996 31.1706C46.4644 30.6956 47.5484 30.4288 48.696 30.4288C48.7781 30.4288 48.8598 30.4302 48.9412 30.4329C49.4575 28.3765 50.1982 25.786 50.9189 24.2968L50.9401 24.2535L49.4202 22.2175C48.9983 21.6523 48.757 20.9448 48.6139 20.2504C48.4683 19.5443 48.4093 18.7764 48.4005 18.0311C48.383 16.5422 48.5655 15.0425 48.7409 14.1025L50.707 14.4694C50.5506 15.3073 50.3847 16.6742 50.4004 18.0076C50.4082 18.6734 50.4612 19.3055 50.5727 19.8466C50.6867 20.3994 50.8477 20.7863 51.0229 21.0211L52.1502 22.5312C52.285 22.377 52.4239 22.2248 52.5649 22.0748C53.2307 21.3667 54.0072 20.6446 54.7531 19.951L54.7675 19.9376C55.5295 19.229 56.2595 18.5496 56.8749 17.8951C57.4984 17.2319 57.943 16.657 58.1778 16.1718C58.2667 15.988 58.2627 15.8335 58.1594 15.6296C58.0355 15.3851 57.7695 15.093 57.3535 14.8005ZM52.9778 34.6271C52.9276 34.6871 52.8804 34.7447 52.8364 34.7996L53.3479 35.2096C53.7774 35.9915 54.0228 36.8939 54.0228 37.8574C54.0228 40.8707 51.6229 43.286 48.696 43.286C45.7691 43.286 43.3693 40.8707 43.3693 37.8574C43.3693 34.9228 45.6456 32.5552 48.4682 32.4337C48.4518 32.5081 48.4363 32.5793 48.4217 32.6472L50.377 33.0677C50.3997 32.9621 50.4244 32.8496 50.4508 32.7308C51.4677 33.0926 52.3464 33.7599 52.9778 34.6271Z" fill="#F2B9C9"/>
<path d="M54.8436 13.8574H53.8436V14.8574H54.8436V13.8574ZM57.3535 14.8005L57.9286 13.9824V13.9824L57.3535 14.8005ZM54.8436 11.8574V10.8574H53.8436V11.8574H54.8436ZM58.5037 13.1643L57.9286 13.9824V13.9824L58.5037 13.1643ZM59.9435 14.7258L60.8356 14.2739V14.2739L59.9435 14.7258ZM59.9781 17.043L59.0779 16.6074V16.6074L59.9781 17.043ZM58.332 19.2651L57.6035 18.5801L58.332 19.2651ZM56.1439 21.3888L56.8249 22.1211V22.1211L56.1439 21.3888ZM56.1294 21.4022L55.4485 20.6699V20.6699L56.1294 21.4022ZM54.022 23.4448L53.2935 22.7598V22.7598L54.022 23.4448ZM52.7191 25.168L51.819 24.7324V24.7324L52.7191 25.168ZM50.9175 30.776L49.9481 30.5305L49.7177 31.4402L50.611 31.7278L50.9175 30.776ZM54.377 33.1663L53.5976 33.7927L54.2693 34.6284L55.0562 33.9003L54.377 33.1663ZM55.025 32.5978L54.3866 31.8281L55.025 32.5978ZM58.3367 30.7418L58.5788 31.7121L58.3367 30.7418ZM62.4298 30.3636L62.2347 31.3444L63.4415 31.5844L63.4298 30.354L62.4298 30.3636ZM63.415 26.831L62.5849 26.2735L62.5849 26.2735L63.415 26.831ZM64.8533 25.1958L65.5457 25.9174L65.5457 25.9174L64.8533 25.1958ZM65.4806 24.6056L64.8006 23.8724L64.799 23.8739L65.4806 24.6056ZM65.4809 24.6053L66.1609 25.3385L66.1625 25.337L65.4809 24.6053ZM66.5562 23.5781L67.2642 22.8718L66.5579 22.1639L65.8499 22.8702L66.5562 23.5781ZM67.9688 24.9939L68.6751 25.7018L69.383 24.9955L68.6767 24.2876L67.9688 24.9939ZM66.7982 26.1119L66.1161 25.3806L66.1126 25.3839L66.7982 26.1119ZM66.7977 26.1124L67.4798 26.8436L67.4834 26.8403L66.7977 26.1124ZM66.2381 26.6389L66.9305 27.3604V27.3604L66.2381 26.6389ZM65.0753 27.946L65.9055 28.5035V28.5035L65.0753 27.946ZM64.4649 31.0153L63.4692 31.1071L63.5202 31.6615L64.0184 31.9101L64.4649 31.0153ZM66.3123 32.3906L66.9855 31.6511L66.9854 31.6511L66.3123 32.3906ZM66.535 32.5925L65.8669 33.3365L65.8669 33.3365L66.535 32.5925ZM69.494 34.4964L69.1233 35.4251V35.4251L69.494 34.4964ZM72.2458 34.083L72.845 34.8836L72.2458 34.083ZM73.2523 33.1166L72.4967 32.4616L72.4967 32.4616L73.2523 33.1166ZM73.5938 32.7089L72.8211 32.0741L72.8209 32.0743L73.5938 32.7089ZM73.6427 32.6494L72.8703 32.0142L72.87 32.0145L73.6427 32.6494ZM73.9995 32.2418L74.7074 31.5356L74.0011 30.8276L73.2932 31.5339L73.9995 32.2418ZM75.4121 33.6577L76.1184 34.3656L76.8262 33.6593L76.12 32.9514L75.4121 33.6577ZM75.1874 33.9198L74.415 33.2846L74.4146 33.2851L75.1874 33.9198ZM75.1413 33.9759L74.3684 33.3412L74.3604 33.3512L75.1413 33.9759ZM75.141 33.9762L75.9179 34.6059L75.9219 34.6009L75.141 33.9762ZM75.1403 33.9771L75.9132 34.6117L75.9172 34.6067L75.1403 33.9771ZM74.7636 34.4267L75.5192 35.0817L75.5192 35.0817L74.7636 34.4267ZM73.4441 35.6843L74.0432 36.485L74.0432 36.485L73.4441 35.6843ZM68.7527 36.3539L68.382 37.2827V37.2827L68.7527 36.3539ZM65.1988 34.0806L64.5299 34.824L64.5307 34.8247L65.1988 34.0806ZM65.0611 33.9567L64.3915 34.6994L64.3922 34.7L65.0611 33.9567ZM65.0017 33.9031L65.6713 33.1604L65.6378 33.1302L65.6017 33.1031L65.0017 33.9031ZM65.0017 33.9031L64.3321 34.6458L64.3656 34.676L64.4017 34.7031L65.0017 33.9031ZM63.2253 32.661L62.9098 33.6099L63.2253 32.661ZM58.8208 32.6824L59.0628 33.6526L59.0628 33.6526L58.8208 32.6824ZM56.3019 34.1372L56.9403 34.9068L56.3019 34.1372ZM55.4294 34.9254L54.73 34.2107L54.2424 34.6879L54.5088 35.3159L55.4294 34.9254ZM55.2484 41.1838L54.3521 40.7403L53.8403 41.7749L54.9372 42.1341L55.2484 41.1838ZM55.2608 41.1878L54.9496 42.1382L54.9503 42.1384L55.2608 41.1878ZM57.8331 41.8318L57.6313 42.8112H57.6313L57.8331 41.8318ZM63.6768 42.7817L63.5514 43.7738L63.6145 43.7818L63.6782 43.7817L63.6768 42.7817ZM67.3144 42.6662L67.2497 41.6683L67.3144 42.6662ZM69.1155 42.4939L69.2558 43.484L69.1155 42.4939ZM70.0621 42.2888L70.9669 41.8629L70.541 40.9581L69.6362 41.384L70.0621 42.2888ZM70.9138 44.0983L71.3397 45.0031L72.2445 44.5772L71.8186 43.6725L70.9138 44.0983ZM69.3961 44.4741L69.5364 45.4642H69.5364L69.3961 44.4741ZM67.444 44.662L67.5088 45.6599H67.5088L67.444 44.662ZM65.1548 44.7613L65.1298 43.7616L63.7337 43.7965L64.2165 45.107L65.1548 44.7613ZM65.096 49.0163L65.9761 49.4912V49.4912L65.096 49.0163ZM60.1981 52.3718L59.2552 52.7047L59.588 53.6477L60.531 53.3148L60.1981 52.3718ZM59.5324 50.4859L59.1995 49.5429L58.2565 49.8758L58.5894 50.8188L59.5324 50.4859ZM63.336 48.0665L64.216 48.5414V48.5414L63.336 48.0665ZM62.9611 44.7057L63.8633 44.2745L63.6296 43.7856L63.0925 43.7144L62.9611 44.7057ZM57.4296 43.7906L57.2278 44.7701V44.7701L57.4296 43.7906ZM54.6398 43.089L54.9503 42.1384V42.1384L54.6398 43.089ZM54.0851 42.8901L54.4547 41.9609L53.8108 41.7048L53.3449 42.2178L54.0851 42.8901ZM48.5269 45.2841L48.5498 44.2843L47.831 44.2679L47.5865 44.9441L48.5269 45.2841ZM48.2869 46.5194L49.2868 46.5359L48.2869 46.5194ZM49.184 48.4098L49.7901 47.6145L49.184 48.4098ZM53.6133 51.2489L54.1433 50.4009L54.1356 50.3961L54.1278 50.3914L53.6133 51.2489ZM53.6134 51.249L53.0834 52.097L53.0911 52.1018L53.0988 52.1064L53.6134 51.249ZM53.914 51.4294L54.4288 50.5721L54.4286 50.572L53.914 51.4294ZM56.2985 52.9014L55.7516 53.7386L55.7516 53.7386L56.2985 52.9014ZM58.0002 54.1928L57.2875 54.8942H57.2875L58.0002 54.1928ZM60.1039 62.7912L59.7922 63.7414L60.7424 64.0531L61.0541 63.103L60.1039 62.7912ZM58.2036 62.1678L57.2534 61.8561L56.9417 62.8063L57.8919 63.118L58.2036 62.1678ZM56.5747 55.5956L57.2875 54.8942L57.2875 54.8942L56.5747 55.5956ZM55.2048 54.5758L55.7516 53.7386L55.2048 54.5758ZM53.9766 53.8043L54.4981 52.951L53.2315 52.1768L52.9899 53.6415L53.9766 53.8043ZM51.4949 58.0467L50.8168 57.3118H50.8167L51.4949 58.0467ZM46.335 60.9201L45.3658 61.1663L45.612 62.1355L46.5812 61.8893L46.335 60.9201ZM45.8426 58.9816L45.5964 58.0124L44.6272 58.2586L44.8734 59.2278L45.8426 58.9816ZM50.1386 56.5769L49.4604 55.842L49.4604 55.842L50.1386 56.5769ZM52.0481 52.6421L53.0469 52.5938L53.0211 52.0602L52.5632 51.785L52.0481 52.6421ZM47.9718 50.0006L47.3656 50.7959L47.9718 50.0006ZM46.2872 46.4864L45.2873 46.4699V46.4699L46.2872 46.4864ZM46.5302 44.9565L47.4888 45.241L47.7691 44.2965L46.8289 44.0022L46.5302 44.9565ZM43.2714 42.8507L44.0164 42.1837L43.4719 41.5755L42.767 41.9873L43.2714 42.8507ZM37.3922 48.6147L38.2718 49.0904L37.3922 48.6147ZM35.3967 55.9494L34.4037 55.831V55.831L35.3967 55.9494ZM32.4514 61.9304L33.0766 62.7108H33.0766L32.4514 61.9304ZM27.0774 64.0171L27.2494 65.0022L27.0774 64.0171ZM20.8687 63.2918L21.1363 62.3283H21.1363L20.8687 63.2918ZM16.3425 61.7412L16.7185 60.8146L15.8241 60.4517L15.4298 61.3326L16.3425 61.7412ZM15.2028 63.6389L15.9976 64.2458L15.9976 64.2458L15.2028 63.6389ZM12.2758 65.6967L11.9086 64.7666H11.9086L12.2758 65.6967ZM4.32324 66.6468L3.32703 66.5598L3.24006 67.556L4.23627 67.643L4.32324 66.6468ZM4.49719 64.6544L4.58416 63.6582L3.58795 63.5712L3.50098 64.5674L4.49719 64.6544ZM10.9476 64.0469L11.2503 65L11.9285 64.7846L11.9472 64.0732L10.9476 64.0469ZM9.3488 59.293L10.0652 58.5953H10.0652L9.3488 59.293ZM6.18844 57.7265L5.19309 57.6301L5.09672 58.6254L6.09207 58.7218L6.18844 57.7265ZM6.38118 55.7358L6.47755 54.7404L5.48221 54.644L5.38584 55.6394L6.38118 55.7358ZM10.7817 57.8977L10.0652 58.5953H10.0652L10.7817 57.8977ZM12.9298 63.0882L11.9317 63.1499L12.0458 64.9967L13.5282 63.8894L12.9298 63.0882ZM13.6133 62.4251L12.8185 61.8182L12.8185 61.8182L13.6133 62.4251ZM14.8113 60.1304L15.7704 60.4135V60.4135L14.8113 60.1304ZM13.0242 53.8622L12.3003 54.5521L12.3003 54.5521L13.0242 53.8622ZM6.28481 50.9392H5.28481V51.9392H6.28481V50.9392ZM6.28481 48.9392V47.9392H5.28481V48.9392H6.28481ZM14.4721 52.4824L13.7481 53.1723L13.7481 53.1723L14.4721 52.4824ZM16.9347 59.8227L15.9497 59.6501L15.8109 60.4418L16.5544 60.7476L16.9347 59.8227ZM21.404 61.3648L21.1363 62.3283L21.404 61.3648ZM26.7333 62.0469L26.9053 63.032L26.7333 62.0469ZM31.2009 60.3695L30.5757 59.5891H30.5757L31.2009 60.3695ZM33.4108 55.7125L34.4037 55.831L33.4108 55.7125ZM35.6331 47.6632L36.5126 48.1389L35.6331 47.6632ZM42.1475 41.1915L42.6567 42.0522L43.4562 41.5792L43.0433 40.747L42.1475 41.1915ZM41.3903 37.291L42.3875 37.3654L42.4612 36.3766L41.4731 36.2945L41.3903 37.291ZM34.3427 39.7294L34.9489 40.5247H34.9489L34.3427 39.7294ZM31.1833 42.5985L31.8961 43.2999L31.8961 43.2999L31.1833 42.5985ZM30.7394 43.052L30.0238 42.3535L30.0236 42.3537L30.7394 43.052ZM30.7391 43.0523L31.4547 43.7508L31.4549 43.7506L30.7391 43.0523ZM28.7439 44.9443L29.35 45.7397H29.35L28.7439 44.9443ZM23.6073 45.4682L23.0428 46.2936V46.2936L23.6073 45.4682ZM21.5388 40.9884V39.9884H20.5388V40.9884H21.5388ZM23.5388 40.9884H24.5388V39.9884H23.5388V40.9884ZM24.7364 43.8173L24.1718 44.6428L24.1718 44.6428L24.7364 43.8173ZM27.5316 43.3536L26.9255 42.5582L26.9255 42.5582L27.5316 43.3536ZM29.2682 41.6952L28.5611 40.9881L28.5532 40.9961L29.2682 41.6952ZM29.2683 41.6951L29.9754 42.4022L30.0257 42.352L30.0683 42.2951L29.2683 41.6951ZM29.2684 41.6951L28.5612 40.988L28.511 41.0382L28.4684 41.0951L29.2684 41.6951ZM29.2684 41.695L29.9756 42.4022L29.9833 42.3943L29.2684 41.695ZM29.4423 41.5172L30.1572 42.2165L30.7616 41.5986L30.2377 40.9111L29.4423 41.5172ZM29.3965 41.4571L28.7904 40.6618L27.995 41.2679L28.6011 42.0632L29.3965 41.4571ZM30.3255 34.4248L31.2468 34.0361L30.3255 34.4248ZM24.4878 30.6108L24.4781 29.6108H24.4781L24.4878 30.6108ZM24.4037 30.6114H23.4037V31.6114H24.4037V30.6114ZM24.4037 28.6114V27.6114H23.4037V28.6114H24.4037ZM24.4846 28.6107L24.4728 27.6107H24.4727L24.4846 28.6107ZM32.1682 33.6475L33.0896 33.2588L32.1682 33.6475ZM33.0938 38.1667L32.0945 38.1284L32.0132 40.2506L33.7008 38.9613L33.0938 38.1667ZM33.1305 38.1386L32.5244 37.3433L32.5234 37.344L33.1305 38.1386ZM41.8079 35.3211L41.7002 36.3153L42.4835 36.4002L42.7493 35.6585L41.8079 35.3211ZM43.8206 32.312L44.4916 33.0534L45.0338 32.5628L44.7306 31.8974L43.8206 32.312ZM42.4013 28.7917L43.3522 28.4824L43.3522 28.4824L42.4013 28.7917ZM39.7669 26.0493L39.2303 26.893V26.893L39.7669 26.0493ZM35.0669 23.7908L35.4257 22.8574H35.4257L35.0669 23.7908ZM30.1761 17.6659L30.3676 16.6844L29.3861 16.4929L29.1946 17.4744L30.1761 17.6659ZM32.1391 18.0489L33.1206 18.2404L33.3121 17.2589L32.3306 17.0674L32.1391 18.0489ZM35.7845 21.924L36.1433 20.9906L36.1433 20.9906L35.7845 21.924ZM39.5334 23.6031L39.063 24.4855L40.4125 25.2049L40.5304 23.6802L39.5334 23.6031ZM39.3221 19.9239L40.3036 19.7324V19.7324L39.3221 19.9239ZM37.6181 16.3901L38.4439 15.8262L37.6181 16.3901ZM35.3197 13.5557L34.6214 12.8399L33.9056 13.5382L34.6039 14.254L35.3197 13.5557ZM36.7513 12.1591L37.4671 11.4608L36.7688 10.745L36.053 11.4433L36.7513 12.1591ZM39.2697 15.2622L40.0956 14.6983L40.0956 14.6983L39.2697 15.2622ZM41.2851 19.5409L40.3036 19.7324V19.7324L41.2851 19.5409ZM41.4141 24.7447L40.4261 24.5901L40.3298 25.2055L40.8397 25.5633L41.4141 24.7447ZM44.3032 28.1732L45.2542 27.8639L45.2542 27.8639L44.3032 28.1732ZM45.4996 31.1706L44.5869 31.5791L45.0107 32.5259L45.9413 32.0677L45.4996 31.1706ZM48.9412 30.4329L48.908 31.4324L49.7146 31.4592L49.9111 30.6764L48.9412 30.4329ZM50.9189 24.2968L50.0209 23.8568L50.0187 23.8612L50.9189 24.2968ZM50.9401 24.2535L51.8381 24.6935L52.1069 24.1449L51.7414 23.6553L50.9401 24.2535ZM49.4202 22.2175L48.6189 22.8157L48.6189 22.8157L49.4202 22.2175ZM48.6139 20.2504L47.6345 20.4523V20.4523L48.6139 20.2504ZM48.4005 18.0311L47.4006 18.0428V18.0428L48.4005 18.0311ZM48.7409 14.1025L48.9244 13.1195L47.9413 12.9361L47.7579 13.9191L48.7409 14.1025ZM50.707 14.4694L51.69 14.6529L51.8735 13.6699L50.8904 13.4864L50.707 14.4694ZM50.4004 18.0076L49.4005 18.0193V18.0193L50.4004 18.0076ZM50.5727 19.8466L49.5933 20.0485V20.0485L50.5727 19.8466ZM51.0229 21.0211L50.2216 21.6193L50.2216 21.6193L51.0229 21.0211ZM52.1502 22.5312L51.3489 23.1294L52.0887 24.1204L52.9029 23.1895L52.1502 22.5312ZM52.5649 22.0748L51.8364 21.3898L51.8364 21.3898L52.5649 22.0748ZM54.7531 19.951L54.0722 19.2187L54.0721 19.2187L54.7531 19.951ZM54.7675 19.9376L55.4484 20.67L55.4485 20.6699L54.7675 19.9376ZM56.8749 17.8951L57.6035 18.5801L56.8749 17.8951ZM58.1778 16.1718L57.2777 15.7362L57.2777 15.7362L58.1778 16.1718ZM58.1594 15.6296L57.2673 16.0815L57.2673 16.0815L58.1594 15.6296ZM52.8364 34.7996L52.0563 34.174L51.4307 34.9541L52.2108 35.5797L52.8364 34.7996ZM52.9778 34.6271L53.7447 35.2689L54.2461 34.6699L53.7862 34.0385L52.9778 34.6271ZM53.3479 35.2096L54.2243 34.7281L54.1286 34.5539L53.9734 34.4295L53.3479 35.2096ZM48.4682 32.4337L49.4448 32.6485L49.7241 31.3788L48.4252 31.4347L48.4682 32.4337ZM48.4217 32.6472L47.4441 32.4369L47.2338 33.4145L48.2115 33.6248L48.4217 32.6472ZM50.377 33.0677L50.1667 34.0453L51.1444 34.2556L51.3547 33.278L50.377 33.0677ZM50.4508 32.7308L50.7859 31.7887L49.7205 31.4097L49.4747 32.5134L50.4508 32.7308ZM54.8436 14.8574C54.9587 14.8574 55.2508 14.9038 55.6508 15.0462C56.0333 15.1824 56.4385 15.3797 56.7784 15.6186L57.9286 13.9824C57.4155 13.6217 56.8425 13.3475 56.3216 13.162C55.8182 12.9828 55.2818 12.8574 54.8436 12.8574V14.8574ZM53.8436 11.8574V13.8574H55.8436V11.8574H53.8436ZM59.0788 12.3463C57.851 11.4831 56.1567 10.8574 54.8436 10.8574V12.8574C55.6499 12.8574 56.9505 13.2948 57.9286 13.9824L59.0788 12.3463ZM60.8356 14.2739C60.4066 13.427 59.7137 12.7926 59.0788 12.3463L57.9286 13.9824C58.4176 14.3262 58.8259 14.7324 59.0515 15.1777L60.8356 14.2739ZM60.8782 17.4786C61.4267 16.3451 61.3051 15.2008 60.8356 14.2739L59.0515 15.1777C59.2777 15.6243 59.3194 16.1085 59.0779 16.6074L60.8782 17.4786ZM59.0606 19.9501C59.742 19.2253 60.4405 18.3831 60.8782 17.4786L59.0779 16.6074C58.7754 17.2326 58.2459 17.8967 57.6035 18.5801L59.0606 19.9501ZM56.8249 22.1211C57.5653 21.4326 58.3676 20.6871 59.0606 19.9501L57.6035 18.5801C56.9649 19.2592 56.2143 19.9578 55.4629 20.6565L56.8249 22.1211ZM56.8104 22.1345L56.8249 22.1211L55.4629 20.6565L55.4485 20.6699L56.8104 22.1345ZM54.7506 24.1297C55.3386 23.5044 56.0425 22.8486 56.8104 22.1345L55.4485 20.6699C54.6924 21.373 53.9362 22.0761 53.2935 22.7598L54.7506 24.1297ZM53.6193 25.6036C53.7863 25.2585 54.146 24.7728 54.7506 24.1297L53.2935 22.7598C52.6511 23.443 52.1216 24.1072 51.819 24.7324L53.6193 25.6036ZM51.8869 31.0215C52.3862 29.0497 53.0459 26.7884 53.6193 25.6036L51.819 24.7324C51.1444 26.1264 50.4423 28.5788 49.9481 30.5305L51.8869 31.0215ZM55.1565 32.5398C54.1492 31.2866 52.7902 30.3284 51.224 29.8241L50.611 31.7278C51.7939 32.1087 52.8278 32.835 53.5976 33.7927L55.1565 32.5398ZM54.3866 31.8281C54.1459 32.0278 53.9155 32.2309 53.6979 32.4323L55.0562 33.9003C55.2496 33.7213 55.4529 33.5422 55.6635 33.3675L54.3866 31.8281ZM58.0947 29.7715C56.6659 30.1279 55.3537 31.0259 54.3866 31.8281L55.6635 33.3675C56.5523 32.6302 57.5862 31.9597 58.5788 31.7121L58.0947 29.7715ZM61.2924 29.248C60.3197 29.248 59.3252 29.4646 58.0947 29.7715L58.5788 31.7121C59.8185 31.4029 60.5943 31.248 61.2924 31.248V29.248ZM62.6249 29.3828C62.1928 29.2968 61.7584 29.248 61.2924 29.248V31.248C61.6133 31.248 61.9165 31.281 62.2347 31.3444L62.6249 29.3828ZM62.5849 26.2735C61.8069 27.4318 61.4142 28.7341 61.4299 30.3731L63.4298 30.354C63.4177 29.085 63.7104 28.1848 64.2452 27.3885L62.5849 26.2735ZM64.1609 24.4743C63.6227 24.9908 63.054 25.575 62.5849 26.2735L64.2452 27.3885C64.5914 26.873 65.034 26.4084 65.5457 25.9174L64.1609 24.4743ZM64.799 23.8739C64.5901 24.0684 64.378 24.2661 64.1609 24.4743L65.5457 25.9174C65.7504 25.721 65.9518 25.5333 66.1622 25.3373L64.799 23.8739ZM64.8009 23.8721L64.8006 23.8724L66.1606 25.3388L66.1609 25.3385L64.8009 23.8721ZM65.8499 22.8702C65.4781 23.2411 65.1412 23.555 64.7993 23.8736L66.1625 25.337C66.503 25.0199 66.8633 24.6843 67.2625 24.286L65.8499 22.8702ZM68.6767 24.2876L67.2642 22.8718L65.8483 24.2844L67.2609 25.7002L68.6767 24.2876ZM67.4803 26.8431C67.8423 26.5055 68.2602 26.1158 68.6751 25.7018L67.2625 24.286C66.875 24.6726 66.4811 25.0402 66.1161 25.3807L67.4803 26.8431ZM67.4834 26.8403L67.4838 26.8399L66.1126 25.3839L66.1121 25.3844L67.4834 26.8403ZM66.9305 27.3604C67.0924 27.2051 67.2761 27.0337 67.4798 26.8436L66.1156 25.3811C65.9145 25.5687 65.7198 25.7503 65.5457 25.9174L66.9305 27.3604ZM65.9055 28.5035C66.1285 28.1715 66.4445 27.8268 66.9305 27.3604L65.5457 25.9174C65.0341 26.4083 64.5914 26.8729 64.2452 27.3885L65.9055 28.5035ZM65.4607 30.9236C65.338 29.5918 65.5861 28.9792 65.9055 28.5035L64.2452 27.3885C63.6306 28.3037 63.3111 29.3916 63.4692 31.1071L65.4607 30.9236ZM66.9854 31.6511C66.4726 31.1842 65.7982 30.563 64.9114 30.1205L64.0184 31.9101C64.6217 32.2111 65.1049 32.6437 65.6391 33.1301L66.9854 31.6511ZM67.2032 31.8484C67.1328 31.7853 67.0612 31.7201 66.9855 31.6511L65.6391 33.1301C65.7139 33.1982 65.7906 33.268 65.8669 33.3365L67.2032 31.8484ZM69.8646 33.5676C68.6294 33.0746 67.903 32.4769 67.2031 31.8484L65.8669 33.3365C66.6422 34.0326 67.5726 34.8063 69.1233 35.4251L69.8646 33.5676ZM71.6467 33.2823C71.3526 33.5024 71.0844 33.6344 70.8219 33.6869C70.5723 33.7368 70.2662 33.7278 69.8646 33.5676L69.1233 35.4251C69.8576 35.7182 70.5571 35.7795 71.2144 35.648C71.8587 35.5191 72.3986 35.2177 72.845 34.8836L71.6467 33.2823ZM72.4967 32.4616C72.2305 32.7688 71.9495 33.0558 71.6467 33.2823L72.845 34.8836C73.3102 34.5355 73.6979 34.1293 74.008 33.7717L72.4967 32.4616ZM72.8209 32.0743C72.7146 32.2037 72.6118 32.3289 72.4967 32.4616L74.008 33.7717C74.1429 33.616 74.2618 33.4712 74.3666 33.3435L72.8209 32.0743ZM72.87 32.0145L72.8211 32.0741L74.3664 33.3437L74.4153 33.2842L72.87 32.0145ZM73.2932 31.5339C73.1324 31.6944 72.9703 31.8926 72.8703 32.0142L74.415 33.2846C74.5304 33.1443 74.6279 33.0274 74.7058 32.9498L73.2932 31.5339ZM76.12 32.9514L74.7074 31.5356L73.2916 32.9481L74.7041 34.364L76.12 32.9514ZM75.9597 34.555C76.0207 34.4808 76.0628 34.4304 76.0922 34.3962C76.1249 34.358 76.1292 34.3548 76.1184 34.3656L74.7057 32.9498C74.6277 33.0276 74.5297 33.1451 74.415 33.2846L75.9597 34.555ZM75.914 34.6106L75.9601 34.5545L74.4146 33.2851L74.3685 33.3412L75.914 34.6106ZM75.9219 34.6009L75.9221 34.6006L74.3604 33.3512L74.3602 33.3515L75.9219 34.6009ZM75.9172 34.6067L75.9179 34.6058L74.3641 33.3466L74.3634 33.3474L75.9172 34.6067ZM75.5192 35.0817C75.6725 34.9048 75.8089 34.7387 75.9132 34.6117L74.3674 33.3425C74.2622 33.4708 74.1415 33.6176 74.008 33.7717L75.5192 35.0817ZM74.0432 36.485C74.6707 36.0154 75.165 35.4903 75.5192 35.0817L74.008 33.7717C73.6979 34.1293 73.3102 34.5355 72.845 34.8836L74.0432 36.485ZM68.382 37.2827C70.7642 38.2333 72.735 37.4638 74.0432 36.485L72.845 34.8836C71.9126 35.5813 70.6723 36.0433 69.1233 35.4251L68.382 37.2827ZM64.5307 34.8247C65.3817 35.5888 66.5161 36.538 68.382 37.2827L69.1233 35.4251C67.5726 34.8063 66.6422 34.0327 65.8669 33.3365L64.5307 34.8247ZM64.3922 34.7L64.5299 34.824L65.8677 33.3373L65.73 33.2133L64.3922 34.7ZM64.3321 34.6459L64.3915 34.6994L65.7307 33.2139L65.6713 33.1604L64.3321 34.6459ZM64.4017 34.7031L64.4017 34.7031L65.6017 33.1031L65.6017 33.1031L64.4017 34.7031ZM62.9098 33.6099C63.3065 33.7418 63.5819 33.9694 64.3321 34.6458L65.6713 33.1604C64.9932 32.549 64.4074 32.0003 63.5409 31.7121L62.9098 33.6099ZM61.2924 33.248C61.6576 33.248 62.0278 33.3166 62.9098 33.6099L63.5409 31.7121C62.6112 31.4029 61.9906 31.248 61.2924 31.248V33.248ZM59.0628 33.6526C60.315 33.3403 60.8703 33.248 61.2924 33.248V31.248C60.5943 31.248 59.8184 31.4029 58.5788 31.7121L59.0628 33.6526ZM56.9403 34.9068C57.7519 34.2337 58.5071 33.7912 59.0628 33.6526L58.5788 31.7121C57.5861 31.9597 56.5522 32.6303 55.6635 33.3675L56.9403 34.9068ZM56.1289 35.6401C56.377 35.3973 56.6508 35.147 56.9403 34.9068L55.6635 33.3675C55.3264 33.6471 55.0119 33.9348 54.73 34.2107L56.1289 35.6401ZM57.0228 37.8574C57.0228 36.6811 56.7835 35.5568 56.35 34.5349L54.5088 35.3159C54.8394 36.0951 55.0228 36.954 55.0228 37.8574H57.0228ZM56.1447 41.6272C56.7073 40.4902 57.0228 39.2084 57.0228 37.8574H55.0228C55.0228 38.8945 54.781 39.8734 54.3521 40.7403L56.1447 41.6272ZM55.572 40.2375L55.5596 40.2334L54.9372 42.1341L54.9496 42.1382L55.572 40.2375ZM58.0349 40.8523C57.0383 40.647 56.1822 40.4368 55.5712 40.2372L54.9503 42.1384C55.667 42.3725 56.6082 42.6004 57.6313 42.8112L58.0349 40.8523ZM63.8023 41.7896C62.2713 41.5961 59.9872 41.2545 58.0349 40.8523L57.6313 42.8112C59.6507 43.2272 61.9893 43.5763 63.5514 43.7738L63.8023 41.7896ZM67.2497 41.6683C65.9737 41.7512 64.5843 41.7805 63.6754 41.7817L63.6782 43.7817C64.617 43.7804 66.0503 43.7504 67.3792 43.6641L67.2497 41.6683ZM68.9752 41.5038C68.5006 41.571 67.9041 41.6259 67.2497 41.6683L67.3792 43.6641C68.0588 43.62 68.711 43.5612 69.2558 43.484L68.9752 41.5038ZM69.6362 41.384C69.6747 41.3659 69.6896 41.3634 69.6592 41.3726C69.6357 41.3797 69.5947 41.3909 69.5335 41.405C69.4111 41.4331 69.2278 41.468 68.9752 41.5038L69.2558 43.484C69.5509 43.4422 69.7915 43.3978 69.9809 43.3543C70.1476 43.316 70.3358 43.2652 70.4879 43.1936L69.6362 41.384ZM71.8186 43.6725L70.9669 41.8629L69.1573 42.7146L70.009 44.5242L71.8186 43.6725ZM69.5364 45.4642C70.0771 45.3876 70.788 45.2628 71.3397 45.0031L70.4879 43.1936C70.2373 43.3115 69.7988 43.407 69.2558 43.484L69.5364 45.4642ZM67.5088 45.6599C68.2135 45.6142 68.9214 45.5514 69.5364 45.4642L69.2558 43.484C68.711 43.5612 68.0588 43.62 67.3792 43.6641L67.5088 45.6599ZM65.1798 45.761C65.9118 45.7427 66.725 45.7108 67.5088 45.6599L67.3792 43.6641C66.6285 43.7129 65.8428 43.7438 65.1298 43.7616L65.1798 45.761ZM65.9761 49.4912C66.841 47.8884 66.7304 46.1453 66.0932 44.4156L64.2165 45.107C64.7308 46.5031 64.7196 47.6083 64.216 48.5414L65.9761 49.4912ZM60.531 53.3148C62.8068 52.5114 64.9407 51.4098 65.9761 49.4912L64.216 48.5414C63.5642 49.7491 62.0868 50.6446 59.8652 51.4288L60.531 53.3148ZM58.5894 50.8188L59.2552 52.7047L61.1411 52.0389L60.4753 50.153L58.5894 50.8188ZM62.456 47.5915C62.1883 48.0875 61.3689 48.7771 59.1995 49.5429L59.8652 51.4288C62.0866 50.6447 63.5642 49.7492 64.216 48.5414L62.456 47.5915ZM62.0588 45.1369C62.7827 46.6514 62.6185 47.2904 62.456 47.5915L64.216 48.5414C64.8124 47.4363 64.7178 46.0623 63.8633 44.2745L62.0588 45.1369ZM57.2278 44.7701C59.1185 45.1596 61.2603 45.4889 62.8296 45.697L63.0925 43.7144C61.5511 43.5099 59.4597 43.1878 57.6313 42.8112L57.2278 44.7701ZM54.3293 44.0396C55.1516 44.3081 56.1779 44.5538 57.2278 44.7701L57.6313 42.8112C56.6082 42.6004 55.6669 42.3725 54.9503 42.1384L54.3293 44.0396ZM53.7156 43.8193C53.9153 43.8987 54.1222 43.9719 54.3293 44.0396L54.9503 42.1384C54.773 42.0805 54.6067 42.0214 54.4547 41.9609L53.7156 43.8193ZM48.696 46.286C51.1287 46.286 53.3092 45.2317 54.8254 43.5625L53.3449 42.2178C52.1882 43.4913 50.5363 44.286 48.696 44.286V46.286ZM48.5041 46.2838C48.5679 46.2853 48.6319 46.286 48.696 46.286V44.286C48.6472 44.286 48.5984 44.2854 48.5498 44.2843L48.5041 46.2838ZM49.2868 46.5359C49.2918 46.2334 49.3633 45.912 49.4673 45.6241L47.5865 44.9441C47.4268 45.3859 47.2965 45.929 47.287 46.5029L49.2868 46.5359ZM49.7901 47.6145C49.3971 47.3149 49.2795 46.9754 49.2868 46.5359L47.287 46.5029C47.2714 47.4484 47.5843 48.448 48.5779 49.2052L49.7901 47.6145ZM54.1278 50.3914C52.4686 49.396 50.8562 48.4269 49.7901 47.6145L48.5779 49.2052C49.7526 50.1004 51.4772 51.1335 53.0988 52.1064L54.1278 50.3914ZM54.1434 50.401L54.1433 50.4009L53.0833 52.0969L53.0834 52.097L54.1434 50.401ZM54.4286 50.572L54.128 50.3916L53.0988 52.1064L53.3994 52.2868L54.4286 50.572ZM56.8454 52.0642C56.1284 51.5959 55.2803 51.0834 54.4288 50.5721L53.3993 52.2867C54.2546 52.8003 55.0712 53.2942 55.7516 53.7386L56.8454 52.0642ZM58.7129 53.4913C58.2341 53.0048 57.5229 52.5068 56.8453 52.0642L55.7516 53.7386C56.4315 54.1827 56.9762 54.5779 57.2875 54.8942L58.7129 53.4913ZM61.0541 63.103C62.6397 58.2696 60.1835 54.9855 58.7129 53.4913L57.2875 54.8942C58.5335 56.1602 60.3974 58.6885 59.1538 62.4795L61.0541 63.103ZM57.8919 63.118L59.7922 63.7414L60.4157 61.8411L58.5153 61.2176L57.8919 63.118ZM55.862 56.2971C56.8757 57.3271 58.1574 59.1004 57.2534 61.8561L59.1538 62.4795C60.3973 58.689 58.534 56.1608 57.2875 54.8942L55.862 56.2971ZM54.6579 55.4131C55.3426 55.8603 55.7192 56.152 55.862 56.2971L57.2875 54.8942C56.9761 54.5779 56.4313 54.1826 55.7516 53.7386L54.6579 55.4131ZM53.455 54.6575C53.8942 54.9259 54.2989 55.1786 54.6579 55.4131L55.7516 53.7386C55.3691 53.4887 54.9454 53.2245 54.4981 52.951L53.455 54.6575ZM52.1731 58.7816C53.4469 57.6062 54.6305 55.9839 54.9632 53.967L52.9899 53.6415C52.7542 55.0703 51.8944 56.3174 50.8168 57.3118L52.1731 58.7816ZM46.5812 61.8893C48.1252 61.4971 50.3878 60.429 52.1731 58.7816L50.8167 57.3118C49.2926 58.7182 47.333 59.6348 46.0888 59.9509L46.5812 61.8893ZM44.8734 59.2278L45.3658 61.1663L47.3042 60.6739L46.8118 58.7354L44.8734 59.2278ZM49.4604 55.842C48.1974 57.0075 46.5407 57.7725 45.5964 58.0124L46.0888 59.9509C47.333 59.6348 49.2926 58.7182 50.8168 57.3118L49.4604 55.842ZM51.0493 52.6904C51.1022 53.7849 50.5453 54.8409 49.4604 55.842L50.8167 57.3118C52.1386 56.0921 53.1393 54.5043 53.0469 52.5938L51.0493 52.6904ZM47.3656 50.7959C48.5057 51.6647 50.0829 52.6277 51.5329 53.4992L52.5632 51.785C51.095 50.9025 49.615 49.9956 48.5779 49.2052L47.3656 50.7959ZM45.2873 46.4699C45.2635 47.9123 45.7653 49.5764 47.3656 50.7959L48.5779 49.2052C47.5835 48.4474 47.2715 47.4472 47.287 46.5029L45.2873 46.4699ZM45.5715 44.672C45.4118 45.2102 45.298 45.8218 45.2873 46.4699L47.287 46.5029C47.2943 46.0653 47.3719 45.6352 47.4888 45.241L45.5715 44.672ZM42.5264 43.5178C43.5124 44.6189 44.7851 45.4581 46.2314 45.9109L46.8289 44.0022C45.7367 43.6603 44.7693 43.0246 44.0164 42.1837L42.5264 43.5178ZM38.2718 49.0904C39.2846 47.2179 40.9207 45.3822 43.7758 43.7142L42.767 41.9873C39.6234 43.8238 37.7146 45.9167 36.5126 48.1389L38.2718 49.0904ZM36.3896 56.0679C36.6955 53.5042 37.1313 51.1991 38.2718 49.0904L36.5126 48.1389C35.1847 50.5939 34.7161 53.2126 34.4037 55.831L36.3896 56.0679ZM33.0766 62.7108C34.8977 61.2518 36.0291 59.0894 36.3896 56.0679L34.4037 55.831C34.0912 58.4499 33.1537 60.0863 31.8262 61.1499L33.0766 62.7108ZM27.2494 65.0022C29.2025 64.6612 31.3399 64.1022 33.0766 62.7108L31.8262 61.1499C30.4982 62.2139 28.7796 62.7048 26.9053 63.032L27.2494 65.0022ZM20.601 64.2553C22.7164 64.843 25.2686 65.3481 27.2494 65.0022L26.9053 63.032C25.4054 63.2939 23.2368 62.9118 21.1363 62.3283L20.601 64.2553ZM15.9665 62.6678C17.2301 63.1806 18.8892 63.7797 20.601 64.2553L21.1363 62.3283C19.5131 61.8773 17.9274 61.3051 16.7185 60.8146L15.9665 62.6678ZM15.9976 64.2458C16.5149 63.5684 16.9338 62.8676 17.2552 62.1498L15.4298 61.3326C15.1752 61.9012 14.8374 62.4698 14.4081 63.032L15.9976 64.2458ZM12.643 66.6268C13.8613 66.1459 15.1114 65.4064 15.9976 64.2458L14.4081 63.032C13.8214 63.8002 12.9336 64.3619 11.9086 64.7666L12.643 66.6268ZM4.23627 67.643C6.13839 67.8091 9.75917 67.7653 12.643 66.6268L11.9086 64.7666C9.44004 65.7411 6.1763 65.8048 4.41022 65.6506L4.23627 67.643ZM3.50098 64.5674L3.32703 66.5598L5.31945 66.7338L5.4934 64.7414L3.50098 64.5674ZM10.6449 63.0938C8.63368 63.7325 6.06364 63.7873 4.58416 63.6582L4.41022 65.6506C6.03804 65.7927 8.89719 65.7473 11.2503 65L10.6449 63.0938ZM8.63236 59.9906C9.33838 60.7157 10.003 61.9307 9.94793 64.0206L11.9472 64.0732C12.0155 61.4794 11.1716 59.7315 10.0652 58.5953L8.63236 59.9906ZM6.09207 58.7218C6.73619 58.7842 7.80233 59.1382 8.63236 59.9906L10.0652 58.5953C8.85737 57.3549 7.32658 56.832 6.28481 56.7311L6.09207 58.7218ZM5.38584 55.6394L5.19309 57.6301L7.18378 57.8228L7.37653 55.8321L5.38584 55.6394ZM11.4981 57.2C9.91166 55.5708 7.91574 54.8797 6.47755 54.7404L6.28481 56.7311C7.32649 56.832 8.85732 57.3549 10.0652 58.5953L11.4981 57.2ZM13.9279 63.0266C13.7711 60.4879 12.8257 58.5633 11.4981 57.2L10.0652 58.5953C11.0467 59.6032 11.8033 61.0712 11.9317 63.1499L13.9279 63.0266ZM12.8185 61.8182C12.7007 61.9725 12.5412 62.1303 12.3314 62.2871L13.5282 63.8894C13.8631 63.6393 14.1617 63.3547 14.4081 63.032L12.8185 61.8182ZM13.8522 59.8474C13.6686 60.4694 13.3422 61.1324 12.8185 61.8182L14.4081 63.032C15.068 62.1678 15.5124 61.2878 15.7704 60.4135L13.8522 59.8474ZM12.3003 54.5521C13.7888 56.114 14.3924 58.0169 13.8522 59.8474L15.7704 60.4135C16.5586 57.7427 15.6081 55.124 13.7481 53.1723L12.3003 54.5521ZM6.28481 51.9392C8.5451 51.9392 10.7967 52.9743 12.3003 54.5521L13.7481 53.1723C11.8892 51.2217 9.1235 49.9392 6.28481 49.9392V51.9392ZM5.28481 48.9392V50.9392H7.28481V48.9392H5.28481ZM15.196 51.7925C12.982 49.4693 9.7023 47.9392 6.28481 47.9392V49.9392C9.12352 49.9392 11.8892 51.2217 13.7481 53.1723L15.196 51.7925ZM17.9197 59.9954C18.473 56.8385 17.2118 53.9079 15.196 51.7925L13.7481 53.1723C15.4327 54.94 16.3692 57.2567 15.9497 59.6501L17.9197 59.9954ZM21.6717 60.4013C20.0588 59.9532 18.4768 59.3756 17.315 58.8979L16.5544 60.7476C17.7728 61.2486 19.4311 61.8546 21.1363 62.3283L21.6717 60.4013ZM26.5613 61.0618C25.5433 61.2396 23.7598 60.9814 21.6717 60.4013L21.1363 62.3283C23.2366 62.9118 25.4053 63.2939 26.9053 63.032L26.5613 61.0618ZM30.5757 59.5891C29.6571 60.325 28.3582 60.7481 26.5613 61.0618L26.9053 63.032C28.7795 62.7048 30.4981 62.2139 31.8262 61.1499L30.5757 59.5891ZM32.4178 55.594C32.1536 57.8088 31.4108 58.92 30.5757 59.5891L31.8262 61.1499C33.1537 60.0864 34.0912 58.45 34.4037 55.831L32.4178 55.594ZM34.7535 47.1874C33.2385 49.9884 32.7368 52.9202 32.4178 55.594L34.4037 55.831C34.7161 53.2126 35.1848 50.5939 36.5126 48.1389L34.7535 47.1874ZM41.6383 40.3309C38.2818 42.3166 36.1322 44.6385 34.7535 47.1874L36.5126 48.1389C37.7042 45.936 39.5849 43.8695 42.6567 42.0522L41.6383 40.3309ZM40.3693 37.8574C40.3693 39.2119 40.6864 40.4968 41.2517 41.636L43.0433 40.747C42.6123 39.8784 42.3693 38.8972 42.3693 37.8574H40.3693ZM40.3931 37.2167C40.3773 37.4284 40.3693 37.6421 40.3693 37.8574H42.3693C42.3693 37.6918 42.3755 37.5277 42.3875 37.3654L40.3931 37.2167ZM34.9489 40.5247C36.8698 39.0609 38.9571 38.0923 41.3075 38.2876L41.4731 36.2945C38.4282 36.0414 35.8538 37.3206 33.7366 38.934L34.9489 40.5247ZM31.8961 43.2999C32.8163 42.3649 33.8231 41.3827 34.9489 40.5247L33.7366 38.934C32.4924 39.8822 31.4037 40.9489 30.4706 41.897L31.8961 43.2999ZM31.455 43.7506C31.6018 43.6001 31.7486 43.4498 31.8961 43.2999L30.4706 41.897C30.3198 42.0503 30.1701 42.2036 30.0238 42.3535L31.455 43.7506ZM31.4549 43.7506L31.4551 43.7504L30.0236 42.3537L30.0234 42.354L31.4549 43.7506ZM29.35 45.7397C30.0013 45.2433 30.7479 44.4749 31.4547 43.7508L30.0235 42.3538C29.276 43.1196 28.6454 43.762 28.1377 44.1489L29.35 45.7397ZM23.0428 46.2936C24.9398 47.591 27.2932 47.307 29.35 45.7397L28.1377 44.1489C26.5788 45.3369 25.1796 45.332 24.1718 44.6428L23.0428 46.2936ZM20.5388 40.9884C20.5388 43.0208 21.335 45.1256 23.0428 46.2936L24.1718 44.6428C23.1621 43.9522 22.5388 42.5704 22.5388 40.9884H20.5388ZM23.5388 39.9884H21.5388V41.9884H23.5388V39.9884ZM25.3009 42.9919C24.9838 42.7751 24.5388 42.1118 24.5388 40.9884H22.5388C22.5388 42.5715 23.1628 43.9527 24.1718 44.6428L25.3009 42.9919ZM26.9255 42.5582C26.3789 42.9748 25.9981 43.0878 25.7721 43.1076C25.5604 43.126 25.4144 43.0696 25.3009 42.9919L24.1718 44.6428C24.6277 44.9545 25.228 45.1626 25.9459 45.1C26.6495 45.0386 27.3816 44.7251 28.1377 44.1489L26.9255 42.5582ZM28.5532 40.9961C27.8002 41.7663 27.3047 42.2692 26.9255 42.5582L28.1377 44.1489C28.6618 43.7496 29.2784 43.1152 29.9832 42.3943L28.5532 40.9961ZM28.5612 40.988L28.5611 40.9881L29.9753 42.4023L29.9754 42.4022L28.5612 40.988ZM28.4684 41.0951L28.4683 41.0951L30.0683 42.2951L30.0684 42.2951L28.4684 41.0951ZM28.5613 40.988L28.5612 40.988L29.9755 42.4022L29.9755 42.4022L28.5613 40.988ZM28.5613 40.9879L28.5613 40.988L29.9755 42.4022L29.9755 42.4021L28.5613 40.9879ZM28.7274 40.818L28.5535 40.9958L29.9833 42.3943L30.1572 42.2165L28.7274 40.818ZM28.6011 42.0632L28.6469 42.1234L30.2377 40.9111L30.1919 40.851L28.6011 42.0632ZM29.4041 34.8135C30.584 37.6108 30.2091 39.5806 28.7904 40.6618L30.0026 42.2525C32.4865 40.3596 32.5828 37.2032 31.2468 34.0361L29.4041 34.8135ZM24.4975 31.6107C25.2621 31.6033 28.0377 31.5743 29.4041 34.8135L31.2468 34.0361C29.3611 29.5658 25.3527 29.6024 24.4781 29.6108L24.4975 31.6107ZM24.4037 31.6114C24.4335 31.6114 24.4669 31.611 24.4975 31.6107L24.4781 29.6108C24.4446 29.6112 24.4218 29.6114 24.4037 29.6114V31.6114ZM23.4037 28.6114V30.6114H25.4037V28.6114H23.4037ZM24.4727 27.6107C24.4384 27.6111 24.4181 27.6114 24.4037 27.6114V29.6114C24.4326 29.6114 24.4665 29.611 24.4965 29.6106L24.4727 27.6107ZM33.0896 33.2588C30.6754 27.5356 25.3942 27.5998 24.4728 27.6107L24.4965 29.6106C25.3232 29.6008 29.3563 29.5545 31.2468 34.0361L33.0896 33.2588ZM34.093 38.205C34.1567 36.5427 33.7543 34.8347 33.0896 33.2588L31.2468 34.0361C31.829 35.4164 32.1442 36.8297 32.0945 38.1284L34.093 38.205ZM32.5234 37.344L32.4867 37.3721L33.7008 38.9613L33.7376 38.9333L32.5234 37.344ZM41.9157 34.327C38.0781 33.911 34.912 35.5237 32.5244 37.3433L33.7366 38.934C35.9214 37.2691 38.5802 35.9772 41.7002 36.3153L41.9157 34.327ZM43.1496 31.5705C42.1321 32.4914 41.3406 33.6612 40.8666 34.9837L42.7493 35.6585C43.1112 34.6488 43.7156 33.7557 44.4916 33.0534L43.1496 31.5705ZM41.4503 29.1009C41.833 30.2779 42.447 31.709 42.9106 32.7266L44.7306 31.8974C44.2747 30.8966 43.699 29.5486 43.3522 28.4824L41.4503 29.1009ZM39.2303 26.893C40.7824 27.8803 41.3043 28.6519 41.4503 29.1009L43.3522 28.4824C42.9971 27.3903 42.0213 26.298 40.3036 25.2055L39.2303 26.893ZM34.7081 24.7243C36.6668 25.4772 38.1476 26.2044 39.2303 26.893L40.3036 25.2055C39.073 24.4228 37.4618 23.6401 35.4257 22.8574L34.7081 24.7243ZM29.1946 17.4744C28.7601 19.7013 30.1403 22.9684 34.7081 24.7243L35.4257 22.8574C31.5189 21.3557 30.9551 18.8951 31.1576 17.8574L29.1946 17.4744ZM32.3306 17.0674L30.3676 16.6844L29.9846 18.6474L31.9476 19.0304L32.3306 17.0674ZM36.1433 20.9906C32.918 19.7508 33.1466 18.107 33.1206 18.2404L31.1576 17.8574C30.9556 18.8929 31.5166 21.3548 35.4257 22.8574L36.1433 20.9906ZM40.0038 22.7206C38.8956 22.1298 37.6101 21.5544 36.1433 20.9906L35.4257 22.8574C36.8351 23.3992 38.043 23.9417 39.063 24.4855L40.0038 22.7206ZM38.3406 20.1154C38.5968 21.4283 38.6047 22.6424 38.5364 23.5259L40.5304 23.6802C40.6097 22.6556 40.601 21.2566 40.3036 19.7324L38.3406 20.1154ZM36.7923 16.9541C37.6033 18.1416 38.1765 19.2741 38.3406 20.1154L40.3036 19.7324C40.0597 18.4822 39.2973 17.0759 38.4439 15.8262L36.7923 16.9541ZM34.6039 14.254C35.1403 14.8038 36.01 15.8085 36.7923 16.9541L38.4439 15.8262C37.5903 14.5762 36.6452 13.4824 36.0355 12.8574L34.6039 14.254ZM36.053 11.4433L34.6214 12.8399L36.018 14.2715L37.4496 12.8749L36.053 11.4433ZM40.0956 14.6983C39.1706 13.3439 38.1502 12.161 37.4671 11.4608L36.0355 12.8574C36.6452 13.4824 37.5903 14.5762 38.4439 15.8262L40.0956 14.6983ZM42.2666 19.3494C41.943 17.6911 40.9922 16.0113 40.0956 14.6983L38.4439 15.8262C39.2974 17.0759 40.0597 18.4823 40.3036 19.7324L42.2666 19.3494ZM42.4021 24.8993C42.5974 23.651 42.7072 21.6079 42.2666 19.3494L40.3036 19.7324C40.6921 21.7237 40.5922 23.5287 40.4261 24.5901L42.4021 24.8993ZM45.2542 27.8639C44.7511 26.3168 43.5605 25.0291 41.9885 23.9261L40.8397 25.5633C42.2328 26.5407 43.0371 27.5134 43.3522 28.4824L45.2542 27.8639ZM46.4124 30.762C46.0025 29.8463 45.5368 28.733 45.2542 27.8639L43.3522 28.4824C43.6686 29.4552 44.1695 30.6466 44.5869 31.5791L46.4124 30.762ZM48.696 29.4288C47.3917 29.4288 46.1569 29.7324 45.0579 30.2734L45.9413 32.0677C46.7719 31.6588 47.7052 31.4288 48.696 31.4288V29.4288ZM48.9744 29.4335C48.882 29.4304 48.7892 29.4288 48.696 29.4288V31.4288C48.767 31.4288 48.8376 31.43 48.908 31.4324L48.9744 29.4335ZM50.0187 23.8612C49.2474 25.4552 48.4857 28.1406 47.9713 30.1894L49.9111 30.6764C50.4293 28.6124 51.149 26.1169 51.819 24.7324L50.0187 23.8612ZM50.0421 23.8134L50.0209 23.8568L51.8168 24.7369L51.8381 24.6935L50.0421 23.8134ZM48.6189 22.8157L50.1388 24.8517L51.7414 23.6553L50.2216 21.6193L48.6189 22.8157ZM47.6345 20.4523C47.7923 21.2175 48.0737 22.0854 48.6189 22.8157L50.2216 21.6193C49.923 21.2193 49.7218 20.672 49.5933 20.0485L47.6345 20.4523ZM47.4006 18.0428C47.4098 18.8279 47.4719 19.6637 47.6345 20.4523L49.5933 20.0485C49.4647 19.4249 49.4088 18.7249 49.4005 18.0193L47.4006 18.0428ZM47.7579 13.9191C47.573 14.91 47.3822 16.4762 47.4006 18.0428L49.4005 18.0193C49.3839 16.6082 49.5581 15.1749 49.7239 14.286L47.7579 13.9191ZM50.8904 13.4864L48.9244 13.1195L48.5575 15.0856L50.5235 15.4525L50.8904 13.4864ZM51.4003 17.9958C51.3856 16.7402 51.5432 15.4397 51.69 14.6529L49.7239 14.286C49.5581 15.1749 49.3839 16.6082 49.4005 18.0193L51.4003 17.9958ZM51.5521 19.6447C51.4576 19.1861 51.4077 18.6219 51.4003 17.9958L49.4005 18.0193C49.4088 18.7249 49.4647 19.4249 49.5933 20.0485L51.5521 19.6447ZM51.8243 20.4229C51.7724 20.3534 51.6516 20.127 51.5521 19.6447L49.5933 20.0485C49.7218 20.6719 49.9229 21.2192 50.2216 21.6193L51.8243 20.4229ZM52.9515 21.933L51.8243 20.4229L50.2216 21.6193L51.3489 23.1294L52.9515 21.933ZM51.8364 21.3898C51.6885 21.5471 51.5414 21.7083 51.3975 21.8728L52.9029 23.1895C53.0286 23.0458 53.1592 22.9025 53.2935 22.7598L51.8364 21.3898ZM54.0721 19.2187C53.3317 19.9072 52.5294 20.6527 51.8364 21.3898L53.2935 22.7598C53.932 22.0806 54.6827 21.382 55.434 20.6834L54.0721 19.2187ZM54.0866 19.2052L54.0722 19.2187L55.434 20.6834L55.4484 20.67L54.0866 19.2052ZM56.1464 17.2101C55.5584 17.8355 54.8545 18.4912 54.0865 19.2053L55.4485 20.6699C56.2045 19.9669 56.9607 19.2637 57.6035 18.5801L56.1464 17.2101ZM57.2777 15.7362C57.1106 16.0814 56.751 16.567 56.1464 17.2101L57.6035 18.5801C58.2459 17.8968 58.7754 17.2326 59.0779 16.6074L57.2777 15.7362ZM57.2673 16.0815C57.2763 16.0992 57.2445 16.0435 57.2412 15.9405C57.2376 15.8298 57.2692 15.7536 57.2777 15.7362L59.0779 16.6074C59.1753 16.4062 59.2493 16.1608 59.2402 15.876C59.2312 15.5988 59.1458 15.364 59.0515 15.1777L57.2673 16.0815ZM56.7784 15.6186C56.9416 15.7333 57.0608 15.8379 57.1432 15.9241C57.228 16.0128 57.2605 16.0681 57.2673 16.0815L59.0515 15.1777C58.8259 14.7325 58.4176 14.3262 57.9286 13.9824L56.7784 15.6186ZM53.6166 35.4251C53.6559 35.3761 53.6987 35.3239 53.7447 35.2689L52.211 33.9852C52.1566 34.0503 52.1049 34.1133 52.0563 34.174L53.6166 35.4251ZM53.9734 34.4295L53.462 34.0194L52.2108 35.5797L52.7223 35.9898L53.9734 34.4295ZM55.0228 37.8574C55.0228 36.7222 54.7333 35.6545 54.2243 34.7281L52.4714 35.6912C52.8215 36.3284 53.0228 37.0656 53.0228 37.8574H55.0228ZM48.696 44.286C52.1894 44.286 55.0228 41.4087 55.0228 37.8574H53.0228C53.0228 40.3326 51.0565 42.286 48.696 42.286V44.286ZM42.3693 37.8574C42.3693 41.4087 45.2027 44.286 48.696 44.286V42.286C46.3356 42.286 44.3693 40.3326 44.3693 37.8574H42.3693ZM48.4252 31.4347C45.0567 31.5797 42.3693 34.3982 42.3693 37.8574H44.3693C44.3693 35.4474 46.2346 33.5308 48.5112 33.4328L48.4252 31.4347ZM49.3994 32.8574C49.4136 32.7911 49.4288 32.7214 49.4448 32.6485L47.4915 32.219C47.4748 32.2947 47.459 32.3674 47.4441 32.4369L49.3994 32.8574ZM50.5873 32.09L48.632 31.6695L48.2115 33.6248L50.1667 34.0453L50.5873 32.09ZM49.4747 32.5134C49.4478 32.6344 49.4226 32.7493 49.3994 32.8574L51.3547 33.278C51.3768 33.1749 51.4009 33.0647 51.4269 32.9482L49.4747 32.5134ZM53.7862 34.0385C53.0393 33.0126 51.9974 32.2196 50.7859 31.7887L50.1157 33.673C50.938 33.9655 51.6535 34.5072 52.1694 35.2157L53.7862 34.0385Z" fill="#F2B9C9"/>
</mask>
<g mask="url(#mask0_2053_26005)">
<path d="M4.41016 65.6514C6.1763 65.8056 9.44001 65.7419 11.9085 64.7674M6.28475 49.94C11.9623 49.94 17.3475 55.0702 15.7703 60.4143M6.28475 56.7319C8.36763 56.9336 12.4084 58.823 11.9085 64.7674M11.9085 64.7674C12.9335 64.3628 13.8213 63.8011 14.408 63.0329C15.0679 62.1686 15.5123 61.2886 15.7703 60.4143M15.7703 60.4143C18.2323 61.5054 23.9059 63.5566 26.9053 63.0329C30.6545 62.3782 33.7788 61.0689 34.4037 55.8318C35.0285 50.5947 36.2783 45.3575 43.7766 41.4297" stroke="white" stroke-width="2"/>
<ellipse cx="48.6959" cy="37.8583" rx="6.32676" ry="6.42857" stroke="white" stroke-width="2"/>
<path d="M22.5391 40.9883C22.5391 44.1489 25.0275 46.5193 28.138 44.1489C30.6264 42.2525 35.6032 34.6672 43.0684 36.5635" stroke="white" stroke-width="2"/>
<path d="M24.4033 29.6111C25.0254 29.6111 29.2858 29.3879 31.2464 34.0359C32.5792 37.1953 32.4906 40.3559 30.0022 42.2522" stroke="white" stroke-width="2"/>
<path d="M31.1577 17.8574C30.9545 18.8991 31.5235 21.3574 35.4258 22.8574C37.4619 23.6401 39.0731 24.4228 40.3037 25.2055M45.1815 32.8574C44.775 32.0241 43.8401 29.9824 43.3523 28.4824C42.9971 27.3901 42.0211 26.2978 40.3037 25.2055M36.0356 12.8574C37.2551 14.1074 39.8159 17.2324 40.3037 19.7324C40.7915 22.2324 40.5069 24.4228 40.3037 25.2055" stroke="white" stroke-width="2"/>
<path d="M49.724 14.2852C49.3922 16.0629 49.0273 20.0185 50.2216 21.6185C51.416 23.2185 52.0464 24.0629 52.2123 24.2852" stroke="white" stroke-width="2"/>
<path d="M54.7225 12.8574C56.3356 12.8574 59.9247 14.6074 58.9569 16.6074C57.7471 19.1074 52.9078 22.2324 51.698 24.7324C50.7301 26.7324 49.6816 30.9824 49.2783 32.8574" stroke="white" stroke-width="2"/>
<path d="M74.7054 32.9489C74.0851 33.5678 72.2243 36.662 69.123 35.4243C66.0216 34.1866 65.4013 32.3301 63.5405 31.7112M63.5405 31.7112C61.6797 31.0924 61.0595 31.0924 58.5784 31.7112C56.5935 32.2063 54.4432 34.3929 53.6162 35.4243M63.5405 31.7112C62.951 27.5943 64.7676 26.774 67.2622 24.2852" stroke="white" stroke-width="2"/>
<path d="M59.8649 51.4297C64.3089 49.8609 65.7731 47.8476 63.614 43.7826M63.614 43.7826C60.4897 43.3905 54.1161 42.3709 53.6162 41.4297M63.614 43.7826C65.4886 43.7826 69.4878 43.665 70.4876 43.1944" stroke="white" stroke-width="2"/>
<path d="M47.9554 44.1484C47.3333 45.202 46.5868 47.6883 48.5775 49.2053C51.0659 51.1017 56.0429 53.6301 57.2871 54.8943C58.5313 56.1586 60.3976 58.687 59.1534 62.4797" stroke="white" stroke-width="2"/>
<path d="M46.0889 59.9518C48.5773 59.3197 53.9273 56.2856 52.932 51.7344" stroke="white" stroke-width="2"/>
</g>
<g opacity="0.3" filter="url(#filter0_f_2053_26005)">
<ellipse cx="37.8894" cy="46.9992" rx="5.48319" ry="5.57143" fill="white"/>
<path d="M42.8726 46.9992C42.8726 49.8076 40.6341 52.0706 37.8894 52.0706C35.1448 52.0706 32.9062 49.8076 32.9062 46.9992C32.9062 44.1907 35.1448 41.9277 37.8894 41.9277C40.6341 41.9277 42.8726 44.1907 42.8726 46.9992Z" stroke="#D70A42"/>
</g>
<path d="M37.8886 50.2286C39.6672 50.2286 41.0819 48.768 41.0819 47.0001C41.0819 45.2321 39.6672 43.7715 37.8886 43.7715C36.11 43.7715 34.6953 45.2321 34.6953 47.0001C34.6953 48.768 36.11 50.2286 37.8886 50.2286Z" fill="white" stroke="#D70A42" stroke-width="2"/>
<defs>
<filter id="filter0_f_2053_26005" x="30.4062" y="39.4277" width="14.9668" height="15.1426" filterUnits="userSpaceOnUse" color-interpolation-filters="sRGB">
<feFlood flood-opacity="0" result="BackgroundImageFix"/>
<feBlend mode="normal" in="SourceGraphic" in2="BackgroundImageFix" result="shape"/>
<feGaussianBlur stdDeviation="1" result="effect1_foregroundBlur_2053_26005"/>
</filter>
</defs>
</svg>
