<svg width="24" height="24" viewBox="0 0 24 24" fill="none" xmlns="http://www.w3.org/2000/svg">
<path fill-rule="evenodd" clip-rule="evenodd" d="M19.9772 10.1482C19.9542 10.7654 19.4018 11.5889 17.9084 12.3207C16.4481 13.0363 14.3605 13.5072 12.0002 13.5072C9.63988 13.5072 7.55231 13.0363 6.09199 12.3207C4.59821 11.5888 4.04587 10.765 4.02319 10.1478V10.0684C4.04587 9.45116 4.59821 8.62739 6.09199 7.89544C7.55231 7.17988 9.63988 6.70898 12.0002 6.70898C14.3605 6.70898 16.4481 7.17988 17.9084 7.89544C19.4018 8.62721 19.9542 9.45075 19.9772 10.0679V10.1482ZM19.9772 12.1285C18.4835 13.5415 15.472 14.5072 12.0002 14.5072C8.52836 14.5072 5.51682 13.5415 4.02319 12.1284V13.5518C4.02319 14.4308 4.74877 15.3612 6.22965 16.1016C7.68062 16.8271 9.7201 17.2902 12.0002 17.2902C14.2802 17.2902 16.3197 16.8271 17.7707 16.1016C19.2515 15.3612 19.9771 14.4308 19.9771 13.5518H19.9772V12.1285ZM20.9772 10.0506V10.0198H20.9762C20.8802 7.63098 16.8982 5.70898 12.0002 5.70898C7.10213 5.70898 3.12021 7.63098 3.02423 10.0198H3.02319V10.0513C3.02271 10.0702 3.02246 10.0891 3.02246 10.1081C3.02246 10.127 3.02271 10.146 3.02319 10.1648V13.5518V13.7284H3.02894C3.11905 15.1095 4.25969 16.2347 5.78243 16.996C7.39952 17.8046 9.59852 18.2902 12.0002 18.2902C14.4018 18.2902 16.6008 17.8046 18.2179 16.996C19.7406 16.2347 20.8813 15.1095 20.9714 13.7284H20.9772V10.1655C20.9777 10.1464 20.9779 10.1272 20.9779 10.1081C20.9779 10.0889 20.9777 10.0698 20.9772 10.0506Z" fill="#CF367C"/>
</svg>
