<svg width="24" height="24" viewBox="0 0 24 24" fill="none" xmlns="http://www.w3.org/2000/svg">
<path fill-rule="evenodd" clip-rule="evenodd" d="M5.31002 2.58203C5.31002 3.13432 4.86231 3.58203 4.31002 3.58203C3.93988 3.58203 3.61671 3.38093 3.44381 3.08203H2.93665C2.34501 3.08203 1.92546 3.57412 2.0122 4.11277C2.20036 5.28122 2.54097 6.93547 3.12606 8.55402C3.71465 10.1822 4.53169 11.7203 5.64238 12.7085C5.95966 12.9908 6.395 13.3214 6.78092 13.6012C7.09801 13.831 7.52234 13.831 7.83941 13.6011C8.22523 13.3214 8.66044 12.9908 8.97764 12.7085C10.0883 11.7202 10.9053 10.1822 11.4939 8.55398C12.079 6.93545 12.4196 5.28123 12.6078 4.1128C12.6945 3.57414 12.275 3.08203 11.6833 3.08203H11.1762C11.0033 3.38093 10.6802 3.58203 10.31 3.58203C9.75774 3.58203 9.31002 3.13432 9.31002 2.58203C9.31002 2.02975 9.75774 1.58203 10.31 1.58203C10.6802 1.58203 11.0033 1.78313 11.1762 2.08203H11.6833C12.8442 2.08203 13.787 3.08022 13.5951 4.27181C13.4014 5.47419 13.0484 7.19516 12.4343 8.89395C11.8237 10.5831 10.9359 12.3045 9.64241 13.4556C9.28665 13.7721 8.81849 14.1264 8.4264 14.4107C7.75921 14.8944 6.86125 14.8945 6.19401 14.4108C5.80182 14.1265 5.33352 13.7722 4.97766 13.4556C3.68404 12.3046 2.79624 10.5831 2.18562 8.89399C1.57151 7.19517 1.21854 5.47415 1.02492 4.27175C0.833045 3.08019 1.77578 2.08203 2.93665 2.08203H3.44381C3.61671 1.78313 3.93988 1.58203 4.31002 1.58203C4.86231 1.58203 5.31002 2.02975 5.31002 2.58203Z" fill="#CF367C"/>
<path d="M6.69271 15.8067C7.04174 16.1321 7.57807 16.1321 7.92709 15.8067C8.06981 15.6737 8.21271 15.5331 8.32557 15.4065C8.85037 14.8177 9.30954 13.8749 9.58304 13.2426C9.72058 12.9246 9.48349 12.5826 9.13701 12.5826H5.4828C5.13632 12.5826 4.89923 12.9246 5.03677 13.2426C5.31027 13.8749 5.76944 14.8177 6.29424 15.4065C6.40709 15.5331 6.55 15.6737 6.69271 15.8067Z" fill="white"/>
<path fill-rule="evenodd" clip-rule="evenodd" d="M8.31902 13.5826C8.09561 14.0196 7.83766 14.451 7.57907 14.7411C7.5096 14.8191 7.41625 14.9132 7.3099 15.0144C7.20355 14.9132 7.11021 14.8191 7.04074 14.7411C6.78215 14.451 6.5242 14.0196 6.30078 13.5826H8.31902ZM7.92709 15.8067C7.57807 16.1321 7.04174 16.1321 6.69271 15.8067C6.55 15.6737 6.40709 15.5331 6.29424 15.4065C5.76944 14.8177 5.31027 13.8749 5.03677 13.2426C4.89923 12.9246 5.13632 12.5826 5.4828 12.5826H9.13701C9.48349 12.5826 9.72058 12.9246 9.58304 13.2426C9.30954 13.8749 8.85037 14.8177 8.32557 15.4065C8.21271 15.5331 8.06981 15.6737 7.92709 15.8067Z" fill="#CF367C"/>
<path fill-rule="evenodd" clip-rule="evenodd" d="M7.24857 15.0975C7.52265 15.0638 7.77216 15.2587 7.80588 15.5327C7.94555 16.6681 8.16717 17.6829 8.49921 18.4428C8.98448 19.5534 9.66892 20.2856 10.484 20.7463C11.3057 21.2109 12.2939 21.4181 13.4086 21.4181C15.6362 21.4181 17.6681 20.6 18.6861 18.4306C19.0372 17.6824 19.2425 16.6788 19.357 15.5436C19.3848 15.2689 19.63 15.0686 19.9047 15.0963C20.1794 15.124 20.3797 15.3692 20.352 15.644C20.2335 16.8179 20.0141 17.9544 19.5913 18.8554C18.3544 21.4915 15.8774 22.4181 13.4086 22.4181C12.175 22.4181 11.0043 22.1892 9.99187 21.6169C8.97269 21.0407 8.14747 20.1354 7.58286 18.8432C7.19425 17.9538 6.95776 16.8285 6.81336 15.6549C6.77965 15.3808 6.97449 15.1313 7.24857 15.0975Z" fill="#CF367C"/>
<path d="M22 13.582C22 14.6866 21.1046 15.582 20 15.582C18.8954 15.582 18 14.6866 18 13.582C18 12.4775 18.8954 11.582 20 11.582C21.1046 11.582 22 12.4775 22 13.582Z" fill="white"/>
<path fill-rule="evenodd" clip-rule="evenodd" d="M23 13.582C23 15.2389 21.6569 16.582 20 16.582C18.3431 16.582 17 15.2389 17 13.582C17 11.9252 18.3431 10.582 20 10.582C21.6569 10.582 23 11.9252 23 13.582ZM20 15.582C21.1046 15.582 22 14.6866 22 13.582C22 12.4775 21.1046 11.582 20 11.582C18.8954 11.582 18 12.4775 18 13.582C18 14.6866 18.8954 15.582 20 15.582Z" fill="#CF367C"/>
<circle cx="20" cy="13.582" r="1" fill="white" stroke="#CF367C"/>
</svg>
