<svg width="140" height="14" viewBox="0 0 140 14" fill="none" xmlns="http://www.w3.org/2000/svg">
<path d="M92.694 6.31233H86.2551V0.59375H84.5205V13.6763H86.2551V8.01171H92.694V13.6763H94.4285V0.59375H92.694V6.31233Z" fill="#00A1E3"/>
<path d="M101.182 2.88672C98.0023 2.88672 96.0049 5.07165 96.0049 8.41647V8.63227C96.0049 11.8962 97.7394 13.9732 101.13 13.9732C103.653 13.9732 105.414 12.7324 105.992 10.5744H104.1C103.705 11.8153 102.68 12.4626 101.182 12.4626C99.0535 12.4626 97.8446 11.1948 97.7132 9.03689H106.123V8.20068C106.149 5.34139 104.546 2.88672 101.182 2.88672ZM97.7657 7.60724C97.976 5.55719 99.2375 4.31636 101.209 4.31636C103.153 4.31636 104.257 5.61113 104.415 7.60724H97.7657Z" fill="#00A1E3"/>
<path d="M112.563 2.88672C109.646 2.88672 107.911 4.50518 107.754 6.79801H109.488C109.593 5.31442 110.645 4.28939 112.642 4.28939C114.482 4.28939 115.296 5.07165 115.296 6.1776C115.296 7.14868 114.298 7.3375 112.484 7.60724C110.408 7.93093 109.567 8.11976 108.752 8.68622C107.938 9.19873 107.412 10.0889 107.412 11.1948C107.412 12.8942 108.568 14.0002 110.776 14.0002C113.063 14.0002 114.639 12.7324 115.349 11.1139L115.559 13.7304H116.952L116.978 6.50129C116.978 4.34334 115.612 2.88672 112.563 2.88672ZM115.323 8.71319C115.323 10.4935 113.693 12.5436 111.328 12.5436C109.988 12.5436 109.304 11.9231 109.304 10.9521C109.304 10.3317 109.541 9.90007 110.067 9.5494C110.618 9.17176 111.328 9.00991 112.879 8.74017C113.982 8.55135 114.85 8.36252 115.323 7.95791V8.71319Z" fill="#00A1E3"/>
<path d="M119.159 6.79755V13.676H120.92V6.7436V0H119.159V6.79755Z" fill="#00A1E3"/>
<path d="M125.939 0.621094H124.599C124.573 0.998736 124.52 1.99679 124.441 2.29351C124.31 2.96787 124.179 3.10274 123.6 3.18366C123.338 3.26459 122.654 3.26459 122.339 3.26459V4.77515H124.31V9.63055C124.31 12.7596 125.072 13.7037 127.805 13.7037H128.962V12.0313H128.2C126.36 12.0313 125.939 11.6536 125.939 9.38778V4.74818H128.962V3.15669H125.939V0.621094Z" fill="#00A1E3"/>
<path d="M136.084 2.88626C134.271 2.88626 133.009 3.85734 132.378 5.28699V0H130.696V13.676H132.378V8.17325C132.378 5.98832 133.508 4.45078 135.453 4.45078C137.451 4.45078 138.265 5.7995 138.265 7.71468V13.703H140V7.25612C140.026 4.58565 138.712 2.88626 136.084 2.88626Z" fill="#00A1E3"/>
<path d="M9.35614 6.79602C10.5388 6.31048 11.1958 5.4473 11.1958 3.90976V3.88278C11.1958 1.58996 9.5664 0.457031 5.75561 0.457031H0V13.5666H6.17611C9.75036 13.5666 11.5375 12.2988 11.5375 9.73623C11.5375 8.11776 10.7753 7.22761 9.35614 6.79602ZM3.54798 3.28934H5.78189C7.09595 3.28934 7.62158 3.61304 7.62158 4.3953V4.42227C7.62158 5.2315 7.04339 5.58217 5.83445 5.58217H3.54798V3.28934ZM7.80555 9.33161C7.80555 10.1408 7.33248 10.5455 5.6242 10.5455H3.54798V8.11776H5.65048C7.25364 8.11776 7.80555 8.46843 7.80555 9.33161Z" fill="white"/>
<path d="M16.3999 0.457031L11.459 13.5666H15.1646L15.9268 11.2738H20.71L21.4984 13.5666H25.2304L20.2369 0.457031H16.3999ZM16.8992 8.44146L18.3184 4.26042L19.7639 8.44146H16.8992Z" fill="white"/>
<path d="M32.6946 7.36248C32.6946 9.60136 32.1164 10.3297 30.7235 10.3297C29.3831 10.3297 28.6998 9.52043 28.6998 7.36248V0.457031H24.9941V7.47038C24.9941 11.9212 26.8338 13.8633 30.7497 13.8633C34.3766 13.8633 36.4528 11.9212 36.4528 7.47038V0.457031H32.6946V7.36248Z" fill="white"/>
<path d="M44.4147 5.47449C42.3911 5.17777 41.4187 4.98895 41.4187 4.15274C41.4187 3.50535 41.8917 3.04679 43.127 3.04679C44.4936 3.04679 45.1769 3.47838 45.3083 4.58433V4.61131H48.9877V4.58433C48.6986 1.61714 46.7538 0.1875 43.2058 0.1875C39.6841 0.1875 37.7919 1.88689 37.7919 4.34156C37.7919 7.1469 39.8155 7.87521 42.3385 8.27983C44.4673 8.57655 45.5711 8.76537 45.5711 9.73645C45.5711 10.4917 44.9929 10.9233 43.7051 10.9233C42.2071 10.9233 41.4187 10.3299 41.3135 9.14301V9.08906H37.4502V9.11603C37.6604 12.2451 39.2373 13.9445 43.5475 13.9445C47.3057 13.9445 49.1979 12.1911 49.1979 9.54763C49.1979 6.66136 47.0692 5.85213 44.4147 5.47449Z" fill="white"/>
<path d="M58.87 8.14495C58.7386 9.65552 58.029 10.4917 56.4784 10.4917C54.7964 10.4917 53.9028 9.49367 53.9028 7.41664V6.66136C53.9028 4.47643 54.7964 3.4514 56.4784 3.4514C58.0027 3.4514 58.7123 4.26064 58.8437 5.69028V5.82515H62.7334V5.55541C62.4968 1.91386 60.1052 0.1875 56.4784 0.1875C52.6676 0.1875 50.1709 2.37243 50.1709 6.52649V7.55152C50.1709 11.8135 52.4837 13.8635 56.3733 13.8635C60.2629 13.8635 62.5231 12.0293 62.7859 8.1989V7.98311H58.87V8.14495Z" fill="white"/>
<path d="M67.7529 0.457031H64.1523V13.5666H67.7529V8.76515H72.1419V5.31243H67.7529V0.457031Z" fill="white"/>
<path d="M75.7422 8.76562H72.168V13.5671H75.7422V8.76562Z" fill="white"/>
<path d="M75.7422 0.457031H72.168V5.31243H75.7422V0.457031ZM75.7422 8.76515H80.1312V5.31243H75.7422V8.76515Z" fill="white"/>
<path d="M75.7422 5.3125H72.168V8.73825H75.7422V5.3125Z" fill="#00A1E3"/>
</svg>
