<svg width="169" height="168" viewBox="0 0 169 168" fill="none" xmlns="http://www.w3.org/2000/svg">
<path d="M3.85547 91.8145C13.3555 91.8145 24.4973 91.3875 32.3555 78.8145C39.8555 66.8145 43.8328 58.2937 48.8555 52.8145C54.3555 46.8145 63.3555 41.9811 66.3555 40.3145" stroke="#2344B7"/>
<path d="M3.35547 88.9837C3.64118 88.9837 7.64118 88.9837 10.4983 88.9837C16.9269 88.9837 18.5698 91.5927 20.8555 100.022C23.7126 110.558 27.6412 127.115 32.9983 104.537C38.3555 81.9595 36.8555 67.3145 43.3555 56.3145C49.8555 45.3145 60.3555 39.8145 64.8555 37.8145" stroke="#D70A42"/>
<path opacity="0.37" d="M10.8093 90.9645L4.9314 91.4869C4.63611 91.4873 4.48868 92.1316 4.48878 92.4536C4.48899 93.0976 4.93202 93.4189 4.93202 93.4189L10.8099 92.8965C27.6413 92.8703 38.1278 104.768 48.3189 116.022C58.8054 127.598 67.7715 139.073 85.1935 139.046C94.6591 139.031 108.587 136.478 106.615 136.481C81.7063 136.52 58.9525 125.988 48.6137 114.412C38.4225 102.836 27.7883 90.938 10.8093 90.9645Z" fill="url(#paint0_linear_2509_40120)"/>
<ellipse rx="57.1857" ry="50.5" transform="matrix(-0.969951 -0.243302 -0.243302 0.969951 94.6014 84.8367)" fill="#D70A42"/>
<ellipse rx="54.7657" ry="48.0887" transform="matrix(-0.967813 0.25167 0.25167 0.967813 94.1894 83.7964)" fill="#1E76E2"/>
<circle r="50.5" transform="matrix(-1 0 0 1 95.8555 84.3145)" fill="white"/>
<path d="M55.2655 119.677C63.725 128.969 76.4242 132.843 90.1689 131.54C103.914 130.237 118.671 123.756 131.163 112.382C143.655 101.009 151.489 86.9227 154.072 73.36C156.655 59.7975 153.986 46.7915 145.527 37.4999C137.067 28.2082 124.368 24.3342 110.623 25.6371C96.8786 26.9401 82.1214 33.4216 69.6292 44.795C57.137 56.1684 49.3033 70.2544 46.7202 83.8171C44.137 97.3796 46.806 110.386 55.2655 119.677Z" stroke="#1E76E2"/>
<path d="M121.359 138.25C145.286 124.436 151.273 89.7071 134.466 60.5964C117.659 31.4858 84.5895 19.3068 60.6623 33.1211C36.7351 46.9355 30.7476 81.6643 47.5546 110.775C64.3617 139.886 97.4315 152.065 121.359 138.25Z" stroke="#D70A42"/>
<circle r="4.5" transform="matrix(-1 0 0 1 4.85547 91.3145)" fill="#1E76E2"/>
<circle r="2.5" transform="matrix(-1 0 0 1 4.85547 91.3145)" fill="white"/>
<defs>
<linearGradient id="paint0_linear_2509_40120" x1="-118.224" y1="115.679" x2="87.3025" y2="115.612" gradientUnits="userSpaceOnUse">
<stop stop-color="#000673"/>
<stop offset="0.3404" stop-color="#0044FF"/>
<stop offset="0.3658" stop-color="#004DFF"/>
<stop offset="0.5129" stop-color="#007AFF"/>
<stop offset="0.654" stop-color="#009EFF"/>
<stop offset="0.7859" stop-color="#00B7FF"/>
<stop offset="0.905" stop-color="#00C7FF"/>
<stop offset="1" stop-color="#00CCFF"/>
</linearGradient>
</defs>
</svg>
