<svg width="16" height="16" viewBox="0 0 16 16" fill="none" xmlns="http://www.w3.org/2000/svg">
<path d="M8.66357 2.00065C8.66357 1.63246 8.3651 1.33398 7.99691 1.33398C7.62872 1.33398 7.33024 1.63246 7.33024 2.00065V9.05508L5.47108 7.19591C5.21073 6.93556 4.78862 6.93556 4.52827 7.19591C4.26792 7.45626 4.26792 7.87837 4.52827 8.13872L7.49068 11.1011C7.61295 11.2437 7.79438 11.334 7.99691 11.334L7.99826 11.334C8.16934 11.3343 8.34054 11.2693 8.47108 11.1387L11.4711 8.13872C11.7314 7.87837 11.7314 7.45626 11.4711 7.19591C11.2107 6.93556 10.7886 6.93556 10.5283 7.19591L8.66357 9.06061V2.00065Z" fill="white"/>
<path d="M13.9997 7.33398C14.3679 7.33398 14.6663 7.63246 14.6663 8.00065V14.0007C14.6663 14.3688 14.3679 14.6673 13.9997 14.6673H1.99967C1.63148 14.6673 1.33301 14.3688 1.33301 14.0007V8.00342C1.33301 7.63523 1.63148 7.33675 1.99967 7.33675C2.36786 7.33675 2.66634 7.63523 2.66634 8.00342V13.334H13.333V8.00065C13.333 7.63246 13.6315 7.33398 13.9997 7.33398Z" fill="white"/>
</svg>
