<svg width="32" height="32" viewBox="0 0 32 32" fill="none" xmlns="http://www.w3.org/2000/svg">
<g opacity="0.4">
<path d="M24.2621 4.68667C21.9522 4.46944 19.6342 5.33619 18.0275 6.89927L16.2118 11.9649L16.9775 18.0633L15.0882 23.9121L15.9974 28.484L18.0858 26.9261L18.1427 26.8834C25.5316 21.3377 30.4058 17.6795 30.8765 12.6745C31.261 8.58584 28.3507 5.07121 24.2621 4.68667Z" fill="white"/>
<path d="M13.4417 26.5812L15.5594 28.1144L13.7358 23.8245L14.391 17.7131L12.3962 11.8995L13.1392 6.56989C11.5044 5.03613 9.17112 4.21145 6.86562 4.47043C2.78462 4.92886 -0.061677 8.49556 0.396757 12.5766C0.958918 17.5809 5.91467 21.1541 13.4231 26.5679L13.4417 26.5812Z" fill="white"/>
</g>
</svg>
