<svg width="73" height="72" viewBox="0 0 73 72" fill="none" xmlns="http://www.w3.org/2000/svg">
<g clip-path="url(#clip0_2529_5890)">
<path fill-rule="evenodd" clip-rule="evenodd" d="M30.96 36.1616C30.96 31.9782 34.0984 28.5868 37.9698 28.5868C41.8413 28.5868 44.9797 31.9782 44.9797 36.1616C44.9797 40.3451 41.8413 43.7364 37.9698 43.7364C34.0984 43.7364 30.96 40.3451 30.96 36.1616ZM32.7668 36.1616C32.7668 32.8417 35.2256 30.3937 37.9698 30.3937C40.7141 30.3937 43.1729 32.8417 43.1729 36.1616C43.1729 39.4816 40.7141 41.9296 37.9698 41.9296C35.2256 41.9296 32.7668 39.4816 32.7668 36.1616Z" fill="white"/>
<path fill-rule="evenodd" clip-rule="evenodd" d="M43.2094 17.4605C55.6918 19.5033 66.2676 28.0316 72.5868 36.8858L72.4388 36.9915L72.5312 37.0724C68.6963 41.452 62.372 48.3786 52.135 52.3376L51.4833 50.6524C60.585 47.1324 66.4793 41.1603 70.3179 36.85C64.8697 29.6557 56.6052 22.9339 46.9505 20.1538C52.7238 23.173 56.6625 29.2086 56.6625 36.1617C56.6625 45.9314 48.8867 53.8895 39.1715 54.2144L39.1786 54.3753C27.9513 54.8708 14.6632 51.4526 2.80775 37.053L2.93321 36.9497L2.80078 36.8434C16.3658 19.9506 30.6467 15.4045 43.2094 17.4605ZM5.0642 36.9282C13.0911 46.2565 21.6911 50.4772 29.7625 51.9572C24.205 48.8731 20.4449 42.9554 20.4449 36.1617C20.4449 28.4518 25.2876 21.8701 32.1045 19.2779C23.4062 20.776 14.1464 25.9936 5.0642 36.9282ZM22.2517 36.1617C22.2517 27.188 29.5461 19.9056 38.5537 19.9056C47.5614 19.9056 54.8557 27.188 54.8557 36.1617C54.8557 45.1354 47.5614 52.4178 38.5537 52.4178C29.5461 52.4178 22.2517 45.1354 22.2517 36.1617Z" fill="white"/>
<path fill-rule="evenodd" clip-rule="evenodd" d="M30.96 36.1616C30.96 31.9782 34.0984 28.5868 37.9698 28.5868C41.8413 28.5868 44.9797 31.9782 44.9797 36.1616C44.9797 40.3451 41.8413 43.7364 37.9698 43.7364C34.0984 43.7364 30.96 40.3451 30.96 36.1616ZM32.7668 36.1616C32.7668 32.8417 35.2256 30.3937 37.9698 30.3937C40.7141 30.3937 43.1729 32.8417 43.1729 36.1616C43.1729 39.4816 40.7141 41.9296 37.9698 41.9296C35.2256 41.9296 32.7668 39.4816 32.7668 36.1616Z" stroke="white" stroke-width="0.2"/>
<path fill-rule="evenodd" clip-rule="evenodd" d="M43.2094 17.4605C55.6918 19.5033 66.2676 28.0316 72.5868 36.8858L72.4388 36.9915L72.5312 37.0724C68.6963 41.452 62.372 48.3786 52.135 52.3376L51.4833 50.6524C60.585 47.1324 66.4793 41.1603 70.3179 36.85C64.8697 29.6557 56.6052 22.9339 46.9505 20.1538C52.7238 23.173 56.6625 29.2086 56.6625 36.1617C56.6625 45.9314 48.8867 53.8895 39.1715 54.2144L39.1786 54.3753C27.9513 54.8708 14.6632 51.4526 2.80775 37.053L2.93321 36.9497L2.80078 36.8434C16.3658 19.9506 30.6467 15.4045 43.2094 17.4605ZM5.0642 36.9282C13.0911 46.2565 21.6911 50.4772 29.7625 51.9572C24.205 48.8731 20.4449 42.9554 20.4449 36.1617C20.4449 28.4518 25.2876 21.8701 32.1045 19.2779C23.4062 20.776 14.1464 25.9936 5.0642 36.9282ZM22.2517 36.1617C22.2517 27.188 29.5461 19.9056 38.5537 19.9056C47.5614 19.9056 54.8557 27.188 54.8557 36.1617C54.8557 45.1354 47.5614 52.4178 38.5537 52.4178C29.5461 52.4178 22.2517 45.1354 22.2517 36.1617Z" stroke="white" stroke-width="0.2"/>
</g>
<defs>
<clipPath id="clip0_2529_5890">
<rect width="72" height="72" fill="white" transform="translate(0.800781)"/>
</clipPath>
</defs>
</svg>
