<svg width="443" height="308" viewBox="0 0 443 308" fill="none" xmlns="http://www.w3.org/2000/svg">
<path d="M116.196 179.2H117.638L113.27 183.806L117.862 189H116.336L111.898 183.89L116.196 179.2ZM111.66 189H110.47V179.2H111.66V189ZM124.504 189H123.384V183.82H121.172L121.102 184.884C121.028 185.752 120.916 186.475 120.766 187.054C120.626 187.623 120.44 188.053 120.206 188.342C119.982 188.622 119.744 188.818 119.492 188.93C119.24 189.033 118.932 189.084 118.568 189.084L118.484 187.992C118.587 188.001 118.694 187.987 118.806 187.95C118.918 187.903 119.04 187.81 119.17 187.67C119.31 187.53 119.432 187.343 119.534 187.11C119.646 186.877 119.744 186.55 119.828 186.13C119.922 185.701 119.982 185.211 120.01 184.66L120.122 182.7H124.504V189ZM131.494 187.432L131.844 188.314C131.237 188.865 130.448 189.14 129.478 189.14C128.451 189.14 127.634 188.841 127.028 188.244C126.412 187.647 126.104 186.849 126.104 185.85C126.104 184.907 126.393 184.123 126.972 183.498C127.541 182.873 128.334 182.56 129.352 182.56C130.192 182.56 130.887 182.831 131.438 183.372C131.998 183.904 132.278 184.595 132.278 185.444C132.278 185.715 132.254 185.967 132.208 186.2H127.364C127.41 186.788 127.63 187.25 128.022 187.586C128.423 187.922 128.936 188.09 129.562 188.09C130.383 188.09 131.027 187.871 131.494 187.432ZM129.296 183.61C128.745 183.61 128.288 183.764 127.924 184.072C127.569 184.38 127.359 184.786 127.294 185.29H131.116C131.088 184.767 130.91 184.357 130.584 184.058C130.266 183.759 129.837 183.61 129.296 183.61ZM135.186 183.82H132.876V182.7H138.616V183.82H136.306V189H135.186V183.82ZM143.886 182.7H145.356L142.598 185.71L145.622 189H144.068L141.226 185.78L143.886 182.7ZM140.96 189H139.84V182.7H140.96V189ZM151.573 184.31L147.933 189H146.813V182.7H147.933V187.39L151.573 182.7H152.693V189H151.573V184.31ZM162.633 184.31L158.993 189H157.873V182.7H158.993V187.39L162.633 182.7H163.753V189H162.633V184.31ZM171.529 189H170.409V186.34H166.909V189H165.789V182.7H166.909V185.29H170.409V182.7H171.529V189ZM175.067 183.82H172.757V182.7H178.497V183.82H176.187V189H175.067V183.82ZM184.481 184.31L180.841 189H179.721V182.7H180.841V187.39L184.481 182.7H185.601V189H184.481V184.31ZM188.757 189H187.637V182.7H188.659L191.081 185.822L193.377 182.7H194.371V189H193.251V184.408L191.067 187.334H191.025L188.757 184.408V189ZM198.431 189H196.401V182.7H197.521V184.59H198.557C199.415 184.59 200.045 184.786 200.447 185.178C200.848 185.561 201.049 186.088 201.049 186.76C201.049 187.395 200.839 187.927 200.419 188.356C200.017 188.785 199.355 189 198.431 189ZM203.373 189H202.253V182.7H203.373V189ZM198.347 185.64H197.521V187.95H198.333C198.865 187.95 199.252 187.857 199.495 187.67C199.737 187.483 199.859 187.194 199.859 186.802C199.859 186.027 199.355 185.64 198.347 185.64ZM208.864 184.03L208.57 183.134C209.195 182.751 209.895 182.56 210.67 182.56C211.519 182.56 212.135 182.77 212.518 183.19C212.9 183.61 213.092 184.259 213.092 185.136V189H212.028V188.188C211.533 188.795 210.861 189.098 210.012 189.098C209.433 189.098 208.966 188.925 208.612 188.58C208.257 188.225 208.08 187.749 208.08 187.152C208.08 186.536 208.299 186.051 208.738 185.696C209.176 185.332 209.75 185.15 210.46 185.15C211.122 185.15 211.645 185.285 212.028 185.556C212.028 184.847 211.93 184.338 211.734 184.03C211.538 183.722 211.16 183.568 210.6 183.568C210.03 183.568 209.452 183.722 208.864 184.03ZM210.404 188.09C211.029 188.09 211.57 187.819 212.028 187.278V186.48C211.636 186.2 211.164 186.06 210.614 186.06C210.231 186.06 209.909 186.153 209.648 186.34C209.396 186.517 209.27 186.769 209.27 187.096C209.27 187.404 209.368 187.647 209.564 187.824C209.769 188.001 210.049 188.09 210.404 188.09ZM219.013 182.7H220.483L217.725 185.71L220.749 189H219.195L216.353 185.78L219.013 182.7ZM216.087 189H214.967V182.7H216.087V189ZM223.452 183.82H221.142V182.7H226.882V183.82H224.572V189H223.452V183.82ZM232.866 184.31L229.226 189H228.106V182.7H229.226V187.39L232.866 182.7H233.986V189H232.866V184.31ZM236.022 189V182.7C236.068 182.7 236.134 182.7 236.218 182.7C236.302 182.691 236.423 182.686 236.582 182.686C236.74 182.677 236.885 182.672 237.016 182.672C237.706 182.653 238.136 182.644 238.304 182.644C240.114 182.644 241.02 183.185 241.02 184.268C241.02 184.641 240.903 184.963 240.67 185.234C240.436 185.495 240.133 185.654 239.76 185.71V185.738C240.74 185.915 241.23 186.41 241.23 187.222C241.23 188.445 240.264 189.056 238.332 189.056C238.238 189.056 237.828 189.047 237.1 189.028C236.96 189.028 236.806 189.023 236.638 189.014C236.47 189.014 236.339 189.009 236.246 189C236.152 189 236.078 189 236.022 189ZM238.486 186.172H237.142V188.104C237.814 188.132 238.243 188.146 238.43 188.146C239.503 188.146 240.04 187.81 240.04 187.138C240.04 186.494 239.522 186.172 238.486 186.172ZM238.388 183.554C238.117 183.554 237.702 183.568 237.142 183.596V185.472H238.556C238.938 185.472 239.246 185.383 239.48 185.206C239.713 185.029 239.83 184.791 239.83 184.492C239.83 183.867 239.349 183.554 238.388 183.554ZM248.68 189H247.56V186.34H244.06V189H242.94V182.7H244.06V185.29H247.56V182.7H248.68V189ZM251.209 188.216C250.593 187.581 250.285 186.793 250.285 185.85C250.285 184.898 250.593 184.114 251.209 183.498C251.835 182.873 252.647 182.56 253.645 182.56C254.644 182.56 255.451 182.873 256.067 183.498C256.693 184.114 257.005 184.898 257.005 185.85C257.005 186.802 256.693 187.591 256.067 188.216C255.451 188.832 254.644 189.14 253.645 189.14C252.656 189.14 251.844 188.832 251.209 188.216ZM252.091 184.24C251.681 184.651 251.475 185.187 251.475 185.85C251.475 186.513 251.676 187.049 252.077 187.46C252.488 187.88 253.011 188.09 253.645 188.09C254.28 188.09 254.798 187.885 255.199 187.474C255.61 187.054 255.815 186.513 255.815 185.85C255.815 185.206 255.61 184.669 255.199 184.24C254.798 183.82 254.28 183.61 253.645 183.61C253.011 183.61 252.493 183.82 252.091 184.24ZM261.766 189V182.7C261.812 182.7 261.878 182.7 261.962 182.7C262.046 182.691 262.167 182.686 262.326 182.686C262.484 182.677 262.629 182.672 262.76 182.672C263.45 182.653 263.88 182.644 264.048 182.644C265.858 182.644 266.764 183.185 266.764 184.268C266.764 184.641 266.647 184.963 266.414 185.234C266.18 185.495 265.877 185.654 265.504 185.71V185.738C266.484 185.915 266.974 186.41 266.974 187.222C266.974 188.445 266.008 189.056 264.076 189.056C263.982 189.056 263.572 189.047 262.844 189.028C262.704 189.028 262.55 189.023 262.382 189.014C262.214 189.014 262.083 189.009 261.99 189C261.896 189 261.822 189 261.766 189ZM264.23 186.172H262.886V188.104C263.558 188.132 263.987 188.146 264.174 188.146C265.247 188.146 265.784 187.81 265.784 187.138C265.784 186.494 265.266 186.172 264.23 186.172ZM264.132 183.554C263.861 183.554 263.446 183.568 262.886 183.596V185.472H264.3C264.682 185.472 264.99 185.383 265.224 185.206C265.457 185.029 265.574 184.791 265.574 184.492C265.574 183.867 265.093 183.554 264.132 183.554ZM270.714 189H268.684V182.7H269.804V184.59H270.84C271.698 184.59 272.328 184.786 272.73 185.178C273.131 185.561 273.332 186.088 273.332 186.76C273.332 187.395 273.122 187.927 272.702 188.356C272.3 188.785 271.638 189 270.714 189ZM275.656 189H274.536V182.7H275.656V189ZM270.63 185.64H269.804V187.95H270.616C271.148 187.95 271.535 187.857 271.778 187.67C272.02 187.483 272.142 187.194 272.142 186.802C272.142 186.027 271.638 185.64 270.63 185.64ZM277.848 190.54H276.798V187.95H277.582C277.816 187.661 278.021 187.194 278.198 186.55C278.376 185.897 278.492 185.169 278.548 184.366L278.646 182.7H282.944V187.95H283.994V190.54H282.944V189H277.848V190.54ZM279.696 183.75L279.626 184.8C279.57 185.5 279.458 186.139 279.29 186.718C279.122 187.297 278.95 187.707 278.772 187.95H281.824V183.75H279.696ZM290.183 187.432L290.533 188.314C289.926 188.865 289.138 189.14 288.167 189.14C287.14 189.14 286.324 188.841 285.717 188.244C285.101 187.647 284.793 186.849 284.793 185.85C284.793 184.907 285.082 184.123 285.661 183.498C286.23 182.873 287.024 182.56 288.041 182.56C288.881 182.56 289.576 182.831 290.127 183.372C290.687 183.904 290.967 184.595 290.967 185.444C290.967 185.715 290.944 185.967 290.897 186.2H286.053C286.1 186.788 286.319 187.25 286.711 187.586C287.112 187.922 287.626 188.09 288.251 188.09C289.072 188.09 289.716 187.871 290.183 187.432ZM287.985 183.61C287.434 183.61 286.977 183.764 286.613 184.072C286.258 184.38 286.048 184.786 285.983 185.29H289.805C289.777 184.767 289.6 184.357 289.273 184.058C288.956 183.759 288.526 183.61 287.985 183.61ZM297.672 189H296.552V183.82H294.34L294.27 184.884C294.196 185.752 294.084 186.475 293.934 187.054C293.794 187.623 293.608 188.053 293.374 188.342C293.15 188.622 292.912 188.818 292.66 188.93C292.408 189.033 292.1 189.084 291.736 189.084L291.652 187.992C291.755 188.001 291.862 187.987 291.974 187.95C292.086 187.903 292.208 187.81 292.338 187.67C292.478 187.53 292.6 187.343 292.702 187.11C292.814 186.877 292.912 186.55 292.996 186.13C293.09 185.701 293.15 185.211 293.178 184.66L293.29 182.7H297.672V189ZM302.45 182.7H304.41V189H303.29V186.9H302.072L300.532 189H299.174L300.994 186.62C300.611 186.536 300.289 186.331 300.028 186.004C299.766 185.668 299.636 185.267 299.636 184.8C299.636 184.156 299.869 183.647 300.336 183.274C300.802 182.891 301.507 182.7 302.45 182.7ZM300.826 184.828C300.826 185.127 300.942 185.374 301.176 185.57C301.409 185.757 301.684 185.85 302.002 185.85H303.29V183.75H302.268C301.792 183.75 301.432 183.848 301.19 184.044C300.947 184.24 300.826 184.501 300.826 184.828ZM307.636 189H306.446V182.7H307.636V185.22H309.008C309.138 184.417 309.488 183.773 310.058 183.288C310.636 182.803 311.346 182.56 312.186 182.56C313.175 182.56 313.968 182.873 314.566 183.498C315.172 184.123 315.476 184.907 315.476 185.85C315.476 186.793 315.168 187.581 314.552 188.216C313.945 188.832 313.156 189.14 312.186 189.14C311.299 189.14 310.571 188.883 310.002 188.37C309.432 187.857 309.096 187.18 308.994 186.34H307.636V189ZM310.786 184.282C310.412 184.683 310.226 185.206 310.226 185.85C310.226 186.494 310.412 187.017 310.786 187.418C311.159 187.819 311.64 188.02 312.228 188.02C312.816 188.02 313.292 187.824 313.656 187.432C314.029 187.031 314.216 186.503 314.216 185.85C314.216 185.206 314.034 184.683 313.669 184.282C313.306 183.881 312.825 183.68 312.228 183.68C311.64 183.68 311.159 183.881 310.786 184.282ZM318.348 183.82H316.038V182.7H321.778V183.82H319.468V189H318.348V183.82ZM115.636 203.922L114.88 204.58L112.29 201.528V201.472L114.922 198.448L115.65 199.092L113.578 201.5L115.636 203.922ZM112.976 203.922L112.22 204.58L109.63 201.528V201.472L112.262 198.448L112.99 199.092L110.918 201.5L112.976 203.922ZM121.52 202.256H118.412V201.346H121.506C121.422 200.786 121.184 200.357 120.792 200.058C120.409 199.759 119.919 199.61 119.322 199.61C118.547 199.61 117.903 199.839 117.39 200.296L116.914 199.456C117.184 199.185 117.544 198.971 117.992 198.812C118.44 198.644 118.878 198.56 119.308 198.56C120.316 198.56 121.123 198.859 121.73 199.456C122.355 200.053 122.668 200.851 122.668 201.85C122.668 202.774 122.364 203.553 121.758 204.188C121.151 204.823 120.39 205.14 119.476 205.14C118.337 205.14 117.492 204.874 116.942 204.342L117.474 203.516C117.903 203.899 118.547 204.09 119.406 204.09C119.994 204.09 120.474 203.931 120.848 203.614C121.221 203.287 121.445 202.835 121.52 202.256ZM128.327 198.7H129.797L127.039 201.71L130.063 205H128.509L125.667 201.78L128.327 198.7ZM125.401 205H124.281V198.7H125.401V205ZM135.756 203.278L136.288 204.09C135.747 204.79 134.94 205.14 133.866 205.14C132.858 205.14 132.042 204.841 131.416 204.244C130.8 203.647 130.492 202.849 130.492 201.85C130.492 200.926 130.796 200.147 131.402 199.512C132.009 198.877 132.77 198.56 133.684 198.56C134.786 198.56 135.612 198.835 136.162 199.386L135.644 200.268C135.159 199.829 134.557 199.61 133.838 199.61C133.25 199.61 132.742 199.825 132.312 200.254C131.892 200.674 131.682 201.206 131.682 201.85C131.682 202.531 131.897 203.073 132.326 203.474C132.765 203.885 133.306 204.09 133.95 204.09C134.678 204.09 135.28 203.819 135.756 203.278ZM139.178 199.82H136.868V198.7H142.608V199.82H140.298V205H139.178V199.82ZM144.952 207.8H143.832V198.7H144.952V199.442C145.176 199.181 145.484 198.971 145.876 198.812C146.268 198.644 146.674 198.56 147.094 198.56C147.99 198.56 148.695 198.859 149.208 199.456C149.74 200.044 150.006 200.809 150.006 201.752C150.006 202.713 149.703 203.521 149.096 204.174C148.499 204.818 147.71 205.14 146.73 205.14C145.974 205.14 145.382 204.995 144.952 204.706V207.8ZM146.772 199.61C146.026 199.61 145.419 199.899 144.952 200.478V203.6C145.447 203.927 146.007 204.09 146.632 204.09C147.295 204.09 147.822 203.88 148.214 203.46C148.616 203.031 148.816 202.475 148.816 201.794C148.816 201.131 148.634 200.604 148.27 200.212C147.906 199.811 147.407 199.61 146.772 199.61ZM156.582 203.432L156.932 204.314C156.325 204.865 155.536 205.14 154.566 205.14C153.539 205.14 152.722 204.841 152.116 204.244C151.5 203.647 151.192 202.849 151.192 201.85C151.192 200.907 151.481 200.123 152.06 199.498C152.629 198.873 153.422 198.56 154.44 198.56C155.28 198.56 155.975 198.831 156.526 199.372C157.086 199.904 157.366 200.595 157.366 201.444C157.366 201.715 157.342 201.967 157.296 202.2H152.452C152.498 202.788 152.718 203.25 153.11 203.586C153.511 203.922 154.024 204.09 154.65 204.09C155.471 204.09 156.115 203.871 156.582 203.432ZM154.384 199.61C153.833 199.61 153.376 199.764 153.012 200.072C152.657 200.38 152.447 200.786 152.382 201.29H156.204C156.176 200.767 155.998 200.357 155.672 200.058C155.354 199.759 154.925 199.61 154.384 199.61ZM164.625 205H163.505V202.34H160.005V205H158.885V198.7H160.005V201.29H163.505V198.7H164.625V205ZM172.391 205H171.271V202.34H167.771V205H166.651V198.7H167.771V201.29H171.271V198.7H172.391V205ZM176.446 205H174.416V198.7H175.536V200.59H176.572C177.431 200.59 178.061 200.786 178.462 201.178C178.864 201.561 179.064 202.088 179.064 202.76C179.064 203.395 178.854 203.927 178.434 204.356C178.033 204.785 177.37 205 176.446 205ZM181.388 205H180.268V198.7H181.388V205ZM176.362 201.64H175.536V203.95H176.348C176.88 203.95 177.268 203.857 177.51 203.67C177.753 203.483 177.874 203.194 177.874 202.802C177.874 202.027 177.37 201.64 176.362 201.64ZM188.369 203.432L188.719 204.314C188.112 204.865 187.323 205.14 186.353 205.14C185.326 205.14 184.509 204.841 183.903 204.244C183.287 203.647 182.979 202.849 182.979 201.85C182.979 200.907 183.268 200.123 183.847 199.498C184.416 198.873 185.209 198.56 186.227 198.56C187.067 198.56 187.762 198.831 188.313 199.372C188.873 199.904 189.153 200.595 189.153 201.444C189.153 201.715 189.129 201.967 189.083 202.2H184.239C184.285 202.788 184.505 203.25 184.897 203.586C185.298 203.922 185.811 204.09 186.437 204.09C187.258 204.09 187.902 203.871 188.369 203.432ZM186.171 199.61C185.62 199.61 185.163 199.764 184.799 200.072C184.444 200.38 184.234 200.786 184.169 201.29H187.991C187.963 200.767 187.785 200.357 187.459 200.058C187.141 199.759 186.712 199.61 186.171 199.61ZM196.454 201.472V201.528L193.864 204.58L193.108 203.922L195.166 201.5L193.094 199.092L193.822 198.448L196.454 201.472ZM193.794 201.472V201.528L191.204 204.58L190.448 203.922L192.506 201.5L190.434 199.092L191.162 198.448L193.794 201.472ZM201.24 205V198.7C201.287 198.7 201.352 198.7 201.436 198.7C201.52 198.691 201.642 198.686 201.8 198.686C201.959 198.677 202.104 198.672 202.234 198.672C202.925 198.653 203.354 198.644 203.522 198.644C205.333 198.644 206.238 199.185 206.238 200.268C206.238 200.641 206.122 200.963 205.888 201.234C205.655 201.495 205.352 201.654 204.978 201.71V201.738C205.958 201.915 206.448 202.41 206.448 203.222C206.448 204.445 205.482 205.056 203.55 205.056C203.457 205.056 203.046 205.047 202.318 205.028C202.178 205.028 202.024 205.023 201.856 205.014C201.688 205.014 201.558 205.009 201.464 205C201.371 205 201.296 205 201.24 205ZM203.704 202.172H202.36V204.104C203.032 204.132 203.462 204.146 203.648 204.146C204.722 204.146 205.258 203.81 205.258 203.138C205.258 202.494 204.74 202.172 203.704 202.172ZM203.606 199.554C203.336 199.554 202.92 199.568 202.36 199.596V201.472H203.774C204.157 201.472 204.465 201.383 204.698 201.206C204.932 201.029 205.048 200.791 205.048 200.492C205.048 199.867 204.568 199.554 203.606 199.554ZM213.128 203.432L213.478 204.314C212.872 204.865 212.083 205.14 211.112 205.14C210.086 205.14 209.269 204.841 208.662 204.244C208.046 203.647 207.738 202.849 207.738 201.85C207.738 200.907 208.028 200.123 208.606 199.498C209.176 198.873 209.969 198.56 210.986 198.56C211.826 198.56 212.522 198.831 213.072 199.372C213.632 199.904 213.912 200.595 213.912 201.444C213.912 201.715 213.889 201.967 213.842 202.2H208.998C209.045 202.788 209.264 203.25 209.656 203.586C210.058 203.922 210.571 204.09 211.196 204.09C212.018 204.09 212.662 203.871 213.128 203.432ZM210.93 199.61C210.38 199.61 209.922 199.764 209.558 200.072C209.204 200.38 208.994 200.786 208.928 201.29H212.75C212.722 200.767 212.545 200.357 212.218 200.058C211.901 199.759 211.472 199.61 210.93 199.61ZM223.412 205H215.432V198.7H216.552V203.95H218.862V198.7H219.982V203.95H222.292V198.7H223.412V203.95H224.462V206.54H223.412V205ZM230.656 203.432L231.006 204.314C230.399 204.865 229.61 205.14 228.64 205.14C227.613 205.14 226.796 204.841 226.19 204.244C225.574 203.647 225.266 202.849 225.266 201.85C225.266 200.907 225.555 200.123 226.134 199.498C226.703 198.873 227.496 198.56 228.514 198.56C229.354 198.56 230.049 198.831 230.6 199.372C231.16 199.904 231.44 200.595 231.44 201.444C231.44 201.715 231.416 201.967 231.37 202.2H226.526C226.572 202.788 226.792 203.25 227.184 203.586C227.585 203.922 228.098 204.09 228.724 204.09C229.545 204.09 230.189 203.871 230.656 203.432ZM228.458 199.61C227.907 199.61 227.45 199.764 227.086 200.072C226.731 200.38 226.521 200.786 226.456 201.29H230.278C230.25 200.767 230.072 200.357 229.746 200.058C229.428 199.759 228.999 199.61 228.458 199.61ZM237.721 203.278L238.253 204.09C237.712 204.79 236.904 205.14 235.831 205.14C234.823 205.14 234.006 204.841 233.381 204.244C232.765 203.647 232.457 202.849 232.457 201.85C232.457 200.926 232.76 200.147 233.367 199.512C233.974 198.877 234.734 198.56 235.649 198.56C236.75 198.56 237.576 198.835 238.127 199.386L237.609 200.268C237.124 199.829 236.522 199.61 235.803 199.61C235.215 199.61 234.706 199.825 234.277 200.254C233.857 200.674 233.647 201.206 233.647 201.85C233.647 202.531 233.862 203.073 234.291 203.474C234.73 203.885 235.271 204.09 235.915 204.09C236.643 204.09 237.245 203.819 237.721 203.278ZM241.143 199.82H238.833V198.7H244.573V199.82H242.263V205H241.143V199.82ZM245.797 205V198.7C245.844 198.7 245.909 198.7 245.993 198.7C246.077 198.691 246.198 198.686 246.357 198.686C246.516 198.677 246.66 198.672 246.791 198.672C247.482 198.653 247.911 198.644 248.079 198.644C249.89 198.644 250.795 199.185 250.795 200.268C250.795 200.641 250.678 200.963 250.445 201.234C250.212 201.495 249.908 201.654 249.535 201.71V201.738C250.515 201.915 251.005 202.41 251.005 203.222C251.005 204.445 250.039 205.056 248.107 205.056C248.014 205.056 247.603 205.047 246.875 205.028C246.735 205.028 246.581 205.023 246.413 205.014C246.245 205.014 246.114 205.009 246.021 205C245.928 205 245.853 205 245.797 205ZM248.261 202.172H246.917V204.104C247.589 204.132 248.018 204.146 248.205 204.146C249.278 204.146 249.815 203.81 249.815 203.138C249.815 202.494 249.297 202.172 248.261 202.172ZM248.163 199.554C247.892 199.554 247.477 199.568 246.917 199.596V201.472H248.331C248.714 201.472 249.022 201.383 249.255 201.206C249.488 201.029 249.605 200.791 249.605 200.492C249.605 199.867 249.124 199.554 248.163 199.554ZM253.051 200.03L252.757 199.134C253.382 198.751 254.082 198.56 254.857 198.56C255.706 198.56 256.322 198.77 256.705 199.19C257.088 199.61 257.279 200.259 257.279 201.136V205H256.215V204.188C255.72 204.795 255.048 205.098 254.199 205.098C253.62 205.098 253.154 204.925 252.799 204.58C252.444 204.225 252.267 203.749 252.267 203.152C252.267 202.536 252.486 202.051 252.925 201.696C253.364 201.332 253.938 201.15 254.647 201.15C255.31 201.15 255.832 201.285 256.215 201.556C256.215 200.847 256.117 200.338 255.921 200.03C255.725 199.722 255.347 199.568 254.787 199.568C254.218 199.568 253.639 199.722 253.051 200.03ZM254.591 204.09C255.216 204.09 255.758 203.819 256.215 203.278V202.48C255.823 202.2 255.352 202.06 254.801 202.06C254.418 202.06 254.096 202.153 253.835 202.34C253.583 202.517 253.457 202.769 253.457 203.096C253.457 203.404 253.555 203.647 253.751 203.824C253.956 204.001 254.236 204.09 254.591 204.09ZM262.299 205V198.7C262.346 198.7 262.411 198.7 262.495 198.7C262.579 198.691 262.7 198.686 262.859 198.686C263.018 198.677 263.162 198.672 263.293 198.672C263.984 198.653 264.413 198.644 264.581 198.644C266.392 198.644 267.297 199.185 267.297 200.268C267.297 200.641 267.18 200.963 266.947 201.234C266.714 201.495 266.41 201.654 266.037 201.71V201.738C267.017 201.915 267.507 202.41 267.507 203.222C267.507 204.445 266.541 205.056 264.609 205.056C264.516 205.056 264.105 205.047 263.377 205.028C263.237 205.028 263.083 205.023 262.915 205.014C262.747 205.014 262.616 205.009 262.523 205C262.43 205 262.355 205 262.299 205ZM264.763 202.172H263.419V204.104C264.091 204.132 264.52 204.146 264.707 204.146C265.78 204.146 266.317 203.81 266.317 203.138C266.317 202.494 265.799 202.172 264.763 202.172ZM264.665 199.554C264.394 199.554 263.979 199.568 263.419 199.596V201.472H264.833C265.216 201.472 265.524 201.383 265.757 201.206C265.99 201.029 266.107 200.791 266.107 200.492C266.107 199.867 265.626 199.554 264.665 199.554ZM276.408 198.7H277.878L275.12 201.71L278.144 205H276.59L273.748 201.78L276.408 198.7ZM273.482 205H272.362V198.7H273.482V205ZM280.454 207.8H279.334V198.7H280.454V199.442C280.678 199.181 280.986 198.971 281.378 198.812C281.77 198.644 282.176 198.56 282.596 198.56C283.492 198.56 284.197 198.859 284.71 199.456C285.242 200.044 285.508 200.809 285.508 201.752C285.508 202.713 285.205 203.521 284.598 204.174C284.001 204.818 283.212 205.14 282.232 205.14C281.476 205.14 280.884 204.995 280.454 204.706V207.8ZM282.274 199.61C281.528 199.61 280.921 199.899 280.454 200.478V203.6C280.949 203.927 281.509 204.09 282.134 204.09C282.797 204.09 283.324 203.88 283.716 203.46C284.118 203.031 284.318 202.475 284.318 201.794C284.318 201.131 284.136 200.604 283.772 200.212C283.408 199.811 282.909 199.61 282.274 199.61ZM287.617 204.216C287.001 203.581 286.693 202.793 286.693 201.85C286.693 200.898 287.001 200.114 287.617 199.498C288.243 198.873 289.055 198.56 290.053 198.56C291.052 198.56 291.859 198.873 292.475 199.498C293.101 200.114 293.413 200.898 293.413 201.85C293.413 202.802 293.101 203.591 292.475 204.216C291.859 204.832 291.052 205.14 290.053 205.14C289.064 205.14 288.252 204.832 287.617 204.216ZM288.499 200.24C288.089 200.651 287.883 201.187 287.883 201.85C287.883 202.513 288.084 203.049 288.485 203.46C288.896 203.88 289.419 204.09 290.053 204.09C290.688 204.09 291.206 203.885 291.607 203.474C292.018 203.054 292.223 202.513 292.223 201.85C292.223 201.206 292.018 200.669 291.607 200.24C291.206 199.82 290.688 199.61 290.053 199.61C289.419 199.61 288.901 199.82 288.499 200.24ZM295.029 205V198.7C295.076 198.7 295.141 198.7 295.225 198.7C295.309 198.691 295.431 198.686 295.589 198.686C295.748 198.677 295.893 198.672 296.023 198.672C296.714 198.653 297.143 198.644 297.311 198.644C299.122 198.644 300.027 199.185 300.027 200.268C300.027 200.641 299.911 200.963 299.677 201.234C299.444 201.495 299.141 201.654 298.767 201.71V201.738C299.747 201.915 300.237 202.41 300.237 203.222C300.237 204.445 299.271 205.056 297.339 205.056C297.246 205.056 296.835 205.047 296.107 205.028C295.967 205.028 295.813 205.023 295.645 205.014C295.477 205.014 295.347 205.009 295.253 205C295.16 205 295.085 205 295.029 205ZM297.493 202.172H296.149V204.104C296.821 204.132 297.251 204.146 297.437 204.146C298.511 204.146 299.047 203.81 299.047 203.138C299.047 202.494 298.529 202.172 297.493 202.172ZM297.395 199.554C297.125 199.554 296.709 199.568 296.149 199.596V201.472H297.563C297.946 201.472 298.254 201.383 298.487 201.206C298.721 201.029 298.837 200.791 298.837 200.492C298.837 199.867 298.357 199.554 297.395 199.554ZM304.075 205H301.947V198.7H303.067V200.59H304.215C305.074 200.59 305.704 200.786 306.105 201.178C306.507 201.561 306.707 202.088 306.707 202.76C306.707 203.395 306.497 203.927 306.077 204.356C305.657 204.785 304.99 205 304.075 205ZM304.005 201.64H303.067V203.95H303.991C305.009 203.95 305.517 203.567 305.517 202.802C305.517 202.027 305.013 201.64 304.005 201.64Z" fill="#1E76E2"/>
<path d="M2 266V304.987H409C425.247 302.962 427.493 279.165 430 267.013L2 266Z" fill="url(#paint0_linear_2068_29079)"/>
<rect x="1" y="250" width="70" height="21" rx="6" fill="url(#paint1_linear_2068_29079)"/>
<path d="M145 254.271C145 251.714 146.618 249.44 149.077 248.74C153.697 247.425 161.321 245.604 167 246.001C171.302 246.301 177.592 248.089 178.796 248.441C178.934 248.481 179.065 248.525 179.199 248.575C180.388 249.018 186.654 251.304 191 252.001C195.99 252.801 202.546 252.164 207.546 251.403C211.375 250.82 215 253.716 215 257.59V265.001C215 268.314 212.314 271.001 209 271.001H151C147.686 271.001 145 268.314 145 265.001V254.271Z" fill="#D70A42"/>
<path d="M145 254.271C145 251.714 146.618 249.44 149.077 248.74C153.697 247.425 161.321 245.604 167 246.001C171.302 246.301 177.592 248.089 178.796 248.441C178.934 248.481 179.065 248.525 179.199 248.575C180.388 249.018 186.654 251.304 191 252.001C195.99 252.801 202.546 252.164 207.546 251.403C211.375 250.82 215 253.716 215 257.59V265.001C215 268.314 212.314 271.001 209 271.001H151C147.686 271.001 145 268.314 145 265.001V254.271Z" fill="url(#paint2_linear_2068_29079)"/>
<path d="M287 254.271C287 251.714 285.382 249.44 282.923 248.74C278.303 247.425 270.679 245.604 265 246.001C260.698 246.301 254.408 248.089 253.204 248.441C253.066 248.481 252.935 248.525 252.801 248.575C251.612 249.018 245.346 251.304 241 252.001C236.01 252.801 229.454 252.164 224.454 251.403C220.625 250.82 217 253.716 217 257.59V265.001C217 268.314 219.686 271.001 223 271.001H281C284.314 271.001 287 268.314 287 265.001V254.271Z" fill="#D70A42"/>
<path d="M287 254.271C287 251.714 285.382 249.44 282.923 248.74C278.303 247.425 270.679 245.604 265 246.001C260.698 246.301 254.408 248.089 253.204 248.441C253.066 248.481 252.935 248.525 252.801 248.575C251.612 249.018 245.346 251.304 241 252.001C236.01 252.801 229.454 252.164 224.454 251.403C220.625 250.82 217 253.716 217 257.59V265.001C217 268.314 219.686 271.001 223 271.001H281C284.314 271.001 287 268.314 287 265.001V254.271Z" fill="url(#paint3_linear_2068_29079)"/>
<rect x="73" y="250" width="70" height="21" rx="6" fill="#D70A42"/>
<rect x="73" y="250" width="70" height="21" rx="6" fill="url(#paint4_linear_2068_29079)"/>
<rect x="289" y="250" width="70" height="21" rx="6" fill="#D70A42"/>
<rect x="289" y="250" width="70" height="21" rx="6" fill="url(#paint5_linear_2068_29079)"/>
<rect x="361" y="250" width="70" height="21" rx="6" fill="#D70A42"/>
<rect x="361" y="250" width="70" height="21" rx="6" fill="url(#paint6_linear_2068_29079)"/>
<path fill-rule="evenodd" clip-rule="evenodd" d="M0 2C0 0.89543 0.89543 0 2 0H405.5C407.975 -9.5365e-07 410.045 0.0275023 411.765 0.288193C413.543 0.557535 415.084 1.09271 416.452 2.19014C417.781 3.25665 418.786 4.72809 419.736 6.5657C420.685 8.40016 421.663 10.7715 422.857 13.7572C424.433 17.6961 427.649 29.3573 430.994 46.4597C434.351 63.6195 437.862 86.3812 439.993 112.587C444.252 164.947 443.015 231.175 423.947 293.969C423.1 298.508 418.446 307.058 406.574 307.498C395.722 307.9 84.6183 307.666 1.99597 307.499C0.891404 307.497 -0.00222683 306.6 0 305.495C0.00222695 304.391 0.899461 303.497 2.00403 303.499C84.715 303.666 395.678 303.899 406.426 303.501C416.042 303.144 419.48 296.319 420.03 293.156C420.044 293.076 420.063 292.996 420.086 292.917C438.987 230.745 440.245 165.021 436.007 112.912C433.888 86.8682 430.399 64.2551 427.068 47.2276C423.726 30.1426 420.567 18.8039 419.143 15.2428C417.937 12.2285 417.028 10.0373 416.183 8.40305C415.339 6.77191 414.644 5.86835 413.948 5.30986C413.291 4.78229 412.482 4.44246 411.166 4.24305C409.793 4.035 408.025 4 405.5 4H2C0.89543 4 0 3.10457 0 2Z" fill="#D70A42"/>
<path d="M218.659 17.8375C211.159 19.8375 206.159 22.3375 171.659 43.3375C118.223 75.8636 180.008 130.001 226.456 111C265.252 95.129 274.659 60.3376 271.159 43.3375C264.159 5.33745 226.159 15.8375 218.659 17.8375Z" fill="url(#paint7_linear_2068_29079)"/>
<path d="M187.281 50.444C169.681 58.844 173.947 74.6107 178.281 81.444C199.91 115.552 251.013 84.2183 249.281 50.444C247.56 16.89 200.726 44.0269 187.281 50.444Z" fill="url(#paint8_radial_2068_29079)"/>
<path d="M342.334 154.958C346.617 158.088 350.092 159.673 376.068 169.005C416.301 183.458 418.569 127.366 388.527 110.823C363.435 97.0051 340.896 106.937 333.358 116.095C316.156 136.129 338.051 151.828 342.334 154.958Z" fill="url(#paint9_linear_2068_29079)"/>
<path d="M373.143 157.647C385.164 163.401 391.717 154.364 393.49 149.127C402.343 122.985 363.746 109.26 346.53 124.678C329.426 139.996 363.959 153.252 373.143 157.647Z" fill="url(#paint10_radial_2068_29079)"/>
<path d="M77.3348 157.958C81.6176 161.088 85.0933 162.673 111.069 172.005C151.302 186.458 153.57 130.366 123.528 113.823C98.4355 100.005 75.897 109.937 68.3594 119.095C51.1573 139.129 73.052 154.828 77.3348 157.958Z" fill="url(#paint11_linear_2068_29079)"/>
<path d="M108.144 160.647C120.165 166.401 126.718 157.364 128.491 152.127C137.344 125.985 98.747 112.26 81.5307 127.678C64.4267 142.996 98.96 156.252 108.144 160.647Z" fill="url(#paint12_radial_2068_29079)"/>
<path d="M23.4386 66.1304C26.5077 68.3732 28.9984 69.5095 47.6125 76.1965C76.4432 86.5537 78.0683 46.358 56.5405 34.5033C38.5593 24.6016 22.4083 31.7186 17.0069 38.2814C4.67997 52.6373 20.3696 63.8877 23.4386 66.1304Z" fill="url(#paint13_linear_2068_29079)"/>
<path d="M45.5167 68.057C54.1312 72.1798 58.8267 65.7043 60.0977 61.9512C66.4417 43.2178 38.783 33.3829 26.4459 44.4316C14.1892 55.4083 38.9357 64.9075 45.5167 68.057Z" fill="url(#paint14_radial_2068_29079)"/>
<g filter="url(#filter0_d_2068_29079)">
<g filter="url(#filter1_f_2068_29079)">
<path d="M227 111.851C229.487 116.215 231.622 118.237 235.762 118.231C238.011 118.228 250 115 242 113C232.804 110.7 224.771 100.01 227 111.851Z" fill="#000673"/>
</g>
<g filter="url(#filter2_d_2068_29079)">
<path d="M226 104.922C226 111.507 231.373 116.845 238 116.845C244.627 116.845 250 111.507 250 104.922C250 98.3379 244.627 93 238 93C231.373 93 226 98.3379 226 104.922Z" fill="#1E76E2"/>
<path d="M226 104.922C226 111.507 231.373 116.845 238 116.845C244.627 116.845 250 111.507 250 104.922C250 98.3379 244.627 93 238 93C231.373 93 226 98.3379 226 104.922Z" fill="url(#paint15_linear_2068_29079)"/>
</g>
</g>
<g filter="url(#filter3_d_2068_29079)">
<g filter="url(#filter4_f_2068_29079)">
<path d="M280 66.8513C282.487 71.2146 284.622 73.2374 288.762 73.231C291.011 73.2275 303 70 295 67.9996C285.804 65.7002 277.771 55.0098 280 66.8513Z" fill="#000673"/>
</g>
<g filter="url(#filter5_d_2068_29079)">
<path d="M279 59.9225C279 66.5071 284.373 71.845 291 71.845C297.627 71.845 303 66.5071 303 59.9225C303 53.3379 297.627 48 291 48C284.373 48 279 53.3379 279 59.9225Z" fill="#1E76E2"/>
<path d="M279 59.9225C279 66.5071 284.373 71.845 291 71.845C297.627 71.845 303 66.5071 303 59.9225C303 53.3379 297.627 48 291 48C284.373 48 279 53.3379 279 59.9225Z" fill="url(#paint16_linear_2068_29079)"/>
</g>
</g>
<g filter="url(#filter6_d_2068_29079)">
<g filter="url(#filter7_f_2068_29079)">
<path d="M42.0008 66.8513C44.4882 71.2146 46.623 73.2374 50.7629 73.231C53.0121 73.2275 65.001 70 57.0009 67.9996C47.8052 65.7002 39.7715 55.0098 42.0008 66.8513Z" fill="#000673"/>
</g>
<g filter="url(#filter8_d_2068_29079)">
<path d="M41.001 59.9225C41.001 66.5071 46.3736 71.845 53.001 71.845C59.6284 71.845 65.001 66.5071 65.001 59.9225C65.001 53.3379 59.6284 48 53.001 48C46.3736 48 41.001 53.3379 41.001 59.9225Z" fill="#1E76E2"/>
<path d="M41.001 59.9225C41.001 66.5071 46.3736 71.845 53.001 71.845C59.6284 71.845 65.001 66.5071 65.001 59.9225C65.001 53.3379 59.6284 48 53.001 48C46.3736 48 41.001 53.3379 41.001 59.9225Z" fill="url(#paint17_linear_2068_29079)"/>
</g>
</g>
<g filter="url(#filter9_d_2068_29079)">
<g filter="url(#filter10_f_2068_29079)">
<path d="M335 49.8513C337.487 54.2146 339.622 56.2374 343.762 56.231C346.011 56.2275 358 53 350 50.9996C340.804 48.7002 332.771 38.0098 335 49.8513Z" fill="#000673"/>
</g>
<g filter="url(#filter11_d_2068_29079)">
<path d="M334 42.9225C334 49.5071 339.373 54.845 346 54.845C352.627 54.845 358 49.5071 358 42.9225C358 36.3379 352.627 31 346 31C339.373 31 334 36.3379 334 42.9225Z" fill="#1E76E2"/>
<path d="M334 42.9225C334 49.5071 339.373 54.845 346 54.845C352.627 54.845 358 49.5071 358 42.9225C358 36.3379 352.627 31 346 31C339.373 31 334 36.3379 334 42.9225Z" fill="url(#paint18_linear_2068_29079)"/>
</g>
</g>
<g filter="url(#filter12_d_2068_29079)">
<g filter="url(#filter13_f_2068_29079)">
<path d="M97.0008 49.8513C99.4882 54.2146 101.623 56.2374 105.763 56.231C108.012 56.2275 120.001 53 112.001 50.9996C102.805 48.7002 94.7715 38.0098 97.0008 49.8513Z" fill="#000673"/>
</g>
<g filter="url(#filter14_d_2068_29079)">
<path d="M96.001 42.9225C96.001 49.5071 101.374 54.845 108.001 54.845C114.628 54.845 120.001 49.5071 120.001 42.9225C120.001 36.3379 114.628 31 108.001 31C101.374 31 96.001 36.3379 96.001 42.9225Z" fill="#1E76E2"/>
<path d="M96.001 42.9225C96.001 49.5071 101.374 54.845 108.001 54.845C114.628 54.845 120.001 49.5071 120.001 42.9225C120.001 36.3379 114.628 31 108.001 31C101.374 31 96.001 36.3379 96.001 42.9225Z" fill="url(#paint19_linear_2068_29079)"/>
</g>
</g>
<g filter="url(#filter15_d_2068_29079)">
<g filter="url(#filter16_f_2068_29079)">
<path d="M389 95.8513C391.487 100.215 393.622 102.237 397.762 102.231C400.011 102.228 412 99 404 96.9996C394.804 94.7002 386.771 84.0098 389 95.8513Z" fill="#000673"/>
</g>
<g filter="url(#filter17_d_2068_29079)">
<path d="M388 88.9225C388 95.5071 393.373 100.845 400 100.845C406.627 100.845 412 95.5071 412 88.9225C412 82.3379 406.627 77 400 77C393.373 77 388 82.3379 388 88.9225Z" fill="#1E76E2"/>
<path d="M388 88.9225C388 95.5071 393.373 100.845 400 100.845C406.627 100.845 412 95.5071 412 88.9225C412 82.3379 406.627 77 400 77C393.373 77 388 82.3379 388 88.9225Z" fill="url(#paint20_linear_2068_29079)"/>
</g>
</g>
<g filter="url(#filter18_d_2068_29079)">
<g filter="url(#filter19_f_2068_29079)">
<path d="M151.001 95.8513C153.488 100.215 155.623 102.237 159.763 102.231C162.012 102.228 174.001 99 166.001 96.9996C156.805 94.7002 148.772 84.0098 151.001 95.8513Z" fill="#000673"/>
</g>
<g filter="url(#filter20_d_2068_29079)">
<path d="M150.001 88.9225C150.001 95.5071 155.374 100.845 162.001 100.845C168.628 100.845 174.001 95.5071 174.001 88.9225C174.001 82.3379 168.628 77 162.001 77C155.374 77 150.001 82.3379 150.001 88.9225Z" fill="#1E76E2"/>
<path d="M150.001 88.9225C150.001 95.5071 155.374 100.845 162.001 100.845C168.628 100.845 174.001 95.5071 174.001 88.9225C174.001 82.3379 168.628 77 162.001 77C155.374 77 150.001 82.3379 150.001 88.9225Z" fill="url(#paint21_linear_2068_29079)"/>
</g>
</g>
<g filter="url(#filter21_d_2068_29079)">
<g filter="url(#filter22_f_2068_29079)">
<path d="M308 108.851C310.487 113.215 312.622 115.237 316.762 115.231C319.011 115.228 331 112 323 110C313.804 107.7 305.771 97.0098 308 108.851Z" fill="#000673"/>
</g>
<g filter="url(#filter23_d_2068_29079)">
<path d="M307 101.922C307 108.507 312.373 113.845 319 113.845C325.627 113.845 331 108.507 331 101.922C331 95.3379 325.627 90 319 90C312.373 90 307 95.3379 307 101.922Z" fill="#1E76E2"/>
<path d="M307 101.922C307 108.507 312.373 113.845 319 113.845C325.627 113.845 331 108.507 331 101.922C331 95.3379 325.627 90 319 90C312.373 90 307 95.3379 307 101.922Z" fill="url(#paint22_linear_2068_29079)"/>
</g>
</g>
<g filter="url(#filter24_d_2068_29079)">
<g filter="url(#filter25_f_2068_29079)">
<path d="M70.0008 108.851C72.4882 113.215 74.623 115.237 78.7629 115.231C81.0121 115.228 93.001 112 85.0009 110C75.8052 107.7 67.7715 97.0098 70.0008 108.851Z" fill="#000673"/>
</g>
<g filter="url(#filter26_d_2068_29079)">
<path d="M69.001 101.922C69.001 108.507 74.3736 113.845 81.001 113.845C87.6284 113.845 93.001 108.507 93.001 101.922C93.001 95.3379 87.6284 90 81.001 90C74.3736 90 69.001 95.3379 69.001 101.922Z" fill="#1E76E2"/>
<path d="M69.001 101.922C69.001 108.507 74.3736 113.845 81.001 113.845C87.6284 113.845 93.001 108.507 93.001 101.922C93.001 95.3379 87.6284 90 81.001 90C74.3736 90 69.001 95.3379 69.001 101.922Z" fill="url(#paint23_linear_2068_29079)"/>
</g>
</g>
<g filter="url(#filter27_d_2068_29079)">
<g filter="url(#filter28_f_2068_29079)">
<path d="M280 148.851C282.487 153.215 284.622 155.237 288.762 155.231C291.011 155.228 303 152 295 150C285.804 147.7 277.771 137.01 280 148.851Z" fill="#000673"/>
</g>
<g filter="url(#filter29_d_2068_29079)">
<path d="M279 141.922C279 148.507 284.373 153.845 291 153.845C297.627 153.845 303 148.507 303 141.922C303 135.338 297.627 130 291 130C284.373 130 279 135.338 279 141.922Z" fill="#1E76E2"/>
<path d="M279 141.922C279 148.507 284.373 153.845 291 153.845C297.627 153.845 303 148.507 303 141.922C303 135.338 297.627 130 291 130C284.373 130 279 135.338 279 141.922Z" fill="url(#paint24_linear_2068_29079)"/>
</g>
</g>
<g filter="url(#filter30_d_2068_29079)">
<g filter="url(#filter31_f_2068_29079)">
<path d="M42.0008 148.851C44.4882 153.215 46.623 155.237 50.7629 155.231C53.0121 155.228 65.001 152 57.0009 150C47.8052 147.7 39.7715 137.01 42.0008 148.851Z" fill="#000673"/>
</g>
<g filter="url(#filter32_d_2068_29079)">
<path d="M41.001 141.922C41.001 148.507 46.3736 153.845 53.001 153.845C59.6284 153.845 65.001 148.507 65.001 141.922C65.001 135.338 59.6284 130 53.001 130C46.3736 130 41.001 135.338 41.001 141.922Z" fill="#1E76E2"/>
<path d="M41.001 141.922C41.001 148.507 46.3736 153.845 53.001 153.845C59.6284 153.845 65.001 148.507 65.001 141.922C65.001 135.338 59.6284 130 53.001 130C46.3736 130 41.001 135.338 41.001 141.922Z" fill="url(#paint25_linear_2068_29079)"/>
</g>
</g>
<g filter="url(#filter33_d_2068_29079)">
<g filter="url(#filter34_f_2068_29079)">
<path d="M28.0008 201.851C30.4882 206.215 32.623 208.237 36.7629 208.231C39.0121 208.228 51.001 205 43.0009 203C33.8052 200.7 25.7715 190.01 28.0008 201.851Z" fill="#000673"/>
</g>
<g filter="url(#filter35_d_2068_29079)">
<path d="M27.001 194.922C27.001 201.507 32.3736 206.845 39.001 206.845C45.6284 206.845 51.001 201.507 51.001 194.922C51.001 188.338 45.6284 183 39.001 183C32.3736 183 27.001 188.338 27.001 194.922Z" fill="#1E76E2"/>
<path d="M27.001 194.922C27.001 201.507 32.3736 206.845 39.001 206.845C45.6284 206.845 51.001 201.507 51.001 194.922C51.001 188.338 45.6284 183 39.001 183C32.3736 183 27.001 188.338 27.001 194.922Z" fill="url(#paint26_linear_2068_29079)"/>
</g>
</g>
<g filter="url(#filter36_d_2068_29079)">
<g filter="url(#filter37_f_2068_29079)">
<path d="M318 226.851C320.487 231.215 322.622 233.237 326.762 233.231C329.011 233.228 341 230 333 228C323.804 225.7 315.771 215.01 318 226.851Z" fill="#000673"/>
</g>
<g filter="url(#filter38_d_2068_29079)">
<path d="M317 219.922C317 226.507 322.373 231.845 329 231.845C335.627 231.845 341 226.507 341 219.922C341 213.338 335.627 208 329 208C322.373 208 317 213.338 317 219.922Z" fill="#1E76E2"/>
<path d="M317 219.922C317 226.507 322.373 231.845 329 231.845C335.627 231.845 341 226.507 341 219.922C341 213.338 335.627 208 329 208C322.373 208 317 213.338 317 219.922Z" fill="url(#paint27_linear_2068_29079)"/>
</g>
</g>
<g filter="url(#filter39_d_2068_29079)">
<g filter="url(#filter40_f_2068_29079)">
<path d="M80.0008 226.851C82.4882 231.215 84.623 233.237 88.7629 233.231C91.0121 233.228 103.001 230 95.0009 228C85.8052 225.7 77.7715 215.01 80.0008 226.851Z" fill="#000673"/>
</g>
<g filter="url(#filter41_d_2068_29079)">
<path d="M79.001 219.922C79.001 226.507 84.3736 231.845 91.001 231.845C97.6284 231.845 103.001 226.507 103.001 219.922C103.001 213.338 97.6284 208 91.001 208C84.3736 208 79.001 213.338 79.001 219.922Z" fill="#1E76E2"/>
<path d="M79.001 219.922C79.001 226.507 84.3736 231.845 91.001 231.845C97.6284 231.845 103.001 226.507 103.001 219.922C103.001 213.338 97.6284 208 91.001 208C84.3736 208 79.001 213.338 79.001 219.922Z" fill="url(#paint28_linear_2068_29079)"/>
</g>
</g>
<g filter="url(#filter42_d_2068_29079)">
<g filter="url(#filter43_f_2068_29079)">
<path d="M332 181.851C334.487 186.215 336.622 188.237 340.762 188.231C343.011 188.228 355 185 347 183C337.804 180.7 329.771 170.01 332 181.851Z" fill="#000673"/>
</g>
<g filter="url(#filter44_d_2068_29079)">
<path d="M331 174.922C331 181.507 336.373 186.845 343 186.845C349.627 186.845 355 181.507 355 174.922C355 168.338 349.627 163 343 163C336.373 163 331 168.338 331 174.922Z" fill="#1E76E2"/>
<path d="M331 174.922C331 181.507 336.373 186.845 343 186.845C349.627 186.845 355 181.507 355 174.922C355 168.338 349.627 163 343 163C336.373 163 331 168.338 331 174.922Z" fill="url(#paint29_linear_2068_29079)"/>
</g>
</g>
<g filter="url(#filter45_d_2068_29079)">
<g filter="url(#filter46_f_2068_29079)">
<path d="M384 210.851C386.487 215.215 388.622 217.237 392.762 217.231C395.011 217.228 407 214 399 212C389.804 209.7 381.771 199.01 384 210.851Z" fill="#000673"/>
</g>
<g filter="url(#filter47_d_2068_29079)">
<path d="M383 203.922C383 210.507 388.373 215.845 395 215.845C401.627 215.845 407 210.507 407 203.922C407 197.338 401.627 192 395 192C388.373 192 383 197.338 383 203.922Z" fill="#1E76E2"/>
<path d="M383 203.922C383 210.507 388.373 215.845 395 215.845C401.627 215.845 407 210.507 407 203.922C407 197.338 401.627 192 395 192C388.373 192 383 197.338 383 203.922Z" fill="url(#paint30_linear_2068_29079)"/>
</g>
</g>
<g filter="url(#filter48_d_2068_29079)">
<g filter="url(#filter49_f_2068_29079)">
<path d="M170.001 156.851C172.488 161.215 174.623 163.237 178.763 163.231C181.012 163.228 193.001 160 185.001 158C175.805 155.7 167.772 145.01 170.001 156.851Z" fill="#000673"/>
</g>
<g filter="url(#filter50_d_2068_29079)">
<path d="M169.001 149.922C169.001 156.507 174.374 161.845 181.001 161.845C187.628 161.845 193.001 156.507 193.001 149.922C193.001 143.338 187.628 138 181.001 138C174.374 138 169.001 143.338 169.001 149.922Z" fill="#1E76E2"/>
<path d="M169.001 149.922C169.001 156.507 174.374 161.845 181.001 161.845C187.628 161.845 193.001 156.507 193.001 149.922C193.001 143.338 187.628 138 181.001 138C174.374 138 169.001 143.338 169.001 149.922Z" fill="url(#paint31_linear_2068_29079)"/>
</g>
</g>
<path fill-rule="evenodd" clip-rule="evenodd" d="M174 231L182.66 216L191.321 231H184.16V248H181.16V231H174Z" fill="#1E76E2"/>
<path fill-rule="evenodd" clip-rule="evenodd" d="M207 231L215.66 216L224.321 231H217.16V248H214.16V231H207Z" fill="#1E76E2"/>
<path fill-rule="evenodd" clip-rule="evenodd" d="M240 231L248.66 216L257.321 231H250.16V248H247.16V231H240Z" fill="#1E76E2"/>
<defs>
<filter id="filter0_d_2068_29079" x="222" y="93" width="32" height="33.2305" filterUnits="userSpaceOnUse" color-interpolation-filters="sRGB">
<feFlood flood-opacity="0" result="BackgroundImageFix"/>
<feColorMatrix in="SourceAlpha" type="matrix" values="0 0 0 0 0 0 0 0 0 0 0 0 0 0 0 0 0 0 127 0" result="hardAlpha"/>
<feOffset dy="4"/>
<feGaussianBlur stdDeviation="2"/>
<feComposite in2="hardAlpha" operator="out"/>
<feColorMatrix type="matrix" values="0 0 0 0 0 0 0 0 0 0 0 0 0 0 0 0 0 0 0.25 0"/>
<feBlend mode="normal" in2="BackgroundImageFix" result="effect1_dropShadow_2068_29079"/>
<feBlend mode="normal" in="SourceGraphic" in2="effect1_dropShadow_2068_29079" result="shape"/>
</filter>
<filter id="filter1_f_2068_29079" x="223.633" y="103.38" width="24.0758" height="17.8414" filterUnits="userSpaceOnUse" color-interpolation-filters="sRGB">
<feFlood flood-opacity="0" result="BackgroundImageFix"/>
<feBlend mode="normal" in="SourceGraphic" in2="BackgroundImageFix" result="shape"/>
<feGaussianBlur stdDeviation="1.4955" result="effect1_foregroundBlur_2068_29079"/>
</filter>
<filter id="filter2_d_2068_29079" x="221.859" y="93" width="32.2828" height="32.1285" filterUnits="userSpaceOnUse" color-interpolation-filters="sRGB">
<feFlood flood-opacity="0" result="BackgroundImageFix"/>
<feColorMatrix in="SourceAlpha" type="matrix" values="0 0 0 0 0 0 0 0 0 0 0 0 0 0 0 0 0 0 127 0" result="hardAlpha"/>
<feOffset dy="4.14139"/>
<feGaussianBlur stdDeviation="2.07069"/>
<feComposite in2="hardAlpha" operator="out"/>
<feColorMatrix type="matrix" values="0 0 0 0 0.137255 0 0 0 0 0.266667 0 0 0 0 0.717647 0 0 0 0.2 0"/>
<feBlend mode="normal" in2="BackgroundImageFix" result="effect1_dropShadow_2068_29079"/>
<feBlend mode="normal" in="SourceGraphic" in2="effect1_dropShadow_2068_29079" result="shape"/>
</filter>
<filter id="filter3_d_2068_29079" x="275" y="48" width="32" height="33.2305" filterUnits="userSpaceOnUse" color-interpolation-filters="sRGB">
<feFlood flood-opacity="0" result="BackgroundImageFix"/>
<feColorMatrix in="SourceAlpha" type="matrix" values="0 0 0 0 0 0 0 0 0 0 0 0 0 0 0 0 0 0 127 0" result="hardAlpha"/>
<feOffset dy="4"/>
<feGaussianBlur stdDeviation="2"/>
<feComposite in2="hardAlpha" operator="out"/>
<feColorMatrix type="matrix" values="0 0 0 0 0 0 0 0 0 0 0 0 0 0 0 0 0 0 0.25 0"/>
<feBlend mode="normal" in2="BackgroundImageFix" result="effect1_dropShadow_2068_29079"/>
<feBlend mode="normal" in="SourceGraphic" in2="effect1_dropShadow_2068_29079" result="shape"/>
</filter>
<filter id="filter4_f_2068_29079" x="276.633" y="58.3801" width="24.0758" height="17.8414" filterUnits="userSpaceOnUse" color-interpolation-filters="sRGB">
<feFlood flood-opacity="0" result="BackgroundImageFix"/>
<feBlend mode="normal" in="SourceGraphic" in2="BackgroundImageFix" result="shape"/>
<feGaussianBlur stdDeviation="1.4955" result="effect1_foregroundBlur_2068_29079"/>
</filter>
<filter id="filter5_d_2068_29079" x="274.859" y="48" width="32.2828" height="32.1285" filterUnits="userSpaceOnUse" color-interpolation-filters="sRGB">
<feFlood flood-opacity="0" result="BackgroundImageFix"/>
<feColorMatrix in="SourceAlpha" type="matrix" values="0 0 0 0 0 0 0 0 0 0 0 0 0 0 0 0 0 0 127 0" result="hardAlpha"/>
<feOffset dy="4.14139"/>
<feGaussianBlur stdDeviation="2.07069"/>
<feComposite in2="hardAlpha" operator="out"/>
<feColorMatrix type="matrix" values="0 0 0 0 0.137255 0 0 0 0 0.266667 0 0 0 0 0.717647 0 0 0 0.2 0"/>
<feBlend mode="normal" in2="BackgroundImageFix" result="effect1_dropShadow_2068_29079"/>
<feBlend mode="normal" in="SourceGraphic" in2="effect1_dropShadow_2068_29079" result="shape"/>
</filter>
<filter id="filter6_d_2068_29079" x="37.001" y="48" width="32" height="33.2305" filterUnits="userSpaceOnUse" color-interpolation-filters="sRGB">
<feFlood flood-opacity="0" result="BackgroundImageFix"/>
<feColorMatrix in="SourceAlpha" type="matrix" values="0 0 0 0 0 0 0 0 0 0 0 0 0 0 0 0 0 0 127 0" result="hardAlpha"/>
<feOffset dy="4"/>
<feGaussianBlur stdDeviation="2"/>
<feComposite in2="hardAlpha" operator="out"/>
<feColorMatrix type="matrix" values="0 0 0 0 0 0 0 0 0 0 0 0 0 0 0 0 0 0 0.25 0"/>
<feBlend mode="normal" in2="BackgroundImageFix" result="effect1_dropShadow_2068_29079"/>
<feBlend mode="normal" in="SourceGraphic" in2="effect1_dropShadow_2068_29079" result="shape"/>
</filter>
<filter id="filter7_f_2068_29079" x="38.634" y="58.3801" width="24.0758" height="17.8414" filterUnits="userSpaceOnUse" color-interpolation-filters="sRGB">
<feFlood flood-opacity="0" result="BackgroundImageFix"/>
<feBlend mode="normal" in="SourceGraphic" in2="BackgroundImageFix" result="shape"/>
<feGaussianBlur stdDeviation="1.4955" result="effect1_foregroundBlur_2068_29079"/>
</filter>
<filter id="filter8_d_2068_29079" x="36.8596" y="48" width="32.2828" height="32.1285" filterUnits="userSpaceOnUse" color-interpolation-filters="sRGB">
<feFlood flood-opacity="0" result="BackgroundImageFix"/>
<feColorMatrix in="SourceAlpha" type="matrix" values="0 0 0 0 0 0 0 0 0 0 0 0 0 0 0 0 0 0 127 0" result="hardAlpha"/>
<feOffset dy="4.14139"/>
<feGaussianBlur stdDeviation="2.07069"/>
<feComposite in2="hardAlpha" operator="out"/>
<feColorMatrix type="matrix" values="0 0 0 0 0.137255 0 0 0 0 0.266667 0 0 0 0 0.717647 0 0 0 0.2 0"/>
<feBlend mode="normal" in2="BackgroundImageFix" result="effect1_dropShadow_2068_29079"/>
<feBlend mode="normal" in="SourceGraphic" in2="effect1_dropShadow_2068_29079" result="shape"/>
</filter>
<filter id="filter9_d_2068_29079" x="330" y="31" width="32" height="33.2305" filterUnits="userSpaceOnUse" color-interpolation-filters="sRGB">
<feFlood flood-opacity="0" result="BackgroundImageFix"/>
<feColorMatrix in="SourceAlpha" type="matrix" values="0 0 0 0 0 0 0 0 0 0 0 0 0 0 0 0 0 0 127 0" result="hardAlpha"/>
<feOffset dy="4"/>
<feGaussianBlur stdDeviation="2"/>
<feComposite in2="hardAlpha" operator="out"/>
<feColorMatrix type="matrix" values="0 0 0 0 0 0 0 0 0 0 0 0 0 0 0 0 0 0 0.25 0"/>
<feBlend mode="normal" in2="BackgroundImageFix" result="effect1_dropShadow_2068_29079"/>
<feBlend mode="normal" in="SourceGraphic" in2="effect1_dropShadow_2068_29079" result="shape"/>
</filter>
<filter id="filter10_f_2068_29079" x="331.633" y="41.3801" width="24.0758" height="17.8414" filterUnits="userSpaceOnUse" color-interpolation-filters="sRGB">
<feFlood flood-opacity="0" result="BackgroundImageFix"/>
<feBlend mode="normal" in="SourceGraphic" in2="BackgroundImageFix" result="shape"/>
<feGaussianBlur stdDeviation="1.4955" result="effect1_foregroundBlur_2068_29079"/>
</filter>
<filter id="filter11_d_2068_29079" x="329.859" y="31" width="32.2828" height="32.1285" filterUnits="userSpaceOnUse" color-interpolation-filters="sRGB">
<feFlood flood-opacity="0" result="BackgroundImageFix"/>
<feColorMatrix in="SourceAlpha" type="matrix" values="0 0 0 0 0 0 0 0 0 0 0 0 0 0 0 0 0 0 127 0" result="hardAlpha"/>
<feOffset dy="4.14139"/>
<feGaussianBlur stdDeviation="2.07069"/>
<feComposite in2="hardAlpha" operator="out"/>
<feColorMatrix type="matrix" values="0 0 0 0 0.137255 0 0 0 0 0.266667 0 0 0 0 0.717647 0 0 0 0.2 0"/>
<feBlend mode="normal" in2="BackgroundImageFix" result="effect1_dropShadow_2068_29079"/>
<feBlend mode="normal" in="SourceGraphic" in2="effect1_dropShadow_2068_29079" result="shape"/>
</filter>
<filter id="filter12_d_2068_29079" x="92.001" y="31" width="32" height="33.2305" filterUnits="userSpaceOnUse" color-interpolation-filters="sRGB">
<feFlood flood-opacity="0" result="BackgroundImageFix"/>
<feColorMatrix in="SourceAlpha" type="matrix" values="0 0 0 0 0 0 0 0 0 0 0 0 0 0 0 0 0 0 127 0" result="hardAlpha"/>
<feOffset dy="4"/>
<feGaussianBlur stdDeviation="2"/>
<feComposite in2="hardAlpha" operator="out"/>
<feColorMatrix type="matrix" values="0 0 0 0 0 0 0 0 0 0 0 0 0 0 0 0 0 0 0.25 0"/>
<feBlend mode="normal" in2="BackgroundImageFix" result="effect1_dropShadow_2068_29079"/>
<feBlend mode="normal" in="SourceGraphic" in2="effect1_dropShadow_2068_29079" result="shape"/>
</filter>
<filter id="filter13_f_2068_29079" x="93.634" y="41.3801" width="24.0758" height="17.8414" filterUnits="userSpaceOnUse" color-interpolation-filters="sRGB">
<feFlood flood-opacity="0" result="BackgroundImageFix"/>
<feBlend mode="normal" in="SourceGraphic" in2="BackgroundImageFix" result="shape"/>
<feGaussianBlur stdDeviation="1.4955" result="effect1_foregroundBlur_2068_29079"/>
</filter>
<filter id="filter14_d_2068_29079" x="91.8596" y="31" width="32.2828" height="32.1285" filterUnits="userSpaceOnUse" color-interpolation-filters="sRGB">
<feFlood flood-opacity="0" result="BackgroundImageFix"/>
<feColorMatrix in="SourceAlpha" type="matrix" values="0 0 0 0 0 0 0 0 0 0 0 0 0 0 0 0 0 0 127 0" result="hardAlpha"/>
<feOffset dy="4.14139"/>
<feGaussianBlur stdDeviation="2.07069"/>
<feComposite in2="hardAlpha" operator="out"/>
<feColorMatrix type="matrix" values="0 0 0 0 0.137255 0 0 0 0 0.266667 0 0 0 0 0.717647 0 0 0 0.2 0"/>
<feBlend mode="normal" in2="BackgroundImageFix" result="effect1_dropShadow_2068_29079"/>
<feBlend mode="normal" in="SourceGraphic" in2="effect1_dropShadow_2068_29079" result="shape"/>
</filter>
<filter id="filter15_d_2068_29079" x="384" y="77" width="32" height="33.2305" filterUnits="userSpaceOnUse" color-interpolation-filters="sRGB">
<feFlood flood-opacity="0" result="BackgroundImageFix"/>
<feColorMatrix in="SourceAlpha" type="matrix" values="0 0 0 0 0 0 0 0 0 0 0 0 0 0 0 0 0 0 127 0" result="hardAlpha"/>
<feOffset dy="4"/>
<feGaussianBlur stdDeviation="2"/>
<feComposite in2="hardAlpha" operator="out"/>
<feColorMatrix type="matrix" values="0 0 0 0 0 0 0 0 0 0 0 0 0 0 0 0 0 0 0.25 0"/>
<feBlend mode="normal" in2="BackgroundImageFix" result="effect1_dropShadow_2068_29079"/>
<feBlend mode="normal" in="SourceGraphic" in2="effect1_dropShadow_2068_29079" result="shape"/>
</filter>
<filter id="filter16_f_2068_29079" x="385.633" y="87.3801" width="24.0758" height="17.8414" filterUnits="userSpaceOnUse" color-interpolation-filters="sRGB">
<feFlood flood-opacity="0" result="BackgroundImageFix"/>
<feBlend mode="normal" in="SourceGraphic" in2="BackgroundImageFix" result="shape"/>
<feGaussianBlur stdDeviation="1.4955" result="effect1_foregroundBlur_2068_29079"/>
</filter>
<filter id="filter17_d_2068_29079" x="383.859" y="77" width="32.2828" height="32.1285" filterUnits="userSpaceOnUse" color-interpolation-filters="sRGB">
<feFlood flood-opacity="0" result="BackgroundImageFix"/>
<feColorMatrix in="SourceAlpha" type="matrix" values="0 0 0 0 0 0 0 0 0 0 0 0 0 0 0 0 0 0 127 0" result="hardAlpha"/>
<feOffset dy="4.14139"/>
<feGaussianBlur stdDeviation="2.07069"/>
<feComposite in2="hardAlpha" operator="out"/>
<feColorMatrix type="matrix" values="0 0 0 0 0.137255 0 0 0 0 0.266667 0 0 0 0 0.717647 0 0 0 0.2 0"/>
<feBlend mode="normal" in2="BackgroundImageFix" result="effect1_dropShadow_2068_29079"/>
<feBlend mode="normal" in="SourceGraphic" in2="effect1_dropShadow_2068_29079" result="shape"/>
</filter>
<filter id="filter18_d_2068_29079" x="146.001" y="77" width="32" height="33.2305" filterUnits="userSpaceOnUse" color-interpolation-filters="sRGB">
<feFlood flood-opacity="0" result="BackgroundImageFix"/>
<feColorMatrix in="SourceAlpha" type="matrix" values="0 0 0 0 0 0 0 0 0 0 0 0 0 0 0 0 0 0 127 0" result="hardAlpha"/>
<feOffset dy="4"/>
<feGaussianBlur stdDeviation="2"/>
<feComposite in2="hardAlpha" operator="out"/>
<feColorMatrix type="matrix" values="0 0 0 0 0 0 0 0 0 0 0 0 0 0 0 0 0 0 0.25 0"/>
<feBlend mode="normal" in2="BackgroundImageFix" result="effect1_dropShadow_2068_29079"/>
<feBlend mode="normal" in="SourceGraphic" in2="effect1_dropShadow_2068_29079" result="shape"/>
</filter>
<filter id="filter19_f_2068_29079" x="147.634" y="87.3801" width="24.0758" height="17.8414" filterUnits="userSpaceOnUse" color-interpolation-filters="sRGB">
<feFlood flood-opacity="0" result="BackgroundImageFix"/>
<feBlend mode="normal" in="SourceGraphic" in2="BackgroundImageFix" result="shape"/>
<feGaussianBlur stdDeviation="1.4955" result="effect1_foregroundBlur_2068_29079"/>
</filter>
<filter id="filter20_d_2068_29079" x="145.86" y="77" width="32.2828" height="32.1285" filterUnits="userSpaceOnUse" color-interpolation-filters="sRGB">
<feFlood flood-opacity="0" result="BackgroundImageFix"/>
<feColorMatrix in="SourceAlpha" type="matrix" values="0 0 0 0 0 0 0 0 0 0 0 0 0 0 0 0 0 0 127 0" result="hardAlpha"/>
<feOffset dy="4.14139"/>
<feGaussianBlur stdDeviation="2.07069"/>
<feComposite in2="hardAlpha" operator="out"/>
<feColorMatrix type="matrix" values="0 0 0 0 0.137255 0 0 0 0 0.266667 0 0 0 0 0.717647 0 0 0 0.2 0"/>
<feBlend mode="normal" in2="BackgroundImageFix" result="effect1_dropShadow_2068_29079"/>
<feBlend mode="normal" in="SourceGraphic" in2="effect1_dropShadow_2068_29079" result="shape"/>
</filter>
<filter id="filter21_d_2068_29079" x="303" y="90" width="32" height="33.2305" filterUnits="userSpaceOnUse" color-interpolation-filters="sRGB">
<feFlood flood-opacity="0" result="BackgroundImageFix"/>
<feColorMatrix in="SourceAlpha" type="matrix" values="0 0 0 0 0 0 0 0 0 0 0 0 0 0 0 0 0 0 127 0" result="hardAlpha"/>
<feOffset dy="4"/>
<feGaussianBlur stdDeviation="2"/>
<feComposite in2="hardAlpha" operator="out"/>
<feColorMatrix type="matrix" values="0 0 0 0 0 0 0 0 0 0 0 0 0 0 0 0 0 0 0.25 0"/>
<feBlend mode="normal" in2="BackgroundImageFix" result="effect1_dropShadow_2068_29079"/>
<feBlend mode="normal" in="SourceGraphic" in2="effect1_dropShadow_2068_29079" result="shape"/>
</filter>
<filter id="filter22_f_2068_29079" x="304.633" y="100.38" width="24.0758" height="17.8414" filterUnits="userSpaceOnUse" color-interpolation-filters="sRGB">
<feFlood flood-opacity="0" result="BackgroundImageFix"/>
<feBlend mode="normal" in="SourceGraphic" in2="BackgroundImageFix" result="shape"/>
<feGaussianBlur stdDeviation="1.4955" result="effect1_foregroundBlur_2068_29079"/>
</filter>
<filter id="filter23_d_2068_29079" x="302.859" y="90" width="32.2828" height="32.1285" filterUnits="userSpaceOnUse" color-interpolation-filters="sRGB">
<feFlood flood-opacity="0" result="BackgroundImageFix"/>
<feColorMatrix in="SourceAlpha" type="matrix" values="0 0 0 0 0 0 0 0 0 0 0 0 0 0 0 0 0 0 127 0" result="hardAlpha"/>
<feOffset dy="4.14139"/>
<feGaussianBlur stdDeviation="2.07069"/>
<feComposite in2="hardAlpha" operator="out"/>
<feColorMatrix type="matrix" values="0 0 0 0 0.137255 0 0 0 0 0.266667 0 0 0 0 0.717647 0 0 0 0.2 0"/>
<feBlend mode="normal" in2="BackgroundImageFix" result="effect1_dropShadow_2068_29079"/>
<feBlend mode="normal" in="SourceGraphic" in2="effect1_dropShadow_2068_29079" result="shape"/>
</filter>
<filter id="filter24_d_2068_29079" x="65.001" y="90" width="32" height="33.2305" filterUnits="userSpaceOnUse" color-interpolation-filters="sRGB">
<feFlood flood-opacity="0" result="BackgroundImageFix"/>
<feColorMatrix in="SourceAlpha" type="matrix" values="0 0 0 0 0 0 0 0 0 0 0 0 0 0 0 0 0 0 127 0" result="hardAlpha"/>
<feOffset dy="4"/>
<feGaussianBlur stdDeviation="2"/>
<feComposite in2="hardAlpha" operator="out"/>
<feColorMatrix type="matrix" values="0 0 0 0 0 0 0 0 0 0 0 0 0 0 0 0 0 0 0.25 0"/>
<feBlend mode="normal" in2="BackgroundImageFix" result="effect1_dropShadow_2068_29079"/>
<feBlend mode="normal" in="SourceGraphic" in2="effect1_dropShadow_2068_29079" result="shape"/>
</filter>
<filter id="filter25_f_2068_29079" x="66.634" y="100.38" width="24.0758" height="17.8414" filterUnits="userSpaceOnUse" color-interpolation-filters="sRGB">
<feFlood flood-opacity="0" result="BackgroundImageFix"/>
<feBlend mode="normal" in="SourceGraphic" in2="BackgroundImageFix" result="shape"/>
<feGaussianBlur stdDeviation="1.4955" result="effect1_foregroundBlur_2068_29079"/>
</filter>
<filter id="filter26_d_2068_29079" x="64.8596" y="90" width="32.2828" height="32.1285" filterUnits="userSpaceOnUse" color-interpolation-filters="sRGB">
<feFlood flood-opacity="0" result="BackgroundImageFix"/>
<feColorMatrix in="SourceAlpha" type="matrix" values="0 0 0 0 0 0 0 0 0 0 0 0 0 0 0 0 0 0 127 0" result="hardAlpha"/>
<feOffset dy="4.14139"/>
<feGaussianBlur stdDeviation="2.07069"/>
<feComposite in2="hardAlpha" operator="out"/>
<feColorMatrix type="matrix" values="0 0 0 0 0.137255 0 0 0 0 0.266667 0 0 0 0 0.717647 0 0 0 0.2 0"/>
<feBlend mode="normal" in2="BackgroundImageFix" result="effect1_dropShadow_2068_29079"/>
<feBlend mode="normal" in="SourceGraphic" in2="effect1_dropShadow_2068_29079" result="shape"/>
</filter>
<filter id="filter27_d_2068_29079" x="275" y="130" width="32" height="33.2305" filterUnits="userSpaceOnUse" color-interpolation-filters="sRGB">
<feFlood flood-opacity="0" result="BackgroundImageFix"/>
<feColorMatrix in="SourceAlpha" type="matrix" values="0 0 0 0 0 0 0 0 0 0 0 0 0 0 0 0 0 0 127 0" result="hardAlpha"/>
<feOffset dy="4"/>
<feGaussianBlur stdDeviation="2"/>
<feComposite in2="hardAlpha" operator="out"/>
<feColorMatrix type="matrix" values="0 0 0 0 0 0 0 0 0 0 0 0 0 0 0 0 0 0 0.25 0"/>
<feBlend mode="normal" in2="BackgroundImageFix" result="effect1_dropShadow_2068_29079"/>
<feBlend mode="normal" in="SourceGraphic" in2="effect1_dropShadow_2068_29079" result="shape"/>
</filter>
<filter id="filter28_f_2068_29079" x="276.633" y="140.38" width="24.0758" height="17.8414" filterUnits="userSpaceOnUse" color-interpolation-filters="sRGB">
<feFlood flood-opacity="0" result="BackgroundImageFix"/>
<feBlend mode="normal" in="SourceGraphic" in2="BackgroundImageFix" result="shape"/>
<feGaussianBlur stdDeviation="1.4955" result="effect1_foregroundBlur_2068_29079"/>
</filter>
<filter id="filter29_d_2068_29079" x="274.859" y="130" width="32.2828" height="32.1285" filterUnits="userSpaceOnUse" color-interpolation-filters="sRGB">
<feFlood flood-opacity="0" result="BackgroundImageFix"/>
<feColorMatrix in="SourceAlpha" type="matrix" values="0 0 0 0 0 0 0 0 0 0 0 0 0 0 0 0 0 0 127 0" result="hardAlpha"/>
<feOffset dy="4.14139"/>
<feGaussianBlur stdDeviation="2.07069"/>
<feComposite in2="hardAlpha" operator="out"/>
<feColorMatrix type="matrix" values="0 0 0 0 0.137255 0 0 0 0 0.266667 0 0 0 0 0.717647 0 0 0 0.2 0"/>
<feBlend mode="normal" in2="BackgroundImageFix" result="effect1_dropShadow_2068_29079"/>
<feBlend mode="normal" in="SourceGraphic" in2="effect1_dropShadow_2068_29079" result="shape"/>
</filter>
<filter id="filter30_d_2068_29079" x="37.001" y="130" width="32" height="33.2305" filterUnits="userSpaceOnUse" color-interpolation-filters="sRGB">
<feFlood flood-opacity="0" result="BackgroundImageFix"/>
<feColorMatrix in="SourceAlpha" type="matrix" values="0 0 0 0 0 0 0 0 0 0 0 0 0 0 0 0 0 0 127 0" result="hardAlpha"/>
<feOffset dy="4"/>
<feGaussianBlur stdDeviation="2"/>
<feComposite in2="hardAlpha" operator="out"/>
<feColorMatrix type="matrix" values="0 0 0 0 0 0 0 0 0 0 0 0 0 0 0 0 0 0 0.25 0"/>
<feBlend mode="normal" in2="BackgroundImageFix" result="effect1_dropShadow_2068_29079"/>
<feBlend mode="normal" in="SourceGraphic" in2="effect1_dropShadow_2068_29079" result="shape"/>
</filter>
<filter id="filter31_f_2068_29079" x="38.634" y="140.38" width="24.0758" height="17.8414" filterUnits="userSpaceOnUse" color-interpolation-filters="sRGB">
<feFlood flood-opacity="0" result="BackgroundImageFix"/>
<feBlend mode="normal" in="SourceGraphic" in2="BackgroundImageFix" result="shape"/>
<feGaussianBlur stdDeviation="1.4955" result="effect1_foregroundBlur_2068_29079"/>
</filter>
<filter id="filter32_d_2068_29079" x="36.8596" y="130" width="32.2828" height="32.1285" filterUnits="userSpaceOnUse" color-interpolation-filters="sRGB">
<feFlood flood-opacity="0" result="BackgroundImageFix"/>
<feColorMatrix in="SourceAlpha" type="matrix" values="0 0 0 0 0 0 0 0 0 0 0 0 0 0 0 0 0 0 127 0" result="hardAlpha"/>
<feOffset dy="4.14139"/>
<feGaussianBlur stdDeviation="2.07069"/>
<feComposite in2="hardAlpha" operator="out"/>
<feColorMatrix type="matrix" values="0 0 0 0 0.137255 0 0 0 0 0.266667 0 0 0 0 0.717647 0 0 0 0.2 0"/>
<feBlend mode="normal" in2="BackgroundImageFix" result="effect1_dropShadow_2068_29079"/>
<feBlend mode="normal" in="SourceGraphic" in2="effect1_dropShadow_2068_29079" result="shape"/>
</filter>
<filter id="filter33_d_2068_29079" x="23.001" y="183" width="32" height="33.2305" filterUnits="userSpaceOnUse" color-interpolation-filters="sRGB">
<feFlood flood-opacity="0" result="BackgroundImageFix"/>
<feColorMatrix in="SourceAlpha" type="matrix" values="0 0 0 0 0 0 0 0 0 0 0 0 0 0 0 0 0 0 127 0" result="hardAlpha"/>
<feOffset dy="4"/>
<feGaussianBlur stdDeviation="2"/>
<feComposite in2="hardAlpha" operator="out"/>
<feColorMatrix type="matrix" values="0 0 0 0 0 0 0 0 0 0 0 0 0 0 0 0 0 0 0.25 0"/>
<feBlend mode="normal" in2="BackgroundImageFix" result="effect1_dropShadow_2068_29079"/>
<feBlend mode="normal" in="SourceGraphic" in2="effect1_dropShadow_2068_29079" result="shape"/>
</filter>
<filter id="filter34_f_2068_29079" x="24.634" y="193.38" width="24.0758" height="17.8414" filterUnits="userSpaceOnUse" color-interpolation-filters="sRGB">
<feFlood flood-opacity="0" result="BackgroundImageFix"/>
<feBlend mode="normal" in="SourceGraphic" in2="BackgroundImageFix" result="shape"/>
<feGaussianBlur stdDeviation="1.4955" result="effect1_foregroundBlur_2068_29079"/>
</filter>
<filter id="filter35_d_2068_29079" x="22.8596" y="183" width="32.2828" height="32.1285" filterUnits="userSpaceOnUse" color-interpolation-filters="sRGB">
<feFlood flood-opacity="0" result="BackgroundImageFix"/>
<feColorMatrix in="SourceAlpha" type="matrix" values="0 0 0 0 0 0 0 0 0 0 0 0 0 0 0 0 0 0 127 0" result="hardAlpha"/>
<feOffset dy="4.14139"/>
<feGaussianBlur stdDeviation="2.07069"/>
<feComposite in2="hardAlpha" operator="out"/>
<feColorMatrix type="matrix" values="0 0 0 0 0.137255 0 0 0 0 0.266667 0 0 0 0 0.717647 0 0 0 0.2 0"/>
<feBlend mode="normal" in2="BackgroundImageFix" result="effect1_dropShadow_2068_29079"/>
<feBlend mode="normal" in="SourceGraphic" in2="effect1_dropShadow_2068_29079" result="shape"/>
</filter>
<filter id="filter36_d_2068_29079" x="313" y="208" width="32" height="33.2305" filterUnits="userSpaceOnUse" color-interpolation-filters="sRGB">
<feFlood flood-opacity="0" result="BackgroundImageFix"/>
<feColorMatrix in="SourceAlpha" type="matrix" values="0 0 0 0 0 0 0 0 0 0 0 0 0 0 0 0 0 0 127 0" result="hardAlpha"/>
<feOffset dy="4"/>
<feGaussianBlur stdDeviation="2"/>
<feComposite in2="hardAlpha" operator="out"/>
<feColorMatrix type="matrix" values="0 0 0 0 0 0 0 0 0 0 0 0 0 0 0 0 0 0 0.25 0"/>
<feBlend mode="normal" in2="BackgroundImageFix" result="effect1_dropShadow_2068_29079"/>
<feBlend mode="normal" in="SourceGraphic" in2="effect1_dropShadow_2068_29079" result="shape"/>
</filter>
<filter id="filter37_f_2068_29079" x="314.633" y="218.38" width="24.0758" height="17.8414" filterUnits="userSpaceOnUse" color-interpolation-filters="sRGB">
<feFlood flood-opacity="0" result="BackgroundImageFix"/>
<feBlend mode="normal" in="SourceGraphic" in2="BackgroundImageFix" result="shape"/>
<feGaussianBlur stdDeviation="1.4955" result="effect1_foregroundBlur_2068_29079"/>
</filter>
<filter id="filter38_d_2068_29079" x="312.859" y="208" width="32.2828" height="32.1285" filterUnits="userSpaceOnUse" color-interpolation-filters="sRGB">
<feFlood flood-opacity="0" result="BackgroundImageFix"/>
<feColorMatrix in="SourceAlpha" type="matrix" values="0 0 0 0 0 0 0 0 0 0 0 0 0 0 0 0 0 0 127 0" result="hardAlpha"/>
<feOffset dy="4.14139"/>
<feGaussianBlur stdDeviation="2.07069"/>
<feComposite in2="hardAlpha" operator="out"/>
<feColorMatrix type="matrix" values="0 0 0 0 0.137255 0 0 0 0 0.266667 0 0 0 0 0.717647 0 0 0 0.2 0"/>
<feBlend mode="normal" in2="BackgroundImageFix" result="effect1_dropShadow_2068_29079"/>
<feBlend mode="normal" in="SourceGraphic" in2="effect1_dropShadow_2068_29079" result="shape"/>
</filter>
<filter id="filter39_d_2068_29079" x="75.001" y="208" width="32" height="33.2305" filterUnits="userSpaceOnUse" color-interpolation-filters="sRGB">
<feFlood flood-opacity="0" result="BackgroundImageFix"/>
<feColorMatrix in="SourceAlpha" type="matrix" values="0 0 0 0 0 0 0 0 0 0 0 0 0 0 0 0 0 0 127 0" result="hardAlpha"/>
<feOffset dy="4"/>
<feGaussianBlur stdDeviation="2"/>
<feComposite in2="hardAlpha" operator="out"/>
<feColorMatrix type="matrix" values="0 0 0 0 0 0 0 0 0 0 0 0 0 0 0 0 0 0 0.25 0"/>
<feBlend mode="normal" in2="BackgroundImageFix" result="effect1_dropShadow_2068_29079"/>
<feBlend mode="normal" in="SourceGraphic" in2="effect1_dropShadow_2068_29079" result="shape"/>
</filter>
<filter id="filter40_f_2068_29079" x="76.634" y="218.38" width="24.0758" height="17.8414" filterUnits="userSpaceOnUse" color-interpolation-filters="sRGB">
<feFlood flood-opacity="0" result="BackgroundImageFix"/>
<feBlend mode="normal" in="SourceGraphic" in2="BackgroundImageFix" result="shape"/>
<feGaussianBlur stdDeviation="1.4955" result="effect1_foregroundBlur_2068_29079"/>
</filter>
<filter id="filter41_d_2068_29079" x="74.8596" y="208" width="32.2828" height="32.1285" filterUnits="userSpaceOnUse" color-interpolation-filters="sRGB">
<feFlood flood-opacity="0" result="BackgroundImageFix"/>
<feColorMatrix in="SourceAlpha" type="matrix" values="0 0 0 0 0 0 0 0 0 0 0 0 0 0 0 0 0 0 127 0" result="hardAlpha"/>
<feOffset dy="4.14139"/>
<feGaussianBlur stdDeviation="2.07069"/>
<feComposite in2="hardAlpha" operator="out"/>
<feColorMatrix type="matrix" values="0 0 0 0 0.137255 0 0 0 0 0.266667 0 0 0 0 0.717647 0 0 0 0.2 0"/>
<feBlend mode="normal" in2="BackgroundImageFix" result="effect1_dropShadow_2068_29079"/>
<feBlend mode="normal" in="SourceGraphic" in2="effect1_dropShadow_2068_29079" result="shape"/>
</filter>
<filter id="filter42_d_2068_29079" x="327" y="163" width="32" height="33.2305" filterUnits="userSpaceOnUse" color-interpolation-filters="sRGB">
<feFlood flood-opacity="0" result="BackgroundImageFix"/>
<feColorMatrix in="SourceAlpha" type="matrix" values="0 0 0 0 0 0 0 0 0 0 0 0 0 0 0 0 0 0 127 0" result="hardAlpha"/>
<feOffset dy="4"/>
<feGaussianBlur stdDeviation="2"/>
<feComposite in2="hardAlpha" operator="out"/>
<feColorMatrix type="matrix" values="0 0 0 0 0 0 0 0 0 0 0 0 0 0 0 0 0 0 0.25 0"/>
<feBlend mode="normal" in2="BackgroundImageFix" result="effect1_dropShadow_2068_29079"/>
<feBlend mode="normal" in="SourceGraphic" in2="effect1_dropShadow_2068_29079" result="shape"/>
</filter>
<filter id="filter43_f_2068_29079" x="328.633" y="173.38" width="24.0758" height="17.8414" filterUnits="userSpaceOnUse" color-interpolation-filters="sRGB">
<feFlood flood-opacity="0" result="BackgroundImageFix"/>
<feBlend mode="normal" in="SourceGraphic" in2="BackgroundImageFix" result="shape"/>
<feGaussianBlur stdDeviation="1.4955" result="effect1_foregroundBlur_2068_29079"/>
</filter>
<filter id="filter44_d_2068_29079" x="326.859" y="163" width="32.2828" height="32.1285" filterUnits="userSpaceOnUse" color-interpolation-filters="sRGB">
<feFlood flood-opacity="0" result="BackgroundImageFix"/>
<feColorMatrix in="SourceAlpha" type="matrix" values="0 0 0 0 0 0 0 0 0 0 0 0 0 0 0 0 0 0 127 0" result="hardAlpha"/>
<feOffset dy="4.14139"/>
<feGaussianBlur stdDeviation="2.07069"/>
<feComposite in2="hardAlpha" operator="out"/>
<feColorMatrix type="matrix" values="0 0 0 0 0.137255 0 0 0 0 0.266667 0 0 0 0 0.717647 0 0 0 0.2 0"/>
<feBlend mode="normal" in2="BackgroundImageFix" result="effect1_dropShadow_2068_29079"/>
<feBlend mode="normal" in="SourceGraphic" in2="effect1_dropShadow_2068_29079" result="shape"/>
</filter>
<filter id="filter45_d_2068_29079" x="379" y="192" width="32" height="33.2305" filterUnits="userSpaceOnUse" color-interpolation-filters="sRGB">
<feFlood flood-opacity="0" result="BackgroundImageFix"/>
<feColorMatrix in="SourceAlpha" type="matrix" values="0 0 0 0 0 0 0 0 0 0 0 0 0 0 0 0 0 0 127 0" result="hardAlpha"/>
<feOffset dy="4"/>
<feGaussianBlur stdDeviation="2"/>
<feComposite in2="hardAlpha" operator="out"/>
<feColorMatrix type="matrix" values="0 0 0 0 0 0 0 0 0 0 0 0 0 0 0 0 0 0 0.25 0"/>
<feBlend mode="normal" in2="BackgroundImageFix" result="effect1_dropShadow_2068_29079"/>
<feBlend mode="normal" in="SourceGraphic" in2="effect1_dropShadow_2068_29079" result="shape"/>
</filter>
<filter id="filter46_f_2068_29079" x="380.633" y="202.38" width="24.0758" height="17.8414" filterUnits="userSpaceOnUse" color-interpolation-filters="sRGB">
<feFlood flood-opacity="0" result="BackgroundImageFix"/>
<feBlend mode="normal" in="SourceGraphic" in2="BackgroundImageFix" result="shape"/>
<feGaussianBlur stdDeviation="1.4955" result="effect1_foregroundBlur_2068_29079"/>
</filter>
<filter id="filter47_d_2068_29079" x="378.859" y="192" width="32.2828" height="32.1285" filterUnits="userSpaceOnUse" color-interpolation-filters="sRGB">
<feFlood flood-opacity="0" result="BackgroundImageFix"/>
<feColorMatrix in="SourceAlpha" type="matrix" values="0 0 0 0 0 0 0 0 0 0 0 0 0 0 0 0 0 0 127 0" result="hardAlpha"/>
<feOffset dy="4.14139"/>
<feGaussianBlur stdDeviation="2.07069"/>
<feComposite in2="hardAlpha" operator="out"/>
<feColorMatrix type="matrix" values="0 0 0 0 0.137255 0 0 0 0 0.266667 0 0 0 0 0.717647 0 0 0 0.2 0"/>
<feBlend mode="normal" in2="BackgroundImageFix" result="effect1_dropShadow_2068_29079"/>
<feBlend mode="normal" in="SourceGraphic" in2="effect1_dropShadow_2068_29079" result="shape"/>
</filter>
<filter id="filter48_d_2068_29079" x="165.001" y="138" width="32" height="33.2305" filterUnits="userSpaceOnUse" color-interpolation-filters="sRGB">
<feFlood flood-opacity="0" result="BackgroundImageFix"/>
<feColorMatrix in="SourceAlpha" type="matrix" values="0 0 0 0 0 0 0 0 0 0 0 0 0 0 0 0 0 0 127 0" result="hardAlpha"/>
<feOffset dy="4"/>
<feGaussianBlur stdDeviation="2"/>
<feComposite in2="hardAlpha" operator="out"/>
<feColorMatrix type="matrix" values="0 0 0 0 0 0 0 0 0 0 0 0 0 0 0 0 0 0 0.25 0"/>
<feBlend mode="normal" in2="BackgroundImageFix" result="effect1_dropShadow_2068_29079"/>
<feBlend mode="normal" in="SourceGraphic" in2="effect1_dropShadow_2068_29079" result="shape"/>
</filter>
<filter id="filter49_f_2068_29079" x="166.634" y="148.38" width="24.0758" height="17.8414" filterUnits="userSpaceOnUse" color-interpolation-filters="sRGB">
<feFlood flood-opacity="0" result="BackgroundImageFix"/>
<feBlend mode="normal" in="SourceGraphic" in2="BackgroundImageFix" result="shape"/>
<feGaussianBlur stdDeviation="1.4955" result="effect1_foregroundBlur_2068_29079"/>
</filter>
<filter id="filter50_d_2068_29079" x="164.86" y="138" width="32.2828" height="32.1285" filterUnits="userSpaceOnUse" color-interpolation-filters="sRGB">
<feFlood flood-opacity="0" result="BackgroundImageFix"/>
<feColorMatrix in="SourceAlpha" type="matrix" values="0 0 0 0 0 0 0 0 0 0 0 0 0 0 0 0 0 0 127 0" result="hardAlpha"/>
<feOffset dy="4.14139"/>
<feGaussianBlur stdDeviation="2.07069"/>
<feComposite in2="hardAlpha" operator="out"/>
<feColorMatrix type="matrix" values="0 0 0 0 0.137255 0 0 0 0 0.266667 0 0 0 0 0.717647 0 0 0 0.2 0"/>
<feBlend mode="normal" in2="BackgroundImageFix" result="effect1_dropShadow_2068_29079"/>
<feBlend mode="normal" in="SourceGraphic" in2="effect1_dropShadow_2068_29079" result="shape"/>
</filter>
<linearGradient id="paint0_linear_2068_29079" x1="216" y1="266" x2="216" y2="306" gradientUnits="userSpaceOnUse">
<stop stop-color="#9D0932"/>
<stop offset="0.5" stop-color="#BC093A"/>
<stop offset="1" stop-color="#7D1431"/>
</linearGradient>
<linearGradient id="paint1_linear_2068_29079" x1="36" y1="250" x2="36" y2="271" gradientUnits="userSpaceOnUse">
<stop stop-color="#D70A42"/>
<stop offset="0.5" stop-color="#F94476"/>
<stop offset="1" stop-color="#AF0A37"/>
</linearGradient>
<linearGradient id="paint2_linear_2068_29079" x1="180" y1="250" x2="180" y2="271" gradientUnits="userSpaceOnUse">
<stop stop-color="#D70A42"/>
<stop offset="0.5" stop-color="#F94476"/>
<stop offset="1" stop-color="#AF0A37"/>
</linearGradient>
<linearGradient id="paint3_linear_2068_29079" x1="252" y1="250" x2="252" y2="271" gradientUnits="userSpaceOnUse">
<stop stop-color="#D70A42"/>
<stop offset="0.5" stop-color="#F94476"/>
<stop offset="1" stop-color="#AF0A37"/>
</linearGradient>
<linearGradient id="paint4_linear_2068_29079" x1="108" y1="250" x2="108" y2="271" gradientUnits="userSpaceOnUse">
<stop stop-color="#D70A42"/>
<stop offset="0.5" stop-color="#F94476"/>
<stop offset="1" stop-color="#AF0A37"/>
</linearGradient>
<linearGradient id="paint5_linear_2068_29079" x1="324" y1="250" x2="324" y2="271" gradientUnits="userSpaceOnUse">
<stop stop-color="#D70A42"/>
<stop offset="0.5" stop-color="#F94476"/>
<stop offset="1" stop-color="#AF0A37"/>
</linearGradient>
<linearGradient id="paint6_linear_2068_29079" x1="396" y1="250" x2="396" y2="271" gradientUnits="userSpaceOnUse">
<stop stop-color="#D70A42"/>
<stop offset="0.5" stop-color="#F94476"/>
<stop offset="1" stop-color="#AF0A37"/>
</linearGradient>
<linearGradient id="paint7_linear_2068_29079" x1="211.417" y1="15" x2="211.417" y2="114.942" gradientUnits="userSpaceOnUse">
<stop stop-color="#9D0932"/>
<stop offset="0.5" stop-color="#BC093A"/>
<stop offset="1" stop-color="#7D1431"/>
</linearGradient>
<radialGradient id="paint8_radial_2068_29079" cx="0" cy="0" r="1" gradientUnits="userSpaceOnUse" gradientTransform="translate(213.956 64) rotate(63.4349) scale(35.7771 42.7017)">
<stop stop-color="#F30647"/>
<stop offset="0.827383" stop-color="#8D1233"/>
</radialGradient>
<linearGradient id="paint9_linear_2068_29079" x1="343.934" y1="160.027" x2="397.078" y2="117.128" gradientUnits="userSpaceOnUse">
<stop stop-color="#9D0932"/>
<stop offset="0.5" stop-color="#BC093A"/>
<stop offset="1" stop-color="#7D1431"/>
</linearGradient>
<radialGradient id="paint10_radial_2068_29079" cx="0" cy="0" r="1" gradientUnits="userSpaceOnUse" gradientTransform="translate(368.901 137.644) rotate(-65.476) scale(24.4495 29.1817)">
<stop stop-color="#F30647"/>
<stop offset="0.827383" stop-color="#8D1233"/>
</radialGradient>
<linearGradient id="paint11_linear_2068_29079" x1="78.9345" y1="163.027" x2="132.079" y2="120.128" gradientUnits="userSpaceOnUse">
<stop stop-color="#9D0932"/>
<stop offset="0.5" stop-color="#BC093A"/>
<stop offset="1" stop-color="#7D1431"/>
</linearGradient>
<radialGradient id="paint12_radial_2068_29079" cx="0" cy="0" r="1" gradientUnits="userSpaceOnUse" gradientTransform="translate(103.902 140.644) rotate(-65.476) scale(24.4495 29.1817)">
<stop stop-color="#F30647"/>
<stop offset="0.827383" stop-color="#8D1233"/>
</radialGradient>
<linearGradient id="paint13_linear_2068_29079" x1="24.585" y1="69.7628" x2="62.6684" y2="39.0214" gradientUnits="userSpaceOnUse">
<stop stop-color="#9D0932"/>
<stop offset="0.5" stop-color="#BC093A"/>
<stop offset="1" stop-color="#7D1431"/>
</linearGradient>
<radialGradient id="paint14_radial_2068_29079" cx="0" cy="0" r="1" gradientUnits="userSpaceOnUse" gradientTransform="translate(42.477 53.7225) rotate(-65.476) scale(17.5204 20.9115)">
<stop stop-color="#F30647"/>
<stop offset="0.827383" stop-color="#8D1233"/>
</radialGradient>
<linearGradient id="paint15_linear_2068_29079" x1="233.115" y1="122.521" x2="239.569" y2="93.015" gradientUnits="userSpaceOnUse">
<stop stop-color="#000673"/>
<stop offset="0.279381" stop-color="#0044FF"/>
<stop offset="0.417393" stop-color="#004DFF"/>
<stop offset="0.545274" stop-color="#007AFF"/>
<stop offset="0.654" stop-color="#009EFF"/>
<stop offset="0.7859" stop-color="#00B7FF"/>
<stop offset="0.905" stop-color="#00C7FF"/>
<stop offset="1" stop-color="#62E0FF"/>
</linearGradient>
<linearGradient id="paint16_linear_2068_29079" x1="286.115" y1="77.5207" x2="292.569" y2="48.015" gradientUnits="userSpaceOnUse">
<stop stop-color="#000673"/>
<stop offset="0.279381" stop-color="#0044FF"/>
<stop offset="0.417393" stop-color="#004DFF"/>
<stop offset="0.545274" stop-color="#007AFF"/>
<stop offset="0.654" stop-color="#009EFF"/>
<stop offset="0.7859" stop-color="#00B7FF"/>
<stop offset="0.905" stop-color="#00C7FF"/>
<stop offset="1" stop-color="#62E0FF"/>
</linearGradient>
<linearGradient id="paint17_linear_2068_29079" x1="48.1157" y1="77.5207" x2="54.5697" y2="48.015" gradientUnits="userSpaceOnUse">
<stop stop-color="#000673"/>
<stop offset="0.279381" stop-color="#0044FF"/>
<stop offset="0.417393" stop-color="#004DFF"/>
<stop offset="0.545274" stop-color="#007AFF"/>
<stop offset="0.654" stop-color="#009EFF"/>
<stop offset="0.7859" stop-color="#00B7FF"/>
<stop offset="0.905" stop-color="#00C7FF"/>
<stop offset="1" stop-color="#62E0FF"/>
</linearGradient>
<linearGradient id="paint18_linear_2068_29079" x1="341.115" y1="60.5207" x2="347.569" y2="31.015" gradientUnits="userSpaceOnUse">
<stop stop-color="#000673"/>
<stop offset="0.279381" stop-color="#0044FF"/>
<stop offset="0.417393" stop-color="#004DFF"/>
<stop offset="0.545274" stop-color="#007AFF"/>
<stop offset="0.654" stop-color="#009EFF"/>
<stop offset="0.7859" stop-color="#00B7FF"/>
<stop offset="0.905" stop-color="#00C7FF"/>
<stop offset="1" stop-color="#62E0FF"/>
</linearGradient>
<linearGradient id="paint19_linear_2068_29079" x1="103.116" y1="60.5207" x2="109.57" y2="31.015" gradientUnits="userSpaceOnUse">
<stop stop-color="#000673"/>
<stop offset="0.279381" stop-color="#0044FF"/>
<stop offset="0.417393" stop-color="#004DFF"/>
<stop offset="0.545274" stop-color="#007AFF"/>
<stop offset="0.654" stop-color="#009EFF"/>
<stop offset="0.7859" stop-color="#00B7FF"/>
<stop offset="0.905" stop-color="#00C7FF"/>
<stop offset="1" stop-color="#62E0FF"/>
</linearGradient>
<linearGradient id="paint20_linear_2068_29079" x1="395.115" y1="106.521" x2="401.569" y2="77.015" gradientUnits="userSpaceOnUse">
<stop stop-color="#000673"/>
<stop offset="0.279381" stop-color="#0044FF"/>
<stop offset="0.417393" stop-color="#004DFF"/>
<stop offset="0.545274" stop-color="#007AFF"/>
<stop offset="0.654" stop-color="#009EFF"/>
<stop offset="0.7859" stop-color="#00B7FF"/>
<stop offset="0.905" stop-color="#00C7FF"/>
<stop offset="1" stop-color="#62E0FF"/>
</linearGradient>
<linearGradient id="paint21_linear_2068_29079" x1="157.116" y1="106.521" x2="163.57" y2="77.015" gradientUnits="userSpaceOnUse">
<stop stop-color="#000673"/>
<stop offset="0.279381" stop-color="#0044FF"/>
<stop offset="0.417393" stop-color="#004DFF"/>
<stop offset="0.545274" stop-color="#007AFF"/>
<stop offset="0.654" stop-color="#009EFF"/>
<stop offset="0.7859" stop-color="#00B7FF"/>
<stop offset="0.905" stop-color="#00C7FF"/>
<stop offset="1" stop-color="#62E0FF"/>
</linearGradient>
<linearGradient id="paint22_linear_2068_29079" x1="314.115" y1="119.521" x2="320.569" y2="90.015" gradientUnits="userSpaceOnUse">
<stop stop-color="#000673"/>
<stop offset="0.279381" stop-color="#0044FF"/>
<stop offset="0.417393" stop-color="#004DFF"/>
<stop offset="0.545274" stop-color="#007AFF"/>
<stop offset="0.654" stop-color="#009EFF"/>
<stop offset="0.7859" stop-color="#00B7FF"/>
<stop offset="0.905" stop-color="#00C7FF"/>
<stop offset="1" stop-color="#62E0FF"/>
</linearGradient>
<linearGradient id="paint23_linear_2068_29079" x1="76.1157" y1="119.521" x2="82.5697" y2="90.015" gradientUnits="userSpaceOnUse">
<stop stop-color="#000673"/>
<stop offset="0.279381" stop-color="#0044FF"/>
<stop offset="0.417393" stop-color="#004DFF"/>
<stop offset="0.545274" stop-color="#007AFF"/>
<stop offset="0.654" stop-color="#009EFF"/>
<stop offset="0.7859" stop-color="#00B7FF"/>
<stop offset="0.905" stop-color="#00C7FF"/>
<stop offset="1" stop-color="#62E0FF"/>
</linearGradient>
<linearGradient id="paint24_linear_2068_29079" x1="286.115" y1="159.521" x2="292.569" y2="130.015" gradientUnits="userSpaceOnUse">
<stop stop-color="#000673"/>
<stop offset="0.279381" stop-color="#0044FF"/>
<stop offset="0.417393" stop-color="#004DFF"/>
<stop offset="0.545274" stop-color="#007AFF"/>
<stop offset="0.654" stop-color="#009EFF"/>
<stop offset="0.7859" stop-color="#00B7FF"/>
<stop offset="0.905" stop-color="#00C7FF"/>
<stop offset="1" stop-color="#62E0FF"/>
</linearGradient>
<linearGradient id="paint25_linear_2068_29079" x1="48.1157" y1="159.521" x2="54.5697" y2="130.015" gradientUnits="userSpaceOnUse">
<stop stop-color="#000673"/>
<stop offset="0.279381" stop-color="#0044FF"/>
<stop offset="0.417393" stop-color="#004DFF"/>
<stop offset="0.545274" stop-color="#007AFF"/>
<stop offset="0.654" stop-color="#009EFF"/>
<stop offset="0.7859" stop-color="#00B7FF"/>
<stop offset="0.905" stop-color="#00C7FF"/>
<stop offset="1" stop-color="#62E0FF"/>
</linearGradient>
<linearGradient id="paint26_linear_2068_29079" x1="34.1157" y1="212.521" x2="40.5697" y2="183.015" gradientUnits="userSpaceOnUse">
<stop stop-color="#000673"/>
<stop offset="0.279381" stop-color="#0044FF"/>
<stop offset="0.417393" stop-color="#004DFF"/>
<stop offset="0.545274" stop-color="#007AFF"/>
<stop offset="0.654" stop-color="#009EFF"/>
<stop offset="0.7859" stop-color="#00B7FF"/>
<stop offset="0.905" stop-color="#00C7FF"/>
<stop offset="1" stop-color="#62E0FF"/>
</linearGradient>
<linearGradient id="paint27_linear_2068_29079" x1="324.115" y1="237.521" x2="330.569" y2="208.015" gradientUnits="userSpaceOnUse">
<stop stop-color="#000673"/>
<stop offset="0.279381" stop-color="#0044FF"/>
<stop offset="0.417393" stop-color="#004DFF"/>
<stop offset="0.545274" stop-color="#007AFF"/>
<stop offset="0.654" stop-color="#009EFF"/>
<stop offset="0.7859" stop-color="#00B7FF"/>
<stop offset="0.905" stop-color="#00C7FF"/>
<stop offset="1" stop-color="#62E0FF"/>
</linearGradient>
<linearGradient id="paint28_linear_2068_29079" x1="86.1157" y1="237.521" x2="92.5697" y2="208.015" gradientUnits="userSpaceOnUse">
<stop stop-color="#000673"/>
<stop offset="0.279381" stop-color="#0044FF"/>
<stop offset="0.417393" stop-color="#004DFF"/>
<stop offset="0.545274" stop-color="#007AFF"/>
<stop offset="0.654" stop-color="#009EFF"/>
<stop offset="0.7859" stop-color="#00B7FF"/>
<stop offset="0.905" stop-color="#00C7FF"/>
<stop offset="1" stop-color="#62E0FF"/>
</linearGradient>
<linearGradient id="paint29_linear_2068_29079" x1="338.115" y1="192.521" x2="344.569" y2="163.015" gradientUnits="userSpaceOnUse">
<stop stop-color="#000673"/>
<stop offset="0.279381" stop-color="#0044FF"/>
<stop offset="0.417393" stop-color="#004DFF"/>
<stop offset="0.545274" stop-color="#007AFF"/>
<stop offset="0.654" stop-color="#009EFF"/>
<stop offset="0.7859" stop-color="#00B7FF"/>
<stop offset="0.905" stop-color="#00C7FF"/>
<stop offset="1" stop-color="#62E0FF"/>
</linearGradient>
<linearGradient id="paint30_linear_2068_29079" x1="390.115" y1="221.521" x2="396.569" y2="192.015" gradientUnits="userSpaceOnUse">
<stop stop-color="#000673"/>
<stop offset="0.279381" stop-color="#0044FF"/>
<stop offset="0.417393" stop-color="#004DFF"/>
<stop offset="0.545274" stop-color="#007AFF"/>
<stop offset="0.654" stop-color="#009EFF"/>
<stop offset="0.7859" stop-color="#00B7FF"/>
<stop offset="0.905" stop-color="#00C7FF"/>
<stop offset="1" stop-color="#62E0FF"/>
</linearGradient>
<linearGradient id="paint31_linear_2068_29079" x1="176.116" y1="167.521" x2="182.57" y2="138.015" gradientUnits="userSpaceOnUse">
<stop stop-color="#000673"/>
<stop offset="0.279381" stop-color="#0044FF"/>
<stop offset="0.417393" stop-color="#004DFF"/>
<stop offset="0.545274" stop-color="#007AFF"/>
<stop offset="0.654" stop-color="#009EFF"/>
<stop offset="0.7859" stop-color="#00B7FF"/>
<stop offset="0.905" stop-color="#00C7FF"/>
<stop offset="1" stop-color="#62E0FF"/>
</linearGradient>
</defs>
</svg>
