<svg width="443" height="332" viewBox="0 0 443 332" fill="none" xmlns="http://www.w3.org/2000/svg">
<path d="M158.196 203.2H159.638L155.27 207.806L159.862 213H158.336L153.898 207.89L158.196 203.2ZM153.66 213H152.47V203.2H153.66V213ZM166.504 213H165.384V207.82H163.172L163.102 208.884C163.028 209.752 162.916 210.475 162.766 211.054C162.626 211.623 162.44 212.053 162.206 212.342C161.982 212.622 161.744 212.818 161.492 212.93C161.24 213.033 160.932 213.084 160.568 213.084L160.484 211.992C160.587 212.001 160.694 211.987 160.806 211.95C160.918 211.903 161.04 211.81 161.17 211.67C161.31 211.53 161.432 211.343 161.534 211.11C161.646 210.877 161.744 210.55 161.828 210.13C161.922 209.701 161.982 209.211 162.01 208.66L162.122 206.7H166.504V213ZM173.494 211.432L173.844 212.314C173.237 212.865 172.448 213.14 171.478 213.14C170.451 213.14 169.634 212.841 169.028 212.244C168.412 211.647 168.104 210.849 168.104 209.85C168.104 208.907 168.393 208.123 168.972 207.498C169.541 206.873 170.334 206.56 171.352 206.56C172.192 206.56 172.887 206.831 173.438 207.372C173.998 207.904 174.278 208.595 174.278 209.444C174.278 209.715 174.254 209.967 174.208 210.2H169.364C169.41 210.788 169.63 211.25 170.022 211.586C170.423 211.922 170.936 212.09 171.562 212.09C172.383 212.09 173.027 211.871 173.494 211.432ZM171.296 207.61C170.745 207.61 170.288 207.764 169.924 208.072C169.569 208.38 169.359 208.786 169.294 209.29H173.116C173.088 208.767 172.91 208.357 172.584 208.058C172.266 207.759 171.837 207.61 171.296 207.61ZM177.186 207.82H174.876V206.7H180.616V207.82H178.306V213H177.186V207.82ZM185.886 206.7H187.356L184.598 209.71L187.622 213H186.068L183.226 209.78L185.886 206.7ZM182.96 213H181.84V206.7H182.96V213ZM193.573 208.31L189.933 213H188.813V206.7H189.933V211.39L193.573 206.7H194.693V213H193.573V208.31ZM204.633 208.31L200.993 213H199.873V206.7H200.993V211.39L204.633 206.7H205.753V213H204.633V208.31ZM213.529 213H212.409V210.34H208.909V213H207.789V206.7H208.909V209.29H212.409V206.7H213.529V213ZM217.067 207.82H214.757V206.7H220.497V207.82H218.187V213H217.067V207.82ZM226.481 208.31L222.841 213H221.721V206.7H222.841V211.39L226.481 206.7H227.601V213H226.481V208.31ZM230.757 213H229.637V206.7H230.659L233.081 209.822L235.377 206.7H236.371V213H235.251V208.408L233.067 211.334H233.025L230.757 208.408V213ZM240.431 213H238.401V206.7H239.521V208.59H240.557C241.415 208.59 242.045 208.786 242.447 209.178C242.848 209.561 243.049 210.088 243.049 210.76C243.049 211.395 242.839 211.927 242.419 212.356C242.017 212.785 241.355 213 240.431 213ZM245.373 213H244.253V206.7H245.373V213ZM240.347 209.64H239.521V211.95H240.333C240.865 211.95 241.252 211.857 241.495 211.67C241.737 211.483 241.859 211.194 241.859 210.802C241.859 210.027 241.355 209.64 240.347 209.64ZM247.131 212.356C247.131 212.132 247.201 211.955 247.341 211.824C247.481 211.684 247.677 211.614 247.929 211.614C248.228 211.614 248.47 211.74 248.657 211.992C248.844 212.235 248.937 212.561 248.937 212.972C248.937 213.476 248.797 213.91 248.517 214.274C248.246 214.647 247.873 214.904 247.397 215.044L247.089 214.512C247.574 214.363 247.873 214.05 247.985 213.574C248.05 213.257 248.046 213.023 247.971 212.874C247.915 212.958 247.812 213 247.663 213C247.523 213 247.397 212.939 247.285 212.818C247.182 212.687 247.131 212.533 247.131 212.356ZM152.008 229V222.7C152.055 222.7 152.12 222.7 152.204 222.7C152.288 222.691 152.409 222.686 152.568 222.686C152.727 222.677 152.871 222.672 153.002 222.672C153.693 222.653 154.122 222.644 154.29 222.644C156.101 222.644 157.006 223.185 157.006 224.268C157.006 224.641 156.889 224.963 156.656 225.234C156.423 225.495 156.119 225.654 155.746 225.71V225.738C156.726 225.915 157.216 226.41 157.216 227.222C157.216 228.445 156.25 229.056 154.318 229.056C154.225 229.056 153.814 229.047 153.086 229.028C152.946 229.028 152.792 229.023 152.624 229.014C152.456 229.014 152.325 229.009 152.232 229C152.139 229 152.064 229 152.008 229ZM154.472 226.172H153.128V228.104C153.8 228.132 154.229 228.146 154.416 228.146C155.489 228.146 156.026 227.81 156.026 227.138C156.026 226.494 155.508 226.172 154.472 226.172ZM154.374 223.554C154.103 223.554 153.688 223.568 153.128 223.596V225.472H154.542C154.925 225.472 155.233 225.383 155.466 225.206C155.699 225.029 155.816 224.791 155.816 224.492C155.816 223.867 155.335 223.554 154.374 223.554ZM160.956 229H158.926V222.7H160.046V224.59H161.082C161.941 224.59 162.571 224.786 162.972 225.178C163.373 225.561 163.574 226.088 163.574 226.76C163.574 227.395 163.364 227.927 162.944 228.356C162.543 228.785 161.88 229 160.956 229ZM165.898 229H164.778V222.7H165.898V229ZM160.872 225.64H160.046V227.95H160.858C161.39 227.95 161.777 227.857 162.02 227.67C162.263 227.483 162.384 227.194 162.384 226.802C162.384 226.027 161.88 225.64 160.872 225.64ZM172.752 227.278L173.284 228.09C172.743 228.79 171.936 229.14 170.862 229.14C169.854 229.14 169.038 228.841 168.412 228.244C167.796 227.647 167.488 226.849 167.488 225.85C167.488 224.926 167.792 224.147 168.398 223.512C169.005 222.877 169.766 222.56 170.68 222.56C171.782 222.56 172.608 222.835 173.158 223.386L172.64 224.268C172.155 223.829 171.553 223.61 170.834 223.61C170.246 223.61 169.738 223.825 169.308 224.254C168.888 224.674 168.678 225.206 168.678 225.85C168.678 226.531 168.893 227.073 169.322 227.474C169.761 227.885 170.302 228.09 170.946 228.09C171.674 228.09 172.276 227.819 172.752 227.278ZM176.174 223.82H173.864V222.7H179.604V223.82H177.294V229H176.174V223.82ZM185.588 224.31L181.948 229H180.828V222.7H181.948V227.39L185.588 222.7H186.708V229H185.588V224.31ZM194.176 229H193.056V223.82H190.844L190.774 224.884C190.7 225.752 190.588 226.475 190.438 227.054C190.298 227.623 190.112 228.053 189.878 228.342C189.654 228.622 189.416 228.818 189.164 228.93C188.912 229.033 188.604 229.084 188.24 229.084L188.156 227.992C188.259 228.001 188.366 227.987 188.478 227.95C188.59 227.903 188.712 227.81 188.842 227.67C188.982 227.53 189.104 227.343 189.206 227.11C189.318 226.877 189.416 226.55 189.5 226.13C189.594 225.701 189.654 225.211 189.682 224.66L189.794 222.7H194.176V229ZM196.532 224.03L196.238 223.134C196.863 222.751 197.563 222.56 198.338 222.56C199.187 222.56 199.803 222.77 200.186 223.19C200.568 223.61 200.76 224.259 200.76 225.136V229H199.696V228.188C199.201 228.795 198.529 229.098 197.68 229.098C197.101 229.098 196.634 228.925 196.28 228.58C195.925 228.225 195.748 227.749 195.748 227.152C195.748 226.536 195.967 226.051 196.406 225.696C196.844 225.332 197.418 225.15 198.128 225.15C198.79 225.15 199.313 225.285 199.696 225.556C199.696 224.847 199.598 224.338 199.402 224.03C199.206 223.722 198.828 223.568 198.268 223.568C197.698 223.568 197.12 223.722 196.532 224.03ZM198.072 228.09C198.697 228.09 199.238 227.819 199.696 227.278V226.48C199.304 226.2 198.832 226.06 198.282 226.06C197.899 226.06 197.577 226.153 197.316 226.34C197.064 226.517 196.938 226.769 196.938 227.096C196.938 227.404 197.036 227.647 197.232 227.824C197.437 228.001 197.717 228.09 198.072 228.09ZM203.825 229H202.635V222.7H203.825V225.22H205.197C205.328 224.417 205.678 223.773 206.247 223.288C206.826 222.803 207.535 222.56 208.375 222.56C209.364 222.56 210.158 222.873 210.755 223.498C211.362 224.123 211.665 224.907 211.665 225.85C211.665 226.793 211.357 227.581 210.741 228.216C210.134 228.832 209.346 229.14 208.375 229.14C207.488 229.14 206.76 228.883 206.191 228.37C205.622 227.857 205.286 227.18 205.183 226.34H203.825V229ZM206.975 224.282C206.602 224.683 206.415 225.206 206.415 225.85C206.415 226.494 206.602 227.017 206.975 227.418C207.348 227.819 207.829 228.02 208.417 228.02C209.005 228.02 209.481 227.824 209.845 227.432C210.218 227.031 210.405 226.503 210.405 225.85C210.405 225.206 210.223 224.683 209.859 224.282C209.495 223.881 209.014 223.68 208.417 223.68C207.829 223.68 207.348 223.881 206.975 224.282ZM221.252 229H213.272V222.7H214.392V227.95H216.702V222.7H217.822V227.95H220.132V222.7H221.252V227.95H222.302V230.54H221.252V229ZM228.286 224.31L224.646 229H223.526V222.7H224.646V227.39L228.286 222.7H229.406V229H228.286V224.31ZM236.412 227.432L236.762 228.314C236.155 228.865 235.366 229.14 234.396 229.14C233.369 229.14 232.552 228.841 231.946 228.244C231.33 227.647 231.022 226.849 231.022 225.85C231.022 224.907 231.311 224.123 231.89 223.498C232.459 222.873 233.252 222.56 234.27 222.56C235.11 222.56 235.805 222.831 236.356 223.372C236.916 223.904 237.196 224.595 237.196 225.444C237.196 225.715 237.172 225.967 237.126 226.2H232.282C232.328 226.788 232.548 227.25 232.94 227.586C233.341 227.922 233.854 228.09 234.48 228.09C235.301 228.09 235.945 227.871 236.412 227.432ZM234.214 223.61C233.663 223.61 233.206 223.764 232.842 224.072C232.487 224.38 232.277 224.786 232.212 225.29H236.034C236.006 224.767 235.828 224.357 235.502 224.058C235.184 223.759 234.755 223.61 234.214 223.61ZM156.852 243.278L157.384 244.09C156.843 244.79 156.035 245.14 154.962 245.14C153.954 245.14 153.137 244.841 152.512 244.244C151.896 243.647 151.588 242.849 151.588 241.85C151.588 240.926 151.891 240.147 152.498 239.512C153.105 238.877 153.865 238.56 154.78 238.56C155.881 238.56 156.707 238.835 157.258 239.386L156.74 240.268C156.255 239.829 155.653 239.61 154.934 239.61C154.346 239.61 153.837 239.825 153.408 240.254C152.988 240.674 152.778 241.206 152.778 241.85C152.778 242.531 152.993 243.073 153.422 243.474C153.861 243.885 154.402 244.09 155.046 244.09C155.774 244.09 156.376 243.819 156.852 243.278ZM159.006 244.216C158.39 243.581 158.082 242.793 158.082 241.85C158.082 240.898 158.39 240.114 159.006 239.498C159.631 238.873 160.443 238.56 161.442 238.56C162.441 238.56 163.248 238.873 163.864 239.498C164.489 240.114 164.802 240.898 164.802 241.85C164.802 242.802 164.489 243.591 163.864 244.216C163.248 244.832 162.441 245.14 161.442 245.14C160.453 245.14 159.641 244.832 159.006 244.216ZM159.888 240.24C159.477 240.651 159.272 241.187 159.272 241.85C159.272 242.513 159.473 243.049 159.874 243.46C160.285 243.88 160.807 244.09 161.442 244.09C162.077 244.09 162.595 243.885 162.996 243.474C163.407 243.054 163.612 242.513 163.612 241.85C163.612 241.206 163.407 240.669 162.996 240.24C162.595 239.82 162.077 239.61 161.442 239.61C160.807 239.61 160.289 239.82 159.888 240.24ZM171.262 243.278L171.794 244.09C171.253 244.79 170.445 245.14 169.372 245.14C168.364 245.14 167.547 244.841 166.922 244.244C166.306 243.647 165.998 242.849 165.998 241.85C165.998 240.926 166.301 240.147 166.908 239.512C167.515 238.877 168.275 238.56 169.19 238.56C170.291 238.56 171.117 238.835 171.668 239.386L171.15 240.268C170.665 239.829 170.063 239.61 169.344 239.61C168.756 239.61 168.247 239.825 167.818 240.254C167.398 240.674 167.188 241.206 167.188 241.85C167.188 242.531 167.403 243.073 167.832 243.474C168.271 243.885 168.812 244.09 169.456 244.09C170.184 244.09 170.786 243.819 171.262 243.278ZM177.583 238.7H178.857L176.337 245C175.88 246.111 175.483 246.848 175.147 247.212C174.792 247.604 174.386 247.8 173.929 247.8C173.518 247.8 173.122 247.669 172.739 247.408L173.103 246.554C173.402 246.694 173.635 246.764 173.803 246.764C174.064 246.764 174.298 246.652 174.503 246.428C174.718 246.204 174.932 245.84 175.147 245.336L175.287 245L172.263 238.7H173.607L175.455 242.704C175.492 242.769 175.618 243.087 175.833 243.656C175.917 243.348 176.015 243.026 176.127 242.69L177.583 238.7ZM179.739 246.54H178.689V243.95H179.473C179.706 243.661 179.911 243.194 180.089 242.55C180.266 241.897 180.383 241.169 180.439 240.366L180.537 238.7H184.835V243.95H185.885V246.54H184.835V245H179.739V246.54ZM181.587 239.75L181.517 240.8C181.461 241.5 181.349 242.139 181.181 242.718C181.013 243.297 180.84 243.707 180.663 243.95H183.715V239.75H181.587ZM195.008 240.31L191.368 245H190.248V238.7H191.368V243.39L195.008 238.7H196.128V245H195.008V240.31ZM200.25 245.14C199.774 245.14 199.27 245.061 198.738 244.902C198.225 244.734 197.861 244.529 197.646 244.286L198.22 243.446C198.472 243.651 198.771 243.819 199.116 243.95C199.471 244.071 199.793 244.132 200.082 244.132C200.568 244.132 200.964 244.039 201.272 243.852C201.58 243.656 201.734 243.404 201.734 243.096C201.734 242.835 201.622 242.634 201.398 242.494C201.184 242.354 200.885 242.284 200.502 242.284H199.438V241.374H200.432C200.75 241.374 201.011 241.29 201.216 241.122C201.422 240.945 201.524 240.73 201.524 240.478C201.524 240.198 201.403 239.979 201.16 239.82C200.918 239.652 200.591 239.568 200.18 239.568C199.518 239.568 198.888 239.801 198.29 240.268L197.856 239.4C198.108 239.139 198.458 238.933 198.906 238.784C199.364 238.635 199.844 238.56 200.348 238.56C201.095 238.56 201.674 238.709 202.084 239.008C202.504 239.307 202.714 239.722 202.714 240.254C202.714 240.982 202.346 241.477 201.608 241.738V241.766C202.019 241.813 202.341 241.976 202.574 242.256C202.808 242.527 202.924 242.858 202.924 243.25C202.924 243.829 202.677 244.291 202.182 244.636C201.697 244.972 201.053 245.14 200.25 245.14ZM210.371 245H209.251V242.34H205.751V245H204.631V238.7H205.751V241.29H209.251V238.7H210.371V245ZM216.849 238.7H218.123L215.603 245C215.145 246.111 214.749 246.848 214.413 247.212C214.058 247.604 213.652 247.8 213.195 247.8C212.784 247.8 212.387 247.669 212.005 247.408L212.369 246.554C212.667 246.694 212.901 246.764 213.069 246.764C213.33 246.764 213.563 246.652 213.769 246.428C213.983 246.204 214.198 245.84 214.413 245.336L214.553 245L211.529 238.7H212.873L214.721 242.704C214.758 242.769 214.884 243.087 215.099 243.656C215.183 243.348 215.281 243.026 215.393 242.69L216.849 238.7ZM220.909 239.82H218.599V238.7H224.339V239.82H222.029V245H220.909V239.82ZM226.683 247.8H225.563V238.7H226.683V239.442C226.907 239.181 227.215 238.971 227.607 238.812C227.999 238.644 228.405 238.56 228.825 238.56C229.721 238.56 230.425 238.859 230.939 239.456C231.471 240.044 231.737 240.809 231.737 241.752C231.737 242.713 231.433 243.521 230.827 244.174C230.229 244.818 229.441 245.14 228.461 245.14C227.705 245.14 227.112 244.995 226.683 244.706V247.8ZM228.503 239.61C227.756 239.61 227.149 239.899 226.683 240.478V243.6C227.177 243.927 227.737 244.09 228.363 244.09C229.025 244.09 229.553 243.88 229.945 243.46C230.346 243.031 230.547 242.475 230.547 241.794C230.547 241.131 230.365 240.604 230.001 240.212C229.637 239.811 229.137 239.61 228.503 239.61ZM238.102 240.31L234.462 245H233.342V238.7H234.462V243.39L238.102 238.7H239.222V245H238.102V240.31Z" fill="#1E76E2"/>
<path d="M2 290V328.987H407C423.247 326.962 427.493 303.165 430 291.013L2 290Z" fill="url(#paint0_linear_2068_27824)"/>
<rect x="145" y="274" width="70" height="21" rx="6" fill="url(#paint1_linear_2068_27824)"/>
<rect x="1" y="274" width="70" height="21" rx="6" fill="url(#paint2_linear_2068_27824)"/>
<rect x="217" y="274" width="70" height="21" rx="6" fill="#D70A42"/>
<rect x="217" y="274" width="70" height="21" rx="6" fill="url(#paint3_linear_2068_27824)"/>
<rect x="73" y="274" width="70" height="21" rx="6" fill="#D70A42"/>
<rect x="73" y="274" width="70" height="21" rx="6" fill="url(#paint4_linear_2068_27824)"/>
<rect x="289" y="274" width="70" height="21" rx="6" fill="#D70A42"/>
<rect x="289" y="274" width="70" height="21" rx="6" fill="url(#paint5_linear_2068_27824)"/>
<rect x="361" y="274" width="70" height="21" rx="6" fill="#D70A42"/>
<rect x="361" y="274" width="70" height="21" rx="6" fill="url(#paint6_linear_2068_27824)"/>
<path fill-rule="evenodd" clip-rule="evenodd" d="M0 26C0 24.8954 0.89543 24 2 24H405.5C407.975 24 410.045 24.0275 411.765 24.2882C413.543 24.5575 415.084 25.0927 416.452 26.1901C417.781 27.2566 418.786 28.7281 419.736 30.5657C420.685 32.4002 421.663 34.7715 422.857 37.7572C424.433 41.6961 427.649 53.3573 430.994 70.4597C434.351 87.6195 437.862 110.381 439.993 136.587C444.252 188.947 443.015 255.175 423.947 317.969C423.1 322.508 418.446 331.058 406.574 331.498C395.722 331.9 84.6183 331.666 1.99597 331.499C0.891404 331.497 -0.00222683 330.6 0 329.495C0.00222695 328.391 0.899461 327.497 2.00403 327.499C84.715 327.666 395.678 327.899 406.426 327.501C416.042 327.144 419.48 320.319 420.03 317.156C420.044 317.076 420.063 316.996 420.086 316.917C438.987 254.745 440.245 189.021 436.007 136.912C433.888 110.868 430.399 88.2551 427.068 71.2276C423.726 54.1426 420.567 42.8039 419.143 39.2428C417.937 36.2285 417.028 34.0373 416.183 32.403C415.339 30.7719 414.644 29.8684 413.948 29.3099C413.291 28.7823 412.482 28.4425 411.166 28.2431C409.793 28.035 408.025 28 405.5 28H2C0.89543 28 0 27.1046 0 26Z" fill="#D70A42"/>
<path d="M340.57 3.32H337.14V2.2H345.19V3.32H341.76V12H340.57V3.32ZM345.732 14.8H344.612V5.7H345.732V6.442C345.956 6.18067 346.264 5.97067 346.656 5.812C347.048 5.644 347.454 5.56 347.874 5.56C348.77 5.56 349.474 5.85867 349.988 6.456C350.52 7.044 350.786 7.80933 350.786 8.752C350.786 9.71333 350.482 10.5207 349.876 11.174C349.278 11.818 348.49 12.14 347.51 12.14C346.754 12.14 346.161 11.9953 345.732 11.706V14.8ZM347.552 6.61C346.805 6.61 346.198 6.89933 345.732 7.478V10.6C346.226 10.9267 346.786 11.09 347.412 11.09C348.074 11.09 348.602 10.88 348.994 10.46C349.395 10.0307 349.596 9.47533 349.596 8.794C349.596 8.13133 349.414 7.604 349.05 7.212C348.686 6.81067 348.186 6.61 347.552 6.61ZM352.895 11.216C352.279 10.5813 351.971 9.79267 351.971 8.85C351.971 7.898 352.279 7.114 352.895 6.498C353.52 5.87267 354.332 5.56 355.331 5.56C356.329 5.56 357.137 5.87267 357.753 6.498C358.378 7.114 358.691 7.898 358.691 8.85C358.691 9.802 358.378 10.5907 357.753 11.216C357.137 11.832 356.329 12.14 355.331 12.14C354.341 12.14 353.529 11.832 352.895 11.216ZM353.777 7.24C353.366 7.65067 353.161 8.18733 353.161 8.85C353.161 9.51267 353.361 10.0493 353.763 10.46C354.173 10.88 354.696 11.09 355.331 11.09C355.965 11.09 356.483 10.8847 356.885 10.474C357.295 10.054 357.501 9.51267 357.501 8.85C357.501 8.206 357.295 7.66933 356.885 7.24C356.483 6.82 355.965 6.61 355.331 6.61C354.696 6.61 354.178 6.82 353.777 7.24ZM361.427 12H360.307V5.7H361.329L363.751 8.822L366.047 5.7H367.041V12H365.921V7.408L363.737 10.334H363.695L361.427 7.408V12ZM373.943 2.06L374.545 2.942C374.321 3.25 374.05 3.46 373.733 3.572C373.387 3.69333 372.995 3.78667 372.557 3.852C372.127 3.91733 371.721 4.034 371.339 4.202C370.387 4.64067 369.855 5.65333 369.743 7.24H369.771C369.976 6.80133 370.307 6.44667 370.765 6.176C371.231 5.90533 371.731 5.77 372.263 5.77C373.159 5.77 373.868 6.05467 374.391 6.624C374.923 7.19333 375.189 7.954 375.189 8.906C375.189 9.802 374.885 10.5673 374.279 11.202C373.681 11.8273 372.907 12.14 371.955 12.14C370.928 12.14 370.116 11.79 369.519 11.09C368.921 10.3993 368.623 9.44267 368.623 8.22C368.623 5.49467 369.402 3.80067 370.961 3.138C371.315 2.97933 371.726 2.86267 372.193 2.788C372.557 2.72267 372.818 2.67133 372.977 2.634C373.135 2.59667 373.303 2.53133 373.481 2.438C373.667 2.34467 373.821 2.21867 373.943 2.06ZM369.812 8.43C369.812 9.23267 370.009 9.87667 370.401 10.362C370.793 10.8473 371.301 11.09 371.927 11.09C372.533 11.09 373.028 10.8847 373.411 10.474C373.803 10.0727 373.999 9.56867 373.999 8.962C373.999 8.318 373.817 7.8 373.453 7.408C373.098 7.016 372.608 6.82 371.983 6.82C371.413 6.82 370.937 6.97867 370.555 7.296C370.153 7.62267 369.906 8.00067 369.812 8.43ZM377.299 11.216C376.683 10.5813 376.375 9.79267 376.375 8.85C376.375 7.898 376.683 7.114 377.299 6.498C377.924 5.87267 378.736 5.56 379.735 5.56C380.734 5.56 381.541 5.87267 382.157 6.498C382.782 7.114 383.095 7.898 383.095 8.85C383.095 9.802 382.782 10.5907 382.157 11.216C381.541 11.832 380.734 12.14 379.735 12.14C378.746 12.14 377.934 11.832 377.299 11.216ZM378.181 7.24C377.77 7.65067 377.565 8.18733 377.565 8.85C377.565 9.51267 377.766 10.0493 378.167 10.46C378.578 10.88 379.1 11.09 379.735 11.09C380.37 11.09 380.888 10.8847 381.289 10.474C381.7 10.054 381.905 9.51267 381.905 8.85C381.905 8.206 381.7 7.66933 381.289 7.24C380.888 6.82 380.37 6.61 379.735 6.61C379.1 6.61 378.582 6.82 378.181 7.24ZM390.311 12H384.711V5.7H385.831V10.95H389.191V5.7H390.311V10.95H391.361V13.54H390.311V12ZM397.332 7.31L393.692 12H392.572V5.7H393.692V10.39L397.332 5.7H398.452V12H397.332V7.31ZM402 6.82H399.69V5.7H405.43V6.82H403.12V12H402V6.82Z" fill="#1E76E2"/>
<path d="M158.56 7.562H153.702V6.442H158.546C158.425 5.434 158.009 4.64067 157.3 4.062C156.591 3.474 155.685 3.18 154.584 3.18C153.613 3.18 152.787 3.446 152.106 3.978L151.644 3.082C152.409 2.40067 153.483 2.06 154.864 2.06C156.32 2.06 157.505 2.51733 158.42 3.432C159.325 4.33733 159.778 5.55067 159.778 7.072C159.778 8.57467 159.321 9.79733 158.406 10.74C157.501 11.6733 156.283 12.14 154.752 12.14C153.427 12.14 152.339 11.7993 151.49 11.118L152.008 10.124C152.801 10.7213 153.707 11.02 154.724 11.02C155.769 11.02 156.642 10.712 157.342 10.096C158.061 9.46133 158.467 8.61667 158.56 7.562ZM162.603 14.8H161.483V5.7H162.603V6.442C162.827 6.18067 163.135 5.97067 163.527 5.812C163.919 5.644 164.325 5.56 164.745 5.56C165.641 5.56 166.345 5.85867 166.859 6.456C167.391 7.044 167.657 7.80933 167.657 8.752C167.657 9.71333 167.353 10.5207 166.747 11.174C166.149 11.818 165.361 12.14 164.381 12.14C163.625 12.14 163.032 11.9953 162.603 11.706V14.8ZM164.423 6.61C163.676 6.61 163.069 6.89933 162.603 7.478V10.6C163.097 10.9267 163.657 11.09 164.283 11.09C164.945 11.09 165.473 10.88 165.865 10.46C166.266 10.0307 166.467 9.47533 166.467 8.794C166.467 8.13133 166.285 7.604 165.921 7.212C165.557 6.81067 165.057 6.61 164.423 6.61ZM174.022 7.31L170.382 12H169.262V5.7H170.382V10.39L174.022 5.7H175.142V12H174.022V7.31ZM178.69 6.82H176.38V5.7H182.12V6.82H179.81V12H178.69V6.82ZM184.464 14.8H183.344V5.7H184.464V6.442C184.688 6.18067 184.996 5.97067 185.388 5.812C185.78 5.644 186.186 5.56 186.606 5.56C187.502 5.56 188.207 5.85867 188.72 6.456C189.252 7.044 189.518 7.80933 189.518 8.752C189.518 9.71333 189.215 10.5207 188.608 11.174C188.011 11.818 187.222 12.14 186.242 12.14C185.486 12.14 184.893 11.9953 184.464 11.706V14.8ZM186.284 6.61C185.537 6.61 184.931 6.89933 184.464 7.478V10.6C184.959 10.9267 185.519 11.09 186.144 11.09C186.807 11.09 187.334 10.88 187.726 10.46C188.127 10.0307 188.328 9.47533 188.328 8.794C188.328 8.13133 188.146 7.604 187.782 7.212C187.418 6.81067 186.919 6.61 186.284 6.61ZM191.627 11.216C191.011 10.5813 190.703 9.79267 190.703 8.85C190.703 7.898 191.011 7.114 191.627 6.498C192.253 5.87267 193.065 5.56 194.063 5.56C195.062 5.56 195.869 5.87267 196.485 6.498C197.111 7.114 197.423 7.898 197.423 8.85C197.423 9.802 197.111 10.5907 196.485 11.216C195.869 11.832 195.062 12.14 194.063 12.14C193.074 12.14 192.262 11.832 191.627 11.216ZM192.509 7.24C192.099 7.65067 191.893 8.18733 191.893 8.85C191.893 9.51267 192.094 10.0493 192.495 10.46C192.906 10.88 193.429 11.09 194.063 11.09C194.698 11.09 195.216 10.8847 195.617 10.474C196.028 10.054 196.233 9.51267 196.233 8.85C196.233 8.206 196.028 7.66933 195.617 7.24C195.216 6.82 194.698 6.61 194.063 6.61C193.429 6.61 192.911 6.82 192.509 7.24ZM204.639 12H199.039V5.7H200.159V10.95H203.519V5.7H204.639V10.95H205.689V13.54H204.639V12ZM211.661 7.31L208.021 12H206.901V5.7H208.021V10.39L211.661 5.7H212.781V12H211.661V7.31ZM216.329 6.82H214.019V5.7H219.759V6.82H217.449V12H216.329V6.82Z" fill="#1E76E2"/>
<path d="M218.659 41.8375C211.159 43.8375 206.159 46.3375 171.659 67.3375C118.223 99.8636 180.008 154.001 226.456 135C265.252 119.129 274.659 84.3376 271.159 67.3375C264.159 29.3375 226.159 39.8375 218.659 41.8375Z" fill="url(#paint7_linear_2068_27824)"/>
<path d="M187.281 74.444C169.681 82.844 173.947 98.6107 178.281 105.444C199.91 139.552 251.013 108.218 249.281 74.444C247.56 40.89 200.726 68.0269 187.281 74.444Z" fill="url(#paint8_radial_2068_27824)"/>
<path d="M342.334 178.958C346.617 182.088 350.092 183.673 376.068 193.005C416.301 207.458 418.569 151.366 388.527 134.823C363.435 121.005 340.896 130.937 333.358 140.095C316.156 160.129 338.051 175.828 342.334 178.958Z" fill="url(#paint9_linear_2068_27824)"/>
<path d="M373.143 181.647C385.164 187.401 391.717 178.364 393.49 173.127C402.343 146.985 363.746 133.26 346.53 148.678C329.426 163.996 363.959 177.252 373.143 181.647Z" fill="url(#paint10_radial_2068_27824)"/>
<path d="M77.3348 181.958C81.6176 185.088 85.0933 186.673 111.069 196.005C151.302 210.458 153.57 154.366 123.528 137.823C98.4355 124.005 75.897 133.937 68.3594 143.095C51.1573 163.129 73.052 178.828 77.3348 181.958Z" fill="url(#paint11_linear_2068_27824)"/>
<path d="M108.144 184.647C120.165 190.401 126.718 181.364 128.491 176.127C137.344 149.985 98.747 136.26 81.5307 151.678C64.4267 166.996 98.96 180.252 108.144 184.647Z" fill="url(#paint12_radial_2068_27824)"/>
<path d="M23.4386 90.1304C26.5077 92.3732 28.9984 93.5095 47.6125 100.196C76.4432 110.554 78.0683 70.358 56.5405 58.5033C38.5593 48.6016 22.4083 55.7186 17.0069 62.2814C4.67997 76.6373 20.3696 87.8877 23.4386 90.1304Z" fill="url(#paint13_linear_2068_27824)"/>
<path d="M45.5167 92.057C54.1312 96.1798 58.8267 89.7043 60.0977 85.9512C66.4417 67.2178 38.783 57.3829 26.4459 68.4316C14.1892 79.4083 38.9357 88.9075 45.5167 92.057Z" fill="url(#paint14_radial_2068_27824)"/>
<g filter="url(#filter0_d_2068_27824)">
<g filter="url(#filter1_f_2068_27824)">
<path d="M227 135.851C229.487 140.215 231.622 142.237 235.762 142.231C238.011 142.228 250 139 242 137C232.804 134.7 224.771 124.01 227 135.851Z" fill="#000673"/>
</g>
<g filter="url(#filter2_d_2068_27824)">
<path d="M226 128.922C226 135.507 231.373 140.845 238 140.845C244.627 140.845 250 135.507 250 128.922C250 122.338 244.627 117 238 117C231.373 117 226 122.338 226 128.922Z" fill="#1E76E2"/>
<path d="M226 128.922C226 135.507 231.373 140.845 238 140.845C244.627 140.845 250 135.507 250 128.922C250 122.338 244.627 117 238 117C231.373 117 226 122.338 226 128.922Z" fill="url(#paint15_linear_2068_27824)"/>
</g>
</g>
<g filter="url(#filter3_d_2068_27824)">
<g filter="url(#filter4_f_2068_27824)">
<path d="M280 90.8513C282.487 95.2146 284.622 97.2374 288.762 97.231C291.011 97.2275 303 94 295 91.9996C285.804 89.7002 277.771 79.0098 280 90.8513Z" fill="#000673"/>
</g>
<g filter="url(#filter5_d_2068_27824)">
<path d="M279 83.9225C279 90.5071 284.373 95.845 291 95.845C297.627 95.845 303 90.5071 303 83.9225C303 77.3379 297.627 72 291 72C284.373 72 279 77.3379 279 83.9225Z" fill="#1E76E2"/>
<path d="M279 83.9225C279 90.5071 284.373 95.845 291 95.845C297.627 95.845 303 90.5071 303 83.9225C303 77.3379 297.627 72 291 72C284.373 72 279 77.3379 279 83.9225Z" fill="url(#paint16_linear_2068_27824)"/>
</g>
</g>
<g filter="url(#filter6_d_2068_27824)">
<g filter="url(#filter7_f_2068_27824)">
<path d="M42.0008 90.8513C44.4882 95.2146 46.623 97.2374 50.7629 97.231C53.0121 97.2275 65.001 94 57.0009 91.9996C47.8052 89.7002 39.7715 79.0098 42.0008 90.8513Z" fill="#000673"/>
</g>
<g filter="url(#filter8_d_2068_27824)">
<path d="M41.001 83.9225C41.001 90.5071 46.3736 95.845 53.001 95.845C59.6284 95.845 65.001 90.5071 65.001 83.9225C65.001 77.3379 59.6284 72 53.001 72C46.3736 72 41.001 77.3379 41.001 83.9225Z" fill="#1E76E2"/>
<path d="M41.001 83.9225C41.001 90.5071 46.3736 95.845 53.001 95.845C59.6284 95.845 65.001 90.5071 65.001 83.9225C65.001 77.3379 59.6284 72 53.001 72C46.3736 72 41.001 77.3379 41.001 83.9225Z" fill="url(#paint17_linear_2068_27824)"/>
</g>
</g>
<g filter="url(#filter9_d_2068_27824)">
<g filter="url(#filter10_f_2068_27824)">
<path d="M335 73.8513C337.487 78.2146 339.622 80.2374 343.762 80.231C346.011 80.2275 358 77 350 74.9996C340.804 72.7002 332.771 62.0098 335 73.8513Z" fill="#000673"/>
</g>
<g filter="url(#filter11_d_2068_27824)">
<path d="M334 66.9225C334 73.5071 339.373 78.845 346 78.845C352.627 78.845 358 73.5071 358 66.9225C358 60.3379 352.627 55 346 55C339.373 55 334 60.3379 334 66.9225Z" fill="#1E76E2"/>
<path d="M334 66.9225C334 73.5071 339.373 78.845 346 78.845C352.627 78.845 358 73.5071 358 66.9225C358 60.3379 352.627 55 346 55C339.373 55 334 60.3379 334 66.9225Z" fill="url(#paint18_linear_2068_27824)"/>
</g>
</g>
<g filter="url(#filter12_d_2068_27824)">
<g filter="url(#filter13_f_2068_27824)">
<path d="M97.0008 73.8513C99.4882 78.2146 101.623 80.2374 105.763 80.231C108.012 80.2275 120.001 77 112.001 74.9996C102.805 72.7002 94.7715 62.0098 97.0008 73.8513Z" fill="#000673"/>
</g>
<g filter="url(#filter14_d_2068_27824)">
<path d="M96.001 66.9225C96.001 73.5071 101.374 78.845 108.001 78.845C114.628 78.845 120.001 73.5071 120.001 66.9225C120.001 60.3379 114.628 55 108.001 55C101.374 55 96.001 60.3379 96.001 66.9225Z" fill="#1E76E2"/>
<path d="M96.001 66.9225C96.001 73.5071 101.374 78.845 108.001 78.845C114.628 78.845 120.001 73.5071 120.001 66.9225C120.001 60.3379 114.628 55 108.001 55C101.374 55 96.001 60.3379 96.001 66.9225Z" fill="url(#paint19_linear_2068_27824)"/>
</g>
</g>
<g filter="url(#filter15_d_2068_27824)">
<g filter="url(#filter16_f_2068_27824)">
<path d="M389 119.851C391.487 124.215 393.622 126.237 397.762 126.231C400.011 126.228 412 123 404 121C394.804 118.7 386.771 108.01 389 119.851Z" fill="#000673"/>
</g>
<g filter="url(#filter17_d_2068_27824)">
<path d="M388 112.922C388 119.507 393.373 124.845 400 124.845C406.627 124.845 412 119.507 412 112.922C412 106.338 406.627 101 400 101C393.373 101 388 106.338 388 112.922Z" fill="#1E76E2"/>
<path d="M388 112.922C388 119.507 393.373 124.845 400 124.845C406.627 124.845 412 119.507 412 112.922C412 106.338 406.627 101 400 101C393.373 101 388 106.338 388 112.922Z" fill="url(#paint20_linear_2068_27824)"/>
</g>
</g>
<g filter="url(#filter18_d_2068_27824)">
<g filter="url(#filter19_f_2068_27824)">
<path d="M151.001 119.851C153.488 124.215 155.623 126.237 159.763 126.231C162.012 126.228 174.001 123 166.001 121C156.805 118.7 148.772 108.01 151.001 119.851Z" fill="#000673"/>
</g>
<g filter="url(#filter20_d_2068_27824)">
<path d="M150.001 112.922C150.001 119.507 155.374 124.845 162.001 124.845C168.628 124.845 174.001 119.507 174.001 112.922C174.001 106.338 168.628 101 162.001 101C155.374 101 150.001 106.338 150.001 112.922Z" fill="#1E76E2"/>
<path d="M150.001 112.922C150.001 119.507 155.374 124.845 162.001 124.845C168.628 124.845 174.001 119.507 174.001 112.922C174.001 106.338 168.628 101 162.001 101C155.374 101 150.001 106.338 150.001 112.922Z" fill="url(#paint21_linear_2068_27824)"/>
</g>
</g>
<g filter="url(#filter21_d_2068_27824)">
<g filter="url(#filter22_f_2068_27824)">
<path d="M308 132.851C310.487 137.215 312.622 139.237 316.762 139.231C319.011 139.228 331 136 323 134C313.804 131.7 305.771 121.01 308 132.851Z" fill="#000673"/>
</g>
<g filter="url(#filter23_d_2068_27824)">
<path d="M307 125.922C307 132.507 312.373 137.845 319 137.845C325.627 137.845 331 132.507 331 125.922C331 119.338 325.627 114 319 114C312.373 114 307 119.338 307 125.922Z" fill="#1E76E2"/>
<path d="M307 125.922C307 132.507 312.373 137.845 319 137.845C325.627 137.845 331 132.507 331 125.922C331 119.338 325.627 114 319 114C312.373 114 307 119.338 307 125.922Z" fill="url(#paint22_linear_2068_27824)"/>
</g>
</g>
<g filter="url(#filter24_d_2068_27824)">
<g filter="url(#filter25_f_2068_27824)">
<path d="M70.0008 132.851C72.4882 137.215 74.623 139.237 78.7629 139.231C81.0121 139.228 93.001 136 85.0009 134C75.8052 131.7 67.7715 121.01 70.0008 132.851Z" fill="#000673"/>
</g>
<g filter="url(#filter26_d_2068_27824)">
<path d="M69.001 125.922C69.001 132.507 74.3736 137.845 81.001 137.845C87.6284 137.845 93.001 132.507 93.001 125.922C93.001 119.338 87.6284 114 81.001 114C74.3736 114 69.001 119.338 69.001 125.922Z" fill="#1E76E2"/>
<path d="M69.001 125.922C69.001 132.507 74.3736 137.845 81.001 137.845C87.6284 137.845 93.001 132.507 93.001 125.922C93.001 119.338 87.6284 114 81.001 114C74.3736 114 69.001 119.338 69.001 125.922Z" fill="url(#paint23_linear_2068_27824)"/>
</g>
</g>
<g filter="url(#filter27_d_2068_27824)">
<g filter="url(#filter28_f_2068_27824)">
<path d="M280 172.851C282.487 177.215 284.622 179.237 288.762 179.231C291.011 179.228 303 176 295 174C285.804 171.7 277.771 161.01 280 172.851Z" fill="#000673"/>
</g>
<g filter="url(#filter29_d_2068_27824)">
<path d="M279 165.922C279 172.507 284.373 177.845 291 177.845C297.627 177.845 303 172.507 303 165.922C303 159.338 297.627 154 291 154C284.373 154 279 159.338 279 165.922Z" fill="#1E76E2"/>
<path d="M279 165.922C279 172.507 284.373 177.845 291 177.845C297.627 177.845 303 172.507 303 165.922C303 159.338 297.627 154 291 154C284.373 154 279 159.338 279 165.922Z" fill="url(#paint24_linear_2068_27824)"/>
</g>
</g>
<g filter="url(#filter30_d_2068_27824)">
<g filter="url(#filter31_f_2068_27824)">
<path d="M42.0008 172.851C44.4882 177.215 46.623 179.237 50.7629 179.231C53.0121 179.228 65.001 176 57.0009 174C47.8052 171.7 39.7715 161.01 42.0008 172.851Z" fill="#000673"/>
</g>
<g filter="url(#filter32_d_2068_27824)">
<path d="M41.001 165.922C41.001 172.507 46.3736 177.845 53.001 177.845C59.6284 177.845 65.001 172.507 65.001 165.922C65.001 159.338 59.6284 154 53.001 154C46.3736 154 41.001 159.338 41.001 165.922Z" fill="#1E76E2"/>
<path d="M41.001 165.922C41.001 172.507 46.3736 177.845 53.001 177.845C59.6284 177.845 65.001 172.507 65.001 165.922C65.001 159.338 59.6284 154 53.001 154C46.3736 154 41.001 159.338 41.001 165.922Z" fill="url(#paint25_linear_2068_27824)"/>
</g>
</g>
<g filter="url(#filter33_d_2068_27824)">
<g filter="url(#filter34_f_2068_27824)">
<path d="M266 225.851C268.487 230.215 270.622 232.237 274.762 232.231C277.011 232.228 289 229 281 227C271.804 224.7 263.771 214.01 266 225.851Z" fill="#000673"/>
</g>
<g filter="url(#filter35_d_2068_27824)">
<path d="M265 218.922C265 225.507 270.373 230.845 277 230.845C283.627 230.845 289 225.507 289 218.922C289 212.338 283.627 207 277 207C270.373 207 265 212.338 265 218.922Z" fill="#1E76E2"/>
<path d="M265 218.922C265 225.507 270.373 230.845 277 230.845C283.627 230.845 289 225.507 289 218.922C289 212.338 283.627 207 277 207C270.373 207 265 212.338 265 218.922Z" fill="url(#paint26_linear_2068_27824)"/>
</g>
</g>
<g filter="url(#filter36_d_2068_27824)">
<g filter="url(#filter37_f_2068_27824)">
<path d="M28.0008 225.851C30.4882 230.215 32.623 232.237 36.7629 232.231C39.0121 232.228 51.001 229 43.0009 227C33.8052 224.7 25.7715 214.01 28.0008 225.851Z" fill="#000673"/>
</g>
<g filter="url(#filter38_d_2068_27824)">
<path d="M27.001 218.922C27.001 225.507 32.3736 230.845 39.001 230.845C45.6284 230.845 51.001 225.507 51.001 218.922C51.001 212.338 45.6284 207 39.001 207C32.3736 207 27.001 212.338 27.001 218.922Z" fill="#1E76E2"/>
<path d="M27.001 218.922C27.001 225.507 32.3736 230.845 39.001 230.845C45.6284 230.845 51.001 225.507 51.001 218.922C51.001 212.338 45.6284 207 39.001 207C32.3736 207 27.001 212.338 27.001 218.922Z" fill="url(#paint27_linear_2068_27824)"/>
</g>
</g>
<g filter="url(#filter39_d_2068_27824)">
<g filter="url(#filter40_f_2068_27824)">
<path d="M318 250.851C320.487 255.215 322.622 257.237 326.762 257.231C329.011 257.228 341 254 333 252C323.804 249.7 315.771 239.01 318 250.851Z" fill="#000673"/>
</g>
<g filter="url(#filter41_d_2068_27824)">
<path d="M317 243.922C317 250.507 322.373 255.845 329 255.845C335.627 255.845 341 250.507 341 243.922C341 237.338 335.627 232 329 232C322.373 232 317 237.338 317 243.922Z" fill="#1E76E2"/>
<path d="M317 243.922C317 250.507 322.373 255.845 329 255.845C335.627 255.845 341 250.507 341 243.922C341 237.338 335.627 232 329 232C322.373 232 317 237.338 317 243.922Z" fill="url(#paint28_linear_2068_27824)"/>
</g>
</g>
<g filter="url(#filter42_d_2068_27824)">
<g filter="url(#filter43_f_2068_27824)">
<path d="M80.0008 250.851C82.4882 255.215 84.623 257.237 88.7629 257.231C91.0121 257.228 103.001 254 95.0009 252C85.8052 249.7 77.7715 239.01 80.0008 250.851Z" fill="#000673"/>
</g>
<g filter="url(#filter44_d_2068_27824)">
<path d="M79.001 243.922C79.001 250.507 84.3736 255.845 91.001 255.845C97.6284 255.845 103.001 250.507 103.001 243.922C103.001 237.338 97.6284 232 91.001 232C84.3736 232 79.001 237.338 79.001 243.922Z" fill="#1E76E2"/>
<path d="M79.001 243.922C79.001 250.507 84.3736 255.845 91.001 255.845C97.6284 255.845 103.001 250.507 103.001 243.922C103.001 237.338 97.6284 232 91.001 232C84.3736 232 79.001 237.338 79.001 243.922Z" fill="url(#paint29_linear_2068_27824)"/>
</g>
</g>
<g filter="url(#filter45_d_2068_27824)">
<g filter="url(#filter46_f_2068_27824)">
<path d="M332 205.851C334.487 210.215 336.622 212.237 340.762 212.231C343.011 212.228 355 209 347 207C337.804 204.7 329.771 194.01 332 205.851Z" fill="#000673"/>
</g>
<g filter="url(#filter47_d_2068_27824)">
<path d="M331 198.922C331 205.507 336.373 210.845 343 210.845C349.627 210.845 355 205.507 355 198.922C355 192.338 349.627 187 343 187C336.373 187 331 192.338 331 198.922Z" fill="#1E76E2"/>
<path d="M331 198.922C331 205.507 336.373 210.845 343 210.845C349.627 210.845 355 205.507 355 198.922C355 192.338 349.627 187 343 187C336.373 187 331 192.338 331 198.922Z" fill="url(#paint30_linear_2068_27824)"/>
</g>
</g>
<g filter="url(#filter48_d_2068_27824)">
<g filter="url(#filter49_f_2068_27824)">
<path d="M94.0008 205.851C96.4882 210.215 98.623 212.237 102.763 212.231C105.012 212.228 117.001 209 109.001 207C99.8052 204.7 91.7715 194.01 94.0008 205.851Z" fill="#000673"/>
</g>
<g filter="url(#filter50_d_2068_27824)">
<path d="M93.001 198.922C93.001 205.507 98.3736 210.845 105.001 210.845C111.628 210.845 117.001 205.507 117.001 198.922C117.001 192.338 111.628 187 105.001 187C98.3736 187 93.001 192.338 93.001 198.922Z" fill="#1E76E2"/>
<path d="M93.001 198.922C93.001 205.507 98.3736 210.845 105.001 210.845C111.628 210.845 117.001 205.507 117.001 198.922C117.001 192.338 111.628 187 105.001 187C98.3736 187 93.001 192.338 93.001 198.922Z" fill="url(#paint31_linear_2068_27824)"/>
</g>
</g>
<g filter="url(#filter51_d_2068_27824)">
<g filter="url(#filter52_f_2068_27824)">
<path d="M384 234.851C386.487 239.215 388.622 241.237 392.762 241.231C395.011 241.228 407 238 399 236C389.804 233.7 381.771 223.01 384 234.851Z" fill="#000673"/>
</g>
<g filter="url(#filter53_d_2068_27824)">
<path d="M383 227.922C383 234.507 388.373 239.845 395 239.845C401.627 239.845 407 234.507 407 227.922C407 221.338 401.627 216 395 216C388.373 216 383 221.338 383 227.922Z" fill="#1E76E2"/>
<path d="M383 227.922C383 234.507 388.373 239.845 395 239.845C401.627 239.845 407 234.507 407 227.922C407 221.338 401.627 216 395 216C388.373 216 383 221.338 383 227.922Z" fill="url(#paint32_linear_2068_27824)"/>
</g>
</g>
<g filter="url(#filter54_d_2068_27824)">
<g filter="url(#filter55_f_2068_27824)">
<path d="M170.001 180.851C172.488 185.215 174.623 187.237 178.763 187.231C181.012 187.228 193.001 184 185.001 182C175.805 179.7 167.772 169.01 170.001 180.851Z" fill="#000673"/>
</g>
<g filter="url(#filter56_d_2068_27824)">
<path d="M169.001 173.922C169.001 180.507 174.374 185.845 181.001 185.845C187.628 185.845 193.001 180.507 193.001 173.922C193.001 167.338 187.628 162 181.001 162C174.374 162 169.001 167.338 169.001 173.922Z" fill="#1E76E2"/>
<path d="M169.001 173.922C169.001 180.507 174.374 185.845 181.001 185.845C187.628 185.845 193.001 180.507 193.001 173.922C193.001 167.338 187.628 162 181.001 162C174.374 162 169.001 167.338 169.001 173.922Z" fill="url(#paint33_linear_2068_27824)"/>
</g>
</g>
<path d="M401 19V110" stroke="#1E76E2"/>
<path d="M186 19V69" stroke="#1E76E2"/>
<path d="M186 253V285" stroke="#1E76E2"/>
<defs>
<filter id="filter0_d_2068_27824" x="222" y="117" width="32" height="33.2305" filterUnits="userSpaceOnUse" color-interpolation-filters="sRGB">
<feFlood flood-opacity="0" result="BackgroundImageFix"/>
<feColorMatrix in="SourceAlpha" type="matrix" values="0 0 0 0 0 0 0 0 0 0 0 0 0 0 0 0 0 0 127 0" result="hardAlpha"/>
<feOffset dy="4"/>
<feGaussianBlur stdDeviation="2"/>
<feComposite in2="hardAlpha" operator="out"/>
<feColorMatrix type="matrix" values="0 0 0 0 0 0 0 0 0 0 0 0 0 0 0 0 0 0 0.25 0"/>
<feBlend mode="normal" in2="BackgroundImageFix" result="effect1_dropShadow_2068_27824"/>
<feBlend mode="normal" in="SourceGraphic" in2="effect1_dropShadow_2068_27824" result="shape"/>
</filter>
<filter id="filter1_f_2068_27824" x="223.633" y="127.38" width="24.0758" height="17.8414" filterUnits="userSpaceOnUse" color-interpolation-filters="sRGB">
<feFlood flood-opacity="0" result="BackgroundImageFix"/>
<feBlend mode="normal" in="SourceGraphic" in2="BackgroundImageFix" result="shape"/>
<feGaussianBlur stdDeviation="1.4955" result="effect1_foregroundBlur_2068_27824"/>
</filter>
<filter id="filter2_d_2068_27824" x="221.859" y="117" width="32.2828" height="32.1285" filterUnits="userSpaceOnUse" color-interpolation-filters="sRGB">
<feFlood flood-opacity="0" result="BackgroundImageFix"/>
<feColorMatrix in="SourceAlpha" type="matrix" values="0 0 0 0 0 0 0 0 0 0 0 0 0 0 0 0 0 0 127 0" result="hardAlpha"/>
<feOffset dy="4.14139"/>
<feGaussianBlur stdDeviation="2.07069"/>
<feComposite in2="hardAlpha" operator="out"/>
<feColorMatrix type="matrix" values="0 0 0 0 0.137255 0 0 0 0 0.266667 0 0 0 0 0.717647 0 0 0 0.2 0"/>
<feBlend mode="normal" in2="BackgroundImageFix" result="effect1_dropShadow_2068_27824"/>
<feBlend mode="normal" in="SourceGraphic" in2="effect1_dropShadow_2068_27824" result="shape"/>
</filter>
<filter id="filter3_d_2068_27824" x="275" y="72" width="32" height="33.2305" filterUnits="userSpaceOnUse" color-interpolation-filters="sRGB">
<feFlood flood-opacity="0" result="BackgroundImageFix"/>
<feColorMatrix in="SourceAlpha" type="matrix" values="0 0 0 0 0 0 0 0 0 0 0 0 0 0 0 0 0 0 127 0" result="hardAlpha"/>
<feOffset dy="4"/>
<feGaussianBlur stdDeviation="2"/>
<feComposite in2="hardAlpha" operator="out"/>
<feColorMatrix type="matrix" values="0 0 0 0 0 0 0 0 0 0 0 0 0 0 0 0 0 0 0.25 0"/>
<feBlend mode="normal" in2="BackgroundImageFix" result="effect1_dropShadow_2068_27824"/>
<feBlend mode="normal" in="SourceGraphic" in2="effect1_dropShadow_2068_27824" result="shape"/>
</filter>
<filter id="filter4_f_2068_27824" x="276.633" y="82.3801" width="24.0758" height="17.8414" filterUnits="userSpaceOnUse" color-interpolation-filters="sRGB">
<feFlood flood-opacity="0" result="BackgroundImageFix"/>
<feBlend mode="normal" in="SourceGraphic" in2="BackgroundImageFix" result="shape"/>
<feGaussianBlur stdDeviation="1.4955" result="effect1_foregroundBlur_2068_27824"/>
</filter>
<filter id="filter5_d_2068_27824" x="274.859" y="72" width="32.2828" height="32.1285" filterUnits="userSpaceOnUse" color-interpolation-filters="sRGB">
<feFlood flood-opacity="0" result="BackgroundImageFix"/>
<feColorMatrix in="SourceAlpha" type="matrix" values="0 0 0 0 0 0 0 0 0 0 0 0 0 0 0 0 0 0 127 0" result="hardAlpha"/>
<feOffset dy="4.14139"/>
<feGaussianBlur stdDeviation="2.07069"/>
<feComposite in2="hardAlpha" operator="out"/>
<feColorMatrix type="matrix" values="0 0 0 0 0.137255 0 0 0 0 0.266667 0 0 0 0 0.717647 0 0 0 0.2 0"/>
<feBlend mode="normal" in2="BackgroundImageFix" result="effect1_dropShadow_2068_27824"/>
<feBlend mode="normal" in="SourceGraphic" in2="effect1_dropShadow_2068_27824" result="shape"/>
</filter>
<filter id="filter6_d_2068_27824" x="37.001" y="72" width="32" height="33.2305" filterUnits="userSpaceOnUse" color-interpolation-filters="sRGB">
<feFlood flood-opacity="0" result="BackgroundImageFix"/>
<feColorMatrix in="SourceAlpha" type="matrix" values="0 0 0 0 0 0 0 0 0 0 0 0 0 0 0 0 0 0 127 0" result="hardAlpha"/>
<feOffset dy="4"/>
<feGaussianBlur stdDeviation="2"/>
<feComposite in2="hardAlpha" operator="out"/>
<feColorMatrix type="matrix" values="0 0 0 0 0 0 0 0 0 0 0 0 0 0 0 0 0 0 0.25 0"/>
<feBlend mode="normal" in2="BackgroundImageFix" result="effect1_dropShadow_2068_27824"/>
<feBlend mode="normal" in="SourceGraphic" in2="effect1_dropShadow_2068_27824" result="shape"/>
</filter>
<filter id="filter7_f_2068_27824" x="38.634" y="82.3801" width="24.0758" height="17.8414" filterUnits="userSpaceOnUse" color-interpolation-filters="sRGB">
<feFlood flood-opacity="0" result="BackgroundImageFix"/>
<feBlend mode="normal" in="SourceGraphic" in2="BackgroundImageFix" result="shape"/>
<feGaussianBlur stdDeviation="1.4955" result="effect1_foregroundBlur_2068_27824"/>
</filter>
<filter id="filter8_d_2068_27824" x="36.8596" y="72" width="32.2828" height="32.1285" filterUnits="userSpaceOnUse" color-interpolation-filters="sRGB">
<feFlood flood-opacity="0" result="BackgroundImageFix"/>
<feColorMatrix in="SourceAlpha" type="matrix" values="0 0 0 0 0 0 0 0 0 0 0 0 0 0 0 0 0 0 127 0" result="hardAlpha"/>
<feOffset dy="4.14139"/>
<feGaussianBlur stdDeviation="2.07069"/>
<feComposite in2="hardAlpha" operator="out"/>
<feColorMatrix type="matrix" values="0 0 0 0 0.137255 0 0 0 0 0.266667 0 0 0 0 0.717647 0 0 0 0.2 0"/>
<feBlend mode="normal" in2="BackgroundImageFix" result="effect1_dropShadow_2068_27824"/>
<feBlend mode="normal" in="SourceGraphic" in2="effect1_dropShadow_2068_27824" result="shape"/>
</filter>
<filter id="filter9_d_2068_27824" x="330" y="55" width="32" height="33.2305" filterUnits="userSpaceOnUse" color-interpolation-filters="sRGB">
<feFlood flood-opacity="0" result="BackgroundImageFix"/>
<feColorMatrix in="SourceAlpha" type="matrix" values="0 0 0 0 0 0 0 0 0 0 0 0 0 0 0 0 0 0 127 0" result="hardAlpha"/>
<feOffset dy="4"/>
<feGaussianBlur stdDeviation="2"/>
<feComposite in2="hardAlpha" operator="out"/>
<feColorMatrix type="matrix" values="0 0 0 0 0 0 0 0 0 0 0 0 0 0 0 0 0 0 0.25 0"/>
<feBlend mode="normal" in2="BackgroundImageFix" result="effect1_dropShadow_2068_27824"/>
<feBlend mode="normal" in="SourceGraphic" in2="effect1_dropShadow_2068_27824" result="shape"/>
</filter>
<filter id="filter10_f_2068_27824" x="331.633" y="65.3801" width="24.0758" height="17.8414" filterUnits="userSpaceOnUse" color-interpolation-filters="sRGB">
<feFlood flood-opacity="0" result="BackgroundImageFix"/>
<feBlend mode="normal" in="SourceGraphic" in2="BackgroundImageFix" result="shape"/>
<feGaussianBlur stdDeviation="1.4955" result="effect1_foregroundBlur_2068_27824"/>
</filter>
<filter id="filter11_d_2068_27824" x="329.859" y="55" width="32.2828" height="32.1285" filterUnits="userSpaceOnUse" color-interpolation-filters="sRGB">
<feFlood flood-opacity="0" result="BackgroundImageFix"/>
<feColorMatrix in="SourceAlpha" type="matrix" values="0 0 0 0 0 0 0 0 0 0 0 0 0 0 0 0 0 0 127 0" result="hardAlpha"/>
<feOffset dy="4.14139"/>
<feGaussianBlur stdDeviation="2.07069"/>
<feComposite in2="hardAlpha" operator="out"/>
<feColorMatrix type="matrix" values="0 0 0 0 0.137255 0 0 0 0 0.266667 0 0 0 0 0.717647 0 0 0 0.2 0"/>
<feBlend mode="normal" in2="BackgroundImageFix" result="effect1_dropShadow_2068_27824"/>
<feBlend mode="normal" in="SourceGraphic" in2="effect1_dropShadow_2068_27824" result="shape"/>
</filter>
<filter id="filter12_d_2068_27824" x="92.001" y="55" width="32" height="33.2305" filterUnits="userSpaceOnUse" color-interpolation-filters="sRGB">
<feFlood flood-opacity="0" result="BackgroundImageFix"/>
<feColorMatrix in="SourceAlpha" type="matrix" values="0 0 0 0 0 0 0 0 0 0 0 0 0 0 0 0 0 0 127 0" result="hardAlpha"/>
<feOffset dy="4"/>
<feGaussianBlur stdDeviation="2"/>
<feComposite in2="hardAlpha" operator="out"/>
<feColorMatrix type="matrix" values="0 0 0 0 0 0 0 0 0 0 0 0 0 0 0 0 0 0 0.25 0"/>
<feBlend mode="normal" in2="BackgroundImageFix" result="effect1_dropShadow_2068_27824"/>
<feBlend mode="normal" in="SourceGraphic" in2="effect1_dropShadow_2068_27824" result="shape"/>
</filter>
<filter id="filter13_f_2068_27824" x="93.634" y="65.3801" width="24.0758" height="17.8414" filterUnits="userSpaceOnUse" color-interpolation-filters="sRGB">
<feFlood flood-opacity="0" result="BackgroundImageFix"/>
<feBlend mode="normal" in="SourceGraphic" in2="BackgroundImageFix" result="shape"/>
<feGaussianBlur stdDeviation="1.4955" result="effect1_foregroundBlur_2068_27824"/>
</filter>
<filter id="filter14_d_2068_27824" x="91.8596" y="55" width="32.2828" height="32.1285" filterUnits="userSpaceOnUse" color-interpolation-filters="sRGB">
<feFlood flood-opacity="0" result="BackgroundImageFix"/>
<feColorMatrix in="SourceAlpha" type="matrix" values="0 0 0 0 0 0 0 0 0 0 0 0 0 0 0 0 0 0 127 0" result="hardAlpha"/>
<feOffset dy="4.14139"/>
<feGaussianBlur stdDeviation="2.07069"/>
<feComposite in2="hardAlpha" operator="out"/>
<feColorMatrix type="matrix" values="0 0 0 0 0.137255 0 0 0 0 0.266667 0 0 0 0 0.717647 0 0 0 0.2 0"/>
<feBlend mode="normal" in2="BackgroundImageFix" result="effect1_dropShadow_2068_27824"/>
<feBlend mode="normal" in="SourceGraphic" in2="effect1_dropShadow_2068_27824" result="shape"/>
</filter>
<filter id="filter15_d_2068_27824" x="384" y="101" width="32" height="33.2305" filterUnits="userSpaceOnUse" color-interpolation-filters="sRGB">
<feFlood flood-opacity="0" result="BackgroundImageFix"/>
<feColorMatrix in="SourceAlpha" type="matrix" values="0 0 0 0 0 0 0 0 0 0 0 0 0 0 0 0 0 0 127 0" result="hardAlpha"/>
<feOffset dy="4"/>
<feGaussianBlur stdDeviation="2"/>
<feComposite in2="hardAlpha" operator="out"/>
<feColorMatrix type="matrix" values="0 0 0 0 0 0 0 0 0 0 0 0 0 0 0 0 0 0 0.25 0"/>
<feBlend mode="normal" in2="BackgroundImageFix" result="effect1_dropShadow_2068_27824"/>
<feBlend mode="normal" in="SourceGraphic" in2="effect1_dropShadow_2068_27824" result="shape"/>
</filter>
<filter id="filter16_f_2068_27824" x="385.633" y="111.38" width="24.0758" height="17.8414" filterUnits="userSpaceOnUse" color-interpolation-filters="sRGB">
<feFlood flood-opacity="0" result="BackgroundImageFix"/>
<feBlend mode="normal" in="SourceGraphic" in2="BackgroundImageFix" result="shape"/>
<feGaussianBlur stdDeviation="1.4955" result="effect1_foregroundBlur_2068_27824"/>
</filter>
<filter id="filter17_d_2068_27824" x="383.859" y="101" width="32.2828" height="32.1285" filterUnits="userSpaceOnUse" color-interpolation-filters="sRGB">
<feFlood flood-opacity="0" result="BackgroundImageFix"/>
<feColorMatrix in="SourceAlpha" type="matrix" values="0 0 0 0 0 0 0 0 0 0 0 0 0 0 0 0 0 0 127 0" result="hardAlpha"/>
<feOffset dy="4.14139"/>
<feGaussianBlur stdDeviation="2.07069"/>
<feComposite in2="hardAlpha" operator="out"/>
<feColorMatrix type="matrix" values="0 0 0 0 0.137255 0 0 0 0 0.266667 0 0 0 0 0.717647 0 0 0 0.2 0"/>
<feBlend mode="normal" in2="BackgroundImageFix" result="effect1_dropShadow_2068_27824"/>
<feBlend mode="normal" in="SourceGraphic" in2="effect1_dropShadow_2068_27824" result="shape"/>
</filter>
<filter id="filter18_d_2068_27824" x="146.001" y="101" width="32" height="33.2305" filterUnits="userSpaceOnUse" color-interpolation-filters="sRGB">
<feFlood flood-opacity="0" result="BackgroundImageFix"/>
<feColorMatrix in="SourceAlpha" type="matrix" values="0 0 0 0 0 0 0 0 0 0 0 0 0 0 0 0 0 0 127 0" result="hardAlpha"/>
<feOffset dy="4"/>
<feGaussianBlur stdDeviation="2"/>
<feComposite in2="hardAlpha" operator="out"/>
<feColorMatrix type="matrix" values="0 0 0 0 0 0 0 0 0 0 0 0 0 0 0 0 0 0 0.25 0"/>
<feBlend mode="normal" in2="BackgroundImageFix" result="effect1_dropShadow_2068_27824"/>
<feBlend mode="normal" in="SourceGraphic" in2="effect1_dropShadow_2068_27824" result="shape"/>
</filter>
<filter id="filter19_f_2068_27824" x="147.634" y="111.38" width="24.0758" height="17.8414" filterUnits="userSpaceOnUse" color-interpolation-filters="sRGB">
<feFlood flood-opacity="0" result="BackgroundImageFix"/>
<feBlend mode="normal" in="SourceGraphic" in2="BackgroundImageFix" result="shape"/>
<feGaussianBlur stdDeviation="1.4955" result="effect1_foregroundBlur_2068_27824"/>
</filter>
<filter id="filter20_d_2068_27824" x="145.86" y="101" width="32.2828" height="32.1285" filterUnits="userSpaceOnUse" color-interpolation-filters="sRGB">
<feFlood flood-opacity="0" result="BackgroundImageFix"/>
<feColorMatrix in="SourceAlpha" type="matrix" values="0 0 0 0 0 0 0 0 0 0 0 0 0 0 0 0 0 0 127 0" result="hardAlpha"/>
<feOffset dy="4.14139"/>
<feGaussianBlur stdDeviation="2.07069"/>
<feComposite in2="hardAlpha" operator="out"/>
<feColorMatrix type="matrix" values="0 0 0 0 0.137255 0 0 0 0 0.266667 0 0 0 0 0.717647 0 0 0 0.2 0"/>
<feBlend mode="normal" in2="BackgroundImageFix" result="effect1_dropShadow_2068_27824"/>
<feBlend mode="normal" in="SourceGraphic" in2="effect1_dropShadow_2068_27824" result="shape"/>
</filter>
<filter id="filter21_d_2068_27824" x="303" y="114" width="32" height="33.2305" filterUnits="userSpaceOnUse" color-interpolation-filters="sRGB">
<feFlood flood-opacity="0" result="BackgroundImageFix"/>
<feColorMatrix in="SourceAlpha" type="matrix" values="0 0 0 0 0 0 0 0 0 0 0 0 0 0 0 0 0 0 127 0" result="hardAlpha"/>
<feOffset dy="4"/>
<feGaussianBlur stdDeviation="2"/>
<feComposite in2="hardAlpha" operator="out"/>
<feColorMatrix type="matrix" values="0 0 0 0 0 0 0 0 0 0 0 0 0 0 0 0 0 0 0.25 0"/>
<feBlend mode="normal" in2="BackgroundImageFix" result="effect1_dropShadow_2068_27824"/>
<feBlend mode="normal" in="SourceGraphic" in2="effect1_dropShadow_2068_27824" result="shape"/>
</filter>
<filter id="filter22_f_2068_27824" x="304.633" y="124.38" width="24.0758" height="17.8414" filterUnits="userSpaceOnUse" color-interpolation-filters="sRGB">
<feFlood flood-opacity="0" result="BackgroundImageFix"/>
<feBlend mode="normal" in="SourceGraphic" in2="BackgroundImageFix" result="shape"/>
<feGaussianBlur stdDeviation="1.4955" result="effect1_foregroundBlur_2068_27824"/>
</filter>
<filter id="filter23_d_2068_27824" x="302.859" y="114" width="32.2828" height="32.1285" filterUnits="userSpaceOnUse" color-interpolation-filters="sRGB">
<feFlood flood-opacity="0" result="BackgroundImageFix"/>
<feColorMatrix in="SourceAlpha" type="matrix" values="0 0 0 0 0 0 0 0 0 0 0 0 0 0 0 0 0 0 127 0" result="hardAlpha"/>
<feOffset dy="4.14139"/>
<feGaussianBlur stdDeviation="2.07069"/>
<feComposite in2="hardAlpha" operator="out"/>
<feColorMatrix type="matrix" values="0 0 0 0 0.137255 0 0 0 0 0.266667 0 0 0 0 0.717647 0 0 0 0.2 0"/>
<feBlend mode="normal" in2="BackgroundImageFix" result="effect1_dropShadow_2068_27824"/>
<feBlend mode="normal" in="SourceGraphic" in2="effect1_dropShadow_2068_27824" result="shape"/>
</filter>
<filter id="filter24_d_2068_27824" x="65.001" y="114" width="32" height="33.2305" filterUnits="userSpaceOnUse" color-interpolation-filters="sRGB">
<feFlood flood-opacity="0" result="BackgroundImageFix"/>
<feColorMatrix in="SourceAlpha" type="matrix" values="0 0 0 0 0 0 0 0 0 0 0 0 0 0 0 0 0 0 127 0" result="hardAlpha"/>
<feOffset dy="4"/>
<feGaussianBlur stdDeviation="2"/>
<feComposite in2="hardAlpha" operator="out"/>
<feColorMatrix type="matrix" values="0 0 0 0 0 0 0 0 0 0 0 0 0 0 0 0 0 0 0.25 0"/>
<feBlend mode="normal" in2="BackgroundImageFix" result="effect1_dropShadow_2068_27824"/>
<feBlend mode="normal" in="SourceGraphic" in2="effect1_dropShadow_2068_27824" result="shape"/>
</filter>
<filter id="filter25_f_2068_27824" x="66.634" y="124.38" width="24.0758" height="17.8414" filterUnits="userSpaceOnUse" color-interpolation-filters="sRGB">
<feFlood flood-opacity="0" result="BackgroundImageFix"/>
<feBlend mode="normal" in="SourceGraphic" in2="BackgroundImageFix" result="shape"/>
<feGaussianBlur stdDeviation="1.4955" result="effect1_foregroundBlur_2068_27824"/>
</filter>
<filter id="filter26_d_2068_27824" x="64.8596" y="114" width="32.2828" height="32.1285" filterUnits="userSpaceOnUse" color-interpolation-filters="sRGB">
<feFlood flood-opacity="0" result="BackgroundImageFix"/>
<feColorMatrix in="SourceAlpha" type="matrix" values="0 0 0 0 0 0 0 0 0 0 0 0 0 0 0 0 0 0 127 0" result="hardAlpha"/>
<feOffset dy="4.14139"/>
<feGaussianBlur stdDeviation="2.07069"/>
<feComposite in2="hardAlpha" operator="out"/>
<feColorMatrix type="matrix" values="0 0 0 0 0.137255 0 0 0 0 0.266667 0 0 0 0 0.717647 0 0 0 0.2 0"/>
<feBlend mode="normal" in2="BackgroundImageFix" result="effect1_dropShadow_2068_27824"/>
<feBlend mode="normal" in="SourceGraphic" in2="effect1_dropShadow_2068_27824" result="shape"/>
</filter>
<filter id="filter27_d_2068_27824" x="275" y="154" width="32" height="33.2305" filterUnits="userSpaceOnUse" color-interpolation-filters="sRGB">
<feFlood flood-opacity="0" result="BackgroundImageFix"/>
<feColorMatrix in="SourceAlpha" type="matrix" values="0 0 0 0 0 0 0 0 0 0 0 0 0 0 0 0 0 0 127 0" result="hardAlpha"/>
<feOffset dy="4"/>
<feGaussianBlur stdDeviation="2"/>
<feComposite in2="hardAlpha" operator="out"/>
<feColorMatrix type="matrix" values="0 0 0 0 0 0 0 0 0 0 0 0 0 0 0 0 0 0 0.25 0"/>
<feBlend mode="normal" in2="BackgroundImageFix" result="effect1_dropShadow_2068_27824"/>
<feBlend mode="normal" in="SourceGraphic" in2="effect1_dropShadow_2068_27824" result="shape"/>
</filter>
<filter id="filter28_f_2068_27824" x="276.633" y="164.38" width="24.0758" height="17.8414" filterUnits="userSpaceOnUse" color-interpolation-filters="sRGB">
<feFlood flood-opacity="0" result="BackgroundImageFix"/>
<feBlend mode="normal" in="SourceGraphic" in2="BackgroundImageFix" result="shape"/>
<feGaussianBlur stdDeviation="1.4955" result="effect1_foregroundBlur_2068_27824"/>
</filter>
<filter id="filter29_d_2068_27824" x="274.859" y="154" width="32.2828" height="32.1285" filterUnits="userSpaceOnUse" color-interpolation-filters="sRGB">
<feFlood flood-opacity="0" result="BackgroundImageFix"/>
<feColorMatrix in="SourceAlpha" type="matrix" values="0 0 0 0 0 0 0 0 0 0 0 0 0 0 0 0 0 0 127 0" result="hardAlpha"/>
<feOffset dy="4.14139"/>
<feGaussianBlur stdDeviation="2.07069"/>
<feComposite in2="hardAlpha" operator="out"/>
<feColorMatrix type="matrix" values="0 0 0 0 0.137255 0 0 0 0 0.266667 0 0 0 0 0.717647 0 0 0 0.2 0"/>
<feBlend mode="normal" in2="BackgroundImageFix" result="effect1_dropShadow_2068_27824"/>
<feBlend mode="normal" in="SourceGraphic" in2="effect1_dropShadow_2068_27824" result="shape"/>
</filter>
<filter id="filter30_d_2068_27824" x="37.001" y="154" width="32" height="33.2305" filterUnits="userSpaceOnUse" color-interpolation-filters="sRGB">
<feFlood flood-opacity="0" result="BackgroundImageFix"/>
<feColorMatrix in="SourceAlpha" type="matrix" values="0 0 0 0 0 0 0 0 0 0 0 0 0 0 0 0 0 0 127 0" result="hardAlpha"/>
<feOffset dy="4"/>
<feGaussianBlur stdDeviation="2"/>
<feComposite in2="hardAlpha" operator="out"/>
<feColorMatrix type="matrix" values="0 0 0 0 0 0 0 0 0 0 0 0 0 0 0 0 0 0 0.25 0"/>
<feBlend mode="normal" in2="BackgroundImageFix" result="effect1_dropShadow_2068_27824"/>
<feBlend mode="normal" in="SourceGraphic" in2="effect1_dropShadow_2068_27824" result="shape"/>
</filter>
<filter id="filter31_f_2068_27824" x="38.634" y="164.38" width="24.0758" height="17.8414" filterUnits="userSpaceOnUse" color-interpolation-filters="sRGB">
<feFlood flood-opacity="0" result="BackgroundImageFix"/>
<feBlend mode="normal" in="SourceGraphic" in2="BackgroundImageFix" result="shape"/>
<feGaussianBlur stdDeviation="1.4955" result="effect1_foregroundBlur_2068_27824"/>
</filter>
<filter id="filter32_d_2068_27824" x="36.8596" y="154" width="32.2828" height="32.1285" filterUnits="userSpaceOnUse" color-interpolation-filters="sRGB">
<feFlood flood-opacity="0" result="BackgroundImageFix"/>
<feColorMatrix in="SourceAlpha" type="matrix" values="0 0 0 0 0 0 0 0 0 0 0 0 0 0 0 0 0 0 127 0" result="hardAlpha"/>
<feOffset dy="4.14139"/>
<feGaussianBlur stdDeviation="2.07069"/>
<feComposite in2="hardAlpha" operator="out"/>
<feColorMatrix type="matrix" values="0 0 0 0 0.137255 0 0 0 0 0.266667 0 0 0 0 0.717647 0 0 0 0.2 0"/>
<feBlend mode="normal" in2="BackgroundImageFix" result="effect1_dropShadow_2068_27824"/>
<feBlend mode="normal" in="SourceGraphic" in2="effect1_dropShadow_2068_27824" result="shape"/>
</filter>
<filter id="filter33_d_2068_27824" x="261" y="207" width="32" height="33.2305" filterUnits="userSpaceOnUse" color-interpolation-filters="sRGB">
<feFlood flood-opacity="0" result="BackgroundImageFix"/>
<feColorMatrix in="SourceAlpha" type="matrix" values="0 0 0 0 0 0 0 0 0 0 0 0 0 0 0 0 0 0 127 0" result="hardAlpha"/>
<feOffset dy="4"/>
<feGaussianBlur stdDeviation="2"/>
<feComposite in2="hardAlpha" operator="out"/>
<feColorMatrix type="matrix" values="0 0 0 0 0 0 0 0 0 0 0 0 0 0 0 0 0 0 0.25 0"/>
<feBlend mode="normal" in2="BackgroundImageFix" result="effect1_dropShadow_2068_27824"/>
<feBlend mode="normal" in="SourceGraphic" in2="effect1_dropShadow_2068_27824" result="shape"/>
</filter>
<filter id="filter34_f_2068_27824" x="262.633" y="217.38" width="24.0758" height="17.8414" filterUnits="userSpaceOnUse" color-interpolation-filters="sRGB">
<feFlood flood-opacity="0" result="BackgroundImageFix"/>
<feBlend mode="normal" in="SourceGraphic" in2="BackgroundImageFix" result="shape"/>
<feGaussianBlur stdDeviation="1.4955" result="effect1_foregroundBlur_2068_27824"/>
</filter>
<filter id="filter35_d_2068_27824" x="260.859" y="207" width="32.2828" height="32.1285" filterUnits="userSpaceOnUse" color-interpolation-filters="sRGB">
<feFlood flood-opacity="0" result="BackgroundImageFix"/>
<feColorMatrix in="SourceAlpha" type="matrix" values="0 0 0 0 0 0 0 0 0 0 0 0 0 0 0 0 0 0 127 0" result="hardAlpha"/>
<feOffset dy="4.14139"/>
<feGaussianBlur stdDeviation="2.07069"/>
<feComposite in2="hardAlpha" operator="out"/>
<feColorMatrix type="matrix" values="0 0 0 0 0.137255 0 0 0 0 0.266667 0 0 0 0 0.717647 0 0 0 0.2 0"/>
<feBlend mode="normal" in2="BackgroundImageFix" result="effect1_dropShadow_2068_27824"/>
<feBlend mode="normal" in="SourceGraphic" in2="effect1_dropShadow_2068_27824" result="shape"/>
</filter>
<filter id="filter36_d_2068_27824" x="23.001" y="207" width="32" height="33.2305" filterUnits="userSpaceOnUse" color-interpolation-filters="sRGB">
<feFlood flood-opacity="0" result="BackgroundImageFix"/>
<feColorMatrix in="SourceAlpha" type="matrix" values="0 0 0 0 0 0 0 0 0 0 0 0 0 0 0 0 0 0 127 0" result="hardAlpha"/>
<feOffset dy="4"/>
<feGaussianBlur stdDeviation="2"/>
<feComposite in2="hardAlpha" operator="out"/>
<feColorMatrix type="matrix" values="0 0 0 0 0 0 0 0 0 0 0 0 0 0 0 0 0 0 0.25 0"/>
<feBlend mode="normal" in2="BackgroundImageFix" result="effect1_dropShadow_2068_27824"/>
<feBlend mode="normal" in="SourceGraphic" in2="effect1_dropShadow_2068_27824" result="shape"/>
</filter>
<filter id="filter37_f_2068_27824" x="24.634" y="217.38" width="24.0758" height="17.8414" filterUnits="userSpaceOnUse" color-interpolation-filters="sRGB">
<feFlood flood-opacity="0" result="BackgroundImageFix"/>
<feBlend mode="normal" in="SourceGraphic" in2="BackgroundImageFix" result="shape"/>
<feGaussianBlur stdDeviation="1.4955" result="effect1_foregroundBlur_2068_27824"/>
</filter>
<filter id="filter38_d_2068_27824" x="22.8596" y="207" width="32.2828" height="32.1285" filterUnits="userSpaceOnUse" color-interpolation-filters="sRGB">
<feFlood flood-opacity="0" result="BackgroundImageFix"/>
<feColorMatrix in="SourceAlpha" type="matrix" values="0 0 0 0 0 0 0 0 0 0 0 0 0 0 0 0 0 0 127 0" result="hardAlpha"/>
<feOffset dy="4.14139"/>
<feGaussianBlur stdDeviation="2.07069"/>
<feComposite in2="hardAlpha" operator="out"/>
<feColorMatrix type="matrix" values="0 0 0 0 0.137255 0 0 0 0 0.266667 0 0 0 0 0.717647 0 0 0 0.2 0"/>
<feBlend mode="normal" in2="BackgroundImageFix" result="effect1_dropShadow_2068_27824"/>
<feBlend mode="normal" in="SourceGraphic" in2="effect1_dropShadow_2068_27824" result="shape"/>
</filter>
<filter id="filter39_d_2068_27824" x="313" y="232" width="32" height="33.2305" filterUnits="userSpaceOnUse" color-interpolation-filters="sRGB">
<feFlood flood-opacity="0" result="BackgroundImageFix"/>
<feColorMatrix in="SourceAlpha" type="matrix" values="0 0 0 0 0 0 0 0 0 0 0 0 0 0 0 0 0 0 127 0" result="hardAlpha"/>
<feOffset dy="4"/>
<feGaussianBlur stdDeviation="2"/>
<feComposite in2="hardAlpha" operator="out"/>
<feColorMatrix type="matrix" values="0 0 0 0 0 0 0 0 0 0 0 0 0 0 0 0 0 0 0.25 0"/>
<feBlend mode="normal" in2="BackgroundImageFix" result="effect1_dropShadow_2068_27824"/>
<feBlend mode="normal" in="SourceGraphic" in2="effect1_dropShadow_2068_27824" result="shape"/>
</filter>
<filter id="filter40_f_2068_27824" x="314.633" y="242.38" width="24.0758" height="17.8414" filterUnits="userSpaceOnUse" color-interpolation-filters="sRGB">
<feFlood flood-opacity="0" result="BackgroundImageFix"/>
<feBlend mode="normal" in="SourceGraphic" in2="BackgroundImageFix" result="shape"/>
<feGaussianBlur stdDeviation="1.4955" result="effect1_foregroundBlur_2068_27824"/>
</filter>
<filter id="filter41_d_2068_27824" x="312.859" y="232" width="32.2828" height="32.1285" filterUnits="userSpaceOnUse" color-interpolation-filters="sRGB">
<feFlood flood-opacity="0" result="BackgroundImageFix"/>
<feColorMatrix in="SourceAlpha" type="matrix" values="0 0 0 0 0 0 0 0 0 0 0 0 0 0 0 0 0 0 127 0" result="hardAlpha"/>
<feOffset dy="4.14139"/>
<feGaussianBlur stdDeviation="2.07069"/>
<feComposite in2="hardAlpha" operator="out"/>
<feColorMatrix type="matrix" values="0 0 0 0 0.137255 0 0 0 0 0.266667 0 0 0 0 0.717647 0 0 0 0.2 0"/>
<feBlend mode="normal" in2="BackgroundImageFix" result="effect1_dropShadow_2068_27824"/>
<feBlend mode="normal" in="SourceGraphic" in2="effect1_dropShadow_2068_27824" result="shape"/>
</filter>
<filter id="filter42_d_2068_27824" x="75.001" y="232" width="32" height="33.2305" filterUnits="userSpaceOnUse" color-interpolation-filters="sRGB">
<feFlood flood-opacity="0" result="BackgroundImageFix"/>
<feColorMatrix in="SourceAlpha" type="matrix" values="0 0 0 0 0 0 0 0 0 0 0 0 0 0 0 0 0 0 127 0" result="hardAlpha"/>
<feOffset dy="4"/>
<feGaussianBlur stdDeviation="2"/>
<feComposite in2="hardAlpha" operator="out"/>
<feColorMatrix type="matrix" values="0 0 0 0 0 0 0 0 0 0 0 0 0 0 0 0 0 0 0.25 0"/>
<feBlend mode="normal" in2="BackgroundImageFix" result="effect1_dropShadow_2068_27824"/>
<feBlend mode="normal" in="SourceGraphic" in2="effect1_dropShadow_2068_27824" result="shape"/>
</filter>
<filter id="filter43_f_2068_27824" x="76.634" y="242.38" width="24.0758" height="17.8414" filterUnits="userSpaceOnUse" color-interpolation-filters="sRGB">
<feFlood flood-opacity="0" result="BackgroundImageFix"/>
<feBlend mode="normal" in="SourceGraphic" in2="BackgroundImageFix" result="shape"/>
<feGaussianBlur stdDeviation="1.4955" result="effect1_foregroundBlur_2068_27824"/>
</filter>
<filter id="filter44_d_2068_27824" x="74.8596" y="232" width="32.2828" height="32.1285" filterUnits="userSpaceOnUse" color-interpolation-filters="sRGB">
<feFlood flood-opacity="0" result="BackgroundImageFix"/>
<feColorMatrix in="SourceAlpha" type="matrix" values="0 0 0 0 0 0 0 0 0 0 0 0 0 0 0 0 0 0 127 0" result="hardAlpha"/>
<feOffset dy="4.14139"/>
<feGaussianBlur stdDeviation="2.07069"/>
<feComposite in2="hardAlpha" operator="out"/>
<feColorMatrix type="matrix" values="0 0 0 0 0.137255 0 0 0 0 0.266667 0 0 0 0 0.717647 0 0 0 0.2 0"/>
<feBlend mode="normal" in2="BackgroundImageFix" result="effect1_dropShadow_2068_27824"/>
<feBlend mode="normal" in="SourceGraphic" in2="effect1_dropShadow_2068_27824" result="shape"/>
</filter>
<filter id="filter45_d_2068_27824" x="327" y="187" width="32" height="33.2305" filterUnits="userSpaceOnUse" color-interpolation-filters="sRGB">
<feFlood flood-opacity="0" result="BackgroundImageFix"/>
<feColorMatrix in="SourceAlpha" type="matrix" values="0 0 0 0 0 0 0 0 0 0 0 0 0 0 0 0 0 0 127 0" result="hardAlpha"/>
<feOffset dy="4"/>
<feGaussianBlur stdDeviation="2"/>
<feComposite in2="hardAlpha" operator="out"/>
<feColorMatrix type="matrix" values="0 0 0 0 0 0 0 0 0 0 0 0 0 0 0 0 0 0 0.25 0"/>
<feBlend mode="normal" in2="BackgroundImageFix" result="effect1_dropShadow_2068_27824"/>
<feBlend mode="normal" in="SourceGraphic" in2="effect1_dropShadow_2068_27824" result="shape"/>
</filter>
<filter id="filter46_f_2068_27824" x="328.633" y="197.38" width="24.0758" height="17.8414" filterUnits="userSpaceOnUse" color-interpolation-filters="sRGB">
<feFlood flood-opacity="0" result="BackgroundImageFix"/>
<feBlend mode="normal" in="SourceGraphic" in2="BackgroundImageFix" result="shape"/>
<feGaussianBlur stdDeviation="1.4955" result="effect1_foregroundBlur_2068_27824"/>
</filter>
<filter id="filter47_d_2068_27824" x="326.859" y="187" width="32.2828" height="32.1285" filterUnits="userSpaceOnUse" color-interpolation-filters="sRGB">
<feFlood flood-opacity="0" result="BackgroundImageFix"/>
<feColorMatrix in="SourceAlpha" type="matrix" values="0 0 0 0 0 0 0 0 0 0 0 0 0 0 0 0 0 0 127 0" result="hardAlpha"/>
<feOffset dy="4.14139"/>
<feGaussianBlur stdDeviation="2.07069"/>
<feComposite in2="hardAlpha" operator="out"/>
<feColorMatrix type="matrix" values="0 0 0 0 0.137255 0 0 0 0 0.266667 0 0 0 0 0.717647 0 0 0 0.2 0"/>
<feBlend mode="normal" in2="BackgroundImageFix" result="effect1_dropShadow_2068_27824"/>
<feBlend mode="normal" in="SourceGraphic" in2="effect1_dropShadow_2068_27824" result="shape"/>
</filter>
<filter id="filter48_d_2068_27824" x="89.001" y="187" width="32" height="33.2305" filterUnits="userSpaceOnUse" color-interpolation-filters="sRGB">
<feFlood flood-opacity="0" result="BackgroundImageFix"/>
<feColorMatrix in="SourceAlpha" type="matrix" values="0 0 0 0 0 0 0 0 0 0 0 0 0 0 0 0 0 0 127 0" result="hardAlpha"/>
<feOffset dy="4"/>
<feGaussianBlur stdDeviation="2"/>
<feComposite in2="hardAlpha" operator="out"/>
<feColorMatrix type="matrix" values="0 0 0 0 0 0 0 0 0 0 0 0 0 0 0 0 0 0 0.25 0"/>
<feBlend mode="normal" in2="BackgroundImageFix" result="effect1_dropShadow_2068_27824"/>
<feBlend mode="normal" in="SourceGraphic" in2="effect1_dropShadow_2068_27824" result="shape"/>
</filter>
<filter id="filter49_f_2068_27824" x="90.634" y="197.38" width="24.0758" height="17.8414" filterUnits="userSpaceOnUse" color-interpolation-filters="sRGB">
<feFlood flood-opacity="0" result="BackgroundImageFix"/>
<feBlend mode="normal" in="SourceGraphic" in2="BackgroundImageFix" result="shape"/>
<feGaussianBlur stdDeviation="1.4955" result="effect1_foregroundBlur_2068_27824"/>
</filter>
<filter id="filter50_d_2068_27824" x="88.8596" y="187" width="32.2828" height="32.1285" filterUnits="userSpaceOnUse" color-interpolation-filters="sRGB">
<feFlood flood-opacity="0" result="BackgroundImageFix"/>
<feColorMatrix in="SourceAlpha" type="matrix" values="0 0 0 0 0 0 0 0 0 0 0 0 0 0 0 0 0 0 127 0" result="hardAlpha"/>
<feOffset dy="4.14139"/>
<feGaussianBlur stdDeviation="2.07069"/>
<feComposite in2="hardAlpha" operator="out"/>
<feColorMatrix type="matrix" values="0 0 0 0 0.137255 0 0 0 0 0.266667 0 0 0 0 0.717647 0 0 0 0.2 0"/>
<feBlend mode="normal" in2="BackgroundImageFix" result="effect1_dropShadow_2068_27824"/>
<feBlend mode="normal" in="SourceGraphic" in2="effect1_dropShadow_2068_27824" result="shape"/>
</filter>
<filter id="filter51_d_2068_27824" x="379" y="216" width="32" height="33.2305" filterUnits="userSpaceOnUse" color-interpolation-filters="sRGB">
<feFlood flood-opacity="0" result="BackgroundImageFix"/>
<feColorMatrix in="SourceAlpha" type="matrix" values="0 0 0 0 0 0 0 0 0 0 0 0 0 0 0 0 0 0 127 0" result="hardAlpha"/>
<feOffset dy="4"/>
<feGaussianBlur stdDeviation="2"/>
<feComposite in2="hardAlpha" operator="out"/>
<feColorMatrix type="matrix" values="0 0 0 0 0 0 0 0 0 0 0 0 0 0 0 0 0 0 0.25 0"/>
<feBlend mode="normal" in2="BackgroundImageFix" result="effect1_dropShadow_2068_27824"/>
<feBlend mode="normal" in="SourceGraphic" in2="effect1_dropShadow_2068_27824" result="shape"/>
</filter>
<filter id="filter52_f_2068_27824" x="380.633" y="226.38" width="24.0758" height="17.8414" filterUnits="userSpaceOnUse" color-interpolation-filters="sRGB">
<feFlood flood-opacity="0" result="BackgroundImageFix"/>
<feBlend mode="normal" in="SourceGraphic" in2="BackgroundImageFix" result="shape"/>
<feGaussianBlur stdDeviation="1.4955" result="effect1_foregroundBlur_2068_27824"/>
</filter>
<filter id="filter53_d_2068_27824" x="378.859" y="216" width="32.2828" height="32.1285" filterUnits="userSpaceOnUse" color-interpolation-filters="sRGB">
<feFlood flood-opacity="0" result="BackgroundImageFix"/>
<feColorMatrix in="SourceAlpha" type="matrix" values="0 0 0 0 0 0 0 0 0 0 0 0 0 0 0 0 0 0 127 0" result="hardAlpha"/>
<feOffset dy="4.14139"/>
<feGaussianBlur stdDeviation="2.07069"/>
<feComposite in2="hardAlpha" operator="out"/>
<feColorMatrix type="matrix" values="0 0 0 0 0.137255 0 0 0 0 0.266667 0 0 0 0 0.717647 0 0 0 0.2 0"/>
<feBlend mode="normal" in2="BackgroundImageFix" result="effect1_dropShadow_2068_27824"/>
<feBlend mode="normal" in="SourceGraphic" in2="effect1_dropShadow_2068_27824" result="shape"/>
</filter>
<filter id="filter54_d_2068_27824" x="165.001" y="162" width="32" height="33.2305" filterUnits="userSpaceOnUse" color-interpolation-filters="sRGB">
<feFlood flood-opacity="0" result="BackgroundImageFix"/>
<feColorMatrix in="SourceAlpha" type="matrix" values="0 0 0 0 0 0 0 0 0 0 0 0 0 0 0 0 0 0 127 0" result="hardAlpha"/>
<feOffset dy="4"/>
<feGaussianBlur stdDeviation="2"/>
<feComposite in2="hardAlpha" operator="out"/>
<feColorMatrix type="matrix" values="0 0 0 0 0 0 0 0 0 0 0 0 0 0 0 0 0 0 0.25 0"/>
<feBlend mode="normal" in2="BackgroundImageFix" result="effect1_dropShadow_2068_27824"/>
<feBlend mode="normal" in="SourceGraphic" in2="effect1_dropShadow_2068_27824" result="shape"/>
</filter>
<filter id="filter55_f_2068_27824" x="166.634" y="172.38" width="24.0758" height="17.8414" filterUnits="userSpaceOnUse" color-interpolation-filters="sRGB">
<feFlood flood-opacity="0" result="BackgroundImageFix"/>
<feBlend mode="normal" in="SourceGraphic" in2="BackgroundImageFix" result="shape"/>
<feGaussianBlur stdDeviation="1.4955" result="effect1_foregroundBlur_2068_27824"/>
</filter>
<filter id="filter56_d_2068_27824" x="164.86" y="162" width="32.2828" height="32.1285" filterUnits="userSpaceOnUse" color-interpolation-filters="sRGB">
<feFlood flood-opacity="0" result="BackgroundImageFix"/>
<feColorMatrix in="SourceAlpha" type="matrix" values="0 0 0 0 0 0 0 0 0 0 0 0 0 0 0 0 0 0 127 0" result="hardAlpha"/>
<feOffset dy="4.14139"/>
<feGaussianBlur stdDeviation="2.07069"/>
<feComposite in2="hardAlpha" operator="out"/>
<feColorMatrix type="matrix" values="0 0 0 0 0.137255 0 0 0 0 0.266667 0 0 0 0 0.717647 0 0 0 0.2 0"/>
<feBlend mode="normal" in2="BackgroundImageFix" result="effect1_dropShadow_2068_27824"/>
<feBlend mode="normal" in="SourceGraphic" in2="effect1_dropShadow_2068_27824" result="shape"/>
</filter>
<linearGradient id="paint0_linear_2068_27824" x1="216" y1="290" x2="216" y2="330" gradientUnits="userSpaceOnUse">
<stop stop-color="#9D0932"/>
<stop offset="0.5" stop-color="#BC093A"/>
<stop offset="1" stop-color="#7D1431"/>
</linearGradient>
<linearGradient id="paint1_linear_2068_27824" x1="180" y1="274" x2="180" y2="295" gradientUnits="userSpaceOnUse">
<stop stop-color="#D70A42"/>
<stop offset="0.5" stop-color="#F94476"/>
<stop offset="1" stop-color="#AF0A37"/>
</linearGradient>
<linearGradient id="paint2_linear_2068_27824" x1="36" y1="274" x2="36" y2="295" gradientUnits="userSpaceOnUse">
<stop stop-color="#D70A42"/>
<stop offset="0.5" stop-color="#F94476"/>
<stop offset="1" stop-color="#AF0A37"/>
</linearGradient>
<linearGradient id="paint3_linear_2068_27824" x1="252" y1="274" x2="252" y2="295" gradientUnits="userSpaceOnUse">
<stop stop-color="#D70A42"/>
<stop offset="0.5" stop-color="#F94476"/>
<stop offset="1" stop-color="#AF0A37"/>
</linearGradient>
<linearGradient id="paint4_linear_2068_27824" x1="108" y1="274" x2="108" y2="295" gradientUnits="userSpaceOnUse">
<stop stop-color="#D70A42"/>
<stop offset="0.5" stop-color="#F94476"/>
<stop offset="1" stop-color="#AF0A37"/>
</linearGradient>
<linearGradient id="paint5_linear_2068_27824" x1="324" y1="274" x2="324" y2="295" gradientUnits="userSpaceOnUse">
<stop stop-color="#D70A42"/>
<stop offset="0.5" stop-color="#F94476"/>
<stop offset="1" stop-color="#AF0A37"/>
</linearGradient>
<linearGradient id="paint6_linear_2068_27824" x1="396" y1="274" x2="396" y2="295" gradientUnits="userSpaceOnUse">
<stop stop-color="#D70A42"/>
<stop offset="0.5" stop-color="#F94476"/>
<stop offset="1" stop-color="#AF0A37"/>
</linearGradient>
<linearGradient id="paint7_linear_2068_27824" x1="211.417" y1="39" x2="211.417" y2="138.942" gradientUnits="userSpaceOnUse">
<stop stop-color="#9D0932"/>
<stop offset="0.5" stop-color="#BC093A"/>
<stop offset="1" stop-color="#7D1431"/>
</linearGradient>
<radialGradient id="paint8_radial_2068_27824" cx="0" cy="0" r="1" gradientUnits="userSpaceOnUse" gradientTransform="translate(213.956 88) rotate(63.4349) scale(35.7771 42.7017)">
<stop stop-color="#F30647"/>
<stop offset="0.827383" stop-color="#8D1233"/>
</radialGradient>
<linearGradient id="paint9_linear_2068_27824" x1="343.934" y1="184.027" x2="397.078" y2="141.128" gradientUnits="userSpaceOnUse">
<stop stop-color="#9D0932"/>
<stop offset="0.5" stop-color="#BC093A"/>
<stop offset="1" stop-color="#7D1431"/>
</linearGradient>
<radialGradient id="paint10_radial_2068_27824" cx="0" cy="0" r="1" gradientUnits="userSpaceOnUse" gradientTransform="translate(368.901 161.644) rotate(-65.476) scale(24.4495 29.1817)">
<stop stop-color="#F30647"/>
<stop offset="0.827383" stop-color="#8D1233"/>
</radialGradient>
<linearGradient id="paint11_linear_2068_27824" x1="78.9345" y1="187.027" x2="132.079" y2="144.128" gradientUnits="userSpaceOnUse">
<stop stop-color="#9D0932"/>
<stop offset="0.5" stop-color="#BC093A"/>
<stop offset="1" stop-color="#7D1431"/>
</linearGradient>
<radialGradient id="paint12_radial_2068_27824" cx="0" cy="0" r="1" gradientUnits="userSpaceOnUse" gradientTransform="translate(103.902 164.644) rotate(-65.476) scale(24.4495 29.1817)">
<stop stop-color="#F30647"/>
<stop offset="0.827383" stop-color="#8D1233"/>
</radialGradient>
<linearGradient id="paint13_linear_2068_27824" x1="24.585" y1="93.7628" x2="62.6684" y2="63.0214" gradientUnits="userSpaceOnUse">
<stop stop-color="#9D0932"/>
<stop offset="0.5" stop-color="#BC093A"/>
<stop offset="1" stop-color="#7D1431"/>
</linearGradient>
<radialGradient id="paint14_radial_2068_27824" cx="0" cy="0" r="1" gradientUnits="userSpaceOnUse" gradientTransform="translate(42.477 77.7225) rotate(-65.476) scale(17.5204 20.9115)">
<stop stop-color="#F30647"/>
<stop offset="0.827383" stop-color="#8D1233"/>
</radialGradient>
<linearGradient id="paint15_linear_2068_27824" x1="233.115" y1="146.521" x2="239.569" y2="117.015" gradientUnits="userSpaceOnUse">
<stop stop-color="#000673"/>
<stop offset="0.279381" stop-color="#0044FF"/>
<stop offset="0.417393" stop-color="#004DFF"/>
<stop offset="0.545274" stop-color="#007AFF"/>
<stop offset="0.654" stop-color="#009EFF"/>
<stop offset="0.7859" stop-color="#00B7FF"/>
<stop offset="0.905" stop-color="#00C7FF"/>
<stop offset="1" stop-color="#62E0FF"/>
</linearGradient>
<linearGradient id="paint16_linear_2068_27824" x1="286.115" y1="101.521" x2="292.569" y2="72.015" gradientUnits="userSpaceOnUse">
<stop stop-color="#000673"/>
<stop offset="0.279381" stop-color="#0044FF"/>
<stop offset="0.417393" stop-color="#004DFF"/>
<stop offset="0.545274" stop-color="#007AFF"/>
<stop offset="0.654" stop-color="#009EFF"/>
<stop offset="0.7859" stop-color="#00B7FF"/>
<stop offset="0.905" stop-color="#00C7FF"/>
<stop offset="1" stop-color="#62E0FF"/>
</linearGradient>
<linearGradient id="paint17_linear_2068_27824" x1="48.1157" y1="101.521" x2="54.5697" y2="72.015" gradientUnits="userSpaceOnUse">
<stop stop-color="#000673"/>
<stop offset="0.279381" stop-color="#0044FF"/>
<stop offset="0.417393" stop-color="#004DFF"/>
<stop offset="0.545274" stop-color="#007AFF"/>
<stop offset="0.654" stop-color="#009EFF"/>
<stop offset="0.7859" stop-color="#00B7FF"/>
<stop offset="0.905" stop-color="#00C7FF"/>
<stop offset="1" stop-color="#62E0FF"/>
</linearGradient>
<linearGradient id="paint18_linear_2068_27824" x1="341.115" y1="84.5207" x2="347.569" y2="55.015" gradientUnits="userSpaceOnUse">
<stop stop-color="#000673"/>
<stop offset="0.279381" stop-color="#0044FF"/>
<stop offset="0.417393" stop-color="#004DFF"/>
<stop offset="0.545274" stop-color="#007AFF"/>
<stop offset="0.654" stop-color="#009EFF"/>
<stop offset="0.7859" stop-color="#00B7FF"/>
<stop offset="0.905" stop-color="#00C7FF"/>
<stop offset="1" stop-color="#62E0FF"/>
</linearGradient>
<linearGradient id="paint19_linear_2068_27824" x1="103.116" y1="84.5207" x2="109.57" y2="55.015" gradientUnits="userSpaceOnUse">
<stop stop-color="#000673"/>
<stop offset="0.279381" stop-color="#0044FF"/>
<stop offset="0.417393" stop-color="#004DFF"/>
<stop offset="0.545274" stop-color="#007AFF"/>
<stop offset="0.654" stop-color="#009EFF"/>
<stop offset="0.7859" stop-color="#00B7FF"/>
<stop offset="0.905" stop-color="#00C7FF"/>
<stop offset="1" stop-color="#62E0FF"/>
</linearGradient>
<linearGradient id="paint20_linear_2068_27824" x1="395.115" y1="130.521" x2="401.569" y2="101.015" gradientUnits="userSpaceOnUse">
<stop stop-color="#000673"/>
<stop offset="0.279381" stop-color="#0044FF"/>
<stop offset="0.417393" stop-color="#004DFF"/>
<stop offset="0.545274" stop-color="#007AFF"/>
<stop offset="0.654" stop-color="#009EFF"/>
<stop offset="0.7859" stop-color="#00B7FF"/>
<stop offset="0.905" stop-color="#00C7FF"/>
<stop offset="1" stop-color="#62E0FF"/>
</linearGradient>
<linearGradient id="paint21_linear_2068_27824" x1="157.116" y1="130.521" x2="163.57" y2="101.015" gradientUnits="userSpaceOnUse">
<stop stop-color="#000673"/>
<stop offset="0.279381" stop-color="#0044FF"/>
<stop offset="0.417393" stop-color="#004DFF"/>
<stop offset="0.545274" stop-color="#007AFF"/>
<stop offset="0.654" stop-color="#009EFF"/>
<stop offset="0.7859" stop-color="#00B7FF"/>
<stop offset="0.905" stop-color="#00C7FF"/>
<stop offset="1" stop-color="#62E0FF"/>
</linearGradient>
<linearGradient id="paint22_linear_2068_27824" x1="314.115" y1="143.521" x2="320.569" y2="114.015" gradientUnits="userSpaceOnUse">
<stop stop-color="#000673"/>
<stop offset="0.279381" stop-color="#0044FF"/>
<stop offset="0.417393" stop-color="#004DFF"/>
<stop offset="0.545274" stop-color="#007AFF"/>
<stop offset="0.654" stop-color="#009EFF"/>
<stop offset="0.7859" stop-color="#00B7FF"/>
<stop offset="0.905" stop-color="#00C7FF"/>
<stop offset="1" stop-color="#62E0FF"/>
</linearGradient>
<linearGradient id="paint23_linear_2068_27824" x1="76.1157" y1="143.521" x2="82.5697" y2="114.015" gradientUnits="userSpaceOnUse">
<stop stop-color="#000673"/>
<stop offset="0.279381" stop-color="#0044FF"/>
<stop offset="0.417393" stop-color="#004DFF"/>
<stop offset="0.545274" stop-color="#007AFF"/>
<stop offset="0.654" stop-color="#009EFF"/>
<stop offset="0.7859" stop-color="#00B7FF"/>
<stop offset="0.905" stop-color="#00C7FF"/>
<stop offset="1" stop-color="#62E0FF"/>
</linearGradient>
<linearGradient id="paint24_linear_2068_27824" x1="286.115" y1="183.521" x2="292.569" y2="154.015" gradientUnits="userSpaceOnUse">
<stop stop-color="#000673"/>
<stop offset="0.279381" stop-color="#0044FF"/>
<stop offset="0.417393" stop-color="#004DFF"/>
<stop offset="0.545274" stop-color="#007AFF"/>
<stop offset="0.654" stop-color="#009EFF"/>
<stop offset="0.7859" stop-color="#00B7FF"/>
<stop offset="0.905" stop-color="#00C7FF"/>
<stop offset="1" stop-color="#62E0FF"/>
</linearGradient>
<linearGradient id="paint25_linear_2068_27824" x1="48.1157" y1="183.521" x2="54.5697" y2="154.015" gradientUnits="userSpaceOnUse">
<stop stop-color="#000673"/>
<stop offset="0.279381" stop-color="#0044FF"/>
<stop offset="0.417393" stop-color="#004DFF"/>
<stop offset="0.545274" stop-color="#007AFF"/>
<stop offset="0.654" stop-color="#009EFF"/>
<stop offset="0.7859" stop-color="#00B7FF"/>
<stop offset="0.905" stop-color="#00C7FF"/>
<stop offset="1" stop-color="#62E0FF"/>
</linearGradient>
<linearGradient id="paint26_linear_2068_27824" x1="272.115" y1="236.521" x2="278.569" y2="207.015" gradientUnits="userSpaceOnUse">
<stop stop-color="#000673"/>
<stop offset="0.279381" stop-color="#0044FF"/>
<stop offset="0.417393" stop-color="#004DFF"/>
<stop offset="0.545274" stop-color="#007AFF"/>
<stop offset="0.654" stop-color="#009EFF"/>
<stop offset="0.7859" stop-color="#00B7FF"/>
<stop offset="0.905" stop-color="#00C7FF"/>
<stop offset="1" stop-color="#62E0FF"/>
</linearGradient>
<linearGradient id="paint27_linear_2068_27824" x1="34.1157" y1="236.521" x2="40.5697" y2="207.015" gradientUnits="userSpaceOnUse">
<stop stop-color="#000673"/>
<stop offset="0.279381" stop-color="#0044FF"/>
<stop offset="0.417393" stop-color="#004DFF"/>
<stop offset="0.545274" stop-color="#007AFF"/>
<stop offset="0.654" stop-color="#009EFF"/>
<stop offset="0.7859" stop-color="#00B7FF"/>
<stop offset="0.905" stop-color="#00C7FF"/>
<stop offset="1" stop-color="#62E0FF"/>
</linearGradient>
<linearGradient id="paint28_linear_2068_27824" x1="324.115" y1="261.521" x2="330.569" y2="232.015" gradientUnits="userSpaceOnUse">
<stop stop-color="#000673"/>
<stop offset="0.279381" stop-color="#0044FF"/>
<stop offset="0.417393" stop-color="#004DFF"/>
<stop offset="0.545274" stop-color="#007AFF"/>
<stop offset="0.654" stop-color="#009EFF"/>
<stop offset="0.7859" stop-color="#00B7FF"/>
<stop offset="0.905" stop-color="#00C7FF"/>
<stop offset="1" stop-color="#62E0FF"/>
</linearGradient>
<linearGradient id="paint29_linear_2068_27824" x1="86.1157" y1="261.521" x2="92.5697" y2="232.015" gradientUnits="userSpaceOnUse">
<stop stop-color="#000673"/>
<stop offset="0.279381" stop-color="#0044FF"/>
<stop offset="0.417393" stop-color="#004DFF"/>
<stop offset="0.545274" stop-color="#007AFF"/>
<stop offset="0.654" stop-color="#009EFF"/>
<stop offset="0.7859" stop-color="#00B7FF"/>
<stop offset="0.905" stop-color="#00C7FF"/>
<stop offset="1" stop-color="#62E0FF"/>
</linearGradient>
<linearGradient id="paint30_linear_2068_27824" x1="338.115" y1="216.521" x2="344.569" y2="187.015" gradientUnits="userSpaceOnUse">
<stop stop-color="#000673"/>
<stop offset="0.279381" stop-color="#0044FF"/>
<stop offset="0.417393" stop-color="#004DFF"/>
<stop offset="0.545274" stop-color="#007AFF"/>
<stop offset="0.654" stop-color="#009EFF"/>
<stop offset="0.7859" stop-color="#00B7FF"/>
<stop offset="0.905" stop-color="#00C7FF"/>
<stop offset="1" stop-color="#62E0FF"/>
</linearGradient>
<linearGradient id="paint31_linear_2068_27824" x1="100.116" y1="216.521" x2="106.57" y2="187.015" gradientUnits="userSpaceOnUse">
<stop stop-color="#000673"/>
<stop offset="0.279381" stop-color="#0044FF"/>
<stop offset="0.417393" stop-color="#004DFF"/>
<stop offset="0.545274" stop-color="#007AFF"/>
<stop offset="0.654" stop-color="#009EFF"/>
<stop offset="0.7859" stop-color="#00B7FF"/>
<stop offset="0.905" stop-color="#00C7FF"/>
<stop offset="1" stop-color="#62E0FF"/>
</linearGradient>
<linearGradient id="paint32_linear_2068_27824" x1="390.115" y1="245.521" x2="396.569" y2="216.015" gradientUnits="userSpaceOnUse">
<stop stop-color="#000673"/>
<stop offset="0.279381" stop-color="#0044FF"/>
<stop offset="0.417393" stop-color="#004DFF"/>
<stop offset="0.545274" stop-color="#007AFF"/>
<stop offset="0.654" stop-color="#009EFF"/>
<stop offset="0.7859" stop-color="#00B7FF"/>
<stop offset="0.905" stop-color="#00C7FF"/>
<stop offset="1" stop-color="#62E0FF"/>
</linearGradient>
<linearGradient id="paint33_linear_2068_27824" x1="176.116" y1="191.521" x2="182.57" y2="162.015" gradientUnits="userSpaceOnUse">
<stop stop-color="#000673"/>
<stop offset="0.279381" stop-color="#0044FF"/>
<stop offset="0.417393" stop-color="#004DFF"/>
<stop offset="0.545274" stop-color="#007AFF"/>
<stop offset="0.654" stop-color="#009EFF"/>
<stop offset="0.7859" stop-color="#00B7FF"/>
<stop offset="0.905" stop-color="#00C7FF"/>
<stop offset="1" stop-color="#62E0FF"/>
</linearGradient>
</defs>
</svg>
