<svg width="443" height="308" viewBox="0 0 443 308" fill="none" xmlns="http://www.w3.org/2000/svg">
<path d="M3.414 189H2.21L6.424 179.144H7.446L11.66 189H10.386L9.126 186.032H4.66L3.414 189ZM8.664 184.912L6.9 180.726L5.136 184.912H8.664ZM13.9991 191.8H12.8791V182.7H13.9991V183.442C14.2231 183.181 14.5311 182.971 14.9231 182.812C15.3151 182.644 15.7211 182.56 16.1411 182.56C17.0371 182.56 17.7418 182.859 18.2551 183.456C18.7871 184.044 19.0531 184.809 19.0531 185.752C19.0531 186.713 18.7498 187.521 18.1431 188.174C17.5458 188.818 16.7571 189.14 15.7771 189.14C15.0211 189.14 14.4284 188.995 13.9991 188.706V191.8ZM15.8191 183.61C15.0724 183.61 14.4658 183.899 13.9991 184.478V187.6C14.4938 187.927 15.0538 188.09 15.6791 188.09C16.3418 188.09 16.8691 187.88 17.2611 187.46C17.6624 187.031 17.8631 186.475 17.8631 185.794C17.8631 185.131 17.6811 184.604 17.3171 184.212C16.9531 183.811 16.4538 183.61 15.8191 183.61ZM20.9944 184.03L20.7004 183.134C21.3257 182.751 22.0257 182.56 22.8004 182.56C23.6497 182.56 24.2657 182.77 24.6484 183.19C25.0311 183.61 25.2224 184.259 25.2224 185.136V189H24.1584V188.188C23.6637 188.795 22.9917 189.098 22.1424 189.098C21.5637 189.098 21.0971 188.925 20.7424 188.58C20.3877 188.225 20.2104 187.749 20.2104 187.152C20.2104 186.536 20.4297 186.051 20.8684 185.696C21.3071 185.332 21.8811 185.15 22.5904 185.15C23.2531 185.15 23.7757 185.285 24.1584 185.556C24.1584 184.847 24.0604 184.338 23.8644 184.03C23.6684 183.722 23.2904 183.568 22.7304 183.568C22.1611 183.568 21.5824 183.722 20.9944 184.03ZM22.5344 188.09C23.1597 188.09 23.7011 187.819 24.1584 187.278V186.48C23.7664 186.2 23.2951 186.06 22.7444 186.06C22.3617 186.06 22.0397 186.153 21.7784 186.34C21.5264 186.517 21.4004 186.769 21.4004 187.096C21.4004 187.404 21.4984 187.647 21.6944 187.824C21.8997 188.001 22.1797 188.09 22.5344 188.09ZM31.3958 182.7H32.6978L30.4438 185.738L32.8378 189H31.4658L29.6178 186.452L27.7418 189H26.4398L28.8198 185.794L26.5798 182.7H27.9518L29.6598 185.08L31.3958 182.7ZM38.9535 184.31L35.3135 189H34.1935V182.7H35.3135V187.39L38.9535 182.7H40.0735V189H38.9535V184.31ZM42.2916 190.54H41.2416V187.95H42.0256C42.2589 187.661 42.4642 187.194 42.6416 186.55C42.8189 185.897 42.9356 185.169 42.9916 184.366L43.0896 182.7H47.3876V187.95H48.4376V190.54H47.3876V189H42.2916V190.54ZM44.1396 183.75L44.0696 184.8C44.0136 185.5 43.9016 186.139 43.7336 186.718C43.5656 187.297 43.3929 187.707 43.2156 187.95H46.2676V183.75H44.1396ZM50.1604 188.216C49.5444 187.581 49.2364 186.793 49.2364 185.85C49.2364 184.898 49.5444 184.114 50.1604 183.498C50.7858 182.873 51.5978 182.56 52.5964 182.56C53.5951 182.56 54.4024 182.873 55.0184 183.498C55.6438 184.114 55.9564 184.898 55.9564 185.85C55.9564 186.802 55.6438 187.591 55.0184 188.216C54.4024 188.832 53.5951 189.14 52.5964 189.14C51.6071 189.14 50.7951 188.832 50.1604 188.216ZM51.0424 184.24C50.6318 184.651 50.4264 185.187 50.4264 185.85C50.4264 186.513 50.6271 187.049 51.0284 187.46C51.4391 187.88 51.9618 188.09 52.5964 188.09C53.2311 188.09 53.7491 187.885 54.1504 187.474C54.5611 187.054 54.7664 186.513 54.7664 185.85C54.7664 185.206 54.5611 184.669 54.1504 184.24C53.7491 183.82 53.2311 183.61 52.5964 183.61C51.9618 183.61 51.4438 183.82 51.0424 184.24ZM63.3125 189H62.1925V186.34H58.6925V189H57.5725V182.7H58.6925V185.29H62.1925V182.7H63.3125V189ZM65.3381 189V182.7C65.3847 182.7 65.4501 182.7 65.5341 182.7C65.6181 182.691 65.7394 182.686 65.8981 182.686C66.0567 182.677 66.2014 182.672 66.3321 182.672C67.0227 182.653 67.4521 182.644 67.6201 182.644C69.4307 182.644 70.3361 183.185 70.3361 184.268C70.3361 184.641 70.2194 184.963 69.9861 185.234C69.7527 185.495 69.4494 185.654 69.0761 185.71V185.738C70.0561 185.915 70.5461 186.41 70.5461 187.222C70.5461 188.445 69.5801 189.056 67.6481 189.056C67.5547 189.056 67.1441 189.047 66.4161 189.028C66.2761 189.028 66.1221 189.023 65.9541 189.014C65.7861 189.014 65.6554 189.009 65.5621 189C65.4687 189 65.3941 189 65.3381 189ZM67.8021 186.172H66.4581V188.104C67.1301 188.132 67.5594 188.146 67.7461 188.146C68.8194 188.146 69.3561 187.81 69.3561 187.138C69.3561 186.494 68.8381 186.172 67.8021 186.172ZM67.7041 183.554C67.4334 183.554 67.0181 183.568 66.4581 183.596V185.472H67.8721C68.2547 185.472 68.5627 185.383 68.7961 185.206C69.0294 185.029 69.1461 184.791 69.1461 184.492C69.1461 183.867 68.6654 183.554 67.7041 183.554ZM72.592 184.03L72.298 183.134C72.9234 182.751 73.6234 182.56 74.398 182.56C75.2474 182.56 75.8634 182.77 76.246 183.19C76.6287 183.61 76.82 184.259 76.82 185.136V189H75.756V188.188C75.2614 188.795 74.5894 189.098 73.74 189.098C73.1614 189.098 72.6947 188.925 72.34 188.58C71.9854 188.225 71.808 187.749 71.808 187.152C71.808 186.536 72.0274 186.051 72.466 185.696C72.9047 185.332 73.4787 185.15 74.188 185.15C74.8507 185.15 75.3734 185.285 75.756 185.556C75.756 184.847 75.658 184.338 75.462 184.03C75.266 183.722 74.888 183.568 74.328 183.568C73.7587 183.568 73.18 183.722 72.592 184.03ZM74.132 188.09C74.7574 188.09 75.2987 187.819 75.756 187.278V186.48C75.364 186.2 74.8927 186.06 74.342 186.06C73.9594 186.06 73.6374 186.153 73.376 186.34C73.124 186.517 72.998 186.769 72.998 187.096C72.998 187.404 73.096 187.647 73.292 187.824C73.4974 188.001 73.7774 188.09 74.132 188.09ZM81.4535 182.7H83.4135V189H82.2935V186.9H81.0755L79.5355 189H78.1775L79.9975 186.62C79.6148 186.536 79.2928 186.331 79.0315 186.004C78.7702 185.668 78.6395 185.267 78.6395 184.8C78.6395 184.156 78.8728 183.647 79.3395 183.274C79.8062 182.891 80.5108 182.7 81.4535 182.7ZM79.8295 184.828C79.8295 185.127 79.9462 185.374 80.1795 185.57C80.4128 185.757 80.6882 185.85 81.0055 185.85H82.2935V183.75H81.2715C80.7955 183.75 80.4362 183.848 80.1935 184.044C79.9508 184.24 79.8295 184.501 79.8295 184.828ZM7.054 198.7H8.524L5.766 201.71L8.79 205H7.236L4.394 201.78L7.054 198.7ZM4.128 205H3.008V198.7H4.128V205ZM14.7407 200.31L11.1007 205H9.98066V198.7H11.1007V203.39L14.7407 198.7H15.8607V205H14.7407V200.31ZM22.7407 203.278L23.2727 204.09C22.7313 204.79 21.924 205.14 20.8507 205.14C19.8427 205.14 19.026 204.841 18.4007 204.244C17.7847 203.647 17.4767 202.849 17.4767 201.85C17.4767 200.926 17.78 200.147 18.3867 199.512C18.9933 198.877 19.754 198.56 20.6687 198.56C21.77 198.56 22.596 198.835 23.1467 199.386L22.6287 200.268C22.1433 199.829 21.5413 199.61 20.8227 199.61C20.2347 199.61 19.726 199.825 19.2967 200.254C18.8767 200.674 18.6667 201.206 18.6667 201.85C18.6667 202.531 18.8813 203.073 19.3107 203.474C19.7493 203.885 20.2907 204.09 20.9347 204.09C21.6627 204.09 22.2647 203.819 22.7407 203.278ZM30.0416 205H28.9216V199.82H26.7096L26.6396 200.884C26.5649 201.752 26.4529 202.475 26.3036 203.054C26.1636 203.623 25.9769 204.053 25.7436 204.342C25.5196 204.622 25.2816 204.818 25.0296 204.93C24.7776 205.033 24.4696 205.084 24.1056 205.084L24.0216 203.992C24.1242 204.001 24.2316 203.987 24.3436 203.95C24.4556 203.903 24.5769 203.81 24.7076 203.67C24.8476 203.53 24.9689 203.343 25.0716 203.11C25.1836 202.877 25.2816 202.55 25.3656 202.13C25.4589 201.701 25.5196 201.211 25.5476 200.66L25.6596 198.7H30.0416V205ZM32.5647 204.216C31.9487 203.581 31.6407 202.793 31.6407 201.85C31.6407 200.898 31.9487 200.114 32.5647 199.498C33.1901 198.873 34.0021 198.56 35.0007 198.56C35.9994 198.56 36.8067 198.873 37.4227 199.498C38.0481 200.114 38.3607 200.898 38.3607 201.85C38.3607 202.802 38.0481 203.591 37.4227 204.216C36.8067 204.832 35.9994 205.14 35.0007 205.14C34.0114 205.14 33.1994 204.832 32.5647 204.216ZM33.4467 200.24C33.0361 200.651 32.8307 201.187 32.8307 201.85C32.8307 202.513 33.0314 203.049 33.4327 203.46C33.8434 203.88 34.3661 204.09 35.0007 204.09C35.6354 204.09 36.1534 203.885 36.5547 203.474C36.9654 203.054 37.1707 202.513 37.1707 201.85C37.1707 201.206 36.9654 200.669 36.5547 200.24C36.1534 199.82 35.6354 199.61 35.0007 199.61C34.3661 199.61 33.8481 199.82 33.4467 200.24ZM41.2427 199.82H38.9327V198.7H44.6727V199.82H42.3627V205H41.2427V199.82ZM46.2327 200.03L45.9387 199.134C46.564 198.751 47.264 198.56 48.0387 198.56C48.888 198.56 49.504 198.77 49.8867 199.19C50.2693 199.61 50.4607 200.259 50.4607 201.136V205H49.3967V204.188C48.902 204.795 48.23 205.098 47.3807 205.098C46.802 205.098 46.3353 204.925 45.9807 204.58C45.626 204.225 45.4487 203.749 45.4487 203.152C45.4487 202.536 45.668 202.051 46.1067 201.696C46.5453 201.332 47.1193 201.15 47.8287 201.15C48.4913 201.15 49.014 201.285 49.3967 201.556C49.3967 200.847 49.2987 200.338 49.1027 200.03C48.9067 199.722 48.5287 199.568 47.9687 199.568C47.3993 199.568 46.8207 199.722 46.2327 200.03ZM47.7727 204.09C48.398 204.09 48.9393 203.819 49.3967 203.278V202.48C49.0047 202.2 48.5333 202.06 47.9827 202.06C47.6 202.06 47.278 202.153 47.0167 202.34C46.7647 202.517 46.6387 202.769 46.6387 203.096C46.6387 203.404 46.7367 203.647 46.9327 203.824C47.138 204.001 47.418 204.09 47.7727 204.09Z" fill="#1E76E2"/>
<path d="M2 266V304.987H409C425.247 302.962 427.493 279.165 430 267.013L2 266Z" fill="url(#paint0_linear_2068_28181)"/>
<rect x="1" y="250" width="70" height="21" rx="6" fill="url(#paint1_linear_2068_28181)"/>
<path d="M145 254.271C145 251.714 146.618 249.44 149.077 248.74C153.697 247.425 161.321 245.604 167 246.001C171.302 246.301 177.592 248.089 178.796 248.441C178.934 248.481 179.065 248.525 179.199 248.575C180.388 249.018 186.654 251.304 191 252.001C195.99 252.801 202.546 252.164 207.546 251.403C211.375 250.82 215 253.716 215 257.59V265.001C215 268.314 212.314 271.001 209 271.001H151C147.686 271.001 145 268.314 145 265.001V254.271Z" fill="#D70A42"/>
<path d="M145 254.271C145 251.714 146.618 249.44 149.077 248.74C153.697 247.425 161.321 245.604 167 246.001C171.302 246.301 177.592 248.089 178.796 248.441C178.934 248.481 179.065 248.525 179.199 248.575C180.388 249.018 186.654 251.304 191 252.001C195.99 252.801 202.546 252.164 207.546 251.403C211.375 250.82 215 253.716 215 257.59V265.001C215 268.314 212.314 271.001 209 271.001H151C147.686 271.001 145 268.314 145 265.001V254.271Z" fill="url(#paint2_linear_2068_28181)"/>
<path d="M287 254.271C287 251.714 285.382 249.44 282.923 248.74C278.303 247.425 270.679 245.604 265 246.001C260.698 246.301 254.408 248.089 253.204 248.441C253.066 248.481 252.935 248.525 252.801 248.575C251.612 249.018 245.346 251.304 241 252.001C236.01 252.801 229.454 252.164 224.454 251.403C220.625 250.82 217 253.716 217 257.59V265.001C217 268.314 219.686 271.001 223 271.001H281C284.314 271.001 287 268.314 287 265.001V254.271Z" fill="#D70A42"/>
<path d="M287 254.271C287 251.714 285.382 249.44 282.923 248.74C278.303 247.425 270.679 245.604 265 246.001C260.698 246.301 254.408 248.089 253.204 248.441C253.066 248.481 252.935 248.525 252.801 248.575C251.612 249.018 245.346 251.304 241 252.001C236.01 252.801 229.454 252.164 224.454 251.403C220.625 250.82 217 253.716 217 257.59V265.001C217 268.314 219.686 271.001 223 271.001H281C284.314 271.001 287 268.314 287 265.001V254.271Z" fill="url(#paint3_linear_2068_28181)"/>
<rect x="73" y="250" width="70" height="21" rx="6" fill="#D70A42"/>
<rect x="73" y="250" width="70" height="21" rx="6" fill="url(#paint4_linear_2068_28181)"/>
<rect x="289" y="250" width="70" height="21" rx="6" fill="#D70A42"/>
<rect x="289" y="250" width="70" height="21" rx="6" fill="url(#paint5_linear_2068_28181)"/>
<rect x="361" y="250" width="70" height="21" rx="6" fill="#D70A42"/>
<rect x="361" y="250" width="70" height="21" rx="6" fill="url(#paint6_linear_2068_28181)"/>
<path fill-rule="evenodd" clip-rule="evenodd" d="M0 2C0 0.89543 0.89543 0 2 0H405.5C407.975 -9.5365e-07 410.045 0.0275023 411.765 0.288193C413.543 0.557535 415.084 1.09271 416.452 2.19014C417.781 3.25665 418.786 4.72809 419.736 6.5657C420.685 8.40016 421.663 10.7715 422.857 13.7572C424.433 17.6961 427.649 29.3573 430.994 46.4597C434.351 63.6195 437.862 86.3812 439.993 112.587C444.252 164.947 443.015 231.175 423.947 293.969C423.1 298.508 418.446 307.058 406.574 307.498C395.722 307.9 84.6183 307.666 1.99597 307.499C0.891404 307.497 -0.00222683 306.6 0 305.495C0.00222695 304.391 0.899461 303.497 2.00403 303.499C84.715 303.666 395.678 303.899 406.426 303.501C416.042 303.144 419.48 296.319 420.03 293.156C420.044 293.076 420.063 292.996 420.086 292.917C438.987 230.745 440.245 165.021 436.007 112.912C433.888 86.8682 430.399 64.2551 427.068 47.2276C423.726 30.1426 420.567 18.8039 419.143 15.2428C417.937 12.2285 417.028 10.0373 416.183 8.40305C415.339 6.77191 414.644 5.86835 413.948 5.30986C413.291 4.78229 412.482 4.44246 411.166 4.24305C409.793 4.035 408.025 4 405.5 4H2C0.89543 4 0 3.10457 0 2Z" fill="#D70A42"/>
<g filter="url(#filter0_d_2068_28181)">
<g filter="url(#filter1_f_2068_28181)">
<path d="M208.001 81.8513C210.488 86.2146 212.623 88.2374 216.763 88.231C219.012 88.2275 231.001 85 223.001 82.9996C213.805 80.7002 205.772 70.0098 208.001 81.8513Z" fill="#000673"/>
</g>
<g filter="url(#filter2_d_2068_28181)">
<path d="M207 74.9225C207 81.5071 212.373 86.845 219 86.845C225.627 86.845 231 81.5071 231 74.9225C231 68.3379 225.627 63 219 63C212.373 63 207 68.3379 207 74.9225Z" fill="#1E76E2"/>
<path d="M207 74.9225C207 81.5071 212.373 86.845 219 86.845C225.627 86.845 231 81.5071 231 74.9225C231 68.3379 225.627 63 219 63C212.373 63 207 68.3379 207 74.9225Z" fill="url(#paint7_linear_2068_28181)"/>
</g>
</g>
<g filter="url(#filter3_d_2068_28181)">
<g filter="url(#filter4_f_2068_28181)">
<path d="M288.001 62.8513C290.488 67.2146 292.623 69.2374 296.763 69.231C299.012 69.2275 311.001 66 303.001 63.9996C293.805 61.7002 285.772 51.0098 288.001 62.8513Z" fill="#000673"/>
</g>
<g filter="url(#filter5_d_2068_28181)">
<path d="M287 55.9225C287 62.5071 292.373 67.845 299 67.845C305.627 67.845 311 62.5071 311 55.9225C311 49.3379 305.627 44 299 44C292.373 44 287 49.3379 287 55.9225Z" fill="#1E76E2"/>
<path d="M287 55.9225C287 62.5071 292.373 67.845 299 67.845C305.627 67.845 311 62.5071 311 55.9225C311 49.3379 305.627 44 299 44C292.373 44 287 49.3379 287 55.9225Z" fill="url(#paint8_linear_2068_28181)"/>
</g>
</g>
<g filter="url(#filter6_d_2068_28181)">
<g filter="url(#filter7_f_2068_28181)">
<path d="M22.0008 47.8513C24.4882 52.2146 26.623 54.2374 30.7629 54.231C33.0121 54.2275 45.001 51 37.0009 48.9996C27.8052 46.7002 19.7715 36.0098 22.0008 47.8513Z" fill="#000673"/>
</g>
<g filter="url(#filter8_d_2068_28181)">
<path d="M21 40.9225C21 47.5071 26.3726 52.845 33 52.845C39.6274 52.845 45 47.5071 45 40.9225C45 34.3379 39.6274 29 33 29C26.3726 29 21 34.3379 21 40.9225Z" fill="#1E76E2"/>
<path d="M21 40.9225C21 47.5071 26.3726 52.845 33 52.845C39.6274 52.845 45 47.5071 45 40.9225C45 34.3379 39.6274 29 33 29C26.3726 29 21 34.3379 21 40.9225Z" fill="url(#paint9_linear_2068_28181)"/>
</g>
</g>
<g filter="url(#filter9_d_2068_28181)">
<g filter="url(#filter10_f_2068_28181)">
<path d="M336.001 41.8513C338.488 46.2146 340.623 48.2374 344.763 48.231C347.012 48.2275 359.001 45 351.001 42.9996C341.805 40.7002 333.772 30.0098 336.001 41.8513Z" fill="#000673"/>
</g>
<g filter="url(#filter11_d_2068_28181)">
<path d="M335 34.9225C335 41.5071 340.373 46.845 347 46.845C353.627 46.845 359 41.5071 359 34.9225C359 28.3379 353.627 23 347 23C340.373 23 335 28.3379 335 34.9225Z" fill="#1E76E2"/>
<path d="M335 34.9225C335 41.5071 340.373 46.845 347 46.845C353.627 46.845 359 41.5071 359 34.9225C359 28.3379 353.627 23 347 23C340.373 23 335 28.3379 335 34.9225Z" fill="url(#paint10_linear_2068_28181)"/>
</g>
</g>
<g filter="url(#filter12_d_2068_28181)">
<g filter="url(#filter13_f_2068_28181)">
<path d="M97.0008 49.8513C99.4882 54.2146 101.623 56.2374 105.763 56.231C108.012 56.2275 120.001 53 112.001 50.9996C102.805 48.7002 94.7715 38.0098 97.0008 49.8513Z" fill="#000673"/>
</g>
<g filter="url(#filter14_d_2068_28181)">
<path d="M96 42.9225C96 49.5071 101.373 54.845 108 54.845C114.627 54.845 120 49.5071 120 42.9225C120 36.3379 114.627 31 108 31C101.373 31 96 36.3379 96 42.9225Z" fill="#1E76E2"/>
<path d="M96 42.9225C96 49.5071 101.373 54.845 108 54.845C114.627 54.845 120 49.5071 120 42.9225C120 36.3379 114.627 31 108 31C101.373 31 96 36.3379 96 42.9225Z" fill="url(#paint11_linear_2068_28181)"/>
</g>
</g>
<g filter="url(#filter15_d_2068_28181)">
<g filter="url(#filter16_f_2068_28181)">
<path d="M395.001 56.8513C397.488 61.2146 399.623 63.2374 403.763 63.231C406.012 63.2275 418.001 60 410.001 57.9996C400.805 55.7002 392.772 45.0098 395.001 56.8513Z" fill="#000673"/>
</g>
<g filter="url(#filter17_d_2068_28181)">
<path d="M394 49.9225C394 56.5071 399.373 61.845 406 61.845C412.627 61.845 418 56.5071 418 49.9225C418 43.3379 412.627 38 406 38C399.373 38 394 43.3379 394 49.9225Z" fill="#1E76E2"/>
<path d="M394 49.9225C394 56.5071 399.373 61.845 406 61.845C412.627 61.845 418 56.5071 418 49.9225C418 43.3379 412.627 38 406 38C399.373 38 394 43.3379 394 49.9225Z" fill="url(#paint12_linear_2068_28181)"/>
</g>
</g>
<g filter="url(#filter18_d_2068_28181)">
<g filter="url(#filter19_f_2068_28181)">
<path d="M336.001 90.8513C338.488 95.2146 340.623 97.2374 344.763 97.231C347.012 97.2275 359.001 94 351.001 91.9996C341.805 89.7002 333.772 79.0098 336.001 90.8513Z" fill="#000673"/>
</g>
<g filter="url(#filter20_d_2068_28181)">
<path d="M335 83.9225C335 90.5071 340.373 95.845 347 95.845C353.627 95.845 359 90.5071 359 83.9225C359 77.3379 353.627 72 347 72C340.373 72 335 77.3379 335 83.9225Z" fill="#1E76E2"/>
<path d="M335 83.9225C335 90.5071 340.373 95.845 347 95.845C353.627 95.845 359 90.5071 359 83.9225C359 77.3379 353.627 72 347 72C340.373 72 335 77.3379 335 83.9225Z" fill="url(#paint13_linear_2068_28181)"/>
</g>
</g>
<g filter="url(#filter21_d_2068_28181)">
<g filter="url(#filter22_f_2068_28181)">
<path d="M147.001 84.8513C149.488 89.2146 151.623 91.2374 155.763 91.231C158.012 91.2275 170.001 88 162.001 85.9996C152.805 83.7002 144.772 73.0098 147.001 84.8513Z" fill="#000673"/>
</g>
<g filter="url(#filter23_d_2068_28181)">
<path d="M146 77.9225C146 84.5071 151.373 89.845 158 89.845C164.627 89.845 170 84.5071 170 77.9225C170 71.3379 164.627 66 158 66C151.373 66 146 71.3379 146 77.9225Z" fill="#1E76E2"/>
<path d="M146 77.9225C146 84.5071 151.373 89.845 158 89.845C164.627 89.845 170 84.5071 170 77.9225C170 71.3379 164.627 66 158 66C151.373 66 146 71.3379 146 77.9225Z" fill="url(#paint14_linear_2068_28181)"/>
</g>
</g>
<g filter="url(#filter24_d_2068_28181)">
<g filter="url(#filter25_f_2068_28181)">
<path d="M267.001 115.851C269.488 120.215 271.623 122.237 275.763 122.231C278.012 122.228 290.001 119 282.001 117C272.805 114.7 264.772 104.01 267.001 115.851Z" fill="#000673"/>
</g>
<g filter="url(#filter26_d_2068_28181)">
<path d="M266 108.922C266 115.507 271.373 120.845 278 120.845C284.627 120.845 290 115.507 290 108.922C290 102.338 284.627 97 278 97C271.373 97 266 102.338 266 108.922Z" fill="#1E76E2"/>
<path d="M266 108.922C266 115.507 271.373 120.845 278 120.845C284.627 120.845 290 115.507 290 108.922C290 102.338 284.627 97 278 97C271.373 97 266 102.338 266 108.922Z" fill="url(#paint15_linear_2068_28181)"/>
</g>
</g>
<g filter="url(#filter27_d_2068_28181)">
<g filter="url(#filter28_f_2068_28181)">
<path d="M50.0008 89.8513C52.4882 94.2146 54.623 96.2374 58.7629 96.231C61.0121 96.2275 73.001 93 65.0009 90.9996C55.8052 88.7002 47.7715 78.0098 50.0008 89.8513Z" fill="#000673"/>
</g>
<g filter="url(#filter29_d_2068_28181)">
<path d="M49 82.9225C49 89.5071 54.3726 94.845 61 94.845C67.6274 94.845 73 89.5071 73 82.9225C73 76.3379 67.6274 71 61 71C54.3726 71 49 76.3379 49 82.9225Z" fill="#1E76E2"/>
<path d="M49 82.9225C49 89.5071 54.3726 94.845 61 94.845C67.6274 94.845 73 89.5071 73 82.9225C73 76.3379 67.6274 71 61 71C54.3726 71 49 76.3379 49 82.9225Z" fill="url(#paint16_linear_2068_28181)"/>
</g>
</g>
<g filter="url(#filter30_d_2068_28181)">
<g filter="url(#filter31_f_2068_28181)">
<path d="M343.001 147.851C345.488 152.215 347.623 154.237 351.763 154.231C354.012 154.228 366.001 151 358.001 149C348.805 146.7 340.772 136.01 343.001 147.851Z" fill="#000673"/>
</g>
<g filter="url(#filter32_d_2068_28181)">
<path d="M342 140.922C342 147.507 347.373 152.845 354 152.845C360.627 152.845 366 147.507 366 140.922C366 134.338 360.627 129 354 129C347.373 129 342 134.338 342 140.922Z" fill="#1E76E2"/>
<path d="M342 140.922C342 147.507 347.373 152.845 354 152.845C360.627 152.845 366 147.507 366 140.922C366 134.338 360.627 129 354 129C347.373 129 342 134.338 342 140.922Z" fill="url(#paint17_linear_2068_28181)"/>
</g>
</g>
<g filter="url(#filter33_d_2068_28181)">
<g filter="url(#filter34_f_2068_28181)">
<path d="M107.001 127.851C109.488 132.215 111.623 134.237 115.763 134.231C118.012 134.228 130.001 131 122.001 129C112.805 126.7 104.772 116.01 107.001 127.851Z" fill="#000673"/>
</g>
<g filter="url(#filter35_d_2068_28181)">
<path d="M106 120.922C106 127.507 111.373 132.845 118 132.845C124.627 132.845 130 127.507 130 120.922C130 114.338 124.627 109 118 109C111.373 109 106 114.338 106 120.922Z" fill="#1E76E2"/>
<path d="M106 120.922C106 127.507 111.373 132.845 118 132.845C124.627 132.845 130 127.507 130 120.922C130 114.338 124.627 109 118 109C111.373 109 106 114.338 106 120.922Z" fill="url(#paint18_linear_2068_28181)"/>
</g>
</g>
<g clip-path="url(#clip0_2068_28181)">
<rect x="362" y="180" width="64" height="27" rx="8" fill="#1E76E2"/>
<path d="M371.888 194.04H369.056V192.44H371.888V189.544H373.616V192.44H376.48V194.04H373.616V196.968H371.888V194.04ZM387.611 199H379.083V187.8H381.051V197.16H385.963V187.8H387.931V197.16H389.451V201H387.611V199ZM390.345 193.4C390.345 191.768 390.889 190.397 391.977 189.288C393.086 188.179 394.484 187.624 396.169 187.624C397.854 187.624 399.246 188.157 400.345 189.224C401.454 190.301 402.009 191.693 402.009 193.4C402.009 195.075 401.454 196.456 400.345 197.544C399.236 198.632 397.844 199.176 396.169 199.176C394.484 199.176 393.092 198.643 391.993 197.576C390.894 196.509 390.345 195.117 390.345 193.4ZM392.425 193.4C392.425 194.531 392.782 195.469 393.497 196.216C394.212 196.963 395.102 197.336 396.169 197.336C397.321 197.336 398.233 196.963 398.905 196.216C399.588 195.469 399.929 194.531 399.929 193.4C399.929 192.259 399.566 191.315 398.841 190.568C398.116 189.832 397.225 189.464 396.169 189.464C395.092 189.464 394.196 189.832 393.481 190.568C392.777 191.304 392.425 192.248 392.425 193.4ZM406.254 199H404.286V187.8H410.606V189.64H406.254V199ZM415.562 191.432L414.586 189.912L417.45 187.768H418.778V199H416.938V190.392L415.562 191.432Z" fill="white"/>
<line x1="371.293" y1="217.547" x2="416.548" y2="172.292" stroke="#D70A42" stroke-width="2"/>
<line y1="-1" x2="64" y2="-1" transform="matrix(-0.707107 -0.707107 -0.707107 0.707107 417.254 218.508)" stroke="#D70A42" stroke-width="2"/>
</g>
<path d="M181.318 124.81H178.14V123.2H186.218V124.81H183.04V133H181.318V124.81ZM187.164 135.8H185.554V126.7H187.164V127.302C187.37 127.078 187.65 126.896 188.004 126.756C188.359 126.616 188.728 126.546 189.11 126.546C189.978 126.546 190.669 126.845 191.182 127.442C191.705 128.049 191.966 128.819 191.966 129.752C191.966 130.732 191.658 131.544 191.042 132.188C190.426 132.832 189.624 133.154 188.634 133.154C188 133.154 187.51 133.051 187.164 132.846V135.8ZM188.606 128.058C188.046 128.058 187.566 128.287 187.164 128.744V131.292C187.547 131.535 187.99 131.656 188.494 131.656C189.026 131.656 189.451 131.483 189.768 131.138C190.095 130.793 190.258 130.345 190.258 129.794C190.258 129.271 190.109 128.851 189.81 128.534C189.521 128.217 189.12 128.058 188.606 128.058ZM193.907 132.23C193.282 131.605 192.969 130.811 192.969 129.85C192.969 128.889 193.282 128.1 193.907 127.484C194.532 126.859 195.363 126.546 196.399 126.546C197.426 126.546 198.252 126.859 198.877 127.484C199.512 128.1 199.829 128.889 199.829 129.85C199.829 130.802 199.512 131.595 198.877 132.23C198.242 132.846 197.416 133.154 196.399 133.154C195.363 133.154 194.532 132.846 193.907 132.23ZM195.181 128.562C194.854 128.898 194.691 129.327 194.691 129.85C194.691 130.373 194.85 130.807 195.167 131.152C195.494 131.488 195.904 131.656 196.399 131.656C196.903 131.656 197.314 131.488 197.631 131.152C197.958 130.816 198.121 130.382 198.121 129.85C198.121 129.327 197.958 128.898 197.631 128.562C197.304 128.226 196.894 128.058 196.399 128.058C195.914 128.058 195.508 128.226 195.181 128.562ZM202.832 133H201.222V126.7H202.678L204.82 129.332L206.85 126.7H208.264V133H206.654V129.15L204.792 131.502H204.75L202.832 129.15V133ZM214.786 123.046L215.626 124.362C215.402 124.642 215.122 124.847 214.786 124.978C214.488 125.081 214.114 125.183 213.666 125.286C213.228 125.37 212.864 125.487 212.574 125.636C211.8 126 211.347 126.784 211.216 127.988H211.244C211.44 127.643 211.744 127.363 212.154 127.148C212.565 126.924 212.999 126.812 213.456 126.812C214.324 126.812 215.02 127.092 215.542 127.652C216.065 128.221 216.326 128.973 216.326 129.906C216.326 130.811 216.018 131.581 215.402 132.216C214.786 132.841 213.993 133.154 213.022 133.154C211.968 133.154 211.132 132.795 210.516 132.076C209.91 131.357 209.606 130.387 209.606 129.164C209.606 126.476 210.4 124.787 211.986 124.096C212.332 123.947 212.714 123.835 213.134 123.76C213.61 123.667 213.96 123.578 214.184 123.494C214.408 123.401 214.609 123.251 214.786 123.046ZM211.328 129.5C211.338 130.135 211.492 130.653 211.79 131.054C212.089 131.455 212.486 131.656 212.98 131.656C213.466 131.656 213.858 131.497 214.156 131.18C214.455 130.863 214.604 130.461 214.604 129.976C214.604 129.481 214.464 129.08 214.184 128.772C213.914 128.464 213.536 128.31 213.05 128.31C212.63 128.31 212.266 128.422 211.958 128.646C211.65 128.861 211.44 129.145 211.328 129.5ZM218.27 132.23C217.645 131.605 217.332 130.811 217.332 129.85C217.332 128.889 217.645 128.1 218.27 127.484C218.895 126.859 219.726 126.546 220.762 126.546C221.789 126.546 222.615 126.859 223.24 127.484C223.875 128.1 224.192 128.889 224.192 129.85C224.192 130.802 223.875 131.595 223.24 132.23C222.605 132.846 221.779 133.154 220.762 133.154C219.726 133.154 218.895 132.846 218.27 132.23ZM219.544 128.562C219.217 128.898 219.054 129.327 219.054 129.85C219.054 130.373 219.213 130.807 219.53 131.152C219.857 131.488 220.267 131.656 220.762 131.656C221.266 131.656 221.677 131.488 221.994 131.152C222.321 130.816 222.484 130.382 222.484 129.85C222.484 129.327 222.321 128.898 221.994 128.562C221.667 128.226 221.257 128.058 220.762 128.058C220.277 128.058 219.871 128.226 219.544 128.562ZM229.519 126.7H231.549L229.127 129.696L231.843 133H229.743L227.251 129.822L229.519 126.7ZM227.195 133H225.585V126.7H227.195V133ZM237.182 130.886L237.938 132.062C237.406 132.79 236.57 133.154 235.432 133.154C234.414 133.154 233.588 132.851 232.954 132.244C232.328 131.647 232.016 130.849 232.016 129.85C232.016 128.907 232.324 128.123 232.94 127.498C233.556 126.863 234.335 126.546 235.278 126.546C236.398 126.546 237.242 126.831 237.812 127.4L237.056 128.674C236.626 128.263 236.104 128.058 235.488 128.058C235.021 128.058 234.61 128.226 234.256 128.562C233.91 128.879 233.738 129.309 233.738 129.85C233.738 130.391 233.915 130.83 234.27 131.166C234.643 131.493 235.072 131.656 235.558 131.656C236.183 131.656 236.724 131.399 237.182 130.886ZM239.72 128.324L239.314 127.148C239.995 126.747 240.737 126.546 241.54 126.546C242.417 126.546 243.057 126.761 243.458 127.19C243.859 127.619 244.06 128.277 244.06 129.164V133H242.66V132.272C242.287 132.813 241.666 133.084 240.798 133.084C240.201 133.084 239.72 132.911 239.356 132.566C239.001 132.211 238.824 131.74 238.824 131.152C238.824 130.499 239.034 129.995 239.454 129.64C239.874 129.285 240.429 129.108 241.12 129.108C241.689 129.108 242.165 129.243 242.548 129.514C242.567 128.954 242.483 128.543 242.296 128.282C242.119 128.021 241.811 127.89 241.372 127.89C240.887 127.89 240.336 128.035 239.72 128.324ZM241.33 131.726C241.871 131.726 242.277 131.535 242.548 131.152V130.508C242.287 130.303 241.918 130.2 241.442 130.2C241.143 130.2 240.901 130.27 240.714 130.41C240.527 130.55 240.434 130.741 240.434 130.984C240.434 131.208 240.518 131.39 240.686 131.53C240.854 131.661 241.069 131.726 241.33 131.726ZM251.688 133H250.078V130.592H247.32V133H245.71V126.7H247.32V129.08H250.078V126.7H251.688V133Z" fill="#1E76E2"/>
<line x1="192.293" y1="150.547" x2="237.548" y2="105.292" stroke="#D70A42" stroke-width="2"/>
<line y1="-1" x2="64" y2="-1" transform="matrix(-0.707107 -0.707107 -0.707107 0.707107 238.254 151.508)" stroke="#D70A42" stroke-width="2"/>
<path fill-rule="evenodd" clip-rule="evenodd" d="M244 220L252.66 205L261.321 220H254.16V243H251.16V220H244Z" fill="#1E76E2"/>
<path fill-rule="evenodd" clip-rule="evenodd" d="M170 220L178.66 205L187.321 220H180.16V243H177.16V220H170Z" fill="#1E76E2"/>
<path fill-rule="evenodd" clip-rule="evenodd" d="M207 176L215.66 161L224.321 176H217.16V199H214.16V176H207Z" fill="#1E76E2"/>
<defs>
<filter id="filter0_d_2068_28181" x="203" y="63" width="32" height="33.2305" filterUnits="userSpaceOnUse" color-interpolation-filters="sRGB">
<feFlood flood-opacity="0" result="BackgroundImageFix"/>
<feColorMatrix in="SourceAlpha" type="matrix" values="0 0 0 0 0 0 0 0 0 0 0 0 0 0 0 0 0 0 127 0" result="hardAlpha"/>
<feOffset dy="4"/>
<feGaussianBlur stdDeviation="2"/>
<feComposite in2="hardAlpha" operator="out"/>
<feColorMatrix type="matrix" values="0 0 0 0 0 0 0 0 0 0 0 0 0 0 0 0 0 0 0.25 0"/>
<feBlend mode="normal" in2="BackgroundImageFix" result="effect1_dropShadow_2068_28181"/>
<feBlend mode="normal" in="SourceGraphic" in2="effect1_dropShadow_2068_28181" result="shape"/>
</filter>
<filter id="filter1_f_2068_28181" x="204.634" y="73.3801" width="24.0758" height="17.8414" filterUnits="userSpaceOnUse" color-interpolation-filters="sRGB">
<feFlood flood-opacity="0" result="BackgroundImageFix"/>
<feBlend mode="normal" in="SourceGraphic" in2="BackgroundImageFix" result="shape"/>
<feGaussianBlur stdDeviation="1.4955" result="effect1_foregroundBlur_2068_28181"/>
</filter>
<filter id="filter2_d_2068_28181" x="202.859" y="63" width="32.2828" height="32.1285" filterUnits="userSpaceOnUse" color-interpolation-filters="sRGB">
<feFlood flood-opacity="0" result="BackgroundImageFix"/>
<feColorMatrix in="SourceAlpha" type="matrix" values="0 0 0 0 0 0 0 0 0 0 0 0 0 0 0 0 0 0 127 0" result="hardAlpha"/>
<feOffset dy="4.14139"/>
<feGaussianBlur stdDeviation="2.07069"/>
<feComposite in2="hardAlpha" operator="out"/>
<feColorMatrix type="matrix" values="0 0 0 0 0.137255 0 0 0 0 0.266667 0 0 0 0 0.717647 0 0 0 0.2 0"/>
<feBlend mode="normal" in2="BackgroundImageFix" result="effect1_dropShadow_2068_28181"/>
<feBlend mode="normal" in="SourceGraphic" in2="effect1_dropShadow_2068_28181" result="shape"/>
</filter>
<filter id="filter3_d_2068_28181" x="283" y="44" width="32" height="33.2305" filterUnits="userSpaceOnUse" color-interpolation-filters="sRGB">
<feFlood flood-opacity="0" result="BackgroundImageFix"/>
<feColorMatrix in="SourceAlpha" type="matrix" values="0 0 0 0 0 0 0 0 0 0 0 0 0 0 0 0 0 0 127 0" result="hardAlpha"/>
<feOffset dy="4"/>
<feGaussianBlur stdDeviation="2"/>
<feComposite in2="hardAlpha" operator="out"/>
<feColorMatrix type="matrix" values="0 0 0 0 0 0 0 0 0 0 0 0 0 0 0 0 0 0 0.25 0"/>
<feBlend mode="normal" in2="BackgroundImageFix" result="effect1_dropShadow_2068_28181"/>
<feBlend mode="normal" in="SourceGraphic" in2="effect1_dropShadow_2068_28181" result="shape"/>
</filter>
<filter id="filter4_f_2068_28181" x="284.634" y="54.3801" width="24.0758" height="17.8414" filterUnits="userSpaceOnUse" color-interpolation-filters="sRGB">
<feFlood flood-opacity="0" result="BackgroundImageFix"/>
<feBlend mode="normal" in="SourceGraphic" in2="BackgroundImageFix" result="shape"/>
<feGaussianBlur stdDeviation="1.4955" result="effect1_foregroundBlur_2068_28181"/>
</filter>
<filter id="filter5_d_2068_28181" x="282.859" y="44" width="32.2828" height="32.1285" filterUnits="userSpaceOnUse" color-interpolation-filters="sRGB">
<feFlood flood-opacity="0" result="BackgroundImageFix"/>
<feColorMatrix in="SourceAlpha" type="matrix" values="0 0 0 0 0 0 0 0 0 0 0 0 0 0 0 0 0 0 127 0" result="hardAlpha"/>
<feOffset dy="4.14139"/>
<feGaussianBlur stdDeviation="2.07069"/>
<feComposite in2="hardAlpha" operator="out"/>
<feColorMatrix type="matrix" values="0 0 0 0 0.137255 0 0 0 0 0.266667 0 0 0 0 0.717647 0 0 0 0.2 0"/>
<feBlend mode="normal" in2="BackgroundImageFix" result="effect1_dropShadow_2068_28181"/>
<feBlend mode="normal" in="SourceGraphic" in2="effect1_dropShadow_2068_28181" result="shape"/>
</filter>
<filter id="filter6_d_2068_28181" x="17" y="29" width="32" height="33.2305" filterUnits="userSpaceOnUse" color-interpolation-filters="sRGB">
<feFlood flood-opacity="0" result="BackgroundImageFix"/>
<feColorMatrix in="SourceAlpha" type="matrix" values="0 0 0 0 0 0 0 0 0 0 0 0 0 0 0 0 0 0 127 0" result="hardAlpha"/>
<feOffset dy="4"/>
<feGaussianBlur stdDeviation="2"/>
<feComposite in2="hardAlpha" operator="out"/>
<feColorMatrix type="matrix" values="0 0 0 0 0 0 0 0 0 0 0 0 0 0 0 0 0 0 0.25 0"/>
<feBlend mode="normal" in2="BackgroundImageFix" result="effect1_dropShadow_2068_28181"/>
<feBlend mode="normal" in="SourceGraphic" in2="effect1_dropShadow_2068_28181" result="shape"/>
</filter>
<filter id="filter7_f_2068_28181" x="18.634" y="39.3801" width="24.0758" height="17.8414" filterUnits="userSpaceOnUse" color-interpolation-filters="sRGB">
<feFlood flood-opacity="0" result="BackgroundImageFix"/>
<feBlend mode="normal" in="SourceGraphic" in2="BackgroundImageFix" result="shape"/>
<feGaussianBlur stdDeviation="1.4955" result="effect1_foregroundBlur_2068_28181"/>
</filter>
<filter id="filter8_d_2068_28181" x="16.8586" y="29" width="32.2828" height="32.1285" filterUnits="userSpaceOnUse" color-interpolation-filters="sRGB">
<feFlood flood-opacity="0" result="BackgroundImageFix"/>
<feColorMatrix in="SourceAlpha" type="matrix" values="0 0 0 0 0 0 0 0 0 0 0 0 0 0 0 0 0 0 127 0" result="hardAlpha"/>
<feOffset dy="4.14139"/>
<feGaussianBlur stdDeviation="2.07069"/>
<feComposite in2="hardAlpha" operator="out"/>
<feColorMatrix type="matrix" values="0 0 0 0 0.137255 0 0 0 0 0.266667 0 0 0 0 0.717647 0 0 0 0.2 0"/>
<feBlend mode="normal" in2="BackgroundImageFix" result="effect1_dropShadow_2068_28181"/>
<feBlend mode="normal" in="SourceGraphic" in2="effect1_dropShadow_2068_28181" result="shape"/>
</filter>
<filter id="filter9_d_2068_28181" x="331" y="23" width="32" height="33.2305" filterUnits="userSpaceOnUse" color-interpolation-filters="sRGB">
<feFlood flood-opacity="0" result="BackgroundImageFix"/>
<feColorMatrix in="SourceAlpha" type="matrix" values="0 0 0 0 0 0 0 0 0 0 0 0 0 0 0 0 0 0 127 0" result="hardAlpha"/>
<feOffset dy="4"/>
<feGaussianBlur stdDeviation="2"/>
<feComposite in2="hardAlpha" operator="out"/>
<feColorMatrix type="matrix" values="0 0 0 0 0 0 0 0 0 0 0 0 0 0 0 0 0 0 0.25 0"/>
<feBlend mode="normal" in2="BackgroundImageFix" result="effect1_dropShadow_2068_28181"/>
<feBlend mode="normal" in="SourceGraphic" in2="effect1_dropShadow_2068_28181" result="shape"/>
</filter>
<filter id="filter10_f_2068_28181" x="332.634" y="33.3801" width="24.0758" height="17.8414" filterUnits="userSpaceOnUse" color-interpolation-filters="sRGB">
<feFlood flood-opacity="0" result="BackgroundImageFix"/>
<feBlend mode="normal" in="SourceGraphic" in2="BackgroundImageFix" result="shape"/>
<feGaussianBlur stdDeviation="1.4955" result="effect1_foregroundBlur_2068_28181"/>
</filter>
<filter id="filter11_d_2068_28181" x="330.859" y="23" width="32.2828" height="32.1285" filterUnits="userSpaceOnUse" color-interpolation-filters="sRGB">
<feFlood flood-opacity="0" result="BackgroundImageFix"/>
<feColorMatrix in="SourceAlpha" type="matrix" values="0 0 0 0 0 0 0 0 0 0 0 0 0 0 0 0 0 0 127 0" result="hardAlpha"/>
<feOffset dy="4.14139"/>
<feGaussianBlur stdDeviation="2.07069"/>
<feComposite in2="hardAlpha" operator="out"/>
<feColorMatrix type="matrix" values="0 0 0 0 0.137255 0 0 0 0 0.266667 0 0 0 0 0.717647 0 0 0 0.2 0"/>
<feBlend mode="normal" in2="BackgroundImageFix" result="effect1_dropShadow_2068_28181"/>
<feBlend mode="normal" in="SourceGraphic" in2="effect1_dropShadow_2068_28181" result="shape"/>
</filter>
<filter id="filter12_d_2068_28181" x="92" y="31" width="32" height="33.2305" filterUnits="userSpaceOnUse" color-interpolation-filters="sRGB">
<feFlood flood-opacity="0" result="BackgroundImageFix"/>
<feColorMatrix in="SourceAlpha" type="matrix" values="0 0 0 0 0 0 0 0 0 0 0 0 0 0 0 0 0 0 127 0" result="hardAlpha"/>
<feOffset dy="4"/>
<feGaussianBlur stdDeviation="2"/>
<feComposite in2="hardAlpha" operator="out"/>
<feColorMatrix type="matrix" values="0 0 0 0 0 0 0 0 0 0 0 0 0 0 0 0 0 0 0.25 0"/>
<feBlend mode="normal" in2="BackgroundImageFix" result="effect1_dropShadow_2068_28181"/>
<feBlend mode="normal" in="SourceGraphic" in2="effect1_dropShadow_2068_28181" result="shape"/>
</filter>
<filter id="filter13_f_2068_28181" x="93.634" y="41.3801" width="24.0758" height="17.8414" filterUnits="userSpaceOnUse" color-interpolation-filters="sRGB">
<feFlood flood-opacity="0" result="BackgroundImageFix"/>
<feBlend mode="normal" in="SourceGraphic" in2="BackgroundImageFix" result="shape"/>
<feGaussianBlur stdDeviation="1.4955" result="effect1_foregroundBlur_2068_28181"/>
</filter>
<filter id="filter14_d_2068_28181" x="91.8586" y="31" width="32.2828" height="32.1285" filterUnits="userSpaceOnUse" color-interpolation-filters="sRGB">
<feFlood flood-opacity="0" result="BackgroundImageFix"/>
<feColorMatrix in="SourceAlpha" type="matrix" values="0 0 0 0 0 0 0 0 0 0 0 0 0 0 0 0 0 0 127 0" result="hardAlpha"/>
<feOffset dy="4.14139"/>
<feGaussianBlur stdDeviation="2.07069"/>
<feComposite in2="hardAlpha" operator="out"/>
<feColorMatrix type="matrix" values="0 0 0 0 0.137255 0 0 0 0 0.266667 0 0 0 0 0.717647 0 0 0 0.2 0"/>
<feBlend mode="normal" in2="BackgroundImageFix" result="effect1_dropShadow_2068_28181"/>
<feBlend mode="normal" in="SourceGraphic" in2="effect1_dropShadow_2068_28181" result="shape"/>
</filter>
<filter id="filter15_d_2068_28181" x="390" y="38" width="32" height="33.2305" filterUnits="userSpaceOnUse" color-interpolation-filters="sRGB">
<feFlood flood-opacity="0" result="BackgroundImageFix"/>
<feColorMatrix in="SourceAlpha" type="matrix" values="0 0 0 0 0 0 0 0 0 0 0 0 0 0 0 0 0 0 127 0" result="hardAlpha"/>
<feOffset dy="4"/>
<feGaussianBlur stdDeviation="2"/>
<feComposite in2="hardAlpha" operator="out"/>
<feColorMatrix type="matrix" values="0 0 0 0 0 0 0 0 0 0 0 0 0 0 0 0 0 0 0.25 0"/>
<feBlend mode="normal" in2="BackgroundImageFix" result="effect1_dropShadow_2068_28181"/>
<feBlend mode="normal" in="SourceGraphic" in2="effect1_dropShadow_2068_28181" result="shape"/>
</filter>
<filter id="filter16_f_2068_28181" x="391.634" y="48.3801" width="24.0758" height="17.8414" filterUnits="userSpaceOnUse" color-interpolation-filters="sRGB">
<feFlood flood-opacity="0" result="BackgroundImageFix"/>
<feBlend mode="normal" in="SourceGraphic" in2="BackgroundImageFix" result="shape"/>
<feGaussianBlur stdDeviation="1.4955" result="effect1_foregroundBlur_2068_28181"/>
</filter>
<filter id="filter17_d_2068_28181" x="389.859" y="38" width="32.2828" height="32.1285" filterUnits="userSpaceOnUse" color-interpolation-filters="sRGB">
<feFlood flood-opacity="0" result="BackgroundImageFix"/>
<feColorMatrix in="SourceAlpha" type="matrix" values="0 0 0 0 0 0 0 0 0 0 0 0 0 0 0 0 0 0 127 0" result="hardAlpha"/>
<feOffset dy="4.14139"/>
<feGaussianBlur stdDeviation="2.07069"/>
<feComposite in2="hardAlpha" operator="out"/>
<feColorMatrix type="matrix" values="0 0 0 0 0.137255 0 0 0 0 0.266667 0 0 0 0 0.717647 0 0 0 0.2 0"/>
<feBlend mode="normal" in2="BackgroundImageFix" result="effect1_dropShadow_2068_28181"/>
<feBlend mode="normal" in="SourceGraphic" in2="effect1_dropShadow_2068_28181" result="shape"/>
</filter>
<filter id="filter18_d_2068_28181" x="331" y="72" width="32" height="33.2305" filterUnits="userSpaceOnUse" color-interpolation-filters="sRGB">
<feFlood flood-opacity="0" result="BackgroundImageFix"/>
<feColorMatrix in="SourceAlpha" type="matrix" values="0 0 0 0 0 0 0 0 0 0 0 0 0 0 0 0 0 0 127 0" result="hardAlpha"/>
<feOffset dy="4"/>
<feGaussianBlur stdDeviation="2"/>
<feComposite in2="hardAlpha" operator="out"/>
<feColorMatrix type="matrix" values="0 0 0 0 0 0 0 0 0 0 0 0 0 0 0 0 0 0 0.25 0"/>
<feBlend mode="normal" in2="BackgroundImageFix" result="effect1_dropShadow_2068_28181"/>
<feBlend mode="normal" in="SourceGraphic" in2="effect1_dropShadow_2068_28181" result="shape"/>
</filter>
<filter id="filter19_f_2068_28181" x="332.634" y="82.3801" width="24.0758" height="17.8414" filterUnits="userSpaceOnUse" color-interpolation-filters="sRGB">
<feFlood flood-opacity="0" result="BackgroundImageFix"/>
<feBlend mode="normal" in="SourceGraphic" in2="BackgroundImageFix" result="shape"/>
<feGaussianBlur stdDeviation="1.4955" result="effect1_foregroundBlur_2068_28181"/>
</filter>
<filter id="filter20_d_2068_28181" x="330.859" y="72" width="32.2828" height="32.1285" filterUnits="userSpaceOnUse" color-interpolation-filters="sRGB">
<feFlood flood-opacity="0" result="BackgroundImageFix"/>
<feColorMatrix in="SourceAlpha" type="matrix" values="0 0 0 0 0 0 0 0 0 0 0 0 0 0 0 0 0 0 127 0" result="hardAlpha"/>
<feOffset dy="4.14139"/>
<feGaussianBlur stdDeviation="2.07069"/>
<feComposite in2="hardAlpha" operator="out"/>
<feColorMatrix type="matrix" values="0 0 0 0 0.137255 0 0 0 0 0.266667 0 0 0 0 0.717647 0 0 0 0.2 0"/>
<feBlend mode="normal" in2="BackgroundImageFix" result="effect1_dropShadow_2068_28181"/>
<feBlend mode="normal" in="SourceGraphic" in2="effect1_dropShadow_2068_28181" result="shape"/>
</filter>
<filter id="filter21_d_2068_28181" x="142" y="66" width="32" height="33.2305" filterUnits="userSpaceOnUse" color-interpolation-filters="sRGB">
<feFlood flood-opacity="0" result="BackgroundImageFix"/>
<feColorMatrix in="SourceAlpha" type="matrix" values="0 0 0 0 0 0 0 0 0 0 0 0 0 0 0 0 0 0 127 0" result="hardAlpha"/>
<feOffset dy="4"/>
<feGaussianBlur stdDeviation="2"/>
<feComposite in2="hardAlpha" operator="out"/>
<feColorMatrix type="matrix" values="0 0 0 0 0 0 0 0 0 0 0 0 0 0 0 0 0 0 0.25 0"/>
<feBlend mode="normal" in2="BackgroundImageFix" result="effect1_dropShadow_2068_28181"/>
<feBlend mode="normal" in="SourceGraphic" in2="effect1_dropShadow_2068_28181" result="shape"/>
</filter>
<filter id="filter22_f_2068_28181" x="143.634" y="76.3801" width="24.0758" height="17.8414" filterUnits="userSpaceOnUse" color-interpolation-filters="sRGB">
<feFlood flood-opacity="0" result="BackgroundImageFix"/>
<feBlend mode="normal" in="SourceGraphic" in2="BackgroundImageFix" result="shape"/>
<feGaussianBlur stdDeviation="1.4955" result="effect1_foregroundBlur_2068_28181"/>
</filter>
<filter id="filter23_d_2068_28181" x="141.859" y="66" width="32.2828" height="32.1285" filterUnits="userSpaceOnUse" color-interpolation-filters="sRGB">
<feFlood flood-opacity="0" result="BackgroundImageFix"/>
<feColorMatrix in="SourceAlpha" type="matrix" values="0 0 0 0 0 0 0 0 0 0 0 0 0 0 0 0 0 0 127 0" result="hardAlpha"/>
<feOffset dy="4.14139"/>
<feGaussianBlur stdDeviation="2.07069"/>
<feComposite in2="hardAlpha" operator="out"/>
<feColorMatrix type="matrix" values="0 0 0 0 0.137255 0 0 0 0 0.266667 0 0 0 0 0.717647 0 0 0 0.2 0"/>
<feBlend mode="normal" in2="BackgroundImageFix" result="effect1_dropShadow_2068_28181"/>
<feBlend mode="normal" in="SourceGraphic" in2="effect1_dropShadow_2068_28181" result="shape"/>
</filter>
<filter id="filter24_d_2068_28181" x="262" y="97" width="32" height="33.2305" filterUnits="userSpaceOnUse" color-interpolation-filters="sRGB">
<feFlood flood-opacity="0" result="BackgroundImageFix"/>
<feColorMatrix in="SourceAlpha" type="matrix" values="0 0 0 0 0 0 0 0 0 0 0 0 0 0 0 0 0 0 127 0" result="hardAlpha"/>
<feOffset dy="4"/>
<feGaussianBlur stdDeviation="2"/>
<feComposite in2="hardAlpha" operator="out"/>
<feColorMatrix type="matrix" values="0 0 0 0 0 0 0 0 0 0 0 0 0 0 0 0 0 0 0.25 0"/>
<feBlend mode="normal" in2="BackgroundImageFix" result="effect1_dropShadow_2068_28181"/>
<feBlend mode="normal" in="SourceGraphic" in2="effect1_dropShadow_2068_28181" result="shape"/>
</filter>
<filter id="filter25_f_2068_28181" x="263.634" y="107.38" width="24.0758" height="17.8414" filterUnits="userSpaceOnUse" color-interpolation-filters="sRGB">
<feFlood flood-opacity="0" result="BackgroundImageFix"/>
<feBlend mode="normal" in="SourceGraphic" in2="BackgroundImageFix" result="shape"/>
<feGaussianBlur stdDeviation="1.4955" result="effect1_foregroundBlur_2068_28181"/>
</filter>
<filter id="filter26_d_2068_28181" x="261.859" y="97" width="32.2828" height="32.1285" filterUnits="userSpaceOnUse" color-interpolation-filters="sRGB">
<feFlood flood-opacity="0" result="BackgroundImageFix"/>
<feColorMatrix in="SourceAlpha" type="matrix" values="0 0 0 0 0 0 0 0 0 0 0 0 0 0 0 0 0 0 127 0" result="hardAlpha"/>
<feOffset dy="4.14139"/>
<feGaussianBlur stdDeviation="2.07069"/>
<feComposite in2="hardAlpha" operator="out"/>
<feColorMatrix type="matrix" values="0 0 0 0 0.137255 0 0 0 0 0.266667 0 0 0 0 0.717647 0 0 0 0.2 0"/>
<feBlend mode="normal" in2="BackgroundImageFix" result="effect1_dropShadow_2068_28181"/>
<feBlend mode="normal" in="SourceGraphic" in2="effect1_dropShadow_2068_28181" result="shape"/>
</filter>
<filter id="filter27_d_2068_28181" x="45" y="71" width="32" height="33.2305" filterUnits="userSpaceOnUse" color-interpolation-filters="sRGB">
<feFlood flood-opacity="0" result="BackgroundImageFix"/>
<feColorMatrix in="SourceAlpha" type="matrix" values="0 0 0 0 0 0 0 0 0 0 0 0 0 0 0 0 0 0 127 0" result="hardAlpha"/>
<feOffset dy="4"/>
<feGaussianBlur stdDeviation="2"/>
<feComposite in2="hardAlpha" operator="out"/>
<feColorMatrix type="matrix" values="0 0 0 0 0 0 0 0 0 0 0 0 0 0 0 0 0 0 0.25 0"/>
<feBlend mode="normal" in2="BackgroundImageFix" result="effect1_dropShadow_2068_28181"/>
<feBlend mode="normal" in="SourceGraphic" in2="effect1_dropShadow_2068_28181" result="shape"/>
</filter>
<filter id="filter28_f_2068_28181" x="46.634" y="81.3801" width="24.0758" height="17.8414" filterUnits="userSpaceOnUse" color-interpolation-filters="sRGB">
<feFlood flood-opacity="0" result="BackgroundImageFix"/>
<feBlend mode="normal" in="SourceGraphic" in2="BackgroundImageFix" result="shape"/>
<feGaussianBlur stdDeviation="1.4955" result="effect1_foregroundBlur_2068_28181"/>
</filter>
<filter id="filter29_d_2068_28181" x="44.8586" y="71" width="32.2828" height="32.1285" filterUnits="userSpaceOnUse" color-interpolation-filters="sRGB">
<feFlood flood-opacity="0" result="BackgroundImageFix"/>
<feColorMatrix in="SourceAlpha" type="matrix" values="0 0 0 0 0 0 0 0 0 0 0 0 0 0 0 0 0 0 127 0" result="hardAlpha"/>
<feOffset dy="4.14139"/>
<feGaussianBlur stdDeviation="2.07069"/>
<feComposite in2="hardAlpha" operator="out"/>
<feColorMatrix type="matrix" values="0 0 0 0 0.137255 0 0 0 0 0.266667 0 0 0 0 0.717647 0 0 0 0.2 0"/>
<feBlend mode="normal" in2="BackgroundImageFix" result="effect1_dropShadow_2068_28181"/>
<feBlend mode="normal" in="SourceGraphic" in2="effect1_dropShadow_2068_28181" result="shape"/>
</filter>
<filter id="filter30_d_2068_28181" x="338" y="129" width="32" height="33.2305" filterUnits="userSpaceOnUse" color-interpolation-filters="sRGB">
<feFlood flood-opacity="0" result="BackgroundImageFix"/>
<feColorMatrix in="SourceAlpha" type="matrix" values="0 0 0 0 0 0 0 0 0 0 0 0 0 0 0 0 0 0 127 0" result="hardAlpha"/>
<feOffset dy="4"/>
<feGaussianBlur stdDeviation="2"/>
<feComposite in2="hardAlpha" operator="out"/>
<feColorMatrix type="matrix" values="0 0 0 0 0 0 0 0 0 0 0 0 0 0 0 0 0 0 0.25 0"/>
<feBlend mode="normal" in2="BackgroundImageFix" result="effect1_dropShadow_2068_28181"/>
<feBlend mode="normal" in="SourceGraphic" in2="effect1_dropShadow_2068_28181" result="shape"/>
</filter>
<filter id="filter31_f_2068_28181" x="339.634" y="139.38" width="24.0758" height="17.8414" filterUnits="userSpaceOnUse" color-interpolation-filters="sRGB">
<feFlood flood-opacity="0" result="BackgroundImageFix"/>
<feBlend mode="normal" in="SourceGraphic" in2="BackgroundImageFix" result="shape"/>
<feGaussianBlur stdDeviation="1.4955" result="effect1_foregroundBlur_2068_28181"/>
</filter>
<filter id="filter32_d_2068_28181" x="337.859" y="129" width="32.2828" height="32.1285" filterUnits="userSpaceOnUse" color-interpolation-filters="sRGB">
<feFlood flood-opacity="0" result="BackgroundImageFix"/>
<feColorMatrix in="SourceAlpha" type="matrix" values="0 0 0 0 0 0 0 0 0 0 0 0 0 0 0 0 0 0 127 0" result="hardAlpha"/>
<feOffset dy="4.14139"/>
<feGaussianBlur stdDeviation="2.07069"/>
<feComposite in2="hardAlpha" operator="out"/>
<feColorMatrix type="matrix" values="0 0 0 0 0.137255 0 0 0 0 0.266667 0 0 0 0 0.717647 0 0 0 0.2 0"/>
<feBlend mode="normal" in2="BackgroundImageFix" result="effect1_dropShadow_2068_28181"/>
<feBlend mode="normal" in="SourceGraphic" in2="effect1_dropShadow_2068_28181" result="shape"/>
</filter>
<filter id="filter33_d_2068_28181" x="102" y="109" width="32" height="33.2305" filterUnits="userSpaceOnUse" color-interpolation-filters="sRGB">
<feFlood flood-opacity="0" result="BackgroundImageFix"/>
<feColorMatrix in="SourceAlpha" type="matrix" values="0 0 0 0 0 0 0 0 0 0 0 0 0 0 0 0 0 0 127 0" result="hardAlpha"/>
<feOffset dy="4"/>
<feGaussianBlur stdDeviation="2"/>
<feComposite in2="hardAlpha" operator="out"/>
<feColorMatrix type="matrix" values="0 0 0 0 0 0 0 0 0 0 0 0 0 0 0 0 0 0 0.25 0"/>
<feBlend mode="normal" in2="BackgroundImageFix" result="effect1_dropShadow_2068_28181"/>
<feBlend mode="normal" in="SourceGraphic" in2="effect1_dropShadow_2068_28181" result="shape"/>
</filter>
<filter id="filter34_f_2068_28181" x="103.634" y="119.38" width="24.0758" height="17.8414" filterUnits="userSpaceOnUse" color-interpolation-filters="sRGB">
<feFlood flood-opacity="0" result="BackgroundImageFix"/>
<feBlend mode="normal" in="SourceGraphic" in2="BackgroundImageFix" result="shape"/>
<feGaussianBlur stdDeviation="1.4955" result="effect1_foregroundBlur_2068_28181"/>
</filter>
<filter id="filter35_d_2068_28181" x="101.859" y="109" width="32.2828" height="32.1285" filterUnits="userSpaceOnUse" color-interpolation-filters="sRGB">
<feFlood flood-opacity="0" result="BackgroundImageFix"/>
<feColorMatrix in="SourceAlpha" type="matrix" values="0 0 0 0 0 0 0 0 0 0 0 0 0 0 0 0 0 0 127 0" result="hardAlpha"/>
<feOffset dy="4.14139"/>
<feGaussianBlur stdDeviation="2.07069"/>
<feComposite in2="hardAlpha" operator="out"/>
<feColorMatrix type="matrix" values="0 0 0 0 0.137255 0 0 0 0 0.266667 0 0 0 0 0.717647 0 0 0 0.2 0"/>
<feBlend mode="normal" in2="BackgroundImageFix" result="effect1_dropShadow_2068_28181"/>
<feBlend mode="normal" in="SourceGraphic" in2="effect1_dropShadow_2068_28181" result="shape"/>
</filter>
<linearGradient id="paint0_linear_2068_28181" x1="216" y1="266" x2="216" y2="306" gradientUnits="userSpaceOnUse">
<stop stop-color="#9D0932"/>
<stop offset="0.5" stop-color="#BC093A"/>
<stop offset="1" stop-color="#7D1431"/>
</linearGradient>
<linearGradient id="paint1_linear_2068_28181" x1="36" y1="250" x2="36" y2="271" gradientUnits="userSpaceOnUse">
<stop stop-color="#D70A42"/>
<stop offset="0.5" stop-color="#F94476"/>
<stop offset="1" stop-color="#AF0A37"/>
</linearGradient>
<linearGradient id="paint2_linear_2068_28181" x1="180" y1="250" x2="180" y2="271" gradientUnits="userSpaceOnUse">
<stop stop-color="#D70A42"/>
<stop offset="0.5" stop-color="#F94476"/>
<stop offset="1" stop-color="#AF0A37"/>
</linearGradient>
<linearGradient id="paint3_linear_2068_28181" x1="252" y1="250" x2="252" y2="271" gradientUnits="userSpaceOnUse">
<stop stop-color="#D70A42"/>
<stop offset="0.5" stop-color="#F94476"/>
<stop offset="1" stop-color="#AF0A37"/>
</linearGradient>
<linearGradient id="paint4_linear_2068_28181" x1="108" y1="250" x2="108" y2="271" gradientUnits="userSpaceOnUse">
<stop stop-color="#D70A42"/>
<stop offset="0.5" stop-color="#F94476"/>
<stop offset="1" stop-color="#AF0A37"/>
</linearGradient>
<linearGradient id="paint5_linear_2068_28181" x1="324" y1="250" x2="324" y2="271" gradientUnits="userSpaceOnUse">
<stop stop-color="#D70A42"/>
<stop offset="0.5" stop-color="#F94476"/>
<stop offset="1" stop-color="#AF0A37"/>
</linearGradient>
<linearGradient id="paint6_linear_2068_28181" x1="396" y1="250" x2="396" y2="271" gradientUnits="userSpaceOnUse">
<stop stop-color="#D70A42"/>
<stop offset="0.5" stop-color="#F94476"/>
<stop offset="1" stop-color="#AF0A37"/>
</linearGradient>
<linearGradient id="paint7_linear_2068_28181" x1="214.115" y1="92.5207" x2="220.569" y2="63.015" gradientUnits="userSpaceOnUse">
<stop stop-color="#000673"/>
<stop offset="0.279381" stop-color="#0044FF"/>
<stop offset="0.417393" stop-color="#004DFF"/>
<stop offset="0.545274" stop-color="#007AFF"/>
<stop offset="0.654" stop-color="#009EFF"/>
<stop offset="0.7859" stop-color="#00B7FF"/>
<stop offset="0.905" stop-color="#00C7FF"/>
<stop offset="1" stop-color="#62E0FF"/>
</linearGradient>
<linearGradient id="paint8_linear_2068_28181" x1="294.115" y1="73.5207" x2="300.569" y2="44.015" gradientUnits="userSpaceOnUse">
<stop stop-color="#000673"/>
<stop offset="0.279381" stop-color="#0044FF"/>
<stop offset="0.417393" stop-color="#004DFF"/>
<stop offset="0.545274" stop-color="#007AFF"/>
<stop offset="0.654" stop-color="#009EFF"/>
<stop offset="0.7859" stop-color="#00B7FF"/>
<stop offset="0.905" stop-color="#00C7FF"/>
<stop offset="1" stop-color="#62E0FF"/>
</linearGradient>
<linearGradient id="paint9_linear_2068_28181" x1="28.1147" y1="58.5207" x2="34.5687" y2="29.015" gradientUnits="userSpaceOnUse">
<stop stop-color="#000673"/>
<stop offset="0.279381" stop-color="#0044FF"/>
<stop offset="0.417393" stop-color="#004DFF"/>
<stop offset="0.545274" stop-color="#007AFF"/>
<stop offset="0.654" stop-color="#009EFF"/>
<stop offset="0.7859" stop-color="#00B7FF"/>
<stop offset="0.905" stop-color="#00C7FF"/>
<stop offset="1" stop-color="#62E0FF"/>
</linearGradient>
<linearGradient id="paint10_linear_2068_28181" x1="342.115" y1="52.5207" x2="348.569" y2="23.015" gradientUnits="userSpaceOnUse">
<stop stop-color="#000673"/>
<stop offset="0.279381" stop-color="#0044FF"/>
<stop offset="0.417393" stop-color="#004DFF"/>
<stop offset="0.545274" stop-color="#007AFF"/>
<stop offset="0.654" stop-color="#009EFF"/>
<stop offset="0.7859" stop-color="#00B7FF"/>
<stop offset="0.905" stop-color="#00C7FF"/>
<stop offset="1" stop-color="#62E0FF"/>
</linearGradient>
<linearGradient id="paint11_linear_2068_28181" x1="103.115" y1="60.5207" x2="109.569" y2="31.015" gradientUnits="userSpaceOnUse">
<stop stop-color="#000673"/>
<stop offset="0.279381" stop-color="#0044FF"/>
<stop offset="0.417393" stop-color="#004DFF"/>
<stop offset="0.545274" stop-color="#007AFF"/>
<stop offset="0.654" stop-color="#009EFF"/>
<stop offset="0.7859" stop-color="#00B7FF"/>
<stop offset="0.905" stop-color="#00C7FF"/>
<stop offset="1" stop-color="#62E0FF"/>
</linearGradient>
<linearGradient id="paint12_linear_2068_28181" x1="401.115" y1="67.5207" x2="407.569" y2="38.015" gradientUnits="userSpaceOnUse">
<stop stop-color="#000673"/>
<stop offset="0.279381" stop-color="#0044FF"/>
<stop offset="0.417393" stop-color="#004DFF"/>
<stop offset="0.545274" stop-color="#007AFF"/>
<stop offset="0.654" stop-color="#009EFF"/>
<stop offset="0.7859" stop-color="#00B7FF"/>
<stop offset="0.905" stop-color="#00C7FF"/>
<stop offset="1" stop-color="#62E0FF"/>
</linearGradient>
<linearGradient id="paint13_linear_2068_28181" x1="342.115" y1="101.521" x2="348.569" y2="72.015" gradientUnits="userSpaceOnUse">
<stop stop-color="#000673"/>
<stop offset="0.279381" stop-color="#0044FF"/>
<stop offset="0.417393" stop-color="#004DFF"/>
<stop offset="0.545274" stop-color="#007AFF"/>
<stop offset="0.654" stop-color="#009EFF"/>
<stop offset="0.7859" stop-color="#00B7FF"/>
<stop offset="0.905" stop-color="#00C7FF"/>
<stop offset="1" stop-color="#62E0FF"/>
</linearGradient>
<linearGradient id="paint14_linear_2068_28181" x1="153.115" y1="95.5207" x2="159.569" y2="66.015" gradientUnits="userSpaceOnUse">
<stop stop-color="#000673"/>
<stop offset="0.279381" stop-color="#0044FF"/>
<stop offset="0.417393" stop-color="#004DFF"/>
<stop offset="0.545274" stop-color="#007AFF"/>
<stop offset="0.654" stop-color="#009EFF"/>
<stop offset="0.7859" stop-color="#00B7FF"/>
<stop offset="0.905" stop-color="#00C7FF"/>
<stop offset="1" stop-color="#62E0FF"/>
</linearGradient>
<linearGradient id="paint15_linear_2068_28181" x1="273.115" y1="126.521" x2="279.569" y2="97.015" gradientUnits="userSpaceOnUse">
<stop stop-color="#000673"/>
<stop offset="0.279381" stop-color="#0044FF"/>
<stop offset="0.417393" stop-color="#004DFF"/>
<stop offset="0.545274" stop-color="#007AFF"/>
<stop offset="0.654" stop-color="#009EFF"/>
<stop offset="0.7859" stop-color="#00B7FF"/>
<stop offset="0.905" stop-color="#00C7FF"/>
<stop offset="1" stop-color="#62E0FF"/>
</linearGradient>
<linearGradient id="paint16_linear_2068_28181" x1="56.1147" y1="100.521" x2="62.5687" y2="71.015" gradientUnits="userSpaceOnUse">
<stop stop-color="#000673"/>
<stop offset="0.279381" stop-color="#0044FF"/>
<stop offset="0.417393" stop-color="#004DFF"/>
<stop offset="0.545274" stop-color="#007AFF"/>
<stop offset="0.654" stop-color="#009EFF"/>
<stop offset="0.7859" stop-color="#00B7FF"/>
<stop offset="0.905" stop-color="#00C7FF"/>
<stop offset="1" stop-color="#62E0FF"/>
</linearGradient>
<linearGradient id="paint17_linear_2068_28181" x1="349.115" y1="158.521" x2="355.569" y2="129.015" gradientUnits="userSpaceOnUse">
<stop stop-color="#000673"/>
<stop offset="0.279381" stop-color="#0044FF"/>
<stop offset="0.417393" stop-color="#004DFF"/>
<stop offset="0.545274" stop-color="#007AFF"/>
<stop offset="0.654" stop-color="#009EFF"/>
<stop offset="0.7859" stop-color="#00B7FF"/>
<stop offset="0.905" stop-color="#00C7FF"/>
<stop offset="1" stop-color="#62E0FF"/>
</linearGradient>
<linearGradient id="paint18_linear_2068_28181" x1="113.115" y1="138.521" x2="119.569" y2="109.015" gradientUnits="userSpaceOnUse">
<stop stop-color="#000673"/>
<stop offset="0.279381" stop-color="#0044FF"/>
<stop offset="0.417393" stop-color="#004DFF"/>
<stop offset="0.545274" stop-color="#007AFF"/>
<stop offset="0.654" stop-color="#009EFF"/>
<stop offset="0.7859" stop-color="#00B7FF"/>
<stop offset="0.905" stop-color="#00C7FF"/>
<stop offset="1" stop-color="#62E0FF"/>
</linearGradient>
<clipPath id="clip0_2068_28181">
<rect width="64" height="27" fill="white" transform="translate(362 180)"/>
</clipPath>
</defs>
</svg>
